<svg xmlns="http://www.w3.org/2000/svg" version="1.1" style="font-family:Lato, &#x27;Helvetica Neue&#x27;, Helvetica, Arial, sans-serif;font-size:18px;background-color:white;text-rendering:optimizeLegibility;-webkit-font-smoothing:antialiased" width="850" height="600"><g class="HeaderView"><g transform="translate(774, 15) scale(0.29)"><svg width="210" height="120" viewBox="0 0 210 120" fill="none" xmlns="http://www.w3.org/2000/svg">
    <g clip-path="url(#clip0)">
        <path d="M0 0H210V107.89H0V0Z" fill="#002147"/>
        <path d="M40.9788 32.248C40.9788 34.6093 40.6048 36.78 39.8568 38.76C39.1088 40.7253 38.0528 42.4193 36.6888 43.842C35.3248 45.2647 33.6821 46.372 31.7608 47.164C29.8541 47.9413 27.7421 48.33 25.4248 48.33C23.1074 48.33 20.9954 47.9413 19.0888 47.164C17.1821 46.372 15.5468 45.2647 14.1828 43.842C12.8188 42.4193 11.7628 40.7253 11.0148 38.76C10.2668 36.78 9.89277 34.6093 9.89277 32.248C9.89277 29.8867 10.2668 27.7233 11.0148 25.758C11.7628 23.778 12.8188 22.0767 14.1828 20.654C15.5468 19.2167 17.1821 18.102 19.0888 17.31C20.9954 16.518 23.1074 16.122 25.4248 16.122C27.7421 16.122 29.8541 16.518 31.7608 17.31C33.6821 18.102 35.3248 19.2167 36.6888 20.654C38.0528 22.0767 39.1088 23.778 39.8568 25.758C40.6048 27.7233 40.9788 29.8867 40.9788 32.248ZM36.6008 32.248C36.6008 30.312 36.3368 28.574 35.8088 27.034C35.2808 25.494 34.5328 24.196 33.5648 23.14C32.5968 22.0693 31.4234 21.248 30.0448 20.676C28.6661 20.104 27.1261 19.818 25.4248 19.818C23.7381 19.818 22.2054 20.104 20.8268 20.676C19.4481 21.248 18.2674 22.0693 17.2848 23.14C16.3168 24.196 15.5688 25.494 15.0408 27.034C14.5128 28.574 14.2488 30.312 14.2488 32.248C14.2488 34.184 14.5128 35.922 15.0408 37.462C15.5688 38.9873 16.3168 40.2853 17.2848 41.356C18.2674 42.412 19.4481 43.226 20.8268 43.798C22.2054 44.3553 23.7381 44.634 25.4248 44.634C27.1261 44.634 28.6661 44.3553 30.0448 43.798C31.4234 43.226 32.5968 42.412 33.5648 41.356C34.5328 40.2853 35.2808 38.9873 35.8088 37.462C36.3368 35.922 36.6008 34.184 36.6008 32.248ZM62.8234 25.714V48H60.4914C59.9341 48 59.5821 47.7287 59.4354 47.186L59.1274 44.788C58.1594 45.8587 57.0741 46.724 55.8714 47.384C54.6687 48.0293 53.2901 48.352 51.7354 48.352C50.5181 48.352 49.4401 48.154 48.5014 47.758C47.5774 47.3473 46.8001 46.7753 46.1694 46.042C45.5387 45.3087 45.0621 44.4213 44.7394 43.38C44.4314 42.3387 44.2774 41.1873 44.2774 39.926V25.714H48.1934V39.926C48.1934 41.6127 48.5747 42.918 49.3374 43.842C50.1147 44.766 51.2954 45.228 52.8794 45.228C54.0381 45.228 55.1161 44.9567 56.1134 44.414C57.1254 43.8567 58.0567 43.094 58.9074 42.126V25.714H62.8234ZM71.4305 30.18C72.1346 28.6547 72.9999 27.4667 74.0266 26.616C75.0532 25.7507 76.3072 25.318 77.7886 25.318C78.2579 25.318 78.7052 25.3693 79.1306 25.472C79.5706 25.5747 79.9592 25.736 80.2966 25.956L80.0106 28.882C79.9226 29.2487 79.7026 29.432 79.3506 29.432C79.1452 29.432 78.8446 29.388 78.4486 29.3C78.0526 29.212 77.6052 29.168 77.1066 29.168C76.4026 29.168 75.7719 29.2707 75.2146 29.476C74.6719 29.6813 74.1806 29.9893 73.7406 30.4C73.3152 30.796 72.9266 31.2947 72.5746 31.896C72.2372 32.4827 71.9292 33.1573 71.6506 33.92V48H67.7125V25.714H69.9566C70.3819 25.714 70.6752 25.7947 70.8366 25.956C70.9979 26.1173 71.1079 26.396 71.1666 26.792L71.4305 30.18ZM132.589 16.474L122.755 48H118.927L110.941 23.954C110.867 23.7193 110.794 23.47 110.721 23.206C110.662 22.942 110.596 22.6633 110.523 22.37C110.449 22.6633 110.376 22.942 110.303 23.206C110.23 23.47 110.156 23.7193 110.083 23.954L102.053 48H98.2248L88.3908 16.474H91.9328C92.3142 16.474 92.6295 16.5693 92.8788 16.76C93.1428 16.9507 93.3115 17.1927 93.3848 17.486L99.8968 39.398C99.9995 39.794 100.095 40.2193 100.183 40.674C100.285 41.1287 100.381 41.6127 100.469 42.126C100.571 41.6127 100.674 41.1287 100.777 40.674C100.894 40.2047 101.019 39.7793 101.151 39.398L108.565 17.486C108.653 17.2367 108.821 17.0093 109.071 16.804C109.335 16.584 109.65 16.474 110.017 16.474H111.249C111.63 16.474 111.938 16.5693 112.173 16.76C112.407 16.9507 112.583 17.1927 112.701 17.486L120.093 39.398C120.225 39.7793 120.342 40.19 120.445 40.63C120.562 41.07 120.672 41.532 120.775 42.016C120.848 41.532 120.929 41.07 121.017 40.63C121.105 40.19 121.2 39.7793 121.303 39.398L127.837 17.486C127.91 17.222 128.072 16.9873 128.321 16.782C128.585 16.5767 128.9 16.474 129.267 16.474H132.589ZM141.94 25.362C143.568 25.362 145.034 25.6333 146.34 26.176C147.645 26.7187 148.76 27.4887 149.684 28.486C150.608 29.4833 151.312 30.6933 151.796 32.116C152.294 33.524 152.544 35.1007 152.544 36.846C152.544 38.606 152.294 40.19 151.796 41.598C151.312 43.006 150.608 44.2087 149.684 45.206C148.76 46.2033 147.645 46.9733 146.34 47.516C145.034 48.044 143.568 48.308 141.94 48.308C140.297 48.308 138.816 48.044 137.496 47.516C136.19 46.9733 135.076 46.2033 134.152 45.206C133.228 44.2087 132.516 43.006 132.018 41.598C131.534 40.19 131.292 38.606 131.292 36.846C131.292 35.1007 131.534 33.524 132.018 32.116C132.516 30.6933 133.228 29.4833 134.152 28.486C135.076 27.4887 136.19 26.7187 137.496 26.176C138.816 25.6333 140.297 25.362 141.94 25.362ZM141.94 45.25C144.14 45.25 145.782 44.5167 146.868 43.05C147.953 41.5687 148.496 39.508 148.496 36.868C148.496 34.2133 147.953 32.1453 146.868 30.664C145.782 29.1827 144.14 28.442 141.94 28.442C140.825 28.442 139.85 28.6327 139.014 29.014C138.192 29.3953 137.503 29.9453 136.946 30.664C136.403 31.3827 135.992 32.27 135.714 33.326C135.45 34.3673 135.318 35.548 135.318 36.868C135.318 39.508 135.86 41.5687 136.946 43.05C138.046 44.5167 139.71 45.25 141.94 45.25ZM159.908 30.18C160.612 28.6547 161.478 27.4667 162.504 26.616C163.531 25.7507 164.785 25.318 166.266 25.318C166.736 25.318 167.183 25.3693 167.608 25.472C168.048 25.5747 168.437 25.736 168.774 25.956L168.488 28.882C168.4 29.2487 168.18 29.432 167.828 29.432C167.623 29.432 167.322 29.388 166.926 29.3C166.53 29.212 166.083 29.168 165.584 29.168C164.88 29.168 164.25 29.2707 163.692 29.476C163.15 29.6813 162.658 29.9893 162.218 30.4C161.793 30.796 161.404 31.2947 161.052 31.896C160.715 32.4827 160.407 33.1573 160.128 33.92V48H156.19V25.714H158.434C158.86 25.714 159.153 25.7947 159.314 25.956C159.476 26.1173 159.586 26.396 159.644 26.792L159.908 30.18ZM174.946 15.594V48H171.03V15.594H174.946ZM194.496 31.016C193.763 30.0333 192.971 29.3513 192.12 28.97C191.269 28.574 190.316 28.376 189.26 28.376C187.192 28.376 185.601 29.1167 184.486 30.598C183.371 32.0793 182.814 34.1913 182.814 36.934C182.814 38.386 182.939 39.6327 183.188 40.674C183.437 41.7007 183.804 42.5513 184.288 43.226C184.772 43.886 185.366 44.37 186.07 44.678C186.774 44.986 187.573 45.14 188.468 45.14C189.759 45.14 190.881 44.8467 191.834 44.26C192.802 43.6733 193.689 42.8447 194.496 41.774V31.016ZM198.412 15.594V48H196.08C195.523 48 195.171 47.7287 195.024 47.186L194.672 44.48C193.719 45.624 192.633 46.548 191.416 47.252C190.199 47.956 188.791 48.308 187.192 48.308C185.916 48.308 184.757 48.066 183.716 47.582C182.675 47.0833 181.787 46.3573 181.054 45.404C180.321 44.4507 179.756 43.2627 179.36 41.84C178.964 40.4173 178.766 38.782 178.766 36.934C178.766 35.2913 178.986 33.766 179.426 32.358C179.866 30.9353 180.497 29.7033 181.318 28.662C182.139 27.6207 183.144 26.8067 184.332 26.22C185.535 25.6187 186.884 25.318 188.38 25.318C189.744 25.318 190.91 25.5527 191.878 26.022C192.861 26.4767 193.733 27.1147 194.496 27.936V15.594H198.412ZM46.6139 70.714V93H42.6979V70.714H46.6139ZM47.4499 63.718C47.4499 64.0993 47.3692 64.4587 47.2079 64.796C47.0612 65.1187 46.8559 65.412 46.5919 65.676C46.3425 65.9253 46.0419 66.1233 45.6899 66.27C45.3525 66.4167 44.9932 66.49 44.6119 66.49C44.2305 66.49 43.8712 66.4167 43.5339 66.27C43.2112 66.1233 42.9252 65.9253 42.6759 65.676C42.4265 65.412 42.2285 65.1187 42.0819 64.796C41.9352 64.4587 41.8619 64.0993 41.8619 63.718C41.8619 63.3367 41.9352 62.9773 42.0819 62.64C42.2285 62.288 42.4265 61.9873 42.6759 61.738C42.9252 61.474 43.2112 61.2687 43.5339 61.122C43.8712 60.9753 44.2305 60.902 44.6119 60.902C44.9932 60.902 45.3525 60.9753 45.6899 61.122C46.0419 61.2687 46.3425 61.474 46.5919 61.738C46.8559 61.9873 47.0612 62.288 47.2079 62.64C47.3692 62.9773 47.4499 63.3367 47.4499 63.718ZM55.4242 73.948C55.9082 73.4053 56.4215 72.914 56.9642 72.474C57.5068 72.034 58.0788 71.66 58.6802 71.352C59.2962 71.0293 59.9415 70.7873 60.6162 70.626C61.3055 70.45 62.0462 70.362 62.8382 70.362C64.0555 70.362 65.1262 70.5673 66.0502 70.978C66.9888 71.374 67.7662 71.946 68.3822 72.694C69.0128 73.4273 69.4895 74.3147 69.8122 75.356C70.1348 76.3973 70.2962 77.5487 70.2962 78.81V93H66.3582V78.81C66.3582 77.1233 65.9695 75.818 65.1922 74.894C64.4295 73.9553 63.2635 73.486 61.6942 73.486C60.5355 73.486 59.4502 73.7647 58.4382 74.322C57.4408 74.8793 56.5168 75.6347 55.6662 76.588V93H51.7282V70.714H54.0822C54.6395 70.714 54.9842 70.9853 55.1162 71.528L55.4242 73.948ZM113.129 77.248C113.129 79.6093 112.755 81.758 112.007 83.694C111.259 85.63 110.203 87.2873 108.839 88.666C107.475 90.0447 105.832 91.1153 103.911 91.878C102.004 92.626 99.8925 93 97.5751 93H85.8051V61.474H97.5751C99.8925 61.474 102.004 61.8553 103.911 62.618C105.832 63.366 107.475 64.4367 108.839 65.83C110.203 67.2087 111.259 68.866 112.007 70.802C112.755 72.738 113.129 74.8867 113.129 77.248ZM108.751 77.248C108.751 75.312 108.487 73.5813 107.959 72.056C107.431 70.5307 106.683 69.24 105.715 68.184C104.747 67.128 103.574 66.3213 102.195 65.764C100.816 65.2067 99.2765 64.928 97.5751 64.928H90.0731V89.546H97.5751C99.2765 89.546 100.816 89.2673 102.195 88.71C103.574 88.1527 104.747 87.3533 105.715 86.312C106.683 85.256 107.431 83.9653 107.959 82.44C108.487 80.9147 108.751 79.184 108.751 77.248ZM128.553 82.968C126.749 83.0267 125.209 83.1733 123.933 83.408C122.672 83.628 121.638 83.9213 120.831 84.288C120.039 84.6547 119.46 85.0873 119.093 85.586C118.741 86.0847 118.565 86.642 118.565 87.258C118.565 87.8447 118.661 88.3507 118.851 88.776C119.042 89.2013 119.299 89.5533 119.621 89.832C119.959 90.096 120.347 90.294 120.787 90.426C121.242 90.5433 121.726 90.602 122.239 90.602C122.929 90.602 123.559 90.536 124.131 90.404C124.703 90.2573 125.239 90.052 125.737 89.788C126.251 89.524 126.735 89.2087 127.189 88.842C127.659 88.4753 128.113 88.0573 128.553 87.588V82.968ZM115.903 73.86C117.135 72.672 118.463 71.7847 119.885 71.198C121.308 70.6113 122.885 70.318 124.615 70.318C125.862 70.318 126.969 70.5233 127.937 70.934C128.905 71.3447 129.719 71.9167 130.379 72.65C131.039 73.3833 131.538 74.2707 131.875 75.312C132.213 76.3533 132.381 77.4973 132.381 78.744V93H130.643C130.262 93 129.969 92.9413 129.763 92.824C129.558 92.692 129.397 92.4427 129.279 92.076L128.839 89.964C128.253 90.5067 127.681 90.9907 127.123 91.416C126.566 91.8267 125.979 92.1787 125.363 92.472C124.747 92.7507 124.087 92.9633 123.383 93.11C122.694 93.2713 121.924 93.352 121.073 93.352C120.208 93.352 119.394 93.2347 118.631 93C117.869 92.7507 117.201 92.384 116.629 91.9C116.072 91.416 115.625 90.8073 115.287 90.074C114.965 89.326 114.803 88.446 114.803 87.434C114.803 86.554 115.045 85.7107 115.529 84.904C116.013 84.0827 116.798 83.3567 117.883 82.726C118.969 82.0953 120.384 81.582 122.129 81.186C123.875 80.7753 126.016 80.5407 128.553 80.482V78.744C128.553 77.0133 128.179 75.708 127.431 74.828C126.683 73.9333 125.591 73.486 124.153 73.486C123.185 73.486 122.371 73.6107 121.711 73.86C121.066 74.0947 120.501 74.366 120.017 74.674C119.548 74.9673 119.137 75.2387 118.785 75.488C118.448 75.7227 118.111 75.84 117.773 75.84C117.509 75.84 117.282 75.774 117.091 75.642C116.901 75.4953 116.739 75.3193 116.607 75.114L115.903 73.86ZM143.568 93.352C141.808 93.352 140.451 92.8607 139.498 91.878C138.559 90.8953 138.09 89.48 138.09 87.632V73.992H135.406C135.171 73.992 134.973 73.926 134.812 73.794C134.65 73.6473 134.57 73.4273 134.57 73.134V71.572L138.222 71.11L139.124 64.224C139.168 64.004 139.263 63.828 139.41 63.696C139.571 63.5493 139.776 63.476 140.026 63.476H142.006V71.154H148.452V73.992H142.006V87.368C142.006 88.3067 142.233 89.0033 142.688 89.458C143.142 89.9127 143.729 90.14 144.448 90.14C144.858 90.14 145.21 90.0887 145.504 89.986C145.812 89.8687 146.076 89.744 146.296 89.612C146.516 89.48 146.699 89.3627 146.846 89.26C147.007 89.1427 147.146 89.084 147.264 89.084C147.469 89.084 147.652 89.2087 147.814 89.458L148.958 91.328C148.283 91.9587 147.469 92.4573 146.516 92.824C145.562 93.176 144.58 93.352 143.568 93.352ZM163.253 82.968C161.449 83.0267 159.909 83.1733 158.633 83.408C157.372 83.628 156.338 83.9213 155.531 84.288C154.739 84.6547 154.16 85.0873 153.793 85.586C153.441 86.0847 153.265 86.642 153.265 87.258C153.265 87.8447 153.36 88.3507 153.551 88.776C153.742 89.2013 153.998 89.5533 154.321 89.832C154.658 90.096 155.047 90.294 155.487 90.426C155.942 90.5433 156.426 90.602 156.939 90.602C157.628 90.602 158.259 90.536 158.831 90.404C159.403 90.2573 159.938 90.052 160.437 89.788C160.95 89.524 161.434 89.2087 161.889 88.842C162.358 88.4753 162.813 88.0573 163.253 87.588V82.968ZM150.603 73.86C151.835 72.672 153.162 71.7847 154.585 71.198C156.008 70.6113 157.584 70.318 159.315 70.318C160.562 70.318 161.669 70.5233 162.637 70.934C163.605 71.3447 164.419 71.9167 165.079 72.65C165.739 73.3833 166.238 74.2707 166.575 75.312C166.912 76.3533 167.081 77.4973 167.081 78.744V93H165.343C164.962 93 164.668 92.9413 164.463 92.824C164.258 92.692 164.096 92.4427 163.979 92.076L163.539 89.964C162.952 90.5067 162.38 90.9907 161.823 91.416C161.266 91.8267 160.679 92.1787 160.063 92.472C159.447 92.7507 158.787 92.9633 158.083 93.11C157.394 93.2713 156.624 93.352 155.773 93.352C154.908 93.352 154.094 93.2347 153.331 93C152.568 92.7507 151.901 92.384 151.329 91.9C150.772 91.416 150.324 90.8073 149.987 90.074C149.664 89.326 149.503 88.446 149.503 87.434C149.503 86.554 149.745 85.7107 150.229 84.904C150.713 84.0827 151.498 83.3567 152.583 82.726C153.668 82.0953 155.084 81.582 156.829 81.186C158.574 80.7753 160.716 80.5407 163.253 80.482V78.744C163.253 77.0133 162.879 75.708 162.131 74.828C161.383 73.9333 160.29 73.486 158.853 73.486C157.885 73.486 157.071 73.6107 156.411 73.86C155.766 74.0947 155.201 74.366 154.717 74.674C154.248 74.9673 153.837 75.2387 153.485 75.488C153.148 75.7227 152.81 75.84 152.473 75.84C152.209 75.84 151.982 75.774 151.791 75.642C151.6 75.4953 151.439 75.3193 151.307 75.114L150.603 73.86Z" fill="white"/>
        <rect y="106.789" width="210" height="13.211" fill="#D42B21"/>
    </g>
    <defs>
        <clipPath id="clip0">
            <rect width="210" height="120" fill="white"/>
        </clipPath>
    </defs>
</svg></g><a href="https://ourworldindata.org/grapher/co2-concentration-long-term" style="font-family:&quot;Playfair Display&quot;, Georgia, &quot;Times New Roman&quot;, serif" target="_blank"><text font-size="25.20" x="15.0" y="35.2" fill="#555"><tspan x="15" y="35.160000000000004">Atmospheric CO₂ concentration</tspan></text></a><text font-size="14.40" x="15.0" y="55.7" fill="#666"><tspan x="15" y="55.72">Global average long-term atmospheric concentration of carbon dioxide (CO₂), measured in parts per million (ppm).</tspan><tspan x="15" y="71.56">Long-term trends in CO₂ concentrations can be measured at high-resolution using preserved air samples from ice</tspan><tspan x="15" y="87.4">cores.</tspan></text></g><g class="LineChart"><defs><clipPath id="boundsClip-2"><rect x="73.342" y="0" width="830" height="893.8"></rect></clipPath></defs><g class="AxisBoxView"><g class="HorizontalAxis"><text x="83.3" y="556.5" fill="#666" text-anchor="middle" font-size="16.2">803719 BCE</text><text x="255.6" y="556.5" fill="#666" text-anchor="middle" font-size="16.2">600000 BCE</text><text x="424.8" y="556.5" fill="#666" text-anchor="middle" font-size="16.2">400000 BCE</text><text x="593.9" y="556.5" fill="#666" text-anchor="middle" font-size="16.2">200000 BCE</text><text x="764.8" y="556.5" fill="#666" text-anchor="middle" font-size="16.2">2018</text></g><g class="VerticalAxis"><text x="78.34" y="535.3" fill="#666" dominant-baseline="middle" text-anchor="end" font-size="16.2">0 ppm</text><text x="78.34" y="483.2" fill="#666" dominant-baseline="middle" text-anchor="end" font-size="16.2">50 ppm</text><text x="78.34" y="431.1" fill="#666" dominant-baseline="middle" text-anchor="end" font-size="16.2">100 ppm</text><text x="78.34" y="379" fill="#666" dominant-baseline="middle" text-anchor="end" font-size="16.2">150 ppm</text><text x="78.34" y="326.9" fill="#666" dominant-baseline="middle" text-anchor="end" font-size="16.2">200 ppm</text><text x="78.34" y="274.8" fill="#666" dominant-baseline="middle" text-anchor="end" font-size="16.2">250 ppm</text><text x="78.34" y="222.7" fill="#666" dominant-baseline="middle" text-anchor="end" font-size="16.2">300 ppm</text><text x="78.34" y="170.6" fill="#666" dominant-baseline="middle" text-anchor="end" font-size="16.2">350 ppm</text><text x="78.34" y="118.5" fill="#666" dominant-baseline="middle" text-anchor="end" font-size="16.2">400 ppm</text></g><g class="AxisGridLines"><line x1="83.34" y1="535.3" x2="764.76" y2="535.3" stroke="#ccc"></line><line x1="83.34" y1="483.2" x2="764.76" y2="483.2" stroke="#ddd" stroke-dasharray="3,2"></line><line x1="83.34" y1="431.1" x2="764.76" y2="431.1" stroke="#ddd" stroke-dasharray="3,2"></line><line x1="83.34" y1="379" x2="764.76" y2="379" stroke="#ddd" stroke-dasharray="3,2"></line><line x1="83.34" y1="326.9" x2="764.76" y2="326.9" stroke="#ddd" stroke-dasharray="3,2"></line><line x1="83.34" y1="274.8" x2="764.76" y2="274.8" stroke="#ddd" stroke-dasharray="3,2"></line><line x1="83.34" y1="222.7" x2="764.76" y2="222.7" stroke="#ddd" stroke-dasharray="3,2"></line><line x1="83.34" y1="170.6" x2="764.76" y2="170.6" stroke="#ddd" stroke-dasharray="3,2"></line><line x1="83.34" y1="118.5" x2="764.76" y2="118.5" stroke="#ddd" stroke-dasharray="3,2"></line></g></g><g clip-path="url(#boundsClip-2)"><g class="HeightedLegend" style="cursor:default"><g class="legendMark"><rect x="764.765" y="109.60000000000001" width="70.235" height="13.5" fill="#fff" opacity="0"></rect><text font-size="13.50" x="768.8" y="120.4" fill="#3360a9"><tspan x="768.765" y="120.4">World</tspan></text></g></g><g class="Lines"><rect x="83" y="110" width="681" height="426" fill="rgba(255,255,255,0)" opacity="0"></rect><g class="key-World_0"><path stroke="#3360a9" stroke-linecap="round" d="M83 319L84 325L84 322L85 319L85 324L85 324L86 328L87 328L89 326L90 329L91 328L92 322L92 318L93 308L94 313L94 312L95 301L96 295L96 298L97 290L97 287L98 268L98 267L99 258L99 255L100 260L100 262L100 265L101 269L101 263L102 270L103 267L104 273L104 267L104 272L105 270L106 270L106 270L107 272L107 278L108 276L108 280L109 283L109 287L110 286L110 288L111 279L111 281L111 278L111 281L112 286L112 291L112 289L113 296L113 295L114 300L114 304L115 302L115 301L116 295L117 293L117 296L117 292L118 303L118 302L119 306L119 312L120 312L120 310L121 303L122 300L122 301L122 303L122 299L123 303L123 308L124 313L125 317L125 318L126 324L126 328L127 323L128 332L128 330L129 334L130 336L130 335L131 337L131 339L132 340L132 339L133 340L133 337L134 340L135 338L136 339L136 340L137 339L137 338L138 343L139 344L139 342L140 342L140 336L141 322L141 320L142 313L142 309L143 308L143 312L144 310L144 316L145 319L145 318L145 313L146 315L146 316L147 316L147 314L148 317L148 315L149 316L149 316L150 315L151 315L151 315L152 316L152 312L153 314L153 314L154 310L154 307L155 307L155 309L156 314L156 326L157 334L158 337L158 329L159 316L159 313L160 298L160 303L161 299L161 298L161 302L162 302L163 302L163 300L163 301L164 299L164 295L165 294L165 291L166 292L166 292L166 292L167 286L167 289L167 289L168 288L168 288L168 290L168 291L169 292L169 293L170 293L170 292L170 295L170 293L171 293L171 295L171 293L172 290L172 289L172 289L173 288L173 286L173 286L173 286L174 283L174 284L174 284L175 285L175 287L175 286L176 287L176 287L176 287L176 289L177 285L177 286L177 285L178 286L178 288L178 281L179 287L179 286L179 282L180 286L180 287L180 286L181 289L181 290L181 293L181 294L182 295L182 298L183 298L183 299L183 303L184 303L184 303L184 305L185 305L185 304L186 302L186 300L186 303L187 306L187 307L188 305L188 298L189 300L189 292L189 292L190 293L190 297L191 306L191 308L192 310L192 306L193 303L194 310L194 315L195 322L195 326L196 330L196 332L197 330L197 332L198 336L198 340L199 347L199 350L200 354L201 353L202 347L202 348L203 340L203 335L203 336L204 336L204 333L205 338L206 336L206 333L206 339L207 342L207 340L208 344L209 336L209 338L209 334L210 327L210 327L211 332L212 334L213 341L213 340L214 334L215 338L216 331L216 334L217 335L218 337L219 331L220 332L221 336L222 336L223 337L224 339L225 332L226 333L228 332L228 331L229 334L230 331L231 326L232 326L232 321L233 327L234 321L235 311L235 297L236 290L237 287L238 286L238 281L239 282L240 279L241 277L242 272L243 272L244 272L245 272L246 268L247 266L248 265L248 267L249 267L250 265L251 270L252 276L253 281L254 286L255 287L256 293L257 296L258 300L259 307L259 310L260 310L261 305L261 293L262 287L262 287L263 292L263 296L264 300L265 288L265 282L266 277L266 275L267 279L267 287L268 291L268 300L269 302L271 316L271 320L272 317L272 311L273 307L273 301L273 295L274 289L274 281L274 281L274 273L275 272L275 276L276 274L276 273L277 273L277 272L278 272L278 276L278 273L279 273L279 273L279 276L280 276L280 277L280 279L281 275L281 273L281 275L282 273L282 273L282 273L283 275L283 273L283 275L284 272L284 272L284 271L284 272L285 270L285 271L285 270L286 271L286 273L286 272L286 272L287 273L287 277L288 279L288 279L288 283L289 285L289 291L289 291L290 294L290 294L290 297L291 295L291 295L291 296L292 291L292 287L293 285L293 279L293 274L293 281L293 276L294 282L294 284L294 292L295 299L295 302L296 302L296 306L297 304L297 300L297 304L297 304L298 306L298 311L299 313L299 318L300 324L301 322L301 317L302 317L303 316L304 318L305 323L306 322L307 315L308 313L308 320L309 322L310 328L311 327L312 337L312 333L313 332L313 327L314 322L314 315L314 312L315 305L316 306L316 305L317 303L318 301L318 298L319 295L320 292L320 290L321 289L322 283L324 282L324 280L325 277L326 280L326 280L327 279L327 278L328 282L329 284L329 286L330 287L331 283L331 290L332 289L333 292L334 285L334 288L335 287L336 289L336 290L337 292L338 291L338 293L339 294L340 294L340 295L341 298L342 295L342 295L343 293L344 289L344 289L345 288L346 287L346 287L347 286L347 286L348 281L349 278L349 282L350 283L350 276L350 272L351 284L351 283L352 288L352 294L353 293L353 293L354 294L355 294L355 294L356 298L357 303L357 302L358 307L359 305L359 294L359 289L360 286L361 289L361 293L362 292L363 284L364 279L364 281L365 281L365 293L365 297L366 307L366 311L367 320L367 321L368 323L369 322L370 318L371 317L371 322L372 327L373 333L374 337L375 332L376 324L376 318L377 324L377 322L378 328L378 335L379 334L380 329L381 325L382 322L383 326L384 325L385 318L385 323L387 326L388 328L389 325L391 326L392 325L393 327L395 319L396 317L397 319L398 315L399 299L400 306L402 283L402 277L403 273L404 269L404 259L404 254L405 253L405 256L406 256L407 253L407 258L408 255L409 250L409 253L410 250L411 249L411 252L412 250L413 252L413 247L414 252L414 259L415 249L417 240L418 241L418 249L419 239L420 238L421 244L422 243L423 247L424 248L425 240L426 240L427 247L428 247L431 264L432 250L432 265L433 266L435 279L437 278L438 286L440 285L441 299L444 296L446 301L447 312L449 327L451 325L453 320L456 326L458 342L460 341L461 334L464 317L465 317L466 310L467 305L469 306L471 315L472 322L473 322L474 326L475 275L477 291L477 286L478 283L479 269L479 253L480 245L480 238L481 246L481 224L482 235L482 234L482 241L483 251L483 251L484 252L485 259L486 249L486 252L487 254L487 258L488 260L489 258L489 264L490 264L491 264L491 267L493 276L493 269L494 292L495 280L496 273L497 251L497 278L498 267L498 268L499 273L500 283L500 286L501 288L502 292L503 300L503 298L504 300L505 280L505 276L506 275L507 285L508 285L508 289L509 286L510 289L511 295L512 302L512 309L514 313L515 314L516 320L516 321L517 319L518 309L519 306L519 291L521 295L521 295L522 294L522 299L523 298L524 294L526 302L527 311L527 315L528 322L529 325L530 334L531 329L532 333L533 333L534 337L535 343L536 328L536 333L537 340L538 339L539 315L540 327L541 298L542 312L543 318L544 321L544 317L545 323L547 323L547 325L548 328L549 332L550 330L551 332L552 312L552 327L554 312L556 307L557 295L557 289L558 275L558 272L558 261L559 243L560 245L560 261L561 265L562 272L562 278L562 279L563 279L563 286L564 282L564 278L564 284L565 273L565 280L568 284L568 292L569 293L571 301L571 292L572 291L572 290L573 311L573 324L575 321L576 318L577 320L577 310L578 312L579 285L580 280L581 274L581 273L581 277L582 283L582 285L583 284L584 274L584 282L585 267L585 286L586 278L586 273L586 278L587 281L587 280L588 283L588 285L588 296L589 288L589 287L589 294L589 296L590 300L590 297L591 293L591 294L591 281L592 277L593 286L594 274L597 283L597 284L598 299L599 306L600 299L601 308L602 306L603 294L604 294L605 316L607 323L609 327L610 329L611 308L611 313L613 319L614 337L615 338L615 337L616 331L617 329L619 329L621 330L622 344L623 341L624 337L624 336L626 331L626 322L629 340L630 342L631 338L633 338L634 331L635 328L637 324L637 324L638 325L639 331L641 334L642 331L643 333L644 331L646 334L647 328L648 328L649 323L651 314L652 303L652 301L653 298L653 293L654 284L654 274L654 273L655 264L656 256L656 253L656 238L656 243L656 248L657 247L657 248L657 249L658 251L658 249L659 247L659 248L660 242L660 248L660 249L661 244L661 245L661 245L662 247L662 244L663 247L663 255L664 249L664 256L664 246L665 249L666 250L666 250L667 251L667 247L668 249L668 256L669 264L669 259L669 261L669 268L670 267L671 278L672 281L672 281L673 289L674 285L675 280L675 284L675 267L676 276L676 283L677 286L677 277L677 285L678 288L679 285L679 280L680 277L680 279L681 282L681 282L682 285L682 283L683 279L684 279L684 282L685 283L685 287L686 290L686 293L687 292L687 295L688 294L688 296L689 297L689 298L690 302L690 308L691 302L691 305L692 303L692 297L693 291L693 287L693 282L694 274L694 278L695 279L695 284L695 286L696 291L696 295L696 292L697 295L697 291L698 296L698 298L698 302L699 299L699 301L700 294L700 287L700 286L701 275L701 275L701 282L702 284L702 294L702 293L703 295L703 293L703 293L704 286L704 288L704 290L705 301L705 306L706 311L706 315L706 321L707 323L707 327L707 323L708 326L708 319L709 322L709 326L709 329L709 318L710 328L710 325L710 323L711 327L711 330L711 330L712 327L712 324L712 324L712 320L713 316L713 316L713 319L713 313L714 309L714 314L714 310L714 303L715 299L715 294L715 303L716 302L716 302L716 309L716 311L717 314L717 319L717 316L718 312L718 318L718 309L719 312L719 308L719 306L719 305L720 303L720 302L720 305L720 305L720 307L721 313L721 311L721 315L722 319L722 319L722 320L722 322L723 323L723 323L723 327L723 325L724 326L724 320L724 321L724 323L725 322L725 319L725 316L725 316L725 312L725 310L726 308L726 307L726 304L726 303L726 309L726 312L726 312L727 319L727 315L727 316L727 314L727 322L727 320L727 325L727 322L728 325L728 324L728 323L728 325L728 324L728 322L729 320L729 322L729 326L729 327L729 326L730 321L730 323L730 325L730 326L730 326L730 325L731 326L731 329L731 334L731 334L731 335L731 329L731 333L731 334L731 330L731 331L731 327L731 329L731 336L731 322L731 319L732 317L732 317L732 318L732 319L732 322L732 325L732 321L732 321L732 321L732 320L732 322L732 322L732 318L732 316L732 319L732 316L732 319L732 319L732 320L732 318L733 312L733 315L733 312L733 314L733 314L733 312L733 317L733 314L733 320L733 317L733 318L733 319L733 316L733 320L734 323L734 324L734 323L734 323L734 322L734 328L734 327L734 325L734 323L734 328L734 324L735 326L735 325L735 325L735 325L735 325L735 326L735 327L735 326L735 323L735 322L735 321L735 323L735 328L735 324L735 324L735 330L735 328L735 327L735 327L736 327L736 331L736 331L736 331L736 332L736 331L736 332L736 331L736 333L736 333L736 332L736 331L736 327L736 329L736 330L736 330L737 329L737 331L737 330L737 328L737 331L737 332L737 333L737 333L737 333L737 332L737 335L738 330L738 331L738 333L738 334L738 335L738 334L738 333L738 337L738 339L738 339L739 337L739 340L739 345L739 343L739 342L739 341L739 339L739 339L739 336L739 336L740 336L740 336L740 338L740 338L740 338L740 338L740 336L740 335L740 339L740 335L740 334L740 334L740 335L740 333L740 333L741 334L741 334L741 338L741 338L741 335L741 336L741 335L741 337L741 338L741 338L741 338L741 337L741 340L741 338L741 337L741 335L741 336L741 335L741 336L741 336L742 335L742 337L742 332L742 341L742 340L742 339L742 341L742 342L742 342L742 342L743 344L743 343L743 343L743 341L743 344L743 345L743 347L744 347L744 341L744 343L745 345L745 339L745 341L745 334L745 329L745 339L745 337L745 337L745 338L745 341L746 337L746 339L746 342L746 343L746 340L746 340L746 336L746 340L746 337L746 339L747 342L747 340L747 337L747 339L747 336L747 335L747 340L747 333L747 337L748 337L748 333L748 331L748 334L748 336L748 338L748 336L748 336L749 336L749 335L749 339L749 339L749 334L749 336L749 333L749 339L749 340L749 340L749 340L749 339L749 339L749 339L749 340L749 338L749 339L749 339L749 342L749 338L749 343L749 339L749 339L749 340L750 340L750 338L750 339L750 339L750 336L750 337L750 338L750 336L750 340L750 336L750 337L750 338L750 336L750 333L750 334L750 331L750 330L750 335L750 335L750 336L750 336L750 334L750 337L750 335L750 334L750 337L750 333L750 331L750 329L750 328L750 325L750 322L750 324L750 322L751 321L751 316L751 313L751 318L751 318L751 319L751 312L751 309L751 315L751 313L751 317L751 315L751 311L751 314L751 312L751 314L751 312L751 308L751 306L751 303L751 298L751 305L751 300L751 301L751 304L751 302L751 301L751 304L751 302L751 302L751 302L751 302L751 304L751 301L751 304L752 303L752 302L752 303L752 301L752 300L752 297L752 298L752 300L752 297L752 295L752 298L752 297L752 296L752 291L752 297L752 300L752 297L752 298L752 296L752 297L752 297L752 297L752 297L752 295L752 298L752 293L752 292L752 298L752 297L752 299L752 298L752 297L752 298L752 298L752 301L752 298L752 294L752 291L752 295L752 298L752 297L752 288L752 291L752 292L752 291L752 287L752 285L752 287L752 288L752 290L752 287L752 285L752 285L752 283L752 290L752 282L752 284L752 283L753 287L753 284L753 283L753 283L753 285L753 287L753 283L753 290L753 286L753 285L753 289L753 287L753 286L753 286L753 289L753 293L753 284L753 287L753 290L753 285L753 287L753 286L753 284L753 284L753 287L753 281L753 290L753 285L753 288L754 289L754 285L754 286L754 288L754 291L754 284L754 287L754 286L754 291L754 286L754 288L754 285L754 287L754 287L754 286L754 284L754 286L754 283L754 283L754 284L754 285L754 278L754 284L754 281L754 283L754 281L754 278L754 277L754 278L754 281L754 275L754 278L754 281L754 279L754 279L754 277L754 279L754 282L754 281L754 278L754 274L754 276L754 275L754 276L754 276L754 275L754 274L754 273L754 274L755 272L755 269L755 274L755 272L755 276L755 277L755 269L755 271L755 276L755 266L755 269L755 273L755 271L755 270L755 267L755 266L755 266L755 266L755 269L755 269L755 271L755 270L755 277L755 267L755 258L755 263L755 264L755 257L755 262L755 257L755 255L755 256L755 257L755 255L755 255L755 254L755 260L755 256L755 259L755 259L755 260L755 260L755 259L755 259L755 259L755 259L755 256L756 259L756 258L756 257L756 257L756 259L756 258L756 261L756 260L756 260L756 260L757 260L757 261L757 263L757 264L757 259L757 260L757 261L757 262L757 265L757 264L757 263L757 265L757 263L758 264L758 263L758 266L758 265L758 265L758 264L758 265L758 265L758 264L758 264L758 266L758 264L759 261L759 262L759 267L759 266L759 261L759 262L759 265L759 263L759 263L759 262L759 261L760 259L760 257L760 264L760 259L760 258L760 256L760 259L760 259L760 256L760 254L760 255L761 255L761 253L761 252L761 254L761 255L761 253L761 252L761 251L761 252L761 252L761 249L761 248L762 252L762 251L762 250L762 249L762 250L762 251L762 247L762 249L762 247L762 249L762 248L762 245L763 250L763 246L763 246L763 247L763 247L763 247L763 246L763 247L763 246L763 246L763 246L763 246L763 246L763 246L763 243L763 245L763 243L763 243L763 242L763 246L763 246L763 244L763 244L764 247L764 247L764 247L764 245L764 248L764 246L764 244L764 245L764 247L764 244L764 244L764 244L764 245L764 244L764 243L764 246L764 245L764 244L764 244L764 243L764 243L764 241L764 240L764 241L764 239L764 239L764 239L764 240L764 241L764 241L764 245L764 242L764 239L764 245L764 243L764 244L764 244L764 241L764 243L764 240L764 239L764 240L764 242L764 241L764 242L764 244L764 249L764 253L764 250L764 247L765 246L765 247L765 247L765 246L765 246L765 245L765 247L765 246L765 246L765 247L765 247L765 246L765 243L765 251L765 242L765 242L765 241L765 239L765 242L765 237L765 239L765 239L765 240L765 242L765 240L765 240L765 240L765 236L765 239L765 236L765 235L765 238L765 240L765 237L765 236L765 238L765 237L765 238L765 234L765 236L765 237L765 232L765 234L765 235L765 231L765 234L765 235L765 229L765 231L765 232L765 228L765 228L765 230L765 227L765 229L765 227L765 227L765 224L765 224L765 221L765 225L765 224L765 221L765 222L765 221L765 219L765 218L765 221L765 218L765 218L765 216L765 217L765 217L765 214L765 215L765 214L765 216L765 214L765 215L765 211L765 211L765 212L765 213L765 210L765 210L765 211L765 210L765 211L765 211L765 213L765 209L765 210L765 209L765 207L765 207L765 207L765 207L765 206L765 205L765 204L765 204L765 203L765 202L765 202L765 200L765 200L765 199L765 197L765 196L765 195L765 194L765 192L765 191L765 190L765 189L765 187L765 186L765 184L765 182L765 181L765 180L765 178L765 176L765 175L765 173L765 171L765 169L765 167L765 166L765 165L765 164L765 163L765 161L765 159L765 157L765 156L765 153L765 151L765 150L765 149L765 146L765 144L765 142L765 140L765 137L765 135L765 134L765 132L765 129L765 127L765 125L765 122L765 120L765 118L765 114L765 112L765 110" fill="none" stroke-width="1.5"></path></g></g></g></g><g class="SourcesFooter" style="fill:#777"><g class="clickable" style="fill:#777"><text font-size="12.60" x="15.0" y="581.6"><tspan x="15" y="581.58">Source: EPICA Dome C CO₂ record (2015) &amp; NOAA (2018) </tspan></text></g><text font-size="12.60" x="431.9" y="581.6"><tspan x="431.926" y="581.58"><a target='_blank' style='fill: #777;' href='https://ourworldindata.org/co2-and-other-greenhouse-gas-emissions'>OurWorldInData.org/co2-and-other-greenhouse-gas-emissions</a> • <a style="fill: #777;" class="cclogo" href="http://creativecommons.org/licenses/by/4.0/deed.en_US" target="_blank">CC BY</a></tspan></text></g></svg>