<?xml version="1.0" encoding="utf-8" standalone="no"?>
<!DOCTYPE svg PUBLIC "-//W3C//DTD SVG 1.1//EN"
  "http://www.w3.org/Graphics/SVG/1.1/DTD/svg11.dtd">
<!-- Created with matplotlib (http://matplotlib.org/) -->
<svg height="312.261149pt" version="1.1" viewBox="0 0 506.531767 312.261149" width="506.531767pt" xmlns="http://www.w3.org/2000/svg" xmlns:xlink="http://www.w3.org/1999/xlink">
 <defs>
  <style type="text/css">
*{stroke-linecap:butt;stroke-linejoin:round;}
  </style>
 </defs>
 <g id="figure_1">
  <g id="patch_1">
   <path d="M 0 312.261149 
L 506.531767 312.261149 
L 506.531767 0 
L 0 0 
z
" style="fill:#ffffff;"/>
  </g>
  <g id="axes_1">
   <g id="patch_2">
    <path d="M 79.195438 234.64 
L 413.995438 234.64 
L 413.995438 17.2 
L 79.195438 17.2 
z
" style="fill:#ffffff;"/>
   </g>
   <g id="matplotlib.axis_1">
    <g id="xtick_1">
     <g id="line2d_1">
      <path clip-path="url(#p79ad068c28)" d="M 99.147113 234.64 
L 99.147113 17.2 
" style="fill:none;opacity:0.9;stroke:#cccccc;stroke-linecap:round;"/>
     </g>
     <g id="text_1">
      <!-- 750 -->
      <defs>
       <path d="M 4.734375 62.203125 
L 4.734375 70.65625 
L 51.078125 70.65625 
L 51.078125 63.8125 
Q 44.234375 56.546875 37.515625 44.484375 
Q 30.8125 32.421875 27.15625 19.671875 
Q 24.515625 10.6875 23.78125 0 
L 14.75 0 
Q 14.890625 8.453125 18.0625 20.40625 
Q 21.234375 32.375 27.171875 43.484375 
Q 33.109375 54.59375 39.796875 62.203125 
z
" id="ArialMT-37"/>
       <path d="M 4.15625 18.75 
L 13.375 19.53125 
Q 14.40625 12.796875 18.140625 9.390625 
Q 21.875 6 27.15625 6 
Q 33.5 6 37.890625 10.78125 
Q 42.28125 15.578125 42.28125 23.484375 
Q 42.28125 31 38.0625 35.34375 
Q 33.84375 39.703125 27 39.703125 
Q 22.75 39.703125 19.328125 37.765625 
Q 15.921875 35.84375 13.96875 32.765625 
L 5.71875 33.84375 
L 12.640625 70.609375 
L 48.25 70.609375 
L 48.25 62.203125 
L 19.671875 62.203125 
L 15.828125 42.96875 
Q 22.265625 47.46875 29.34375 47.46875 
Q 38.71875 47.46875 45.15625 40.96875 
Q 51.609375 34.46875 51.609375 24.265625 
Q 51.609375 14.546875 45.953125 7.46875 
Q 39.0625 -1.21875 27.15625 -1.21875 
Q 17.390625 -1.21875 11.203125 4.25 
Q 5.03125 9.71875 4.15625 18.75 
z
" id="ArialMT-35"/>
       <path d="M 4.15625 35.296875 
Q 4.15625 48 6.765625 55.734375 
Q 9.375 63.484375 14.515625 67.671875 
Q 19.671875 71.875 27.484375 71.875 
Q 33.25 71.875 37.59375 69.546875 
Q 41.9375 67.234375 44.765625 62.859375 
Q 47.609375 58.5 49.21875 52.21875 
Q 50.828125 45.953125 50.828125 35.296875 
Q 50.828125 22.703125 48.234375 14.96875 
Q 45.65625 7.234375 40.5 3 
Q 35.359375 -1.21875 27.484375 -1.21875 
Q 17.140625 -1.21875 11.234375 6.203125 
Q 4.15625 15.140625 4.15625 35.296875 
z
M 13.1875 35.296875 
Q 13.1875 17.671875 17.3125 11.828125 
Q 21.4375 6 27.484375 6 
Q 33.546875 6 37.671875 11.859375 
Q 41.796875 17.71875 41.796875 35.296875 
Q 41.796875 52.984375 37.671875 58.78125 
Q 33.546875 64.59375 27.390625 64.59375 
Q 21.34375 64.59375 17.71875 59.46875 
Q 13.1875 52.9375 13.1875 35.296875 
z
" id="ArialMT-30"/>
      </defs>
      <g style="fill:#262626;" transform="translate(87.469144 258.160938)scale(0.14 -0.14)">
       <use xlink:href="#ArialMT-37"/>
       <use x="55.615234" xlink:href="#ArialMT-35"/>
       <use x="111.230469" xlink:href="#ArialMT-30"/>
      </g>
     </g>
    </g>
    <g id="xtick_2">
     <g id="line2d_2">
      <path clip-path="url(#p79ad068c28)" d="M 158.315782 234.64 
L 158.315782 17.2 
" style="fill:none;opacity:0.9;stroke:#cccccc;stroke-linecap:round;"/>
     </g>
     <g id="text_2">
      <!-- 1000 -->
      <defs>
       <path d="M 37.25 0 
L 28.46875 0 
L 28.46875 56 
Q 25.296875 52.984375 20.140625 49.953125 
Q 14.984375 46.921875 10.890625 45.40625 
L 10.890625 53.90625 
Q 18.265625 57.375 23.78125 62.296875 
Q 29.296875 67.234375 31.59375 71.875 
L 37.25 71.875 
z
" id="ArialMT-31"/>
      </defs>
      <g style="fill:#262626;" transform="translate(142.745157 258.160938)scale(0.14 -0.14)">
       <use xlink:href="#ArialMT-31"/>
       <use x="55.615234" xlink:href="#ArialMT-30"/>
       <use x="111.230469" xlink:href="#ArialMT-30"/>
       <use x="166.845703" xlink:href="#ArialMT-30"/>
      </g>
     </g>
    </g>
    <g id="xtick_3">
     <g id="line2d_3">
      <path clip-path="url(#p79ad068c28)" d="M 217.484452 234.64 
L 217.484452 17.2 
" style="fill:none;opacity:0.9;stroke:#cccccc;stroke-linecap:round;"/>
     </g>
     <g id="text_3">
      <!-- 1250 -->
      <defs>
       <path d="M 50.34375 8.453125 
L 50.34375 0 
L 3.03125 0 
Q 2.9375 3.171875 4.046875 6.109375 
Q 5.859375 10.9375 9.828125 15.625 
Q 13.8125 20.3125 21.34375 26.46875 
Q 33.015625 36.03125 37.109375 41.625 
Q 41.21875 47.21875 41.21875 52.203125 
Q 41.21875 57.421875 37.46875 61 
Q 33.734375 64.59375 27.734375 64.59375 
Q 21.390625 64.59375 17.578125 60.78125 
Q 13.765625 56.984375 13.71875 50.25 
L 4.6875 51.171875 
Q 5.609375 61.28125 11.65625 66.578125 
Q 17.71875 71.875 27.9375 71.875 
Q 38.234375 71.875 44.234375 66.15625 
Q 50.25 60.453125 50.25 52 
Q 50.25 47.703125 48.484375 43.546875 
Q 46.734375 39.40625 42.65625 34.8125 
Q 38.578125 30.21875 29.109375 22.21875 
Q 21.1875 15.578125 18.9375 13.203125 
Q 16.703125 10.84375 15.234375 8.453125 
z
" id="ArialMT-32"/>
      </defs>
      <g style="fill:#262626;" transform="translate(201.913827 258.160938)scale(0.14 -0.14)">
       <use xlink:href="#ArialMT-31"/>
       <use x="55.615234" xlink:href="#ArialMT-32"/>
       <use x="111.230469" xlink:href="#ArialMT-35"/>
       <use x="166.845703" xlink:href="#ArialMT-30"/>
      </g>
     </g>
    </g>
    <g id="xtick_4">
     <g id="line2d_4">
      <path clip-path="url(#p79ad068c28)" d="M 276.653122 234.64 
L 276.653122 17.2 
" style="fill:none;opacity:0.9;stroke:#cccccc;stroke-linecap:round;"/>
     </g>
     <g id="text_4">
      <!-- 1500 -->
      <g style="fill:#262626;" transform="translate(261.082497 258.160938)scale(0.14 -0.14)">
       <use xlink:href="#ArialMT-31"/>
       <use x="55.615234" xlink:href="#ArialMT-35"/>
       <use x="111.230469" xlink:href="#ArialMT-30"/>
       <use x="166.845703" xlink:href="#ArialMT-30"/>
      </g>
     </g>
    </g>
    <g id="xtick_5">
     <g id="line2d_5">
      <path clip-path="url(#p79ad068c28)" d="M 335.821791 234.64 
L 335.821791 17.2 
" style="fill:none;opacity:0.9;stroke:#cccccc;stroke-linecap:round;"/>
     </g>
     <g id="text_5">
      <!-- 1750 -->
      <g style="fill:#262626;" transform="translate(320.251166 258.160938)scale(0.14 -0.14)">
       <use xlink:href="#ArialMT-31"/>
       <use x="55.615234" xlink:href="#ArialMT-37"/>
       <use x="111.230469" xlink:href="#ArialMT-35"/>
       <use x="166.845703" xlink:href="#ArialMT-30"/>
      </g>
     </g>
    </g>
    <g id="xtick_6">
     <g id="line2d_6">
      <path clip-path="url(#p79ad068c28)" d="M 394.990461 234.64 
L 394.990461 17.2 
" style="fill:none;opacity:0.9;stroke:#cccccc;stroke-linecap:round;"/>
     </g>
     <g id="text_6">
      <!-- 2000 -->
      <g style="fill:#262626;" transform="translate(379.419836 258.160938)scale(0.14 -0.14)">
       <use xlink:href="#ArialMT-32"/>
       <use x="55.615234" xlink:href="#ArialMT-30"/>
       <use x="111.230469" xlink:href="#ArialMT-30"/>
       <use x="166.845703" xlink:href="#ArialMT-30"/>
      </g>
     </g>
    </g>
    <g id="text_7">
     <!-- Year -->
     <defs>
      <path d="M 27.875 0 
L 27.875 30.328125 
L 0.296875 71.578125 
L 11.8125 71.578125 
L 25.921875 50 
Q 29.828125 43.953125 33.203125 37.890625 
Q 36.421875 43.5 41.015625 50.53125 
L 54.890625 71.578125 
L 65.921875 71.578125 
L 37.359375 30.328125 
L 37.359375 0 
z
" id="ArialMT-59"/>
      <path d="M 42.09375 16.703125 
L 51.171875 15.578125 
Q 49.03125 7.625 43.21875 3.21875 
Q 37.40625 -1.171875 28.375 -1.171875 
Q 17 -1.171875 10.328125 5.828125 
Q 3.65625 12.84375 3.65625 25.484375 
Q 3.65625 38.578125 10.390625 45.796875 
Q 17.140625 53.03125 27.875 53.03125 
Q 38.28125 53.03125 44.875 45.953125 
Q 51.46875 38.875 51.46875 26.03125 
Q 51.46875 25.25 51.421875 23.6875 
L 12.75 23.6875 
Q 13.234375 15.140625 17.578125 10.59375 
Q 21.921875 6.0625 28.421875 6.0625 
Q 33.25 6.0625 36.671875 8.59375 
Q 40.09375 11.140625 42.09375 16.703125 
z
M 13.234375 30.90625 
L 42.1875 30.90625 
Q 41.609375 37.453125 38.875 40.71875 
Q 34.671875 45.796875 27.984375 45.796875 
Q 21.921875 45.796875 17.796875 41.75 
Q 13.671875 37.703125 13.234375 30.90625 
z
" id="ArialMT-65"/>
      <path d="M 40.4375 6.390625 
Q 35.546875 2.25 31.03125 0.53125 
Q 26.515625 -1.171875 21.34375 -1.171875 
Q 12.796875 -1.171875 8.203125 3 
Q 3.609375 7.171875 3.609375 13.671875 
Q 3.609375 17.484375 5.34375 20.625 
Q 7.078125 23.78125 9.890625 25.6875 
Q 12.703125 27.59375 16.21875 28.5625 
Q 18.796875 29.25 24.03125 29.890625 
Q 34.671875 31.15625 39.703125 32.90625 
Q 39.75 34.71875 39.75 35.203125 
Q 39.75 40.578125 37.25 42.78125 
Q 33.890625 45.75 27.25 45.75 
Q 21.046875 45.75 18.09375 43.578125 
Q 15.140625 41.40625 13.71875 35.890625 
L 5.125 37.0625 
Q 6.296875 42.578125 8.984375 45.96875 
Q 11.671875 49.359375 16.75 51.1875 
Q 21.828125 53.03125 28.515625 53.03125 
Q 35.15625 53.03125 39.296875 51.46875 
Q 43.453125 49.90625 45.40625 47.53125 
Q 47.359375 45.171875 48.140625 41.546875 
Q 48.578125 39.3125 48.578125 33.453125 
L 48.578125 21.734375 
Q 48.578125 9.46875 49.140625 6.21875 
Q 49.703125 2.984375 51.375 0 
L 42.1875 0 
Q 40.828125 2.734375 40.4375 6.390625 
z
M 39.703125 26.03125 
Q 34.90625 24.078125 25.34375 22.703125 
Q 19.921875 21.921875 17.671875 20.9375 
Q 15.4375 19.96875 14.203125 18.09375 
Q 12.984375 16.21875 12.984375 13.921875 
Q 12.984375 10.40625 15.640625 8.0625 
Q 18.3125 5.71875 23.4375 5.71875 
Q 28.515625 5.71875 32.46875 7.9375 
Q 36.421875 10.15625 38.28125 14.015625 
Q 39.703125 17 39.703125 22.796875 
z
" id="ArialMT-61"/>
      <path d="M 6.5 0 
L 6.5 51.859375 
L 14.40625 51.859375 
L 14.40625 44 
Q 17.4375 49.515625 20 51.265625 
Q 22.5625 53.03125 25.640625 53.03125 
Q 30.078125 53.03125 34.671875 50.203125 
L 31.640625 42.046875 
Q 28.421875 43.953125 25.203125 43.953125 
Q 22.3125 43.953125 20.015625 42.21875 
Q 17.71875 40.484375 16.75 37.40625 
Q 15.28125 32.71875 15.28125 27.15625 
L 15.28125 0 
z
" id="ArialMT-72"/>
     </defs>
     <g style="fill:#262626;" transform="translate(228.864875 276.968563)scale(0.168 -0.168)">
      <use xlink:href="#ArialMT-59"/>
      <use x="66.558594" xlink:href="#ArialMT-65"/>
      <use x="122.173828" xlink:href="#ArialMT-61"/>
      <use x="177.789062" xlink:href="#ArialMT-72"/>
     </g>
    </g>
   </g>
   <g id="matplotlib.axis_2">
    <g id="ytick_1">
     <g id="line2d_7">
      <path clip-path="url(#p79ad068c28)" d="M 79.195438 226.779121 
L 413.995438 226.779121 
" style="fill:none;opacity:0.9;stroke:#cccccc;stroke-linecap:round;"/>
     </g>
     <g id="text_8">
      <!-- 0 -->
      <g style="fill:#262626;" transform="translate(57.910125 231.78959)scale(0.14 -0.14)">
       <use xlink:href="#ArialMT-30"/>
      </g>
     </g>
    </g>
    <g id="ytick_2">
     <g id="line2d_8">
      <path clip-path="url(#p79ad068c28)" d="M 79.195438 189.111388 
L 413.995438 189.111388 
" style="fill:none;opacity:0.9;stroke:#cccccc;stroke-linecap:round;"/>
     </g>
     <g id="text_9">
      <!-- 10000 -->
      <g style="fill:#262626;" transform="translate(26.768875 194.121857)scale(0.14 -0.14)">
       <use xlink:href="#ArialMT-31"/>
       <use x="55.615234" xlink:href="#ArialMT-30"/>
       <use x="111.230469" xlink:href="#ArialMT-30"/>
       <use x="166.845703" xlink:href="#ArialMT-30"/>
       <use x="222.460938" xlink:href="#ArialMT-30"/>
      </g>
     </g>
    </g>
    <g id="ytick_3">
     <g id="line2d_9">
      <path clip-path="url(#p79ad068c28)" d="M 79.195438 151.443656 
L 413.995438 151.443656 
" style="fill:none;opacity:0.9;stroke:#cccccc;stroke-linecap:round;"/>
     </g>
     <g id="text_10">
      <!-- 20000 -->
      <g style="fill:#262626;" transform="translate(26.768875 156.454124)scale(0.14 -0.14)">
       <use xlink:href="#ArialMT-32"/>
       <use x="55.615234" xlink:href="#ArialMT-30"/>
       <use x="111.230469" xlink:href="#ArialMT-30"/>
       <use x="166.845703" xlink:href="#ArialMT-30"/>
       <use x="222.460938" xlink:href="#ArialMT-30"/>
      </g>
     </g>
    </g>
    <g id="ytick_4">
     <g id="line2d_10">
      <path clip-path="url(#p79ad068c28)" d="M 79.195438 113.775923 
L 413.995438 113.775923 
" style="fill:none;opacity:0.9;stroke:#cccccc;stroke-linecap:round;"/>
     </g>
     <g id="text_11">
      <!-- 30000 -->
      <defs>
       <path d="M 4.203125 18.890625 
L 12.984375 20.0625 
Q 14.5 12.59375 18.140625 9.296875 
Q 21.78125 6 27 6 
Q 33.203125 6 37.46875 10.296875 
Q 41.75 14.59375 41.75 20.953125 
Q 41.75 27 37.796875 30.921875 
Q 33.84375 34.859375 27.734375 34.859375 
Q 25.25 34.859375 21.53125 33.890625 
L 22.515625 41.609375 
Q 23.390625 41.5 23.921875 41.5 
Q 29.546875 41.5 34.03125 44.421875 
Q 38.53125 47.359375 38.53125 53.46875 
Q 38.53125 58.296875 35.25 61.46875 
Q 31.984375 64.65625 26.8125 64.65625 
Q 21.6875 64.65625 18.265625 61.421875 
Q 14.84375 58.203125 13.875 51.765625 
L 5.078125 53.328125 
Q 6.6875 62.15625 12.390625 67.015625 
Q 18.109375 71.875 26.609375 71.875 
Q 32.46875 71.875 37.390625 69.359375 
Q 42.328125 66.84375 44.9375 62.5 
Q 47.5625 58.15625 47.5625 53.265625 
Q 47.5625 48.640625 45.0625 44.828125 
Q 42.578125 41.015625 37.703125 38.765625 
Q 44.046875 37.3125 47.5625 32.6875 
Q 51.078125 28.078125 51.078125 21.140625 
Q 51.078125 11.765625 44.234375 5.25 
Q 37.40625 -1.265625 26.953125 -1.265625 
Q 17.53125 -1.265625 11.296875 4.34375 
Q 5.078125 9.96875 4.203125 18.890625 
z
" id="ArialMT-33"/>
      </defs>
      <g style="fill:#262626;" transform="translate(26.768875 118.786392)scale(0.14 -0.14)">
       <use xlink:href="#ArialMT-33"/>
       <use x="55.615234" xlink:href="#ArialMT-30"/>
       <use x="111.230469" xlink:href="#ArialMT-30"/>
       <use x="166.845703" xlink:href="#ArialMT-30"/>
       <use x="222.460938" xlink:href="#ArialMT-30"/>
      </g>
     </g>
    </g>
    <g id="ytick_5">
     <g id="line2d_11">
      <path clip-path="url(#p79ad068c28)" d="M 79.195438 76.10819 
L 413.995438 76.10819 
" style="fill:none;opacity:0.9;stroke:#cccccc;stroke-linecap:round;"/>
     </g>
     <g id="text_12">
      <!-- 40000 -->
      <defs>
       <path d="M 32.328125 0 
L 32.328125 17.140625 
L 1.265625 17.140625 
L 1.265625 25.203125 
L 33.9375 71.578125 
L 41.109375 71.578125 
L 41.109375 25.203125 
L 50.78125 25.203125 
L 50.78125 17.140625 
L 41.109375 17.140625 
L 41.109375 0 
z
M 32.328125 25.203125 
L 32.328125 57.46875 
L 9.90625 25.203125 
z
" id="ArialMT-34"/>
      </defs>
      <g style="fill:#262626;" transform="translate(26.768875 81.118659)scale(0.14 -0.14)">
       <use xlink:href="#ArialMT-34"/>
       <use x="55.615234" xlink:href="#ArialMT-30"/>
       <use x="111.230469" xlink:href="#ArialMT-30"/>
       <use x="166.845703" xlink:href="#ArialMT-30"/>
       <use x="222.460938" xlink:href="#ArialMT-30"/>
      </g>
     </g>
    </g>
    <g id="ytick_6">
     <g id="line2d_12">
      <path clip-path="url(#p79ad068c28)" d="M 79.195438 38.440458 
L 413.995438 38.440458 
" style="fill:none;opacity:0.9;stroke:#cccccc;stroke-linecap:round;"/>
     </g>
     <g id="text_13">
      <!-- 50000 -->
      <g style="fill:#262626;" transform="translate(26.768875 43.450927)scale(0.14 -0.14)">
       <use xlink:href="#ArialMT-35"/>
       <use x="55.615234" xlink:href="#ArialMT-30"/>
       <use x="111.230469" xlink:href="#ArialMT-30"/>
       <use x="166.845703" xlink:href="#ArialMT-30"/>
       <use x="222.460938" xlink:href="#ArialMT-30"/>
      </g>
     </g>
    </g>
    <g id="text_14">
     <!-- GDP per capita -->
     <defs>
      <path d="M 41.21875 28.078125 
L 41.21875 36.46875 
L 71.53125 36.53125 
L 71.53125 9.96875 
Q 64.546875 4.390625 57.125 1.578125 
Q 49.703125 -1.21875 41.890625 -1.21875 
Q 31.34375 -1.21875 22.71875 3.296875 
Q 14.109375 7.8125 9.71875 16.359375 
Q 5.328125 24.90625 5.328125 35.453125 
Q 5.328125 45.90625 9.6875 54.953125 
Q 14.0625 64.015625 22.265625 68.40625 
Q 30.46875 72.796875 41.15625 72.796875 
Q 48.921875 72.796875 55.1875 70.28125 
Q 61.46875 67.78125 65.03125 63.28125 
Q 68.609375 58.796875 70.453125 51.5625 
L 61.921875 49.21875 
Q 60.296875 54.6875 57.90625 57.8125 
Q 55.515625 60.9375 51.0625 62.8125 
Q 46.625 64.703125 41.21875 64.703125 
Q 34.71875 64.703125 29.984375 62.71875 
Q 25.25 60.75 22.34375 57.515625 
Q 19.4375 54.296875 17.828125 50.4375 
Q 15.09375 43.796875 15.09375 36.03125 
Q 15.09375 26.46875 18.390625 20.015625 
Q 21.6875 13.578125 27.984375 10.453125 
Q 34.28125 7.328125 41.359375 7.328125 
Q 47.515625 7.328125 53.375 9.6875 
Q 59.234375 12.0625 62.25 14.75 
L 62.25 28.078125 
z
" id="ArialMT-47"/>
      <path d="M 7.71875 0 
L 7.71875 71.578125 
L 32.375 71.578125 
Q 40.71875 71.578125 45.125 70.5625 
Q 51.265625 69.140625 55.609375 65.4375 
Q 61.28125 60.640625 64.078125 53.1875 
Q 66.890625 45.75 66.890625 36.1875 
Q 66.890625 28.03125 64.984375 21.734375 
Q 63.09375 15.4375 60.109375 11.296875 
Q 57.125 7.171875 53.578125 4.796875 
Q 50.046875 2.4375 45.046875 1.21875 
Q 40.046875 0 33.546875 0 
z
M 17.1875 8.453125 
L 32.46875 8.453125 
Q 39.546875 8.453125 43.578125 9.765625 
Q 47.609375 11.078125 50 13.484375 
Q 53.375 16.84375 55.25 22.53125 
Q 57.125 28.21875 57.125 36.328125 
Q 57.125 47.5625 53.4375 53.59375 
Q 49.75 59.625 44.484375 61.671875 
Q 40.671875 63.140625 32.234375 63.140625 
L 17.1875 63.140625 
z
" id="ArialMT-44"/>
      <path d="M 7.71875 0 
L 7.71875 71.578125 
L 34.71875 71.578125 
Q 41.84375 71.578125 45.609375 70.90625 
Q 50.875 70.015625 54.4375 67.546875 
Q 58.015625 65.09375 60.1875 60.640625 
Q 62.359375 56.203125 62.359375 50.875 
Q 62.359375 41.75 56.546875 35.421875 
Q 50.734375 29.109375 35.546875 29.109375 
L 17.1875 29.109375 
L 17.1875 0 
z
M 17.1875 37.546875 
L 35.6875 37.546875 
Q 44.875 37.546875 48.734375 40.96875 
Q 52.59375 44.390625 52.59375 50.59375 
Q 52.59375 55.078125 50.3125 58.265625 
Q 48.046875 61.46875 44.34375 62.5 
Q 41.9375 63.140625 35.5 63.140625 
L 17.1875 63.140625 
z
" id="ArialMT-50"/>
      <path id="ArialMT-20"/>
      <path d="M 6.59375 -19.875 
L 6.59375 51.859375 
L 14.59375 51.859375 
L 14.59375 45.125 
Q 17.4375 49.078125 21 51.046875 
Q 24.5625 53.03125 29.640625 53.03125 
Q 36.28125 53.03125 41.359375 49.609375 
Q 46.4375 46.1875 49.015625 39.953125 
Q 51.609375 33.734375 51.609375 26.3125 
Q 51.609375 18.359375 48.75 11.984375 
Q 45.90625 5.609375 40.453125 2.21875 
Q 35.015625 -1.171875 29 -1.171875 
Q 24.609375 -1.171875 21.109375 0.6875 
Q 17.625 2.546875 15.375 5.375 
L 15.375 -19.875 
z
M 14.546875 25.640625 
Q 14.546875 15.625 18.59375 10.84375 
Q 22.65625 6.0625 28.421875 6.0625 
Q 34.28125 6.0625 38.453125 11.015625 
Q 42.625 15.96875 42.625 26.375 
Q 42.625 36.28125 38.546875 41.203125 
Q 34.46875 46.140625 28.8125 46.140625 
Q 23.1875 46.140625 18.859375 40.890625 
Q 14.546875 35.640625 14.546875 25.640625 
z
" id="ArialMT-70"/>
      <path d="M 40.4375 19 
L 49.078125 17.875 
Q 47.65625 8.9375 41.8125 3.875 
Q 35.984375 -1.171875 27.484375 -1.171875 
Q 16.84375 -1.171875 10.375 5.78125 
Q 3.90625 12.75 3.90625 25.734375 
Q 3.90625 34.125 6.6875 40.421875 
Q 9.46875 46.734375 15.15625 49.875 
Q 20.84375 53.03125 27.546875 53.03125 
Q 35.984375 53.03125 41.359375 48.75 
Q 46.734375 44.484375 48.25 36.625 
L 39.703125 35.296875 
Q 38.484375 40.53125 35.375 43.15625 
Q 32.28125 45.796875 27.875 45.796875 
Q 21.234375 45.796875 17.078125 41.03125 
Q 12.9375 36.28125 12.9375 25.984375 
Q 12.9375 15.53125 16.9375 10.796875 
Q 20.953125 6.0625 27.390625 6.0625 
Q 32.5625 6.0625 36.03125 9.234375 
Q 39.5 12.40625 40.4375 19 
z
" id="ArialMT-63"/>
      <path d="M 6.640625 61.46875 
L 6.640625 71.578125 
L 15.4375 71.578125 
L 15.4375 61.46875 
z
M 6.640625 0 
L 6.640625 51.859375 
L 15.4375 51.859375 
L 15.4375 0 
z
" id="ArialMT-69"/>
      <path d="M 25.78125 7.859375 
L 27.046875 0.09375 
Q 23.34375 -0.6875 20.40625 -0.6875 
Q 15.625 -0.6875 12.984375 0.828125 
Q 10.359375 2.34375 9.28125 4.8125 
Q 8.203125 7.28125 8.203125 15.1875 
L 8.203125 45.015625 
L 1.765625 45.015625 
L 1.765625 51.859375 
L 8.203125 51.859375 
L 8.203125 64.703125 
L 16.9375 69.96875 
L 16.9375 51.859375 
L 25.78125 51.859375 
L 25.78125 45.015625 
L 16.9375 45.015625 
L 16.9375 14.703125 
Q 16.9375 10.9375 17.40625 9.859375 
Q 17.875 8.796875 18.921875 8.15625 
Q 19.96875 7.515625 21.921875 7.515625 
Q 23.390625 7.515625 25.78125 7.859375 
z
" id="ArialMT-74"/>
     </defs>
     <g style="fill:#262626;" transform="translate(19.429875 183.341875)rotate(-90)scale(0.168 -0.168)">
      <use xlink:href="#ArialMT-47"/>
      <use x="77.783203" xlink:href="#ArialMT-44"/>
      <use x="150" xlink:href="#ArialMT-50"/>
      <use x="216.683594" xlink:href="#ArialMT-20"/>
      <use x="244.466797" xlink:href="#ArialMT-70"/>
      <use x="300.082031" xlink:href="#ArialMT-65"/>
      <use x="355.697266" xlink:href="#ArialMT-72"/>
      <use x="388.998047" xlink:href="#ArialMT-20"/>
      <use x="416.78125" xlink:href="#ArialMT-63"/>
      <use x="466.78125" xlink:href="#ArialMT-61"/>
      <use x="522.396484" xlink:href="#ArialMT-70"/>
      <use x="578.011719" xlink:href="#ArialMT-69"/>
      <use x="600.228516" xlink:href="#ArialMT-74"/>
      <use x="628.011719" xlink:href="#ArialMT-61"/>
     </g>
    </g>
   </g>
   <g id="line2d_13">
    <path clip-path="url(#p79ad068c28)" d="M 314.757745 223.238354 
L 339.608586 224.195114 
L 350.495621 224.428654 
L 352.389019 223.987942 
L 353.572392 224.082111 
L 359.489259 224.357086 
L 364.222753 223.950274 
L 368.246222 223.916373 
L 368.956246 223.728035 
L 371.322993 223.615031 
L 373.926414 223.750635 
L 374.163089 223.607498 
L 374.399764 223.460594 
L 378.186559 223.200686 
L 378.423233 223.155485 
L 378.659908 223.132884 
L 378.896583 223.034948 
L 379.133257 223.44176 
L 379.369932 223.381491 
L 379.606607 223.11405 
L 379.843281 222.906878 
L 380.079956 223.023648 
L 380.316631 223.144185 
L 383.156727 223.927674 
L 383.393402 223.392792 
L 383.630076 223.053782 
L 383.866751 222.643204 
L 384.103426 223.053782 
L 384.3401 222.778808 
L 384.576775 222.631904 
L 384.81345 222.62437 
L 385.050124 222.737373 
L 385.286799 223.057549 
L 385.523474 223.302389 
L 385.760148 223.769469 
L 385.996823 223.517095 
L 386.233498 223.200686 
L 386.470172 222.824009 
L 386.706847 222.5076 
L 386.943522 222.458632 
L 387.180196 222.443565 
L 387.416871 222.662038 
L 387.653546 222.364463 
L 387.89022 221.916217 
L 388.126895 221.675143 
L 388.36357 221.855948 
L 388.600245 221.611108 
L 388.836919 221.588507 
L 389.073594 221.411469 
L 389.310269 221.565907 
L 389.546943 221.45667 
L 389.783618 220.816319 
L 390.020293 220.571479 
L 390.256967 220.413274 
L 390.493642 220.469776 
L 390.730317 219.900993 
L 390.966991 219.595884 
L 391.203666 218.793562 
L 391.440341 218.077875 
L 391.677015 217.704964 
L 391.91369 217.32452 
L 392.150365 217.094747 
L 392.387039 217.328287 
L 392.623714 217.512859 
L 392.860389 217.173849 
L 393.097063 216.492063 
L 393.333738 215.490101 
L 393.570413 214.970287 
L 393.807087 214.341236 
L 394.043762 213.618015 
L 394.280437 213.444744 
L 394.517111 213.392009 
L 394.753786 212.59722 
L 394.990461 211.444587 
L 395.227136 210.205319 
L 395.46381 208.724977 
L 395.700485 207.485708 
L 395.93716 205.704024 
L 396.173834 202.905312 
L 396.410509 200.649015 
L 396.647184 198.596123 
L 396.883858 197.620529 
L 397.120533 195.160826 
L 397.357208 191.088944 
L 397.593882 188.278931 
L 397.830557 186.647919 
L 398.067232 185.013139 
L 398.303906 182.67774 
L 398.540581 181.570308 
L 398.777256 180.372474 
" style="fill:none;stroke:#f47915;stroke-linecap:round;stroke-width:2;"/>
   </g>
   <g id="line2d_14">
    <path clip-path="url(#p79ad068c28)" d="M 158.315782 223.92014 
L 323.988057 220.786185 
L 324.224732 220.288971 
L 324.461407 220.49991 
L 324.698081 220.955689 
L 324.934756 219.878392 
L 325.171431 220.243769 
L 325.408105 221.264565 
L 325.881455 220.228702 
L 326.354804 221.645009 
L 326.591479 221.177929 
L 326.828153 221.170395 
L 327.064828 221.422769 
L 327.301503 220.906721 
L 327.538177 221.076226 
L 328.011527 220.609146 
L 328.248202 220.304038 
L 328.484876 220.462242 
L 328.721551 220.036597 
L 328.958226 220.292737 
L 329.1949 220.228702 
L 329.66825 220.496143 
L 329.904924 220.356772 
L 330.141599 220.60538 
L 330.378274 220.680715 
L 330.614948 220.432108 
L 330.851623 220.688249 
L 331.088298 220.473542 
L 331.324972 220.567712 
L 331.561647 220.183501 
L 331.798322 220.074264 
L 332.034996 220.164667 
L 332.271671 220.379373 
L 332.508346 219.957494 
L 332.74502 220.364306 
L 332.981695 220.273903 
L 333.455044 220.49991 
L 333.928394 220.115699 
L 334.401743 220.405741 
L 334.638418 220.375606 
L 335.111767 219.946194 
L 335.585117 220.119466 
L 335.821791 220.066731 
L 336.058466 220.251303 
L 336.295141 219.972562 
L 336.531815 219.961261 
L 336.76849 220.198568 
L 337.005165 220.04413 
L 337.241839 220.209868 
L 337.478514 219.863325 
L 338.188538 219.535616 
L 338.425213 219.298309 
L 338.661887 219.531849 
L 339.135237 219.57705 
L 339.371911 219.690054 
L 340.081935 219.546916 
L 340.31861 219.185306 
L 340.555285 219.445213 
L 340.791959 219.354811 
L 341.028634 219.595884 
L 341.265309 219.524316 
L 341.501984 219.735255 
L 342.212008 219.279475 
L 342.685357 219.497948 
L 343.158706 219.072303 
L 343.632056 219.260641 
L 344.34208 219.369878 
L 344.815429 219.667453 
L 345.052104 219.603418 
L 345.288778 219.147638 
L 345.525453 219.207907 
L 345.762128 218.993201 
L 346.235477 219.509248 
L 346.472152 218.808629 
L 346.708826 218.74836 
L 346.945501 218.910332 
L 347.182176 218.925399 
L 347.41885 218.812395 
L 347.655525 218.473386 
L 348.128875 218.428185 
L 348.602224 218.819929 
L 348.838899 218.458319 
L 349.075573 218.612756 
L 349.312248 218.198411 
L 349.548923 218.703159 
L 349.785597 218.560022 
L 350.022272 218.138143 
L 350.258947 218.337782 
L 350.495621 218.808629 
L 350.732296 218.507287 
L 350.968971 218.816162 
L 351.205645 218.108009 
L 351.44232 218.703159 
L 351.678995 218.695625 
L 352.152344 219.068536 
L 352.389019 218.563788 
L 352.862368 218.541188 
L 353.099043 218.431951 
L 353.335717 218.100475 
L 353.572392 218.028907 
L 353.809067 218.605223 
L 354.045741 218.085408 
L 354.519091 218.224779 
L 354.755766 217.957338 
L 354.99244 217.968638 
L 355.229115 217.8029 
L 355.46579 217.836801 
L 355.702464 217.735098 
L 355.939139 217.185149 
L 356.175814 216.996811 
L 356.412488 217.19645 
L 356.649163 216.932776 
L 356.885838 217.136181 
L 357.122512 216.793405 
L 357.595862 217.316986 
L 357.832536 216.966677 
L 358.069211 216.232156 
L 358.305886 215.878079 
L 358.779235 216.258523 
L 359.252584 215.791443 
L 359.489259 216.013683 
L 360.435958 214.578542 
L 360.672632 214.981587 
L 360.909307 214.322402 
L 361.145982 214.307335 
L 361.382657 214.657645 
L 361.619331 214.2772 
L 361.856006 214.141597 
L 362.092681 214.296034 
L 362.329355 214.940153 
L 362.56603 213.945724 
L 363.276054 213.233804 
L 363.512729 213.301606 
L 363.749403 212.774258 
L 363.986078 212.778025 
L 364.222753 212.292111 
L 364.696102 212.446549 
L 365.406126 211.806197 
L 366.11615 211.798664 
L 366.352825 211.971935 
L 366.826174 210.917239 
L 367.062849 210.536795 
L 367.536198 210.533028 
L 367.772873 210.698766 
L 368.009547 210.529261 
L 368.482897 209.301293 
L 368.719572 208.450002 
L 369.192921 208.566772 
L 369.429596 209.105421 
L 369.66627 209.214657 
L 369.902945 208.156194 
L 370.849644 206.073168 
L 371.086318 205.361248 
L 371.559668 205.79066 
L 371.796342 205.376315 
L 372.033017 205.722858 
L 372.269692 205.722858 
L 372.979716 204.344219 
L 373.21639 205.387616 
L 373.68974 204.491123 
L 374.399764 202.698139 
L 374.636438 202.814909 
L 374.873113 201.19143 
L 375.109788 200.878788 
L 375.583137 200.833587 
L 376.056487 205.474251 
L 376.293161 206.058101 
L 376.529836 204.12198 
L 377.003185 202.502267 
L 377.23986 201.278066 
L 377.476535 202.193392 
L 377.713209 200.181935 
L 377.949884 199.846692 
L 378.186559 198.980334 
L 378.423233 199.277909 
L 378.659908 200.788385 
L 378.896583 200.720583 
L 379.133257 200.046331 
L 379.606607 197.364388 
L 380.079956 195.198494 
L 380.316631 194.927286 
L 380.553305 194.927286 
L 381.026655 188.674443 
L 381.500004 187.284503 
L 382.210028 192.305612 
L 382.446703 193.002465 
L 382.920052 191.156746 
L 383.156727 191.217015 
L 383.393402 190.621864 
L 383.630076 190.968407 
L 384.3401 186.177072 
L 384.81345 184.866235 
L 385.050124 184.847401 
L 385.760148 180.127634 
L 385.996823 179.973196 
L 386.233498 178.379851 
L 386.470172 175.878714 
L 387.416871 171.746564 
L 387.89022 167.584279 
L 388.126895 167.62948 
L 388.36357 166.31111 
L 388.600245 162.30703 
L 388.836919 163.406928 
L 389.073594 163.704503 
L 389.546943 158.457387 
L 390.020293 150.957742 
L 390.256967 149.209959 
L 390.493642 151.537825 
L 390.730317 151.95217 
L 391.203666 150.426627 
L 391.677015 146.53555 
L 392.150365 139.860828 
L 392.623714 136.369029 
L 392.860389 137.521662 
L 393.097063 137.084716 
L 393.570413 131.280118 
L 394.043762 122.156994 
L 394.517111 110.092019 
L 394.753786 105.319517 
L 394.990461 97.239788 
L 395.227136 94.256504 
L 395.46381 93.495616 
L 395.700485 93.608619 
L 396.410509 82.696277 
L 396.647184 83.374296 
L 396.883858 84.93374 
L 397.120533 92.192312 
L 397.357208 94.505111 
L 397.593882 95.051293 
L 397.830557 91.988906 
L 398.067232 84.764235 
L 398.777256 79.264746 
L 398.777256 79.264746 
" style="fill:none;stroke:#165aa7;stroke-linecap:round;stroke-width:2;"/>
   </g>
   <g id="line2d_15">
    <path clip-path="url(#p79ad068c28)" d="M 300.320589 221.863482 
L 312.154323 222.153523 
L 323.988057 222.258993 
L 335.821791 222.62437 
L 347.8922 222.759974 
L 352.625693 223.132884 
L 359.725934 223.095217 
L 364.222753 223.471894 
L 368.009547 223.11405 
L 368.482897 222.891811 
L 368.719572 222.989747 
L 368.956246 222.801408 
L 369.192921 223.159252 
L 369.429596 222.85791 
L 369.902945 222.673338 
L 370.13962 222.763741 
L 370.376294 223.050015 
L 370.612969 222.356929 
L 370.849644 222.338095 
L 371.086318 222.673338 
L 372.269692 222.014153 
L 372.506366 222.108322 
L 372.743041 221.984019 
L 372.979716 222.28536 
L 373.21639 222.228859 
L 373.453065 221.614875 
L 374.163089 221.629942 
L 374.399764 221.731645 
L 374.636438 221.441603 
L 374.873113 221.554606 
L 375.109788 221.385102 
L 375.346463 221.467971 
L 375.583137 222.130923 
L 375.819812 221.471737 
L 376.056487 221.878549 
L 376.529836 221.3286 
L 376.766511 221.539539 
L 377.003185 221.313533 
L 377.949884 221.159095 
L 378.186559 220.963223 
L 378.896583 221.049859 
L 379.606607 221.219364 
L 379.843281 221.061159 
L 380.316631 221.257031 
L 381.500004 220.906721 
L 381.973354 221.151562 
L 382.210028 221.490571 
L 382.683378 221.494338 
L 383.156727 221.441603 
L 383.393402 221.407702 
L 383.630076 221.580974 
L 384.103426 221.43407 
L 384.3401 221.535772 
L 384.576775 221.392635 
L 384.81345 221.660076 
L 385.050124 221.532006 
L 385.286799 221.682677 
L 385.523474 221.494338 
L 386.233498 221.671376 
L 386.470172 221.547073 
L 386.706847 221.968951 
L 386.943522 222.134689 
L 387.180196 221.987785 
L 387.416871 222.134689 
L 388.36357 222.115856 
L 388.600245 221.878549 
L 388.836919 222.017919 
L 389.073594 221.648776 
L 389.546943 221.946351 
L 389.783618 222.115856 
L 390.020293 222.5189 
L 390.256967 222.473699 
L 391.203666 222.880511 
L 391.440341 222.933245 
L 391.91369 222.658271 
L 392.623714 221.946351 
L 392.860389 221.893616 
L 393.570413 221.189229 
L 395.46381 218.578855 
L 395.93716 217.354654 
L 397.357208 210.382357 
L 397.593882 208.819146 
L 397.830557 208.043191 
L 398.067232 207.749382 
L 398.540581 205.538286 
L 398.777256 204.325385 
L 398.777256 204.325385 
" style="fill:none;stroke:#06ab54;stroke-linecap:round;stroke-width:2;"/>
   </g>
   <g id="line2d_16">
    <path clip-path="url(#p79ad068c28)" d="M 94.413619 224.756364 
L 193.816984 224.16498 
L 264.819388 224.131079 
L 300.320589 223.893773 
L 312.154323 223.969108 
L 323.988057 223.615031 
L 335.821791 223.769469 
L 359.489259 223.351357 
L 365.169451 222.97468 
L 365.406126 222.703472 
L 365.642801 222.831542 
L 365.879475 222.74114 
L 366.11615 222.786341 
L 366.589499 222.436031 
L 366.826174 222.605536 
L 367.299523 222.567868 
L 367.536198 222.575402 
L 367.772873 222.451098 
L 368.246222 221.991552 
L 368.482897 222.255226 
L 368.719572 222.085721 
L 368.956246 221.69021 
L 369.192921 221.968951 
L 369.429596 221.686443 
L 369.66627 221.705277 
L 369.902945 221.147795 
L 370.13962 221.128961 
L 370.376294 221.490571 
L 370.612969 221.437836 
L 370.849644 220.496143 
L 371.086318 221.027258 
L 371.559668 220.710849 
L 371.796342 221.098827 
L 372.033017 220.778651 
L 372.269692 220.801252 
L 372.506366 220.959456 
L 372.743041 220.25507 
L 372.979716 220.111932 
L 373.68974 220.221169 
L 374.163089 219.818124 
L 374.399764 219.803057 
L 374.636438 220.104399 
L 374.873113 219.588351 
L 375.109788 218.578855 
L 375.346463 218.401817 
L 375.583137 218.38675 
L 375.819812 217.588194 
L 376.056487 218.247379 
L 376.293161 217.426223 
L 376.766511 217.678597 
L 377.476535 217.362188 
L 377.713209 217.373488 
L 377.949884 216.755737 
L 378.186559 216.589999 
L 378.423233 217.471424 
L 378.659908 217.535459 
L 379.133257 216.100319 
L 379.369932 216.224622 
L 379.606607 216.111619 
L 380.316631 214.503207 
L 380.553305 212.680089 
L 380.78998 212.408881 
L 381.026655 212.431482 
L 381.263329 212.721523 
L 381.500004 212.721523 
L 381.736679 213.550213 
L 381.973354 220.089332 
L 382.446703 219.140105 
L 382.683378 218.236079 
L 382.920052 217.878236 
L 383.156727 217.290619 
L 383.630076 215.154859 
L 384.103426 214.134063 
L 385.286799 209.256092 
L 386.943522 194.663612 
L 387.416871 187.092398 
L 387.89022 178.172679 
L 388.126895 175.84858 
L 388.600245 168.571174 
L 388.836919 169.897078 
L 389.310269 164.597228 
L 390.256967 149.906812 
L 390.966991 155.014557 
L 391.203666 155.598407 
L 391.440341 155.146394 
L 392.623714 127.558546 
L 393.097063 117.301623 
L 394.043762 104.208319 
L 394.280437 103.748773 
L 394.517111 105.745162 
L 394.753786 106.317712 
L 394.990461 101.368172 
L 395.227136 102.151661 
L 395.46381 101.665747 
L 395.700485 100.305942 
L 396.410509 92.787462 
L 396.647184 90.971878 
L 396.883858 93.973996 
L 397.120533 99.469718 
L 397.357208 93.145306 
L 397.593882 95.021159 
L 397.830557 94.403408 
L 398.067232 93.081271 
L 398.303906 92.870331 
L 398.777256 89.472702 
L 398.777256 89.472702 
" style="fill:none;stroke:#bb60d5;stroke-linecap:round;stroke-width:2;"/>
   </g>
   <g id="line2d_17">
    <path clip-path="url(#p79ad068c28)" d="M 312.154323 223.400325 
L 328.721551 221.599808 
L 341.738658 219.686287 
L 347.655525 219.32091 
L 348.128875 219.057236 
L 348.365549 219.189073 
L 348.602224 219.19284 
L 349.312248 218.816162 
L 349.548923 219.377411 
L 350.022272 218.793562 
L 350.258947 218.63159 
L 350.495621 218.774728 
L 351.205645 218.567555 
L 351.44232 218.899031 
L 352.625693 218.819929 
L 352.862368 218.601456 
L 353.099043 218.691859 
L 353.572392 218.288814 
L 354.282416 218.194645 
L 354.519091 218.477153 
L 354.99244 217.328287 
L 355.46579 216.642734 
L 355.702464 217.128648 
L 355.939139 216.759504 
L 356.175814 216.6126 
L 356.412488 216.932776 
L 356.649163 217.019411 
L 356.885838 216.544798 
L 357.122512 217.049546 
L 357.595862 217.33582 
L 357.832536 217.185149 
L 358.069211 216.665335 
L 359.01591 215.90068 
L 359.252584 216.179421 
L 359.489259 216.137986 
L 359.962608 215.143558 
L 360.199283 214.348769 
L 360.435958 214.311101 
L 360.672632 214.586076 
L 360.909307 214.329935 
L 361.145982 214.601143 
L 361.382657 214.544641 
L 361.856006 213.877922 
L 362.092681 214.145363 
L 362.329355 213.749852 
L 362.802705 212.450315 
L 363.039379 213.19237 
L 363.276054 213.297839 
L 363.512729 212.85336 
L 363.749403 212.672555 
L 363.986078 212.295878 
L 364.222753 212.706456 
L 364.932777 211.787363 
L 365.169451 212.231843 
L 365.406126 211.821264 
L 365.642801 211.983236 
L 365.879475 211.840098 
L 366.11615 211.54629 
L 366.589499 208.450002 
L 366.826174 208.269197 
L 367.062849 207.56481 
L 367.536198 207.666513 
L 367.772873 207.956555 
L 368.009547 207.817184 
L 368.246222 207.391539 
L 368.482897 207.888753 
L 368.719572 207.131632 
L 368.956246 207.252168 
L 369.192921 206.818989 
L 369.429596 205.319814 
L 369.902945 207.704181 
L 370.13962 205.801961 
L 370.376294 206.604283 
L 370.612969 205.07874 
L 370.849644 205.022239 
L 371.086318 203.459028 
L 371.322993 203.229254 
L 371.559668 201.082194 
L 371.796342 201.330801 
L 372.033017 200.581213 
L 372.269692 201.394836 
L 372.506366 200.057631 
L 372.743041 197.541427 
L 372.979716 197.624296 
L 373.21639 200.524711 
L 373.453065 197.895504 
L 373.68974 198.204379 
L 373.926414 197.733532 
L 374.399764 196.264491 
L 374.636438 199.153606 
L 374.873113 198.776928 
L 375.109788 195.356698 
L 375.346463 196.569599 
L 375.583137 194.204066 
L 375.819812 194.079762 
L 376.056487 194.81805 
L 376.293161 196.140187 
L 376.529836 194.889618 
L 376.766511 191.296117 
L 377.23986 190.614331 
L 377.476535 188.772379 
L 377.949884 188.960717 
L 378.186559 187.06603 
L 378.896583 198.434152 
L 379.133257 199.394679 
L 379.369932 197.112015 
L 380.079956 187.41634 
L 380.316631 189.876043 
L 380.78998 184.188216 
L 381.500004 168.800947 
L 381.736679 165.000273 
L 381.973354 166.540883 
L 382.210028 172.270145 
L 382.446703 173.829589 
L 382.683378 171.938669 
L 382.920052 173.622417 
L 383.393402 166.036135 
L 383.630076 164.842068 
L 383.866751 163.056618 
L 384.103426 164.578394 
L 384.3401 161.350269 
L 384.81345 161.210899 
L 385.050124 162.951148 
L 385.286799 159.350113 
L 385.760148 158.318017 
L 387.416871 137.536729 
L 387.653546 135.638275 
L 387.89022 136.534767 
L 388.126895 134.888687 
L 388.600245 126.571652 
L 389.073594 129.008754 
L 390.020293 113.960495 
L 390.256967 115.233664 
L 390.493642 113.564984 
L 390.730317 116.747907 
L 390.966991 113.177006 
L 391.203666 105.956102 
L 392.387039 88.323836 
L 392.623714 87.476312 
L 392.860389 89.427501 
L 394.043762 74.548746 
L 394.990461 53.933196 
L 395.227136 53.967097 
L 395.46381 52.501822 
L 395.700485 49.145627 
L 396.173834 39.739995 
L 396.410509 36.594739 
L 396.647184 35.042828 
L 396.883858 37.400828 
L 397.120533 44.267656 
L 397.357208 41.201503 
L 397.593882 39.664659 
L 398.777256 27.083636 
L 398.777256 27.083636 
" style="fill:none;stroke:#cb495c;stroke-linecap:round;stroke-width:2;"/>
   </g>
   <g id="text_15">
    <!-- United Kingdom -->
    <defs>
     <path d="M 54.6875 71.578125 
L 64.15625 71.578125 
L 64.15625 30.21875 
Q 64.15625 19.4375 61.71875 13.078125 
Q 59.28125 6.734375 52.90625 2.75 
Q 46.53125 -1.21875 36.1875 -1.21875 
Q 26.125 -1.21875 19.71875 2.25 
Q 13.328125 5.71875 10.59375 12.28125 
Q 7.859375 18.84375 7.859375 30.21875 
L 7.859375 71.578125 
L 17.328125 71.578125 
L 17.328125 30.28125 
Q 17.328125 20.953125 19.0625 16.53125 
Q 20.796875 12.109375 25.015625 9.71875 
Q 29.25 7.328125 35.359375 7.328125 
Q 45.796875 7.328125 50.234375 12.0625 
Q 54.6875 16.796875 54.6875 30.28125 
z
" id="ArialMT-55"/>
     <path d="M 6.59375 0 
L 6.59375 51.859375 
L 14.5 51.859375 
L 14.5 44.484375 
Q 20.21875 53.03125 31 53.03125 
Q 35.6875 53.03125 39.625 51.34375 
Q 43.5625 49.65625 45.515625 46.921875 
Q 47.46875 44.1875 48.25 40.4375 
Q 48.734375 37.984375 48.734375 31.890625 
L 48.734375 0 
L 39.9375 0 
L 39.9375 31.546875 
Q 39.9375 36.921875 38.90625 39.578125 
Q 37.890625 42.234375 35.28125 43.8125 
Q 32.671875 45.40625 29.15625 45.40625 
Q 23.53125 45.40625 19.453125 41.84375 
Q 15.375 38.28125 15.375 28.328125 
L 15.375 0 
z
" id="ArialMT-6e"/>
     <path d="M 40.234375 0 
L 40.234375 6.546875 
Q 35.296875 -1.171875 25.734375 -1.171875 
Q 19.53125 -1.171875 14.328125 2.25 
Q 9.125 5.671875 6.265625 11.796875 
Q 3.421875 17.921875 3.421875 25.875 
Q 3.421875 33.640625 6 39.96875 
Q 8.59375 46.296875 13.765625 49.65625 
Q 18.953125 53.03125 25.34375 53.03125 
Q 30.03125 53.03125 33.6875 51.046875 
Q 37.359375 49.078125 39.65625 45.90625 
L 39.65625 71.578125 
L 48.390625 71.578125 
L 48.390625 0 
z
M 12.453125 25.875 
Q 12.453125 15.921875 16.640625 10.984375 
Q 20.84375 6.0625 26.5625 6.0625 
Q 32.328125 6.0625 36.34375 10.765625 
Q 40.375 15.484375 40.375 25.140625 
Q 40.375 35.796875 36.265625 40.765625 
Q 32.171875 45.75 26.171875 45.75 
Q 20.3125 45.75 16.375 40.96875 
Q 12.453125 36.1875 12.453125 25.875 
z
" id="ArialMT-64"/>
     <path d="M 7.328125 0 
L 7.328125 71.578125 
L 16.796875 71.578125 
L 16.796875 36.078125 
L 52.34375 71.578125 
L 65.1875 71.578125 
L 35.15625 42.578125 
L 66.5 0 
L 54 0 
L 28.515625 36.234375 
L 16.796875 24.8125 
L 16.796875 0 
z
" id="ArialMT-4b"/>
     <path d="M 4.984375 -4.296875 
L 13.53125 -5.5625 
Q 14.0625 -9.515625 16.5 -11.328125 
Q 19.78125 -13.765625 25.4375 -13.765625 
Q 31.546875 -13.765625 34.859375 -11.328125 
Q 38.1875 -8.890625 39.359375 -4.5 
Q 40.046875 -1.8125 39.984375 6.78125 
Q 34.234375 0 25.640625 0 
Q 14.9375 0 9.078125 7.71875 
Q 3.21875 15.4375 3.21875 26.21875 
Q 3.21875 33.640625 5.90625 39.90625 
Q 8.59375 46.1875 13.6875 49.609375 
Q 18.796875 53.03125 25.6875 53.03125 
Q 34.859375 53.03125 40.828125 45.609375 
L 40.828125 51.859375 
L 48.921875 51.859375 
L 48.921875 7.03125 
Q 48.921875 -5.078125 46.453125 -10.125 
Q 44 -15.1875 38.640625 -18.109375 
Q 33.296875 -21.046875 25.484375 -21.046875 
Q 16.21875 -21.046875 10.5 -16.875 
Q 4.78125 -12.703125 4.984375 -4.296875 
z
M 12.25 26.859375 
Q 12.25 16.65625 16.296875 11.96875 
Q 20.359375 7.28125 26.46875 7.28125 
Q 32.515625 7.28125 36.609375 11.9375 
Q 40.71875 16.609375 40.71875 26.5625 
Q 40.71875 36.078125 36.5 40.90625 
Q 32.28125 45.75 26.3125 45.75 
Q 20.453125 45.75 16.34375 40.984375 
Q 12.25 36.234375 12.25 26.859375 
z
" id="ArialMT-67"/>
     <path d="M 3.328125 25.921875 
Q 3.328125 40.328125 11.328125 47.265625 
Q 18.015625 53.03125 27.640625 53.03125 
Q 38.328125 53.03125 45.109375 46.015625 
Q 51.90625 39.015625 51.90625 26.65625 
Q 51.90625 16.65625 48.90625 10.90625 
Q 45.90625 5.171875 40.15625 2 
Q 34.421875 -1.171875 27.640625 -1.171875 
Q 16.75 -1.171875 10.03125 5.8125 
Q 3.328125 12.796875 3.328125 25.921875 
z
M 12.359375 25.921875 
Q 12.359375 15.96875 16.703125 11.015625 
Q 21.046875 6.0625 27.640625 6.0625 
Q 34.1875 6.0625 38.53125 11.03125 
Q 42.875 16.015625 42.875 26.21875 
Q 42.875 35.84375 38.5 40.796875 
Q 34.125 45.75 27.640625 45.75 
Q 21.046875 45.75 16.703125 40.8125 
Q 12.359375 35.890625 12.359375 25.921875 
z
" id="ArialMT-6f"/>
     <path d="M 6.59375 0 
L 6.59375 51.859375 
L 14.453125 51.859375 
L 14.453125 44.578125 
Q 16.890625 48.390625 20.9375 50.703125 
Q 25 53.03125 30.171875 53.03125 
Q 35.9375 53.03125 39.625 50.640625 
Q 43.3125 48.25 44.828125 43.953125 
Q 50.984375 53.03125 60.84375 53.03125 
Q 68.5625 53.03125 72.703125 48.75 
Q 76.859375 44.484375 76.859375 35.59375 
L 76.859375 0 
L 68.109375 0 
L 68.109375 32.671875 
Q 68.109375 37.9375 67.25 40.25 
Q 66.40625 42.578125 64.15625 43.984375 
Q 61.921875 45.40625 58.890625 45.40625 
Q 53.421875 45.40625 49.796875 41.765625 
Q 46.1875 38.140625 46.1875 30.125 
L 46.1875 0 
L 37.40625 0 
L 37.40625 33.6875 
Q 37.40625 39.546875 35.25 42.46875 
Q 33.109375 45.40625 28.21875 45.40625 
Q 24.515625 45.40625 21.359375 43.453125 
Q 18.21875 41.5 16.796875 37.734375 
Q 15.375 33.984375 15.375 26.90625 
L 15.375 0 
z
" id="ArialMT-6d"/>
    </defs>
    <g style="fill:#165aa7;" transform="translate(399.723954 79.264746)scale(0.14 -0.14)">
     <use xlink:href="#ArialMT-55"/>
     <use x="72.216797" xlink:href="#ArialMT-6e"/>
     <use x="127.832031" xlink:href="#ArialMT-69"/>
     <use x="150.048828" xlink:href="#ArialMT-74"/>
     <use x="177.832031" xlink:href="#ArialMT-65"/>
     <use x="233.447266" xlink:href="#ArialMT-64"/>
     <use x="289.0625" xlink:href="#ArialMT-20"/>
     <use x="316.845703" xlink:href="#ArialMT-4b"/>
     <use x="383.544922" xlink:href="#ArialMT-69"/>
     <use x="405.761719" xlink:href="#ArialMT-6e"/>
     <use x="461.376953" xlink:href="#ArialMT-67"/>
     <use x="516.992188" xlink:href="#ArialMT-64"/>
     <use x="572.607422" xlink:href="#ArialMT-6f"/>
     <use x="628.222656" xlink:href="#ArialMT-6d"/>
    </g>
   </g>
   <g id="text_16">
    <!-- United States -->
    <defs>
     <path d="M 4.5 23 
L 13.421875 23.78125 
Q 14.0625 18.40625 16.375 14.96875 
Q 18.703125 11.53125 23.578125 9.40625 
Q 28.46875 7.28125 34.578125 7.28125 
Q 39.984375 7.28125 44.140625 8.890625 
Q 48.296875 10.5 50.3125 13.296875 
Q 52.34375 16.109375 52.34375 19.4375 
Q 52.34375 22.796875 50.390625 25.3125 
Q 48.4375 27.828125 43.953125 29.546875 
Q 41.0625 30.671875 31.203125 33.03125 
Q 21.34375 35.40625 17.390625 37.5 
Q 12.25 40.1875 9.734375 44.15625 
Q 7.234375 48.140625 7.234375 53.078125 
Q 7.234375 58.5 10.296875 63.203125 
Q 13.375 67.921875 19.28125 70.359375 
Q 25.203125 72.796875 32.421875 72.796875 
Q 40.375 72.796875 46.453125 70.234375 
Q 52.546875 67.671875 55.8125 62.6875 
Q 59.078125 57.71875 59.328125 51.421875 
L 50.25 50.734375 
Q 49.515625 57.515625 45.28125 60.984375 
Q 41.0625 64.453125 32.8125 64.453125 
Q 24.21875 64.453125 20.28125 61.296875 
Q 16.359375 58.15625 16.359375 53.71875 
Q 16.359375 49.859375 19.140625 47.359375 
Q 21.875 44.875 33.421875 42.265625 
Q 44.96875 39.65625 49.265625 37.703125 
Q 55.515625 34.8125 58.484375 30.390625 
Q 61.46875 25.984375 61.46875 20.21875 
Q 61.46875 14.5 58.203125 9.4375 
Q 54.9375 4.390625 48.796875 1.578125 
Q 42.671875 -1.21875 35.015625 -1.21875 
Q 25.296875 -1.21875 18.71875 1.609375 
Q 12.15625 4.4375 8.421875 10.125 
Q 4.6875 15.828125 4.5 23 
z
" id="ArialMT-53"/>
     <path d="M 3.078125 15.484375 
L 11.765625 16.84375 
Q 12.5 11.625 15.84375 8.84375 
Q 19.1875 6.0625 25.203125 6.0625 
Q 31.25 6.0625 34.171875 8.515625 
Q 37.109375 10.984375 37.109375 14.3125 
Q 37.109375 17.28125 34.515625 19 
Q 32.71875 20.171875 25.53125 21.96875 
Q 15.875 24.421875 12.140625 26.203125 
Q 8.40625 27.984375 6.46875 31.125 
Q 4.546875 34.28125 4.546875 38.09375 
Q 4.546875 41.546875 6.125 44.5 
Q 7.71875 47.46875 10.453125 49.421875 
Q 12.5 50.921875 16.03125 51.96875 
Q 19.578125 53.03125 23.640625 53.03125 
Q 29.734375 53.03125 34.34375 51.265625 
Q 38.96875 49.515625 41.15625 46.5 
Q 43.359375 43.5 44.1875 38.484375 
L 35.59375 37.3125 
Q 35.015625 41.3125 32.203125 43.546875 
Q 29.390625 45.796875 24.265625 45.796875 
Q 18.21875 45.796875 15.625 43.796875 
Q 13.03125 41.796875 13.03125 39.109375 
Q 13.03125 37.40625 14.109375 36.03125 
Q 15.1875 34.625 17.484375 33.6875 
Q 18.796875 33.203125 25.25 31.453125 
Q 34.578125 28.953125 38.25 27.359375 
Q 41.9375 25.78125 44.03125 22.75 
Q 46.140625 19.734375 46.140625 15.234375 
Q 46.140625 10.84375 43.578125 6.953125 
Q 41.015625 3.078125 36.171875 0.953125 
Q 31.34375 -1.171875 25.25 -1.171875 
Q 15.140625 -1.171875 9.84375 3.03125 
Q 4.546875 7.234375 3.078125 15.484375 
z
" id="ArialMT-73"/>
    </defs>
    <g style="fill:#cb495c;" transform="translate(399.723954 27.083636)scale(0.14 -0.14)">
     <use xlink:href="#ArialMT-55"/>
     <use x="72.216797" xlink:href="#ArialMT-6e"/>
     <use x="127.832031" xlink:href="#ArialMT-69"/>
     <use x="150.048828" xlink:href="#ArialMT-74"/>
     <use x="177.832031" xlink:href="#ArialMT-65"/>
     <use x="233.447266" xlink:href="#ArialMT-64"/>
     <use x="289.0625" xlink:href="#ArialMT-20"/>
     <use x="316.845703" xlink:href="#ArialMT-53"/>
     <use x="383.544922" xlink:href="#ArialMT-74"/>
     <use x="411.328125" xlink:href="#ArialMT-61"/>
     <use x="466.943359" xlink:href="#ArialMT-74"/>
     <use x="494.726562" xlink:href="#ArialMT-65"/>
     <use x="550.341797" xlink:href="#ArialMT-73"/>
    </g>
   </g>
   <g id="text_17">
    <!-- Japan -->
    <defs>
     <path d="M 2.875 20.3125 
L 11.421875 21.484375 
Q 11.765625 13.28125 14.5 10.25 
Q 17.234375 7.234375 22.078125 7.234375 
Q 25.640625 7.234375 28.21875 8.859375 
Q 30.8125 10.5 31.78125 13.296875 
Q 32.765625 16.109375 32.765625 22.265625 
L 32.765625 71.578125 
L 42.234375 71.578125 
L 42.234375 22.796875 
Q 42.234375 13.8125 40.0625 8.875 
Q 37.890625 3.953125 33.171875 1.359375 
Q 28.46875 -1.21875 22.125 -1.21875 
Q 12.703125 -1.21875 7.6875 4.203125 
Q 2.6875 9.625 2.875 20.3125 
z
" id="ArialMT-4a"/>
    </defs>
    <g style="fill:#bb60d5;" transform="translate(399.723954 93.239475)scale(0.14 -0.14)">
     <use xlink:href="#ArialMT-4a"/>
     <use x="50" xlink:href="#ArialMT-61"/>
     <use x="105.615234" xlink:href="#ArialMT-70"/>
     <use x="161.230469" xlink:href="#ArialMT-61"/>
     <use x="216.845703" xlink:href="#ArialMT-6e"/>
    </g>
   </g>
   <g id="text_18">
    <!-- China -->
    <defs>
     <path d="M 58.796875 25.09375 
L 68.265625 22.703125 
Q 65.28125 11.03125 57.546875 4.90625 
Q 49.8125 -1.21875 38.625 -1.21875 
Q 27.046875 -1.21875 19.796875 3.484375 
Q 12.546875 8.203125 8.765625 17.140625 
Q 4.984375 26.078125 4.984375 36.328125 
Q 4.984375 47.515625 9.25 55.828125 
Q 13.53125 64.15625 21.40625 68.46875 
Q 29.296875 72.796875 38.765625 72.796875 
Q 49.515625 72.796875 56.828125 67.328125 
Q 64.15625 61.859375 67.046875 51.953125 
L 57.71875 49.75 
Q 55.21875 57.5625 50.484375 61.125 
Q 45.75 64.703125 38.578125 64.703125 
Q 30.328125 64.703125 24.78125 60.734375 
Q 19.234375 56.78125 16.984375 50.109375 
Q 14.75 43.453125 14.75 36.375 
Q 14.75 27.25 17.40625 20.4375 
Q 20.0625 13.625 25.671875 10.25 
Q 31.296875 6.890625 37.84375 6.890625 
Q 45.796875 6.890625 51.3125 11.46875 
Q 56.84375 16.0625 58.796875 25.09375 
z
" id="ArialMT-43"/>
     <path d="M 6.59375 0 
L 6.59375 71.578125 
L 15.375 71.578125 
L 15.375 45.90625 
Q 21.53125 53.03125 30.90625 53.03125 
Q 36.671875 53.03125 40.921875 50.75 
Q 45.171875 48.484375 47 44.484375 
Q 48.828125 40.484375 48.828125 32.859375 
L 48.828125 0 
L 40.046875 0 
L 40.046875 32.859375 
Q 40.046875 39.453125 37.1875 42.453125 
Q 34.328125 45.453125 29.109375 45.453125 
Q 25.203125 45.453125 21.75 43.421875 
Q 18.3125 41.40625 16.84375 37.9375 
Q 15.375 34.46875 15.375 28.375 
L 15.375 0 
z
" id="ArialMT-68"/>
    </defs>
    <g style="fill:#f47915;" transform="translate(399.723954 180.372474)scale(0.14 -0.14)">
     <use xlink:href="#ArialMT-43"/>
     <use x="72.216797" xlink:href="#ArialMT-68"/>
     <use x="127.832031" xlink:href="#ArialMT-69"/>
     <use x="150.048828" xlink:href="#ArialMT-6e"/>
     <use x="205.664062" xlink:href="#ArialMT-61"/>
    </g>
   </g>
   <g id="text_19">
    <!-- India -->
    <defs>
     <path d="M 9.328125 0 
L 9.328125 71.578125 
L 18.796875 71.578125 
L 18.796875 0 
z
" id="ArialMT-49"/>
    </defs>
    <g style="fill:#06ab54;" transform="translate(399.723954 204.325385)scale(0.14 -0.14)">
     <use xlink:href="#ArialMT-49"/>
     <use x="27.783203" xlink:href="#ArialMT-6e"/>
     <use x="83.398438" xlink:href="#ArialMT-64"/>
     <use x="139.013672" xlink:href="#ArialMT-69"/>
     <use x="161.230469" xlink:href="#ArialMT-61"/>
    </g>
   </g>
   <g id="text_20">
    <!-- Source: Maddison Project Database (MPD) 2018 -->
    <defs>
     <path d="M 40.578125 0 
L 40.578125 7.625 
Q 34.515625 -1.171875 24.125 -1.171875 
Q 19.53125 -1.171875 15.546875 0.578125 
Q 11.578125 2.34375 9.640625 5 
Q 7.71875 7.671875 6.9375 11.53125 
Q 6.390625 14.109375 6.390625 19.734375 
L 6.390625 51.859375 
L 15.1875 51.859375 
L 15.1875 23.09375 
Q 15.1875 16.21875 15.71875 13.8125 
Q 16.546875 10.359375 19.234375 8.375 
Q 21.921875 6.390625 25.875 6.390625 
Q 29.828125 6.390625 33.296875 8.421875 
Q 36.765625 10.453125 38.203125 13.9375 
Q 39.65625 17.4375 39.65625 24.078125 
L 39.65625 51.859375 
L 48.4375 51.859375 
L 48.4375 0 
z
" id="ArialMT-75"/>
     <path d="M 9.03125 41.84375 
L 9.03125 51.859375 
L 19.046875 51.859375 
L 19.046875 41.84375 
z
M 9.03125 0 
L 9.03125 10.015625 
L 19.046875 10.015625 
L 19.046875 0 
z
" id="ArialMT-3a"/>
     <path d="M 7.421875 0 
L 7.421875 71.578125 
L 21.6875 71.578125 
L 38.625 20.90625 
Q 40.96875 13.8125 42.046875 10.296875 
Q 43.265625 14.203125 45.84375 21.78125 
L 62.984375 71.578125 
L 75.734375 71.578125 
L 75.734375 0 
L 66.609375 0 
L 66.609375 59.90625 
L 45.796875 0 
L 37.25 0 
L 16.546875 60.9375 
L 16.546875 0 
z
" id="ArialMT-4d"/>
     <path d="M 6.546875 61.375 
L 6.546875 71.578125 
L 15.328125 71.578125 
L 15.328125 61.375 
z
M -4.59375 -20.125 
L -2.9375 -12.640625 
Q -0.296875 -13.328125 1.21875 -13.328125 
Q 3.90625 -13.328125 5.21875 -11.546875 
Q 6.546875 -9.765625 6.546875 -2.640625 
L 6.546875 51.859375 
L 15.328125 51.859375 
L 15.328125 -2.828125 
Q 15.328125 -12.40625 12.84375 -16.15625 
Q 9.671875 -21.046875 2.296875 -21.046875 
Q -1.265625 -21.046875 -4.59375 -20.125 
z
" id="ArialMT-6a"/>
     <path d="M 14.703125 0 
L 6.546875 0 
L 6.546875 71.578125 
L 15.328125 71.578125 
L 15.328125 46.046875 
Q 20.90625 53.03125 29.546875 53.03125 
Q 34.328125 53.03125 38.59375 51.09375 
Q 42.875 49.171875 45.625 45.671875 
Q 48.390625 42.1875 49.953125 37.25 
Q 51.515625 32.328125 51.515625 26.703125 
Q 51.515625 13.375 44.921875 6.09375 
Q 38.328125 -1.171875 29.109375 -1.171875 
Q 19.921875 -1.171875 14.703125 6.5 
z
M 14.59375 26.3125 
Q 14.59375 17 17.140625 12.84375 
Q 21.296875 6.0625 28.375 6.0625 
Q 34.125 6.0625 38.328125 11.0625 
Q 42.53125 16.0625 42.53125 25.984375 
Q 42.53125 36.140625 38.5 40.96875 
Q 34.46875 45.796875 28.765625 45.796875 
Q 23 45.796875 18.796875 40.796875 
Q 14.59375 35.796875 14.59375 26.3125 
z
" id="ArialMT-62"/>
     <path d="M 23.390625 -21.046875 
Q 16.109375 -11.859375 11.078125 0.4375 
Q 6.0625 12.75 6.0625 25.921875 
Q 6.0625 37.546875 9.8125 48.1875 
Q 14.203125 60.546875 23.390625 72.796875 
L 29.6875 72.796875 
Q 23.78125 62.640625 21.875 58.296875 
Q 18.890625 51.5625 17.1875 44.234375 
Q 15.09375 35.109375 15.09375 25.875 
Q 15.09375 2.390625 29.6875 -21.046875 
z
" id="ArialMT-28"/>
     <path d="M 12.359375 -21.046875 
L 6.0625 -21.046875 
Q 20.65625 2.390625 20.65625 25.875 
Q 20.65625 35.0625 18.5625 44.09375 
Q 16.890625 51.421875 13.921875 58.15625 
Q 12.015625 62.546875 6.0625 72.796875 
L 12.359375 72.796875 
Q 21.53125 60.546875 25.921875 48.1875 
Q 29.6875 37.546875 29.6875 25.921875 
Q 29.6875 12.75 24.625 0.4375 
Q 19.578125 -11.859375 12.359375 -21.046875 
z
" id="ArialMT-29"/>
     <path d="M 17.671875 38.8125 
Q 12.203125 40.828125 9.5625 44.53125 
Q 6.9375 48.25 6.9375 53.421875 
Q 6.9375 61.234375 12.546875 66.546875 
Q 18.171875 71.875 27.484375 71.875 
Q 36.859375 71.875 42.578125 66.421875 
Q 48.296875 60.984375 48.296875 53.171875 
Q 48.296875 48.1875 45.671875 44.5 
Q 43.0625 40.828125 37.75 38.8125 
Q 44.34375 36.671875 47.78125 31.875 
Q 51.21875 27.09375 51.21875 20.453125 
Q 51.21875 11.28125 44.71875 5.03125 
Q 38.234375 -1.21875 27.640625 -1.21875 
Q 17.046875 -1.21875 10.546875 5.046875 
Q 4.046875 11.328125 4.046875 20.703125 
Q 4.046875 27.6875 7.59375 32.390625 
Q 11.140625 37.109375 17.671875 38.8125 
z
M 15.921875 53.71875 
Q 15.921875 48.640625 19.1875 45.40625 
Q 22.46875 42.1875 27.6875 42.1875 
Q 32.765625 42.1875 36.015625 45.375 
Q 39.265625 48.578125 39.265625 53.21875 
Q 39.265625 58.0625 35.90625 61.359375 
Q 32.5625 64.65625 27.59375 64.65625 
Q 22.5625 64.65625 19.234375 61.421875 
Q 15.921875 58.203125 15.921875 53.71875 
z
M 13.09375 20.65625 
Q 13.09375 16.890625 14.875 13.375 
Q 16.65625 9.859375 20.171875 7.921875 
Q 23.6875 6 27.734375 6 
Q 34.03125 6 38.125 10.046875 
Q 42.234375 14.109375 42.234375 20.359375 
Q 42.234375 26.703125 38.015625 30.859375 
Q 33.796875 35.015625 27.4375 35.015625 
Q 21.234375 35.015625 17.15625 30.90625 
Q 13.09375 26.8125 13.09375 20.65625 
z
" id="ArialMT-38"/>
    </defs>
    <g style="fill:#262626;" transform="translate(16.310975 302.114586)scale(0.14 -0.14)">
     <use xlink:href="#ArialMT-53"/>
     <use x="66.699219" xlink:href="#ArialMT-6f"/>
     <use x="122.314453" xlink:href="#ArialMT-75"/>
     <use x="177.929688" xlink:href="#ArialMT-72"/>
     <use x="211.230469" xlink:href="#ArialMT-63"/>
     <use x="261.230469" xlink:href="#ArialMT-65"/>
     <use x="316.845703" xlink:href="#ArialMT-3a"/>
     <use x="344.628906" xlink:href="#ArialMT-20"/>
     <use x="372.412109" xlink:href="#ArialMT-4d"/>
     <use x="455.712891" xlink:href="#ArialMT-61"/>
     <use x="511.328125" xlink:href="#ArialMT-64"/>
     <use x="566.943359" xlink:href="#ArialMT-64"/>
     <use x="622.558594" xlink:href="#ArialMT-69"/>
     <use x="644.775391" xlink:href="#ArialMT-73"/>
     <use x="694.775391" xlink:href="#ArialMT-6f"/>
     <use x="750.390625" xlink:href="#ArialMT-6e"/>
     <use x="806.005859" xlink:href="#ArialMT-20"/>
     <use x="833.789062" xlink:href="#ArialMT-50"/>
     <use x="900.488281" xlink:href="#ArialMT-72"/>
     <use x="933.789062" xlink:href="#ArialMT-6f"/>
     <use x="989.404297" xlink:href="#ArialMT-6a"/>
     <use x="1011.621094" xlink:href="#ArialMT-65"/>
     <use x="1067.236328" xlink:href="#ArialMT-63"/>
     <use x="1117.236328" xlink:href="#ArialMT-74"/>
     <use x="1145.019531" xlink:href="#ArialMT-20"/>
     <use x="1172.802734" xlink:href="#ArialMT-44"/>
     <use x="1245.019531" xlink:href="#ArialMT-61"/>
     <use x="1300.634766" xlink:href="#ArialMT-74"/>
     <use x="1328.417969" xlink:href="#ArialMT-61"/>
     <use x="1384.033203" xlink:href="#ArialMT-62"/>
     <use x="1439.648438" xlink:href="#ArialMT-61"/>
     <use x="1495.263672" xlink:href="#ArialMT-73"/>
     <use x="1545.263672" xlink:href="#ArialMT-65"/>
     <use x="1600.878906" xlink:href="#ArialMT-20"/>
     <use x="1628.662109" xlink:href="#ArialMT-28"/>
     <use x="1661.962891" xlink:href="#ArialMT-4d"/>
     <use x="1745.263672" xlink:href="#ArialMT-50"/>
     <use x="1811.962891" xlink:href="#ArialMT-44"/>
     <use x="1884.179688" xlink:href="#ArialMT-29"/>
     <use x="1917.480469" xlink:href="#ArialMT-20"/>
     <use x="1945.263672" xlink:href="#ArialMT-32"/>
     <use x="2000.878906" xlink:href="#ArialMT-30"/>
     <use x="2056.494141" xlink:href="#ArialMT-31"/>
     <use x="2112.109375" xlink:href="#ArialMT-38"/>
    </g>
   </g>
  </g>
 </g>
 <defs>
  <clipPath id="p79ad068c28">
   <rect height="217.44" width="334.8" x="79.195438" y="17.2"/>
  </clipPath>
 </defs>
</svg>
