<?xml version="1.0" encoding="utf-8" standalone="no"?>
<!DOCTYPE svg PUBLIC "-//W3C//DTD SVG 1.1//EN"
  "http://www.w3.org/Graphics/SVG/1.1/DTD/svg11.dtd">
<!-- Created with matplotlib (https://matplotlib.org/) -->
<svg height="303.437039pt" version="1.1" viewBox="0 0 529.225152 303.437039" width="529.225152pt" xmlns="http://www.w3.org/2000/svg" xmlns:xlink="http://www.w3.org/1999/xlink">
 <defs>
  <style type="text/css">
*{stroke-linecap:butt;stroke-linejoin:round;white-space:pre;}
  </style>
 </defs>
 <g id="figure_1">
  <g id="patch_1">
   <path d="M 0 303.437039 
L 529.225152 303.437039 
L 529.225152 0 
L 0 0 
z
" style="fill:#ffffff;"/>
  </g>
  <g id="axes_1">
   <g id="patch_2">
    <path d="M 85.49675 225.394176 
L 420.29675 225.394176 
L 420.29675 7.954176 
L 85.49675 7.954176 
z
" style="fill:#ffffff;"/>
   </g>
   <g id="matplotlib.axis_1">
    <g id="xtick_1">
     <g id="line2d_1">
      <path clip-path="url(#p85130e0ab2)" d="M 100.714932 225.394176 
L 100.714932 7.954176 
" style="fill:none;stroke:#cccccc;stroke-linecap:round;stroke-opacity:0.9;"/>
     </g>
     <g id="text_1">
      <!-- 1750 -->
      <defs>
       <path d="M 12.40625 8.296875 
L 28.515625 8.296875 
L 28.515625 63.921875 
L 10.984375 60.40625 
L 10.984375 69.390625 
L 28.421875 72.90625 
L 38.28125 72.90625 
L 38.28125 8.296875 
L 54.390625 8.296875 
L 54.390625 0 
L 12.40625 0 
z
" id="DejaVuSans-49"/>
       <path d="M 8.203125 72.90625 
L 55.078125 72.90625 
L 55.078125 68.703125 
L 28.609375 0 
L 18.3125 0 
L 43.21875 64.59375 
L 8.203125 64.59375 
z
" id="DejaVuSans-55"/>
       <path d="M 10.796875 72.90625 
L 49.515625 72.90625 
L 49.515625 64.59375 
L 19.828125 64.59375 
L 19.828125 46.734375 
Q 21.96875 47.46875 24.109375 47.828125 
Q 26.265625 48.1875 28.421875 48.1875 
Q 40.625 48.1875 47.75 41.5 
Q 54.890625 34.8125 54.890625 23.390625 
Q 54.890625 11.625 47.5625 5.09375 
Q 40.234375 -1.421875 26.90625 -1.421875 
Q 22.3125 -1.421875 17.546875 -0.640625 
Q 12.796875 0.140625 7.71875 1.703125 
L 7.71875 11.625 
Q 12.109375 9.234375 16.796875 8.0625 
Q 21.484375 6.890625 26.703125 6.890625 
Q 35.15625 6.890625 40.078125 11.328125 
Q 45.015625 15.765625 45.015625 23.390625 
Q 45.015625 31 40.078125 35.4375 
Q 35.15625 39.890625 26.703125 39.890625 
Q 22.75 39.890625 18.8125 39.015625 
Q 14.890625 38.140625 10.796875 36.28125 
z
" id="DejaVuSans-53"/>
       <path d="M 31.78125 66.40625 
Q 24.171875 66.40625 20.328125 58.90625 
Q 16.5 51.421875 16.5 36.375 
Q 16.5 21.390625 20.328125 13.890625 
Q 24.171875 6.390625 31.78125 6.390625 
Q 39.453125 6.390625 43.28125 13.890625 
Q 47.125 21.390625 47.125 36.375 
Q 47.125 51.421875 43.28125 58.90625 
Q 39.453125 66.40625 31.78125 66.40625 
z
M 31.78125 74.21875 
Q 44.046875 74.21875 50.515625 64.515625 
Q 56.984375 54.828125 56.984375 36.375 
Q 56.984375 17.96875 50.515625 8.265625 
Q 44.046875 -1.421875 31.78125 -1.421875 
Q 19.53125 -1.421875 13.0625 8.265625 
Q 6.59375 17.96875 6.59375 36.375 
Q 6.59375 54.828125 13.0625 64.515625 
Q 19.53125 74.21875 31.78125 74.21875 
z
" id="DejaVuSans-48"/>
      </defs>
      <g style="fill:#262626;" transform="translate(82.899932 249.531989)scale(0.14 -0.14)">
       <use xlink:href="#DejaVuSans-49"/>
       <use x="63.623047" xlink:href="#DejaVuSans-55"/>
       <use x="127.246094" xlink:href="#DejaVuSans-53"/>
       <use x="190.869141" xlink:href="#DejaVuSans-48"/>
      </g>
     </g>
    </g>
    <g id="xtick_2">
     <g id="line2d_2">
      <path clip-path="url(#p85130e0ab2)" d="M 157.926142 225.394176 
L 157.926142 7.954176 
" style="fill:none;stroke:#cccccc;stroke-linecap:round;stroke-opacity:0.9;"/>
     </g>
     <g id="text_2">
      <!-- 1800 -->
      <defs>
       <path d="M 31.78125 34.625 
Q 24.75 34.625 20.71875 30.859375 
Q 16.703125 27.09375 16.703125 20.515625 
Q 16.703125 13.921875 20.71875 10.15625 
Q 24.75 6.390625 31.78125 6.390625 
Q 38.8125 6.390625 42.859375 10.171875 
Q 46.921875 13.96875 46.921875 20.515625 
Q 46.921875 27.09375 42.890625 30.859375 
Q 38.875 34.625 31.78125 34.625 
z
M 21.921875 38.8125 
Q 15.578125 40.375 12.03125 44.71875 
Q 8.5 49.078125 8.5 55.328125 
Q 8.5 64.0625 14.71875 69.140625 
Q 20.953125 74.21875 31.78125 74.21875 
Q 42.671875 74.21875 48.875 69.140625 
Q 55.078125 64.0625 55.078125 55.328125 
Q 55.078125 49.078125 51.53125 44.71875 
Q 48 40.375 41.703125 38.8125 
Q 48.828125 37.15625 52.796875 32.3125 
Q 56.78125 27.484375 56.78125 20.515625 
Q 56.78125 9.90625 50.3125 4.234375 
Q 43.84375 -1.421875 31.78125 -1.421875 
Q 19.734375 -1.421875 13.25 4.234375 
Q 6.78125 9.90625 6.78125 20.515625 
Q 6.78125 27.484375 10.78125 32.3125 
Q 14.796875 37.15625 21.921875 38.8125 
z
M 18.3125 54.390625 
Q 18.3125 48.734375 21.84375 45.5625 
Q 25.390625 42.390625 31.78125 42.390625 
Q 38.140625 42.390625 41.71875 45.5625 
Q 45.3125 48.734375 45.3125 54.390625 
Q 45.3125 60.0625 41.71875 63.234375 
Q 38.140625 66.40625 31.78125 66.40625 
Q 25.390625 66.40625 21.84375 63.234375 
Q 18.3125 60.0625 18.3125 54.390625 
z
" id="DejaVuSans-56"/>
      </defs>
      <g style="fill:#262626;" transform="translate(140.111142 249.531989)scale(0.14 -0.14)">
       <use xlink:href="#DejaVuSans-49"/>
       <use x="63.623047" xlink:href="#DejaVuSans-56"/>
       <use x="127.246094" xlink:href="#DejaVuSans-48"/>
       <use x="190.869141" xlink:href="#DejaVuSans-48"/>
      </g>
     </g>
    </g>
    <g id="xtick_3">
     <g id="line2d_3">
      <path clip-path="url(#p85130e0ab2)" d="M 215.137352 225.394176 
L 215.137352 7.954176 
" style="fill:none;stroke:#cccccc;stroke-linecap:round;stroke-opacity:0.9;"/>
     </g>
     <g id="text_3">
      <!-- 1850 -->
      <g style="fill:#262626;" transform="translate(197.322352 249.531989)scale(0.14 -0.14)">
       <use xlink:href="#DejaVuSans-49"/>
       <use x="63.623047" xlink:href="#DejaVuSans-56"/>
       <use x="127.246094" xlink:href="#DejaVuSans-53"/>
       <use x="190.869141" xlink:href="#DejaVuSans-48"/>
      </g>
     </g>
    </g>
    <g id="xtick_4">
     <g id="line2d_4">
      <path clip-path="url(#p85130e0ab2)" d="M 272.348561 225.394176 
L 272.348561 7.954176 
" style="fill:none;stroke:#cccccc;stroke-linecap:round;stroke-opacity:0.9;"/>
     </g>
     <g id="text_4">
      <!-- 1900 -->
      <defs>
       <path d="M 10.984375 1.515625 
L 10.984375 10.5 
Q 14.703125 8.734375 18.5 7.8125 
Q 22.3125 6.890625 25.984375 6.890625 
Q 35.75 6.890625 40.890625 13.453125 
Q 46.046875 20.015625 46.78125 33.40625 
Q 43.953125 29.203125 39.59375 26.953125 
Q 35.25 24.703125 29.984375 24.703125 
Q 19.046875 24.703125 12.671875 31.3125 
Q 6.296875 37.9375 6.296875 49.421875 
Q 6.296875 60.640625 12.9375 67.421875 
Q 19.578125 74.21875 30.609375 74.21875 
Q 43.265625 74.21875 49.921875 64.515625 
Q 56.59375 54.828125 56.59375 36.375 
Q 56.59375 19.140625 48.40625 8.859375 
Q 40.234375 -1.421875 26.421875 -1.421875 
Q 22.703125 -1.421875 18.890625 -0.6875 
Q 15.09375 0.046875 10.984375 1.515625 
z
M 30.609375 32.421875 
Q 37.25 32.421875 41.125 36.953125 
Q 45.015625 41.5 45.015625 49.421875 
Q 45.015625 57.28125 41.125 61.84375 
Q 37.25 66.40625 30.609375 66.40625 
Q 23.96875 66.40625 20.09375 61.84375 
Q 16.21875 57.28125 16.21875 49.421875 
Q 16.21875 41.5 20.09375 36.953125 
Q 23.96875 32.421875 30.609375 32.421875 
z
" id="DejaVuSans-57"/>
      </defs>
      <g style="fill:#262626;" transform="translate(254.533561 249.531989)scale(0.14 -0.14)">
       <use xlink:href="#DejaVuSans-49"/>
       <use x="63.623047" xlink:href="#DejaVuSans-57"/>
       <use x="127.246094" xlink:href="#DejaVuSans-48"/>
       <use x="190.869141" xlink:href="#DejaVuSans-48"/>
      </g>
     </g>
    </g>
    <g id="xtick_5">
     <g id="line2d_5">
      <path clip-path="url(#p85130e0ab2)" d="M 329.559771 225.394176 
L 329.559771 7.954176 
" style="fill:none;stroke:#cccccc;stroke-linecap:round;stroke-opacity:0.9;"/>
     </g>
     <g id="text_5">
      <!-- 1950 -->
      <g style="fill:#262626;" transform="translate(311.744771 249.531989)scale(0.14 -0.14)">
       <use xlink:href="#DejaVuSans-49"/>
       <use x="63.623047" xlink:href="#DejaVuSans-57"/>
       <use x="127.246094" xlink:href="#DejaVuSans-53"/>
       <use x="190.869141" xlink:href="#DejaVuSans-48"/>
      </g>
     </g>
    </g>
    <g id="xtick_6">
     <g id="line2d_6">
      <path clip-path="url(#p85130e0ab2)" d="M 386.770981 225.394176 
L 386.770981 7.954176 
" style="fill:none;stroke:#cccccc;stroke-linecap:round;stroke-opacity:0.9;"/>
     </g>
     <g id="text_6">
      <!-- 2000 -->
      <defs>
       <path d="M 19.1875 8.296875 
L 53.609375 8.296875 
L 53.609375 0 
L 7.328125 0 
L 7.328125 8.296875 
Q 12.9375 14.109375 22.625 23.890625 
Q 32.328125 33.6875 34.8125 36.53125 
Q 39.546875 41.84375 41.421875 45.53125 
Q 43.3125 49.21875 43.3125 52.78125 
Q 43.3125 58.59375 39.234375 62.25 
Q 35.15625 65.921875 28.609375 65.921875 
Q 23.96875 65.921875 18.8125 64.3125 
Q 13.671875 62.703125 7.8125 59.421875 
L 7.8125 69.390625 
Q 13.765625 71.78125 18.9375 73 
Q 24.125 74.21875 28.421875 74.21875 
Q 39.75 74.21875 46.484375 68.546875 
Q 53.21875 62.890625 53.21875 53.421875 
Q 53.21875 48.921875 51.53125 44.890625 
Q 49.859375 40.875 45.40625 35.40625 
Q 44.1875 33.984375 37.640625 27.21875 
Q 31.109375 20.453125 19.1875 8.296875 
z
" id="DejaVuSans-50"/>
      </defs>
      <g style="fill:#262626;" transform="translate(368.955981 249.531989)scale(0.14 -0.14)">
       <use xlink:href="#DejaVuSans-50"/>
       <use x="63.623047" xlink:href="#DejaVuSans-48"/>
       <use x="127.246094" xlink:href="#DejaVuSans-48"/>
       <use x="190.869141" xlink:href="#DejaVuSans-48"/>
      </g>
     </g>
    </g>
    <g id="text_7">
     <!-- Year -->
     <defs>
      <path d="M -0.203125 72.90625 
L 10.40625 72.90625 
L 30.609375 42.921875 
L 50.6875 72.90625 
L 61.28125 72.90625 
L 35.5 34.71875 
L 35.5 0 
L 25.59375 0 
L 25.59375 34.71875 
z
" id="DejaVuSans-89"/>
      <path d="M 56.203125 29.59375 
L 56.203125 25.203125 
L 14.890625 25.203125 
Q 15.484375 15.921875 20.484375 11.0625 
Q 25.484375 6.203125 34.421875 6.203125 
Q 39.59375 6.203125 44.453125 7.46875 
Q 49.3125 8.734375 54.109375 11.28125 
L 54.109375 2.78125 
Q 49.265625 0.734375 44.1875 -0.34375 
Q 39.109375 -1.421875 33.890625 -1.421875 
Q 20.796875 -1.421875 13.15625 6.1875 
Q 5.515625 13.8125 5.515625 26.8125 
Q 5.515625 40.234375 12.765625 48.109375 
Q 20.015625 56 32.328125 56 
Q 43.359375 56 49.78125 48.890625 
Q 56.203125 41.796875 56.203125 29.59375 
z
M 47.21875 32.234375 
Q 47.125 39.59375 43.09375 43.984375 
Q 39.0625 48.390625 32.421875 48.390625 
Q 24.90625 48.390625 20.390625 44.140625 
Q 15.875 39.890625 15.1875 32.171875 
z
" id="DejaVuSans-101"/>
      <path d="M 34.28125 27.484375 
Q 23.390625 27.484375 19.1875 25 
Q 14.984375 22.515625 14.984375 16.5 
Q 14.984375 11.71875 18.140625 8.90625 
Q 21.296875 6.109375 26.703125 6.109375 
Q 34.1875 6.109375 38.703125 11.40625 
Q 43.21875 16.703125 43.21875 25.484375 
L 43.21875 27.484375 
z
M 52.203125 31.203125 
L 52.203125 0 
L 43.21875 0 
L 43.21875 8.296875 
Q 40.140625 3.328125 35.546875 0.953125 
Q 30.953125 -1.421875 24.3125 -1.421875 
Q 15.921875 -1.421875 10.953125 3.296875 
Q 6 8.015625 6 15.921875 
Q 6 25.140625 12.171875 29.828125 
Q 18.359375 34.515625 30.609375 34.515625 
L 43.21875 34.515625 
L 43.21875 35.40625 
Q 43.21875 41.609375 39.140625 45 
Q 35.0625 48.390625 27.6875 48.390625 
Q 23 48.390625 18.546875 47.265625 
Q 14.109375 46.140625 10.015625 43.890625 
L 10.015625 52.203125 
Q 14.9375 54.109375 19.578125 55.046875 
Q 24.21875 56 28.609375 56 
Q 40.484375 56 46.34375 49.84375 
Q 52.203125 43.703125 52.203125 31.203125 
z
" id="DejaVuSans-97"/>
      <path d="M 41.109375 46.296875 
Q 39.59375 47.171875 37.8125 47.578125 
Q 36.03125 48 33.890625 48 
Q 26.265625 48 22.1875 43.046875 
Q 18.109375 38.09375 18.109375 28.8125 
L 18.109375 0 
L 9.078125 0 
L 9.078125 54.6875 
L 18.109375 54.6875 
L 18.109375 46.1875 
Q 20.953125 51.171875 25.484375 53.578125 
Q 30.03125 56 36.53125 56 
Q 37.453125 56 38.578125 55.875 
Q 39.703125 55.765625 41.0625 55.515625 
z
" id="DejaVuSans-114"/>
     </defs>
     <g style="fill:#262626;" transform="translate(234.013813 269.208926)scale(0.168 -0.168)">
      <use xlink:href="#DejaVuSans-89"/>
      <use x="60.880859" xlink:href="#DejaVuSans-101"/>
      <use x="122.404297" xlink:href="#DejaVuSans-97"/>
      <use x="183.683594" xlink:href="#DejaVuSans-114"/>
     </g>
    </g>
   </g>
   <g id="matplotlib.axis_2">
    <g id="ytick_1">
     <g id="line2d_7">
      <path clip-path="url(#p85130e0ab2)" d="M 85.49675 217.864909 
L 420.29675 217.864909 
" style="fill:none;stroke:#cccccc;stroke-linecap:round;stroke-opacity:0.9;"/>
     </g>
     <g id="text_8">
      <!-- 0 -->
      <g style="fill:#262626;" transform="translate(63.08925 223.183816)scale(0.14 -0.14)">
       <use xlink:href="#DejaVuSans-48"/>
      </g>
     </g>
    </g>
    <g id="ytick_2">
     <g id="line2d_8">
      <path clip-path="url(#p85130e0ab2)" d="M 85.49675 180.134626 
L 420.29675 180.134626 
" style="fill:none;stroke:#cccccc;stroke-linecap:round;stroke-opacity:0.9;"/>
     </g>
     <g id="text_9">
      <!-- 10000 -->
      <g style="fill:#262626;" transform="translate(27.45925 185.453532)scale(0.14 -0.14)">
       <use xlink:href="#DejaVuSans-49"/>
       <use x="63.623047" xlink:href="#DejaVuSans-48"/>
       <use x="127.246094" xlink:href="#DejaVuSans-48"/>
       <use x="190.869141" xlink:href="#DejaVuSans-48"/>
       <use x="254.492188" xlink:href="#DejaVuSans-48"/>
      </g>
     </g>
    </g>
    <g id="ytick_3">
     <g id="line2d_9">
      <path clip-path="url(#p85130e0ab2)" d="M 85.49675 142.404343 
L 420.29675 142.404343 
" style="fill:none;stroke:#cccccc;stroke-linecap:round;stroke-opacity:0.9;"/>
     </g>
     <g id="text_10">
      <!-- 20000 -->
      <g style="fill:#262626;" transform="translate(27.45925 147.723249)scale(0.14 -0.14)">
       <use xlink:href="#DejaVuSans-50"/>
       <use x="63.623047" xlink:href="#DejaVuSans-48"/>
       <use x="127.246094" xlink:href="#DejaVuSans-48"/>
       <use x="190.869141" xlink:href="#DejaVuSans-48"/>
       <use x="254.492188" xlink:href="#DejaVuSans-48"/>
      </g>
     </g>
    </g>
    <g id="ytick_4">
     <g id="line2d_10">
      <path clip-path="url(#p85130e0ab2)" d="M 85.49675 104.67406 
L 420.29675 104.67406 
" style="fill:none;stroke:#cccccc;stroke-linecap:round;stroke-opacity:0.9;"/>
     </g>
     <g id="text_11">
      <!-- 30000 -->
      <defs>
       <path d="M 40.578125 39.3125 
Q 47.65625 37.796875 51.625 33 
Q 55.609375 28.21875 55.609375 21.1875 
Q 55.609375 10.40625 48.1875 4.484375 
Q 40.765625 -1.421875 27.09375 -1.421875 
Q 22.515625 -1.421875 17.65625 -0.515625 
Q 12.796875 0.390625 7.625 2.203125 
L 7.625 11.71875 
Q 11.71875 9.328125 16.59375 8.109375 
Q 21.484375 6.890625 26.8125 6.890625 
Q 36.078125 6.890625 40.9375 10.546875 
Q 45.796875 14.203125 45.796875 21.1875 
Q 45.796875 27.640625 41.28125 31.265625 
Q 36.765625 34.90625 28.71875 34.90625 
L 20.21875 34.90625 
L 20.21875 43.015625 
L 29.109375 43.015625 
Q 36.375 43.015625 40.234375 45.921875 
Q 44.09375 48.828125 44.09375 54.296875 
Q 44.09375 59.90625 40.109375 62.90625 
Q 36.140625 65.921875 28.71875 65.921875 
Q 24.65625 65.921875 20.015625 65.03125 
Q 15.375 64.15625 9.8125 62.3125 
L 9.8125 71.09375 
Q 15.4375 72.65625 20.34375 73.4375 
Q 25.25 74.21875 29.59375 74.21875 
Q 40.828125 74.21875 47.359375 69.109375 
Q 53.90625 64.015625 53.90625 55.328125 
Q 53.90625 49.265625 50.4375 45.09375 
Q 46.96875 40.921875 40.578125 39.3125 
z
" id="DejaVuSans-51"/>
      </defs>
      <g style="fill:#262626;" transform="translate(27.45925 109.992966)scale(0.14 -0.14)">
       <use xlink:href="#DejaVuSans-51"/>
       <use x="63.623047" xlink:href="#DejaVuSans-48"/>
       <use x="127.246094" xlink:href="#DejaVuSans-48"/>
       <use x="190.869141" xlink:href="#DejaVuSans-48"/>
       <use x="254.492188" xlink:href="#DejaVuSans-48"/>
      </g>
     </g>
    </g>
    <g id="ytick_5">
     <g id="line2d_11">
      <path clip-path="url(#p85130e0ab2)" d="M 85.49675 66.943776 
L 420.29675 66.943776 
" style="fill:none;stroke:#cccccc;stroke-linecap:round;stroke-opacity:0.9;"/>
     </g>
     <g id="text_12">
      <!-- 40000 -->
      <defs>
       <path d="M 37.796875 64.3125 
L 12.890625 25.390625 
L 37.796875 25.390625 
z
M 35.203125 72.90625 
L 47.609375 72.90625 
L 47.609375 25.390625 
L 58.015625 25.390625 
L 58.015625 17.1875 
L 47.609375 17.1875 
L 47.609375 0 
L 37.796875 0 
L 37.796875 17.1875 
L 4.890625 17.1875 
L 4.890625 26.703125 
z
" id="DejaVuSans-52"/>
      </defs>
      <g style="fill:#262626;" transform="translate(27.45925 72.262682)scale(0.14 -0.14)">
       <use xlink:href="#DejaVuSans-52"/>
       <use x="63.623047" xlink:href="#DejaVuSans-48"/>
       <use x="127.246094" xlink:href="#DejaVuSans-48"/>
       <use x="190.869141" xlink:href="#DejaVuSans-48"/>
       <use x="254.492188" xlink:href="#DejaVuSans-48"/>
      </g>
     </g>
    </g>
    <g id="ytick_6">
     <g id="line2d_12">
      <path clip-path="url(#p85130e0ab2)" d="M 85.49675 29.213493 
L 420.29675 29.213493 
" style="fill:none;stroke:#cccccc;stroke-linecap:round;stroke-opacity:0.9;"/>
     </g>
     <g id="text_13">
      <!-- 50000 -->
      <g style="fill:#262626;" transform="translate(27.45925 34.532399)scale(0.14 -0.14)">
       <use xlink:href="#DejaVuSans-53"/>
       <use x="63.623047" xlink:href="#DejaVuSans-48"/>
       <use x="127.246094" xlink:href="#DejaVuSans-48"/>
       <use x="190.869141" xlink:href="#DejaVuSans-48"/>
       <use x="254.492188" xlink:href="#DejaVuSans-48"/>
      </g>
     </g>
    </g>
    <g id="text_14">
     <!-- GDP per capita -->
     <defs>
      <path d="M 59.515625 10.40625 
L 59.515625 29.984375 
L 43.40625 29.984375 
L 43.40625 38.09375 
L 69.28125 38.09375 
L 69.28125 6.78125 
Q 63.578125 2.734375 56.6875 0.65625 
Q 49.8125 -1.421875 42 -1.421875 
Q 24.90625 -1.421875 15.25 8.5625 
Q 5.609375 18.5625 5.609375 36.375 
Q 5.609375 54.25 15.25 64.234375 
Q 24.90625 74.21875 42 74.21875 
Q 49.125 74.21875 55.546875 72.453125 
Q 61.96875 70.703125 67.390625 67.28125 
L 67.390625 56.78125 
Q 61.921875 61.421875 55.765625 63.765625 
Q 49.609375 66.109375 42.828125 66.109375 
Q 29.4375 66.109375 22.71875 58.640625 
Q 16.015625 51.171875 16.015625 36.375 
Q 16.015625 21.625 22.71875 14.15625 
Q 29.4375 6.6875 42.828125 6.6875 
Q 48.046875 6.6875 52.140625 7.59375 
Q 56.25 8.5 59.515625 10.40625 
z
" id="DejaVuSans-71"/>
      <path d="M 19.671875 64.796875 
L 19.671875 8.109375 
L 31.59375 8.109375 
Q 46.6875 8.109375 53.6875 14.9375 
Q 60.6875 21.78125 60.6875 36.53125 
Q 60.6875 51.171875 53.6875 57.984375 
Q 46.6875 64.796875 31.59375 64.796875 
z
M 9.8125 72.90625 
L 30.078125 72.90625 
Q 51.265625 72.90625 61.171875 64.09375 
Q 71.09375 55.28125 71.09375 36.53125 
Q 71.09375 17.671875 61.125 8.828125 
Q 51.171875 0 30.078125 0 
L 9.8125 0 
z
" id="DejaVuSans-68"/>
      <path d="M 19.671875 64.796875 
L 19.671875 37.40625 
L 32.078125 37.40625 
Q 38.96875 37.40625 42.71875 40.96875 
Q 46.484375 44.53125 46.484375 51.125 
Q 46.484375 57.671875 42.71875 61.234375 
Q 38.96875 64.796875 32.078125 64.796875 
z
M 9.8125 72.90625 
L 32.078125 72.90625 
Q 44.34375 72.90625 50.609375 67.359375 
Q 56.890625 61.8125 56.890625 51.125 
Q 56.890625 40.328125 50.609375 34.8125 
Q 44.34375 29.296875 32.078125 29.296875 
L 19.671875 29.296875 
L 19.671875 0 
L 9.8125 0 
z
" id="DejaVuSans-80"/>
      <path id="DejaVuSans-32"/>
      <path d="M 18.109375 8.203125 
L 18.109375 -20.796875 
L 9.078125 -20.796875 
L 9.078125 54.6875 
L 18.109375 54.6875 
L 18.109375 46.390625 
Q 20.953125 51.265625 25.265625 53.625 
Q 29.59375 56 35.59375 56 
Q 45.5625 56 51.78125 48.09375 
Q 58.015625 40.1875 58.015625 27.296875 
Q 58.015625 14.40625 51.78125 6.484375 
Q 45.5625 -1.421875 35.59375 -1.421875 
Q 29.59375 -1.421875 25.265625 0.953125 
Q 20.953125 3.328125 18.109375 8.203125 
z
M 48.6875 27.296875 
Q 48.6875 37.203125 44.609375 42.84375 
Q 40.53125 48.484375 33.40625 48.484375 
Q 26.265625 48.484375 22.1875 42.84375 
Q 18.109375 37.203125 18.109375 27.296875 
Q 18.109375 17.390625 22.1875 11.75 
Q 26.265625 6.109375 33.40625 6.109375 
Q 40.53125 6.109375 44.609375 11.75 
Q 48.6875 17.390625 48.6875 27.296875 
z
" id="DejaVuSans-112"/>
      <path d="M 48.78125 52.59375 
L 48.78125 44.1875 
Q 44.96875 46.296875 41.140625 47.34375 
Q 37.3125 48.390625 33.40625 48.390625 
Q 24.65625 48.390625 19.8125 42.84375 
Q 14.984375 37.3125 14.984375 27.296875 
Q 14.984375 17.28125 19.8125 11.734375 
Q 24.65625 6.203125 33.40625 6.203125 
Q 37.3125 6.203125 41.140625 7.25 
Q 44.96875 8.296875 48.78125 10.40625 
L 48.78125 2.09375 
Q 45.015625 0.34375 40.984375 -0.53125 
Q 36.96875 -1.421875 32.421875 -1.421875 
Q 20.0625 -1.421875 12.78125 6.34375 
Q 5.515625 14.109375 5.515625 27.296875 
Q 5.515625 40.671875 12.859375 48.328125 
Q 20.21875 56 33.015625 56 
Q 37.15625 56 41.109375 55.140625 
Q 45.0625 54.296875 48.78125 52.59375 
z
" id="DejaVuSans-99"/>
      <path d="M 9.421875 54.6875 
L 18.40625 54.6875 
L 18.40625 0 
L 9.421875 0 
z
M 9.421875 75.984375 
L 18.40625 75.984375 
L 18.40625 64.59375 
L 9.421875 64.59375 
z
" id="DejaVuSans-105"/>
      <path d="M 18.3125 70.21875 
L 18.3125 54.6875 
L 36.8125 54.6875 
L 36.8125 47.703125 
L 18.3125 47.703125 
L 18.3125 18.015625 
Q 18.3125 11.328125 20.140625 9.421875 
Q 21.96875 7.515625 27.59375 7.515625 
L 36.8125 7.515625 
L 36.8125 0 
L 27.59375 0 
Q 17.1875 0 13.234375 3.875 
Q 9.28125 7.765625 9.28125 18.015625 
L 9.28125 47.703125 
L 2.6875 47.703125 
L 2.6875 54.6875 
L 9.28125 54.6875 
L 9.28125 70.21875 
z
" id="DejaVuSans-116"/>
     </defs>
     <g style="fill:#262626;" transform="translate(19.965375 179.882864)rotate(-90)scale(0.168 -0.168)">
      <use xlink:href="#DejaVuSans-71"/>
      <use x="77.490234" xlink:href="#DejaVuSans-68"/>
      <use x="154.492188" xlink:href="#DejaVuSans-80"/>
      <use x="214.794922" xlink:href="#DejaVuSans-32"/>
      <use x="246.582031" xlink:href="#DejaVuSans-112"/>
      <use x="310.058594" xlink:href="#DejaVuSans-101"/>
      <use x="371.582031" xlink:href="#DejaVuSans-114"/>
      <use x="412.695312" xlink:href="#DejaVuSans-32"/>
      <use x="444.482422" xlink:href="#DejaVuSans-99"/>
      <use x="499.462891" xlink:href="#DejaVuSans-97"/>
      <use x="560.742188" xlink:href="#DejaVuSans-112"/>
      <use x="624.21875" xlink:href="#DejaVuSans-105"/>
      <use x="652.001953" xlink:href="#DejaVuSans-116"/>
      <use x="691.210938" xlink:href="#DejaVuSans-97"/>
     </g>
    </g>
   </g>
   <g id="line2d_13">
    <path clip-path="url(#p85130e0ab2)" d="M 119.022519 215.276612 
L 171.656832 215.51054 
L 180.810626 215.069095 
L 186.531747 215.163421 
L 215.137352 215.438852 
L 238.021835 215.031365 
L 257.473647 214.997408 
L 260.906319 214.808757 
L 272.348561 214.695566 
L 284.935028 214.831395 
L 286.079252 214.68802 
L 287.223476 214.540871 
L 305.531063 214.280533 
L 306.675287 214.235256 
L 307.819511 214.212618 
L 308.963736 214.114519 
L 310.10796 214.522006 
L 311.252184 214.461638 
L 312.396408 214.193753 
L 313.540632 213.986236 
L 314.684857 214.1032 
L 315.829081 214.223937 
L 329.559771 215.008727 
L 330.703995 214.472957 
L 331.84822 214.133384 
L 332.992444 213.722124 
L 334.136668 214.133384 
L 335.280892 213.857953 
L 336.425116 213.710805 
L 337.569341 213.703259 
L 338.713565 213.81645 
L 339.857789 214.137157 
L 341.002013 214.382404 
L 342.146237 214.85026 
L 343.290462 214.597467 
L 344.434686 214.280533 
L 345.57891 213.90323 
L 346.723134 213.586295 
L 347.867358 213.537246 
L 349.011583 213.522154 
L 350.155807 213.740989 
L 351.300031 213.44292 
L 352.444255 212.99393 
L 353.588479 212.752456 
L 354.732704 212.933561 
L 355.876928 212.688315 
L 357.021152 212.665676 
L 358.165376 212.488344 
L 359.3096 212.643038 
L 360.453825 212.53362 
L 361.598049 211.892206 
L 362.742273 211.646959 
L 363.886497 211.488492 
L 365.030721 211.545087 
L 366.174945 210.97536 
L 367.31917 210.669744 
L 368.463394 209.866089 
L 369.607618 209.149214 
L 370.751842 208.775684 
L 371.896066 208.394608 
L 373.040291 208.164454 
L 374.184515 208.398381 
L 375.328739 208.58326 
L 376.472963 208.243687 
L 377.617187 207.560769 
L 378.761412 206.557144 
L 379.905636 206.036466 
L 381.04986 205.40637 
L 382.194084 204.681948 
L 383.338308 204.508389 
L 384.482533 204.455567 
L 385.626757 203.659458 
L 386.770981 202.504911 
L 387.915205 201.263585 
L 389.059429 199.780785 
L 390.203654 198.539458 
L 391.347878 196.754816 
L 392.492102 193.951456 
L 393.636326 191.691412 
L 394.78055 189.635111 
L 395.924775 188.657897 
L 397.068999 186.19411 
L 398.213223 182.115466 
L 399.357447 179.300787 
L 400.501671 177.667066 
L 401.645896 176.029571 
L 402.79012 173.690294 
L 403.934344 172.581023 
L 405.078568 171.3812 
" style="fill:none;stroke:#f47915;stroke-linecap:round;stroke-width:2;"/>
   </g>
   <g id="line2d_14">
    <path clip-path="url(#p85130e0ab2)" d="M 100.714932 211.141373 
L 101.859156 211.326251 
L 103.00338 211.047047 
L 104.147604 211.035728 
L 105.291829 211.273429 
L 106.436053 211.118735 
L 107.580277 211.284748 
L 108.724501 210.937629 
L 112.157174 210.609376 
L 113.301398 210.371675 
L 114.445622 210.605603 
L 116.734071 210.650879 
L 117.878295 210.76407 
L 121.310967 210.620695 
L 122.455192 210.258484 
L 123.599416 210.518823 
L 124.74364 210.428271 
L 125.887864 210.669744 
L 127.032088 210.598057 
L 128.176313 210.809346 
L 131.608985 210.35281 
L 133.897434 210.571646 
L 135.041658 210.277349 
L 136.185882 210.145293 
L 138.47433 210.333945 
L 141.907003 210.443363 
L 143.051227 210.650879 
L 144.195451 210.741432 
L 145.339675 210.67729 
L 146.4839 210.220754 
L 147.628124 210.281123 
L 148.772348 210.06606 
L 151.060796 210.582965 
L 152.205021 209.881182 
L 153.349245 209.820813 
L 154.493469 209.983053 
L 155.637693 209.998145 
L 156.781917 209.884955 
L 157.926142 209.545382 
L 160.21459 209.500106 
L 161.358814 209.771764 
L 162.503038 209.892501 
L 163.647263 209.53029 
L 164.791487 209.684984 
L 165.935711 209.269951 
L 167.079935 209.775537 
L 168.224159 209.632162 
L 169.368384 209.209582 
L 170.512608 209.409553 
L 171.656832 209.881182 
L 172.801056 209.579339 
L 173.94528 209.888728 
L 175.089505 209.179398 
L 176.233729 209.775537 
L 177.377953 209.767991 
L 178.522177 209.896274 
L 179.666401 210.14152 
L 180.810626 209.635935 
L 183.099074 209.613296 
L 184.243298 209.503879 
L 185.387522 209.171852 
L 186.531747 209.100165 
L 187.675971 209.677438 
L 188.820195 209.15676 
L 191.108643 209.296362 
L 192.252868 209.028477 
L 193.397092 209.039796 
L 194.541316 208.873783 
L 195.68554 208.90774 
L 196.829764 208.805868 
L 197.973989 208.255006 
L 199.118213 208.066355 
L 200.262437 208.266325 
L 201.406661 208.002213 
L 202.550885 208.205957 
L 203.69511 207.862611 
L 205.983558 208.387062 
L 207.127782 208.036171 
L 208.272006 207.30043 
L 209.416231 206.945765 
L 210.560455 207.077821 
L 211.704679 207.326841 
L 212.848903 207.009907 
L 213.993127 206.858986 
L 215.137352 207.081594 
L 219.714248 205.644071 
L 220.858472 206.047785 
L 222.002697 205.387505 
L 223.146921 205.372413 
L 224.291145 205.723304 
L 225.435369 205.342228 
L 226.579593 205.206399 
L 227.723818 205.361094 
L 228.868042 206.006281 
L 230.012266 205.010202 
L 233.444939 204.2971 
L 234.589163 204.365014 
L 235.733387 203.83679 
L 236.877611 203.840563 
L 238.021835 203.353842 
L 240.310284 203.508537 
L 243.742956 202.867122 
L 247.175629 202.859576 
L 248.319853 203.033135 
L 249.464077 202.433224 
L 251.752526 201.595611 
L 254.040974 201.591838 
L 255.185198 201.757852 
L 256.329423 201.588065 
L 258.617871 200.358058 
L 259.762095 199.505354 
L 262.050544 199.622317 
L 263.194768 200.161861 
L 264.338992 200.271278 
L 265.483216 199.211057 
L 266.62744 198.743202 
L 267.771665 198.079149 
L 268.915889 197.950866 
L 271.204337 196.41147 
L 272.348561 196.705767 
L 273.492786 196.841596 
L 274.63701 196.426562 
L 275.781234 196.773681 
L 276.925458 196.773681 
L 279.213907 195.683276 
L 280.358131 195.392753 
L 281.502355 196.437882 
L 282.646579 196.083217 
L 284.935028 194.970174 
L 286.079252 194.619282 
L 287.223476 193.743939 
L 288.3677 193.860903 
L 289.511924 192.234728 
L 290.656148 191.921567 
L 292.944597 191.87629 
L 294.088821 194.85321 
L 295.233045 196.524661 
L 296.377269 197.109481 
L 297.521494 195.170144 
L 298.665718 194.457042 
L 299.809942 193.547742 
L 300.954166 192.321508 
L 302.09839 193.238354 
L 303.242615 191.223556 
L 304.386839 190.887757 
L 305.531063 190.01996 
L 306.675287 190.31803 
L 307.819511 191.831014 
L 308.963736 191.763099 
L 310.10796 191.087727 
L 311.252184 189.393638 
L 312.396408 188.401331 
L 313.540632 187.182643 
L 314.684857 186.23184 
L 315.829081 185.960182 
L 316.973305 185.960182 
L 319.261753 179.696955 
L 320.405978 178.866889 
L 321.550202 178.304707 
L 324.982874 183.334154 
L 326.127099 184.032164 
L 327.271323 183.285105 
L 328.415547 182.183381 
L 329.559771 182.243749 
L 330.703995 181.647611 
L 331.84822 181.994729 
L 334.136668 178.625415 
L 335.280892 177.195437 
L 337.569341 175.882423 
L 338.713565 175.863558 
L 339.857789 174.380758 
L 341.002013 172.588569 
L 342.146237 171.135954 
L 343.290462 170.981259 
L 344.434686 169.385268 
L 345.57891 166.879978 
L 347.867358 164.668983 
L 349.011583 163.38238 
L 350.155807 162.740966 
L 351.300031 160.360185 
L 352.444255 158.571769 
L 353.588479 158.617046 
L 354.732704 157.296486 
L 355.876928 153.285757 
L 357.021152 154.387481 
L 358.165376 154.68555 
L 359.3096 152.221763 
L 360.453825 149.429722 
L 362.742273 141.917622 
L 363.886497 140.166937 
L 365.030721 142.498669 
L 366.174945 142.913702 
L 367.31917 142.008175 
L 368.463394 141.385625 
L 369.607618 139.717947 
L 370.751842 137.488087 
L 371.896066 133.930121 
L 373.040291 130.802281 
L 374.184515 128.662974 
L 375.328739 127.304683 
L 376.472963 128.45923 
L 377.617187 128.021559 
L 378.761412 125.497403 
L 379.905636 122.207322 
L 381.04986 117.879659 
L 382.194084 113.069048 
L 383.338308 105.277744 
L 384.482533 100.984038 
L 385.626757 96.203611 
L 386.770981 88.110465 
L 387.915205 85.122227 
L 389.059429 84.360075 
L 390.203654 84.473266 
L 391.347878 80.82852 
L 392.492102 75.531189 
L 393.636326 73.542803 
L 394.78055 74.221948 
L 395.924775 75.783982 
L 397.068999 83.054607 
L 398.213223 85.371247 
L 399.357447 85.918336 
L 400.501671 82.850864 
L 401.645896 75.614195 
L 403.934344 71.663835 
L 405.078568 70.105574 
L 405.078568 70.105574 
" style="fill:none;stroke:#165aa7;stroke-linecap:round;stroke-width:2;"/>
   </g>
   <g id="line2d_15">
    <path clip-path="url(#p85130e0ab2)" d="M 100.714932 214.85026 
L 215.137352 214.431454 
L 242.598732 214.054151 
L 243.742956 213.782493 
L 244.887181 213.910776 
L 246.031405 213.820223 
L 247.175629 213.865499 
L 249.464077 213.514608 
L 250.608302 213.684394 
L 252.89675 213.646664 
L 254.040974 213.65421 
L 255.185198 213.5297 
L 257.473647 213.06939 
L 258.617871 213.333502 
L 259.762095 213.163716 
L 260.906319 212.767548 
L 262.050544 213.046752 
L 263.194768 212.763775 
L 264.338992 212.78264 
L 265.483216 212.224232 
L 266.62744 212.205367 
L 267.771665 212.567578 
L 268.915889 212.514755 
L 270.060113 211.571498 
L 271.204337 212.103495 
L 273.492786 211.786561 
L 274.63701 212.175183 
L 275.781234 211.854475 
L 276.925458 211.877113 
L 278.069682 212.035581 
L 279.213907 211.330024 
L 280.358131 211.186649 
L 283.790803 211.296067 
L 284.935028 211.035728 
L 286.079252 210.892353 
L 287.223476 210.877261 
L 288.3677 211.179103 
L 289.511924 210.662198 
L 290.656148 209.651027 
L 291.800373 209.473694 
L 292.944597 209.458602 
L 294.088821 208.65872 
L 295.233045 209.319 
L 296.377269 208.49648 
L 298.665718 208.749273 
L 299.809942 208.613444 
L 300.954166 208.364424 
L 303.242615 208.443658 
L 304.386839 207.824881 
L 305.531063 207.658868 
L 306.675287 208.541756 
L 307.819511 208.605898 
L 308.963736 207.979575 
L 310.10796 207.168374 
L 311.252184 207.292884 
L 312.396408 207.179693 
L 313.540632 206.568463 
L 314.684857 206.22889 
L 315.829081 205.56861 
L 316.973305 203.742464 
L 318.117529 203.470806 
L 319.261753 203.493445 
L 320.405978 203.783968 
L 321.550202 203.783968 
L 322.694426 204.614034 
L 323.83865 211.164011 
L 326.127099 210.213208 
L 327.271323 209.307681 
L 328.415547 208.949244 
L 329.559771 208.360651 
L 330.703995 207.10046 
L 331.84822 206.221344 
L 334.136668 205.198853 
L 335.280892 204.165044 
L 337.569341 202.520003 
L 338.713565 201.550335 
L 339.857789 200.312782 
L 343.290462 194.241979 
L 344.434686 192.706357 
L 345.57891 190.053918 
L 346.723134 188.612621 
L 349.011583 182.534272 
L 352.444255 169.177752 
L 353.588479 166.849793 
L 354.732704 162.974893 
L 355.876928 159.560303 
L 357.021152 160.888409 
L 358.165376 158.617046 
L 359.3096 155.579758 
L 360.453825 152.202897 
L 361.598049 148.048793 
L 363.886497 140.864947 
L 365.030721 142.577902 
L 366.174945 143.906008 
L 367.31917 145.981174 
L 368.463394 146.565993 
L 369.607618 146.11323 
L 370.751842 140.997003 
L 371.896066 136.676886 
L 373.040291 129.576047 
L 375.328739 118.47957 
L 376.472963 111.80131 
L 378.761412 104.798569 
L 379.905636 101.927295 
L 381.04986 96.577141 
L 382.194084 95.090568 
L 383.338308 94.630258 
L 384.482533 96.629963 
L 385.626757 97.203463 
L 386.770981 92.245704 
L 387.915205 93.030494 
L 389.059429 92.543773 
L 390.203654 91.18171 
L 391.347878 88.246294 
L 392.492102 84.707194 
L 393.636326 83.650746 
L 394.78055 81.832146 
L 395.924775 84.83925 
L 397.068999 90.344098 
L 398.213223 84.009183 
L 399.357447 85.888151 
L 400.501671 85.269375 
L 401.645896 83.945042 
L 402.79012 83.733752 
L 403.934344 81.922699 
L 405.078568 80.330481 
L 405.078568 80.330481 
" style="fill:none;stroke:#bb60d5;stroke-linecap:round;stroke-width:2;"/>
   </g>
   <g id="line2d_16">
    <path clip-path="url(#p85130e0ab2)" d="M 129.320537 210.760297 
L 157.926142 210.394313 
L 160.21459 210.130201 
L 161.358814 210.262257 
L 162.503038 210.26603 
L 165.935711 209.888728 
L 167.079935 210.450909 
L 168.224159 210.084925 
L 170.512608 209.703849 
L 171.656832 209.847224 
L 175.089505 209.639708 
L 176.233729 209.971734 
L 181.95485 209.892501 
L 183.099074 209.673665 
L 184.243298 209.764218 
L 186.531747 209.360504 
L 189.964419 209.266178 
L 191.108643 209.549155 
L 193.397092 208.398381 
L 195.68554 207.71169 
L 196.829764 208.198411 
L 197.973989 207.828654 
L 199.118213 207.681506 
L 200.262437 208.002213 
L 201.406661 208.088993 
L 202.550885 207.613591 
L 203.69511 208.119177 
L 204.839334 208.322921 
L 205.983558 208.405927 
L 207.127782 208.255006 
L 208.272006 207.734328 
L 211.704679 207.240062 
L 212.848903 206.968404 
L 213.993127 207.247608 
L 215.137352 207.206104 
L 216.281576 206.772206 
L 217.4258 206.210025 
L 218.570024 205.413916 
L 219.714248 205.376186 
L 220.858472 205.651617 
L 222.002697 205.395051 
L 223.146921 205.666709 
L 224.291145 205.610113 
L 226.579593 204.942287 
L 227.723818 205.210172 
L 228.868042 204.814004 
L 230.012266 203.968846 
L 231.15649 203.51231 
L 232.300714 204.255596 
L 233.444939 204.361241 
L 234.589163 203.916024 
L 235.733387 203.734918 
L 236.877611 203.357616 
L 238.021835 203.768876 
L 239.16606 203.433076 
L 240.310284 203.21424 
L 241.454508 202.848257 
L 242.598732 203.293474 
L 243.742956 202.882214 
L 244.887181 203.044454 
L 246.031405 202.901079 
L 247.175629 202.606783 
L 249.464077 199.505354 
L 250.608302 199.324248 
L 251.752526 198.618692 
L 254.040974 198.720564 
L 255.185198 199.011087 
L 256.329423 198.871485 
L 257.473647 198.445133 
L 258.617871 198.943172 
L 259.762095 198.184794 
L 260.906319 198.305531 
L 262.050544 197.871632 
L 263.194768 196.369967 
L 264.338992 197.807491 
L 265.483216 198.758294 
L 266.62744 196.852915 
L 267.771665 197.65657 
L 268.915889 196.128493 
L 270.060113 196.071898 
L 271.204337 194.506091 
L 272.348561 194.275936 
L 273.492786 192.12531 
L 274.63701 192.37433 
L 275.781234 191.623497 
L 276.925458 192.438472 
L 278.069682 191.099046 
L 279.213907 188.578664 
L 280.358131 188.66167 
L 281.502355 191.566902 
L 282.646579 188.933328 
L 283.790803 189.242717 
L 284.935028 188.771088 
L 286.079252 187.87688 
L 287.223476 187.299607 
L 288.3677 190.19352 
L 289.511924 189.816217 
L 290.656148 186.390307 
L 291.800373 187.605222 
L 292.944597 185.23576 
L 294.088821 185.111251 
L 295.233045 185.850764 
L 296.377269 187.175097 
L 297.521494 185.922452 
L 298.665718 182.322983 
L 300.954166 181.640064 
L 302.09839 179.795054 
L 303.242615 179.945975 
L 304.386839 179.983705 
L 305.531063 178.085872 
L 306.675287 182.058871 
L 307.819511 184.420786 
L 308.963736 189.472871 
L 310.10796 190.434993 
L 311.252184 188.148538 
L 312.396408 184.473609 
L 313.540632 181.19862 
L 314.684857 178.436763 
L 315.829081 180.900551 
L 316.973305 178.402806 
L 318.117529 175.203278 
L 319.261753 169.404134 
L 321.550202 159.790457 
L 322.694426 155.983472 
L 323.83865 157.52664 
L 324.982874 163.265416 
L 326.127099 164.82745 
L 327.271323 162.93339 
L 328.415547 164.619934 
L 329.559771 160.360185 
L 330.703995 157.021055 
L 331.84822 155.825005 
L 332.992444 154.036589 
L 334.136668 155.560893 
L 335.280892 152.327407 
L 337.569341 152.187805 
L 338.713565 153.930944 
L 339.857789 150.323929 
L 341.002013 149.731564 
L 342.146237 149.29012 
L 343.290462 146.264151 
L 344.434686 144.234262 
L 345.57891 141.046053 
L 346.723134 137.159833 
L 347.867358 132.862354 
L 349.011583 131.681396 
L 350.155807 128.474322 
L 351.300031 126.572716 
L 352.444255 127.470697 
L 353.588479 125.821883 
L 354.732704 121.973394 
L 355.876928 117.491037 
L 358.165376 119.932186 
L 359.3096 115.770536 
L 360.453825 112.216343 
L 361.598049 107.364229 
L 362.742273 104.858938 
L 363.886497 106.134221 
L 365.030721 104.46277 
L 366.174945 107.650979 
L 367.31917 104.074148 
L 368.463394 96.841253 
L 369.607618 93.264422 
L 371.896066 86.827636 
L 373.040291 82.545248 
L 374.184515 79.179707 
L 375.328739 78.330776 
L 376.472963 80.285204 
L 377.617187 77.353561 
L 378.761412 75.387814 
L 379.905636 71.441226 
L 381.04986 69.24155 
L 382.194084 65.381742 
L 384.482533 55.34926 
L 385.626757 49.678399 
L 386.770981 44.731958 
L 387.915205 44.765916 
L 389.059429 43.298208 
L 390.203654 39.936439 
L 391.347878 34.899447 
L 392.492102 30.515188 
L 393.636326 27.364709 
L 394.78055 25.810221 
L 395.924775 28.172137 
L 397.068999 35.050368 
L 398.213223 31.979123 
L 399.357447 30.439727 
L 400.501671 27.72692 
L 401.645896 25.957369 
L 402.79012 22.935174 
L 403.934344 19.437577 
L 405.078568 17.837812 
L 405.078568 17.837812 
" style="fill:none;stroke:#cb495c;stroke-linecap:round;stroke-width:2;"/>
   </g>
   <g id="text_15">
    <!-- United Kingdom -->
    <defs>
     <path d="M 8.6875 72.90625 
L 18.609375 72.90625 
L 18.609375 28.609375 
Q 18.609375 16.890625 22.84375 11.734375 
Q 27.09375 6.59375 36.625 6.59375 
Q 46.09375 6.59375 50.34375 11.734375 
Q 54.59375 16.890625 54.59375 28.609375 
L 54.59375 72.90625 
L 64.5 72.90625 
L 64.5 27.390625 
Q 64.5 13.140625 57.4375 5.859375 
Q 50.390625 -1.421875 36.625 -1.421875 
Q 22.796875 -1.421875 15.734375 5.859375 
Q 8.6875 13.140625 8.6875 27.390625 
z
" id="DejaVuSans-85"/>
     <path d="M 54.890625 33.015625 
L 54.890625 0 
L 45.90625 0 
L 45.90625 32.71875 
Q 45.90625 40.484375 42.875 44.328125 
Q 39.84375 48.1875 33.796875 48.1875 
Q 26.515625 48.1875 22.3125 43.546875 
Q 18.109375 38.921875 18.109375 30.90625 
L 18.109375 0 
L 9.078125 0 
L 9.078125 54.6875 
L 18.109375 54.6875 
L 18.109375 46.1875 
Q 21.34375 51.125 25.703125 53.5625 
Q 30.078125 56 35.796875 56 
Q 45.21875 56 50.046875 50.171875 
Q 54.890625 44.34375 54.890625 33.015625 
z
" id="DejaVuSans-110"/>
     <path d="M 45.40625 46.390625 
L 45.40625 75.984375 
L 54.390625 75.984375 
L 54.390625 0 
L 45.40625 0 
L 45.40625 8.203125 
Q 42.578125 3.328125 38.25 0.953125 
Q 33.9375 -1.421875 27.875 -1.421875 
Q 17.96875 -1.421875 11.734375 6.484375 
Q 5.515625 14.40625 5.515625 27.296875 
Q 5.515625 40.1875 11.734375 48.09375 
Q 17.96875 56 27.875 56 
Q 33.9375 56 38.25 53.625 
Q 42.578125 51.265625 45.40625 46.390625 
z
M 14.796875 27.296875 
Q 14.796875 17.390625 18.875 11.75 
Q 22.953125 6.109375 30.078125 6.109375 
Q 37.203125 6.109375 41.296875 11.75 
Q 45.40625 17.390625 45.40625 27.296875 
Q 45.40625 37.203125 41.296875 42.84375 
Q 37.203125 48.484375 30.078125 48.484375 
Q 22.953125 48.484375 18.875 42.84375 
Q 14.796875 37.203125 14.796875 27.296875 
z
" id="DejaVuSans-100"/>
     <path d="M 9.8125 72.90625 
L 19.671875 72.90625 
L 19.671875 42.09375 
L 52.390625 72.90625 
L 65.09375 72.90625 
L 28.90625 38.921875 
L 67.671875 0 
L 54.6875 0 
L 19.671875 35.109375 
L 19.671875 0 
L 9.8125 0 
z
" id="DejaVuSans-75"/>
     <path d="M 45.40625 27.984375 
Q 45.40625 37.75 41.375 43.109375 
Q 37.359375 48.484375 30.078125 48.484375 
Q 22.859375 48.484375 18.828125 43.109375 
Q 14.796875 37.75 14.796875 27.984375 
Q 14.796875 18.265625 18.828125 12.890625 
Q 22.859375 7.515625 30.078125 7.515625 
Q 37.359375 7.515625 41.375 12.890625 
Q 45.40625 18.265625 45.40625 27.984375 
z
M 54.390625 6.78125 
Q 54.390625 -7.171875 48.1875 -13.984375 
Q 42 -20.796875 29.203125 -20.796875 
Q 24.46875 -20.796875 20.265625 -20.09375 
Q 16.0625 -19.390625 12.109375 -17.921875 
L 12.109375 -9.1875 
Q 16.0625 -11.328125 19.921875 -12.34375 
Q 23.78125 -13.375 27.78125 -13.375 
Q 36.625 -13.375 41.015625 -8.765625 
Q 45.40625 -4.15625 45.40625 5.171875 
L 45.40625 9.625 
Q 42.625 4.78125 38.28125 2.390625 
Q 33.9375 0 27.875 0 
Q 17.828125 0 11.671875 7.65625 
Q 5.515625 15.328125 5.515625 27.984375 
Q 5.515625 40.671875 11.671875 48.328125 
Q 17.828125 56 27.875 56 
Q 33.9375 56 38.28125 53.609375 
Q 42.625 51.21875 45.40625 46.390625 
L 45.40625 54.6875 
L 54.390625 54.6875 
z
" id="DejaVuSans-103"/>
     <path d="M 30.609375 48.390625 
Q 23.390625 48.390625 19.1875 42.75 
Q 14.984375 37.109375 14.984375 27.296875 
Q 14.984375 17.484375 19.15625 11.84375 
Q 23.34375 6.203125 30.609375 6.203125 
Q 37.796875 6.203125 41.984375 11.859375 
Q 46.1875 17.53125 46.1875 27.296875 
Q 46.1875 37.015625 41.984375 42.703125 
Q 37.796875 48.390625 30.609375 48.390625 
z
M 30.609375 56 
Q 42.328125 56 49.015625 48.375 
Q 55.71875 40.765625 55.71875 27.296875 
Q 55.71875 13.875 49.015625 6.21875 
Q 42.328125 -1.421875 30.609375 -1.421875 
Q 18.84375 -1.421875 12.171875 6.21875 
Q 5.515625 13.875 5.515625 27.296875 
Q 5.515625 40.765625 12.171875 48.375 
Q 18.84375 56 30.609375 56 
z
" id="DejaVuSans-111"/>
     <path d="M 52 44.1875 
Q 55.375 50.25 60.0625 53.125 
Q 64.75 56 71.09375 56 
Q 79.640625 56 84.28125 50.015625 
Q 88.921875 44.046875 88.921875 33.015625 
L 88.921875 0 
L 79.890625 0 
L 79.890625 32.71875 
Q 79.890625 40.578125 77.09375 44.375 
Q 74.3125 48.1875 68.609375 48.1875 
Q 61.625 48.1875 57.5625 43.546875 
Q 53.515625 38.921875 53.515625 30.90625 
L 53.515625 0 
L 44.484375 0 
L 44.484375 32.71875 
Q 44.484375 40.625 41.703125 44.40625 
Q 38.921875 48.1875 33.109375 48.1875 
Q 26.21875 48.1875 22.15625 43.53125 
Q 18.109375 38.875 18.109375 30.90625 
L 18.109375 0 
L 9.078125 0 
L 9.078125 54.6875 
L 18.109375 54.6875 
L 18.109375 46.1875 
Q 21.1875 51.21875 25.484375 53.609375 
Q 29.78125 56 35.6875 56 
Q 41.65625 56 45.828125 52.96875 
Q 50 49.953125 52 44.1875 
z
" id="DejaVuSans-109"/>
    </defs>
    <g style="fill:#165aa7;" transform="translate(409.655465 70.105574)scale(0.14 -0.14)">
     <use xlink:href="#DejaVuSans-85"/>
     <use x="73.193359" xlink:href="#DejaVuSans-110"/>
     <use x="136.572266" xlink:href="#DejaVuSans-105"/>
     <use x="164.355469" xlink:href="#DejaVuSans-116"/>
     <use x="203.564453" xlink:href="#DejaVuSans-101"/>
     <use x="265.087891" xlink:href="#DejaVuSans-100"/>
     <use x="328.564453" xlink:href="#DejaVuSans-32"/>
     <use x="360.351562" xlink:href="#DejaVuSans-75"/>
     <use x="425.927734" xlink:href="#DejaVuSans-105"/>
     <use x="453.710938" xlink:href="#DejaVuSans-110"/>
     <use x="517.089844" xlink:href="#DejaVuSans-103"/>
     <use x="580.566406" xlink:href="#DejaVuSans-100"/>
     <use x="644.042969" xlink:href="#DejaVuSans-111"/>
     <use x="705.224609" xlink:href="#DejaVuSans-109"/>
    </g>
   </g>
   <g id="text_16">
    <!-- United States -->
    <defs>
     <path d="M 53.515625 70.515625 
L 53.515625 60.890625 
Q 47.90625 63.578125 42.921875 64.890625 
Q 37.9375 66.21875 33.296875 66.21875 
Q 25.25 66.21875 20.875 63.09375 
Q 16.5 59.96875 16.5 54.203125 
Q 16.5 49.359375 19.40625 46.890625 
Q 22.3125 44.4375 30.421875 42.921875 
L 36.375 41.703125 
Q 47.40625 39.59375 52.65625 34.296875 
Q 57.90625 29 57.90625 20.125 
Q 57.90625 9.515625 50.796875 4.046875 
Q 43.703125 -1.421875 29.984375 -1.421875 
Q 24.8125 -1.421875 18.96875 -0.25 
Q 13.140625 0.921875 6.890625 3.21875 
L 6.890625 13.375 
Q 12.890625 10.015625 18.65625 8.296875 
Q 24.421875 6.59375 29.984375 6.59375 
Q 38.421875 6.59375 43.015625 9.90625 
Q 47.609375 13.234375 47.609375 19.390625 
Q 47.609375 24.75 44.3125 27.78125 
Q 41.015625 30.8125 33.5 32.328125 
L 27.484375 33.5 
Q 16.453125 35.6875 11.515625 40.375 
Q 6.59375 45.0625 6.59375 53.421875 
Q 6.59375 63.09375 13.40625 68.65625 
Q 20.21875 74.21875 32.171875 74.21875 
Q 37.3125 74.21875 42.625 73.28125 
Q 47.953125 72.359375 53.515625 70.515625 
z
" id="DejaVuSans-83"/>
     <path d="M 44.28125 53.078125 
L 44.28125 44.578125 
Q 40.484375 46.53125 36.375 47.5 
Q 32.28125 48.484375 27.875 48.484375 
Q 21.1875 48.484375 17.84375 46.4375 
Q 14.5 44.390625 14.5 40.28125 
Q 14.5 37.15625 16.890625 35.375 
Q 19.28125 33.59375 26.515625 31.984375 
L 29.59375 31.296875 
Q 39.15625 29.25 43.1875 25.515625 
Q 47.21875 21.78125 47.21875 15.09375 
Q 47.21875 7.46875 41.1875 3.015625 
Q 35.15625 -1.421875 24.609375 -1.421875 
Q 20.21875 -1.421875 15.453125 -0.5625 
Q 10.6875 0.296875 5.421875 2 
L 5.421875 11.28125 
Q 10.40625 8.6875 15.234375 7.390625 
Q 20.0625 6.109375 24.8125 6.109375 
Q 31.15625 6.109375 34.5625 8.28125 
Q 37.984375 10.453125 37.984375 14.40625 
Q 37.984375 18.0625 35.515625 20.015625 
Q 33.0625 21.96875 24.703125 23.78125 
L 21.578125 24.515625 
Q 13.234375 26.265625 9.515625 29.90625 
Q 5.8125 33.546875 5.8125 39.890625 
Q 5.8125 47.609375 11.28125 51.796875 
Q 16.75 56 26.8125 56 
Q 31.78125 56 36.171875 55.265625 
Q 40.578125 54.546875 44.28125 53.078125 
z
" id="DejaVuSans-115"/>
    </defs>
    <g style="fill:#cb495c;" transform="translate(409.655465 17.837812)scale(0.14 -0.14)">
     <use xlink:href="#DejaVuSans-85"/>
     <use x="73.193359" xlink:href="#DejaVuSans-110"/>
     <use x="136.572266" xlink:href="#DejaVuSans-105"/>
     <use x="164.355469" xlink:href="#DejaVuSans-116"/>
     <use x="203.564453" xlink:href="#DejaVuSans-101"/>
     <use x="265.087891" xlink:href="#DejaVuSans-100"/>
     <use x="328.564453" xlink:href="#DejaVuSans-32"/>
     <use x="360.351562" xlink:href="#DejaVuSans-83"/>
     <use x="423.828125" xlink:href="#DejaVuSans-116"/>
     <use x="463.037109" xlink:href="#DejaVuSans-97"/>
     <use x="524.316406" xlink:href="#DejaVuSans-116"/>
     <use x="563.525391" xlink:href="#DejaVuSans-101"/>
     <use x="625.048828" xlink:href="#DejaVuSans-115"/>
    </g>
   </g>
   <g id="text_17">
    <!-- Japan -->
    <defs>
     <path d="M 9.8125 72.90625 
L 19.671875 72.90625 
L 19.671875 5.078125 
Q 19.671875 -8.109375 14.671875 -14.0625 
Q 9.671875 -20.015625 -1.421875 -20.015625 
L -5.171875 -20.015625 
L -5.171875 -11.71875 
L -2.09375 -11.71875 
Q 4.4375 -11.71875 7.125 -8.046875 
Q 9.8125 -4.390625 9.8125 5.078125 
z
" id="DejaVuSans-74"/>
    </defs>
    <g style="fill:#bb60d5;" transform="translate(409.655465 84.103509)scale(0.14 -0.14)">
     <use xlink:href="#DejaVuSans-74"/>
     <use x="29.492188" xlink:href="#DejaVuSans-97"/>
     <use x="90.771484" xlink:href="#DejaVuSans-112"/>
     <use x="154.248047" xlink:href="#DejaVuSans-97"/>
     <use x="215.527344" xlink:href="#DejaVuSans-110"/>
    </g>
   </g>
   <g id="text_18">
    <!-- China -->
    <defs>
     <path d="M 64.40625 67.28125 
L 64.40625 56.890625 
Q 59.421875 61.53125 53.78125 63.8125 
Q 48.140625 66.109375 41.796875 66.109375 
Q 29.296875 66.109375 22.65625 58.46875 
Q 16.015625 50.828125 16.015625 36.375 
Q 16.015625 21.96875 22.65625 14.328125 
Q 29.296875 6.6875 41.796875 6.6875 
Q 48.140625 6.6875 53.78125 8.984375 
Q 59.421875 11.28125 64.40625 15.921875 
L 64.40625 5.609375 
Q 59.234375 2.09375 53.4375 0.328125 
Q 47.65625 -1.421875 41.21875 -1.421875 
Q 24.65625 -1.421875 15.125 8.703125 
Q 5.609375 18.84375 5.609375 36.375 
Q 5.609375 53.953125 15.125 64.078125 
Q 24.65625 74.21875 41.21875 74.21875 
Q 47.75 74.21875 53.53125 72.484375 
Q 59.328125 70.75 64.40625 67.28125 
z
" id="DejaVuSans-67"/>
     <path d="M 54.890625 33.015625 
L 54.890625 0 
L 45.90625 0 
L 45.90625 32.71875 
Q 45.90625 40.484375 42.875 44.328125 
Q 39.84375 48.1875 33.796875 48.1875 
Q 26.515625 48.1875 22.3125 43.546875 
Q 18.109375 38.921875 18.109375 30.90625 
L 18.109375 0 
L 9.078125 0 
L 9.078125 75.984375 
L 18.109375 75.984375 
L 18.109375 46.1875 
Q 21.34375 51.125 25.703125 53.5625 
Q 30.078125 56 35.796875 56 
Q 45.21875 56 50.046875 50.171875 
Q 54.890625 44.34375 54.890625 33.015625 
z
" id="DejaVuSans-104"/>
    </defs>
    <g style="fill:#f47915;" transform="translate(409.655465 171.3812)scale(0.14 -0.14)">
     <use xlink:href="#DejaVuSans-67"/>
     <use x="69.824219" xlink:href="#DejaVuSans-104"/>
     <use x="133.203125" xlink:href="#DejaVuSans-105"/>
     <use x="160.986328" xlink:href="#DejaVuSans-110"/>
     <use x="224.365234" xlink:href="#DejaVuSans-97"/>
    </g>
   </g>
   <g id="text_19">
    <!-- Source: Maddison Project Database (MPD) 2018 -->
    <defs>
     <path d="M 8.5 21.578125 
L 8.5 54.6875 
L 17.484375 54.6875 
L 17.484375 21.921875 
Q 17.484375 14.15625 20.5 10.265625 
Q 23.53125 6.390625 29.59375 6.390625 
Q 36.859375 6.390625 41.078125 11.03125 
Q 45.3125 15.671875 45.3125 23.6875 
L 45.3125 54.6875 
L 54.296875 54.6875 
L 54.296875 0 
L 45.3125 0 
L 45.3125 8.40625 
Q 42.046875 3.421875 37.71875 1 
Q 33.40625 -1.421875 27.6875 -1.421875 
Q 18.265625 -1.421875 13.375 4.4375 
Q 8.5 10.296875 8.5 21.578125 
z
M 31.109375 56 
z
" id="DejaVuSans-117"/>
     <path d="M 11.71875 12.40625 
L 22.015625 12.40625 
L 22.015625 0 
L 11.71875 0 
z
M 11.71875 51.703125 
L 22.015625 51.703125 
L 22.015625 39.3125 
L 11.71875 39.3125 
z
" id="DejaVuSans-58"/>
     <path d="M 9.8125 72.90625 
L 24.515625 72.90625 
L 43.109375 23.296875 
L 61.8125 72.90625 
L 76.515625 72.90625 
L 76.515625 0 
L 66.890625 0 
L 66.890625 64.015625 
L 48.09375 14.015625 
L 38.1875 14.015625 
L 19.390625 64.015625 
L 19.390625 0 
L 9.8125 0 
z
" id="DejaVuSans-77"/>
     <path d="M 9.421875 54.6875 
L 18.40625 54.6875 
L 18.40625 -0.984375 
Q 18.40625 -11.421875 14.421875 -16.109375 
Q 10.453125 -20.796875 1.609375 -20.796875 
L -1.8125 -20.796875 
L -1.8125 -13.1875 
L 0.59375 -13.1875 
Q 5.71875 -13.1875 7.5625 -10.8125 
Q 9.421875 -8.453125 9.421875 -0.984375 
z
M 9.421875 75.984375 
L 18.40625 75.984375 
L 18.40625 64.59375 
L 9.421875 64.59375 
z
" id="DejaVuSans-106"/>
     <path d="M 48.6875 27.296875 
Q 48.6875 37.203125 44.609375 42.84375 
Q 40.53125 48.484375 33.40625 48.484375 
Q 26.265625 48.484375 22.1875 42.84375 
Q 18.109375 37.203125 18.109375 27.296875 
Q 18.109375 17.390625 22.1875 11.75 
Q 26.265625 6.109375 33.40625 6.109375 
Q 40.53125 6.109375 44.609375 11.75 
Q 48.6875 17.390625 48.6875 27.296875 
z
M 18.109375 46.390625 
Q 20.953125 51.265625 25.265625 53.625 
Q 29.59375 56 35.59375 56 
Q 45.5625 56 51.78125 48.09375 
Q 58.015625 40.1875 58.015625 27.296875 
Q 58.015625 14.40625 51.78125 6.484375 
Q 45.5625 -1.421875 35.59375 -1.421875 
Q 29.59375 -1.421875 25.265625 0.953125 
Q 20.953125 3.328125 18.109375 8.203125 
L 18.109375 0 
L 9.078125 0 
L 9.078125 75.984375 
L 18.109375 75.984375 
z
" id="DejaVuSans-98"/>
     <path d="M 31 75.875 
Q 24.46875 64.65625 21.28125 53.65625 
Q 18.109375 42.671875 18.109375 31.390625 
Q 18.109375 20.125 21.3125 9.0625 
Q 24.515625 -2 31 -13.1875 
L 23.1875 -13.1875 
Q 15.875 -1.703125 12.234375 9.375 
Q 8.59375 20.453125 8.59375 31.390625 
Q 8.59375 42.28125 12.203125 53.3125 
Q 15.828125 64.359375 23.1875 75.875 
z
" id="DejaVuSans-40"/>
     <path d="M 8.015625 75.875 
L 15.828125 75.875 
Q 23.140625 64.359375 26.78125 53.3125 
Q 30.421875 42.28125 30.421875 31.390625 
Q 30.421875 20.453125 26.78125 9.375 
Q 23.140625 -1.703125 15.828125 -13.1875 
L 8.015625 -13.1875 
Q 14.5 -2 17.703125 9.0625 
Q 20.90625 20.125 20.90625 31.390625 
Q 20.90625 42.671875 17.703125 53.65625 
Q 14.5 64.65625 8.015625 75.875 
z
" id="DejaVuSans-41"/>
    </defs>
    <g style="fill:#262626;" transform="translate(20.619238 293.325476)scale(0.14 -0.14)">
     <use xlink:href="#DejaVuSans-83"/>
     <use x="63.476562" xlink:href="#DejaVuSans-111"/>
     <use x="124.658203" xlink:href="#DejaVuSans-117"/>
     <use x="188.037109" xlink:href="#DejaVuSans-114"/>
     <use x="229.119141" xlink:href="#DejaVuSans-99"/>
     <use x="284.099609" xlink:href="#DejaVuSans-101"/>
     <use x="345.623047" xlink:href="#DejaVuSans-58"/>
     <use x="379.314453" xlink:href="#DejaVuSans-32"/>
     <use x="411.101562" xlink:href="#DejaVuSans-77"/>
     <use x="497.380859" xlink:href="#DejaVuSans-97"/>
     <use x="558.660156" xlink:href="#DejaVuSans-100"/>
     <use x="622.136719" xlink:href="#DejaVuSans-100"/>
     <use x="685.613281" xlink:href="#DejaVuSans-105"/>
     <use x="713.396484" xlink:href="#DejaVuSans-115"/>
     <use x="765.496094" xlink:href="#DejaVuSans-111"/>
     <use x="826.677734" xlink:href="#DejaVuSans-110"/>
     <use x="890.056641" xlink:href="#DejaVuSans-32"/>
     <use x="921.84375" xlink:href="#DejaVuSans-80"/>
     <use x="982.130859" xlink:href="#DejaVuSans-114"/>
     <use x="1023.212891" xlink:href="#DejaVuSans-111"/>
     <use x="1084.394531" xlink:href="#DejaVuSans-106"/>
     <use x="1112.177734" xlink:href="#DejaVuSans-101"/>
     <use x="1173.701172" xlink:href="#DejaVuSans-99"/>
     <use x="1228.681641" xlink:href="#DejaVuSans-116"/>
     <use x="1267.890625" xlink:href="#DejaVuSans-32"/>
     <use x="1299.677734" xlink:href="#DejaVuSans-68"/>
     <use x="1376.679688" xlink:href="#DejaVuSans-97"/>
     <use x="1437.958984" xlink:href="#DejaVuSans-116"/>
     <use x="1477.167969" xlink:href="#DejaVuSans-97"/>
     <use x="1538.447266" xlink:href="#DejaVuSans-98"/>
     <use x="1601.923828" xlink:href="#DejaVuSans-97"/>
     <use x="1663.203125" xlink:href="#DejaVuSans-115"/>
     <use x="1715.302734" xlink:href="#DejaVuSans-101"/>
     <use x="1776.826172" xlink:href="#DejaVuSans-32"/>
     <use x="1808.613281" xlink:href="#DejaVuSans-40"/>
     <use x="1847.626953" xlink:href="#DejaVuSans-77"/>
     <use x="1933.90625" xlink:href="#DejaVuSans-80"/>
     <use x="1994.208984" xlink:href="#DejaVuSans-68"/>
     <use x="2071.210938" xlink:href="#DejaVuSans-41"/>
     <use x="2110.224609" xlink:href="#DejaVuSans-32"/>
     <use x="2142.011719" xlink:href="#DejaVuSans-50"/>
     <use x="2205.634766" xlink:href="#DejaVuSans-48"/>
     <use x="2269.257812" xlink:href="#DejaVuSans-49"/>
     <use x="2332.880859" xlink:href="#DejaVuSans-56"/>
    </g>
   </g>
  </g>
 </g>
 <defs>
  <clipPath id="p85130e0ab2">
   <rect height="217.44" width="334.8" x="85.49675" y="7.954176"/>
  </clipPath>
 </defs>
</svg>
