<?xml version="1.0" encoding="utf-8" standalone="no"?>
<!DOCTYPE svg PUBLIC "-//W3C//DTD SVG 1.1//EN"
  "http://www.w3.org/Graphics/SVG/1.1/DTD/svg11.dtd">
<!-- Created with matplotlib (https://matplotlib.org/) -->
<svg height="596.281562pt" version="1.1" viewBox="0 0 666.830187 596.281562" width="666.830187pt" xmlns="http://www.w3.org/2000/svg" xmlns:xlink="http://www.w3.org/1999/xlink">
 <defs>
  <style type="text/css">
*{stroke-linecap:butt;stroke-linejoin:round;white-space:pre;}
  </style>
 </defs>
 <g id="figure_1">
  <g id="patch_1">
   <path d="M 0 596.281562 
L 666.830187 596.281562 
L 666.830187 0 
L 0 0 
z
" style="fill:#ffffff;"/>
  </g>
  <g id="axes_1">
   <g id="patch_2">
    <path d="M 83.862688 503.46 
L 558.33274 503.46 
L 558.33274 7.2 
L 83.862688 7.2 
z
" style="fill:#ffffff;"/>
   </g>
   <g id="matplotlib.axis_1">
    <g id="xtick_1">
     <g id="line2d_1">
      <path clip-path="url(#p4b80f88398)" d="M 83.862688 503.46 
L 83.862688 7.2 
" style="fill:none;stroke:#cccccc;stroke-linecap:round;stroke-opacity:0.9;"/>
     </g>
     <g id="text_1">
      <!-- 3 -->
      <defs>
       <path d="M 40.578125 39.3125 
Q 47.65625 37.796875 51.625 33 
Q 55.609375 28.21875 55.609375 21.1875 
Q 55.609375 10.40625 48.1875 4.484375 
Q 40.765625 -1.421875 27.09375 -1.421875 
Q 22.515625 -1.421875 17.65625 -0.515625 
Q 12.796875 0.390625 7.625 2.203125 
L 7.625 11.71875 
Q 11.71875 9.328125 16.59375 8.109375 
Q 21.484375 6.890625 26.8125 6.890625 
Q 36.078125 6.890625 40.9375 10.546875 
Q 45.796875 14.203125 45.796875 21.1875 
Q 45.796875 27.640625 41.28125 31.265625 
Q 36.765625 34.90625 28.71875 34.90625 
L 20.21875 34.90625 
L 20.21875 43.015625 
L 29.109375 43.015625 
Q 36.375 43.015625 40.234375 45.921875 
Q 44.09375 48.828125 44.09375 54.296875 
Q 44.09375 59.90625 40.109375 62.90625 
Q 36.140625 65.921875 28.71875 65.921875 
Q 24.65625 65.921875 20.015625 65.03125 
Q 15.375 64.15625 9.8125 62.3125 
L 9.8125 71.09375 
Q 15.4375 72.65625 20.34375 73.4375 
Q 25.25 74.21875 29.59375 74.21875 
Q 40.828125 74.21875 47.359375 69.109375 
Q 53.90625 64.015625 53.90625 55.328125 
Q 53.90625 49.265625 50.4375 45.09375 
Q 46.96875 40.921875 40.578125 39.3125 
z
" id="DejaVuSans-51"/>
      </defs>
      <g style="fill:#262626;" transform="translate(79.408938 527.597812)scale(0.14 -0.14)">
       <use xlink:href="#DejaVuSans-51"/>
      </g>
     </g>
    </g>
    <g id="xtick_2">
     <g id="line2d_2">
      <path clip-path="url(#p4b80f88398)" d="M 143.171444 503.46 
L 143.171444 7.2 
" style="fill:none;stroke:#cccccc;stroke-linecap:round;stroke-opacity:0.9;"/>
     </g>
     <g id="text_2">
      <!-- 4 -->
      <defs>
       <path d="M 37.796875 64.3125 
L 12.890625 25.390625 
L 37.796875 25.390625 
z
M 35.203125 72.90625 
L 47.609375 72.90625 
L 47.609375 25.390625 
L 58.015625 25.390625 
L 58.015625 17.1875 
L 47.609375 17.1875 
L 47.609375 0 
L 37.796875 0 
L 37.796875 17.1875 
L 4.890625 17.1875 
L 4.890625 26.703125 
z
" id="DejaVuSans-52"/>
      </defs>
      <g style="fill:#262626;" transform="translate(138.717694 527.597812)scale(0.14 -0.14)">
       <use xlink:href="#DejaVuSans-52"/>
      </g>
     </g>
    </g>
    <g id="xtick_3">
     <g id="line2d_3">
      <path clip-path="url(#p4b80f88398)" d="M 202.480201 503.46 
L 202.480201 7.2 
" style="fill:none;stroke:#cccccc;stroke-linecap:round;stroke-opacity:0.9;"/>
     </g>
     <g id="text_3">
      <!-- 5 -->
      <defs>
       <path d="M 10.796875 72.90625 
L 49.515625 72.90625 
L 49.515625 64.59375 
L 19.828125 64.59375 
L 19.828125 46.734375 
Q 21.96875 47.46875 24.109375 47.828125 
Q 26.265625 48.1875 28.421875 48.1875 
Q 40.625 48.1875 47.75 41.5 
Q 54.890625 34.8125 54.890625 23.390625 
Q 54.890625 11.625 47.5625 5.09375 
Q 40.234375 -1.421875 26.90625 -1.421875 
Q 22.3125 -1.421875 17.546875 -0.640625 
Q 12.796875 0.140625 7.71875 1.703125 
L 7.71875 11.625 
Q 12.109375 9.234375 16.796875 8.0625 
Q 21.484375 6.890625 26.703125 6.890625 
Q 35.15625 6.890625 40.078125 11.328125 
Q 45.015625 15.765625 45.015625 23.390625 
Q 45.015625 31 40.078125 35.4375 
Q 35.15625 39.890625 26.703125 39.890625 
Q 22.75 39.890625 18.8125 39.015625 
Q 14.890625 38.140625 10.796875 36.28125 
z
" id="DejaVuSans-53"/>
      </defs>
      <g style="fill:#262626;" transform="translate(198.026451 527.597812)scale(0.14 -0.14)">
       <use xlink:href="#DejaVuSans-53"/>
      </g>
     </g>
    </g>
    <g id="xtick_4">
     <g id="line2d_4">
      <path clip-path="url(#p4b80f88398)" d="M 261.788957 503.46 
L 261.788957 7.2 
" style="fill:none;stroke:#cccccc;stroke-linecap:round;stroke-opacity:0.9;"/>
     </g>
     <g id="text_4">
      <!-- 6 -->
      <defs>
       <path d="M 33.015625 40.375 
Q 26.375 40.375 22.484375 35.828125 
Q 18.609375 31.296875 18.609375 23.390625 
Q 18.609375 15.53125 22.484375 10.953125 
Q 26.375 6.390625 33.015625 6.390625 
Q 39.65625 6.390625 43.53125 10.953125 
Q 47.40625 15.53125 47.40625 23.390625 
Q 47.40625 31.296875 43.53125 35.828125 
Q 39.65625 40.375 33.015625 40.375 
z
M 52.59375 71.296875 
L 52.59375 62.3125 
Q 48.875 64.0625 45.09375 64.984375 
Q 41.3125 65.921875 37.59375 65.921875 
Q 27.828125 65.921875 22.671875 59.328125 
Q 17.53125 52.734375 16.796875 39.40625 
Q 19.671875 43.65625 24.015625 45.921875 
Q 28.375 48.1875 33.59375 48.1875 
Q 44.578125 48.1875 50.953125 41.515625 
Q 57.328125 34.859375 57.328125 23.390625 
Q 57.328125 12.15625 50.6875 5.359375 
Q 44.046875 -1.421875 33.015625 -1.421875 
Q 20.359375 -1.421875 13.671875 8.265625 
Q 6.984375 17.96875 6.984375 36.375 
Q 6.984375 53.65625 15.1875 63.9375 
Q 23.390625 74.21875 37.203125 74.21875 
Q 40.921875 74.21875 44.703125 73.484375 
Q 48.484375 72.75 52.59375 71.296875 
z
" id="DejaVuSans-54"/>
      </defs>
      <g style="fill:#262626;" transform="translate(257.335207 527.597812)scale(0.14 -0.14)">
       <use xlink:href="#DejaVuSans-54"/>
      </g>
     </g>
    </g>
    <g id="xtick_5">
     <g id="line2d_5">
      <path clip-path="url(#p4b80f88398)" d="M 321.097714 503.46 
L 321.097714 7.2 
" style="fill:none;stroke:#cccccc;stroke-linecap:round;stroke-opacity:0.9;"/>
     </g>
     <g id="text_5">
      <!-- 7 -->
      <defs>
       <path d="M 8.203125 72.90625 
L 55.078125 72.90625 
L 55.078125 68.703125 
L 28.609375 0 
L 18.3125 0 
L 43.21875 64.59375 
L 8.203125 64.59375 
z
" id="DejaVuSans-55"/>
      </defs>
      <g style="fill:#262626;" transform="translate(316.643964 527.597812)scale(0.14 -0.14)">
       <use xlink:href="#DejaVuSans-55"/>
      </g>
     </g>
    </g>
    <g id="xtick_6">
     <g id="line2d_6">
      <path clip-path="url(#p4b80f88398)" d="M 380.406471 503.46 
L 380.406471 7.2 
" style="fill:none;stroke:#cccccc;stroke-linecap:round;stroke-opacity:0.9;"/>
     </g>
     <g id="text_6">
      <!-- 8 -->
      <defs>
       <path d="M 31.78125 34.625 
Q 24.75 34.625 20.71875 30.859375 
Q 16.703125 27.09375 16.703125 20.515625 
Q 16.703125 13.921875 20.71875 10.15625 
Q 24.75 6.390625 31.78125 6.390625 
Q 38.8125 6.390625 42.859375 10.171875 
Q 46.921875 13.96875 46.921875 20.515625 
Q 46.921875 27.09375 42.890625 30.859375 
Q 38.875 34.625 31.78125 34.625 
z
M 21.921875 38.8125 
Q 15.578125 40.375 12.03125 44.71875 
Q 8.5 49.078125 8.5 55.328125 
Q 8.5 64.0625 14.71875 69.140625 
Q 20.953125 74.21875 31.78125 74.21875 
Q 42.671875 74.21875 48.875 69.140625 
Q 55.078125 64.0625 55.078125 55.328125 
Q 55.078125 49.078125 51.53125 44.71875 
Q 48 40.375 41.703125 38.8125 
Q 48.828125 37.15625 52.796875 32.3125 
Q 56.78125 27.484375 56.78125 20.515625 
Q 56.78125 9.90625 50.3125 4.234375 
Q 43.84375 -1.421875 31.78125 -1.421875 
Q 19.734375 -1.421875 13.25 4.234375 
Q 6.78125 9.90625 6.78125 20.515625 
Q 6.78125 27.484375 10.78125 32.3125 
Q 14.796875 37.15625 21.921875 38.8125 
z
M 18.3125 54.390625 
Q 18.3125 48.734375 21.84375 45.5625 
Q 25.390625 42.390625 31.78125 42.390625 
Q 38.140625 42.390625 41.71875 45.5625 
Q 45.3125 48.734375 45.3125 54.390625 
Q 45.3125 60.0625 41.71875 63.234375 
Q 38.140625 66.40625 31.78125 66.40625 
Q 25.390625 66.40625 21.84375 63.234375 
Q 18.3125 60.0625 18.3125 54.390625 
z
" id="DejaVuSans-56"/>
      </defs>
      <g style="fill:#262626;" transform="translate(375.952721 527.597812)scale(0.14 -0.14)">
       <use xlink:href="#DejaVuSans-56"/>
      </g>
     </g>
    </g>
    <g id="xtick_7">
     <g id="line2d_7">
      <path clip-path="url(#p4b80f88398)" d="M 439.715227 503.46 
L 439.715227 7.2 
" style="fill:none;stroke:#cccccc;stroke-linecap:round;stroke-opacity:0.9;"/>
     </g>
     <g id="text_7">
      <!-- 9 -->
      <defs>
       <path d="M 10.984375 1.515625 
L 10.984375 10.5 
Q 14.703125 8.734375 18.5 7.8125 
Q 22.3125 6.890625 25.984375 6.890625 
Q 35.75 6.890625 40.890625 13.453125 
Q 46.046875 20.015625 46.78125 33.40625 
Q 43.953125 29.203125 39.59375 26.953125 
Q 35.25 24.703125 29.984375 24.703125 
Q 19.046875 24.703125 12.671875 31.3125 
Q 6.296875 37.9375 6.296875 49.421875 
Q 6.296875 60.640625 12.9375 67.421875 
Q 19.578125 74.21875 30.609375 74.21875 
Q 43.265625 74.21875 49.921875 64.515625 
Q 56.59375 54.828125 56.59375 36.375 
Q 56.59375 19.140625 48.40625 8.859375 
Q 40.234375 -1.421875 26.421875 -1.421875 
Q 22.703125 -1.421875 18.890625 -0.6875 
Q 15.09375 0.046875 10.984375 1.515625 
z
M 30.609375 32.421875 
Q 37.25 32.421875 41.125 36.953125 
Q 45.015625 41.5 45.015625 49.421875 
Q 45.015625 57.28125 41.125 61.84375 
Q 37.25 66.40625 30.609375 66.40625 
Q 23.96875 66.40625 20.09375 61.84375 
Q 16.21875 57.28125 16.21875 49.421875 
Q 16.21875 41.5 20.09375 36.953125 
Q 23.96875 32.421875 30.609375 32.421875 
z
" id="DejaVuSans-57"/>
      </defs>
      <g style="fill:#262626;" transform="translate(435.261477 527.597812)scale(0.14 -0.14)">
       <use xlink:href="#DejaVuSans-57"/>
      </g>
     </g>
    </g>
    <g id="xtick_8">
     <g id="line2d_8">
      <path clip-path="url(#p4b80f88398)" d="M 499.023984 503.46 
L 499.023984 7.2 
" style="fill:none;stroke:#cccccc;stroke-linecap:round;stroke-opacity:0.9;"/>
     </g>
     <g id="text_8">
      <!-- 10 -->
      <defs>
       <path d="M 12.40625 8.296875 
L 28.515625 8.296875 
L 28.515625 63.921875 
L 10.984375 60.40625 
L 10.984375 69.390625 
L 28.421875 72.90625 
L 38.28125 72.90625 
L 38.28125 8.296875 
L 54.390625 8.296875 
L 54.390625 0 
L 12.40625 0 
z
" id="DejaVuSans-49"/>
       <path d="M 31.78125 66.40625 
Q 24.171875 66.40625 20.328125 58.90625 
Q 16.5 51.421875 16.5 36.375 
Q 16.5 21.390625 20.328125 13.890625 
Q 24.171875 6.390625 31.78125 6.390625 
Q 39.453125 6.390625 43.28125 13.890625 
Q 47.125 21.390625 47.125 36.375 
Q 47.125 51.421875 43.28125 58.90625 
Q 39.453125 66.40625 31.78125 66.40625 
z
M 31.78125 74.21875 
Q 44.046875 74.21875 50.515625 64.515625 
Q 56.984375 54.828125 56.984375 36.375 
Q 56.984375 17.96875 50.515625 8.265625 
Q 44.046875 -1.421875 31.78125 -1.421875 
Q 19.53125 -1.421875 13.0625 8.265625 
Q 6.59375 17.96875 6.59375 36.375 
Q 6.59375 54.828125 13.0625 64.515625 
Q 19.53125 74.21875 31.78125 74.21875 
z
" id="DejaVuSans-48"/>
      </defs>
      <g style="fill:#262626;" transform="translate(490.116484 527.597812)scale(0.14 -0.14)">
       <use xlink:href="#DejaVuSans-49"/>
       <use x="63.623047" xlink:href="#DejaVuSans-48"/>
      </g>
     </g>
    </g>
    <g id="xtick_9">
     <g id="line2d_9">
      <path clip-path="url(#p4b80f88398)" d="M 558.33274 503.46 
L 558.33274 7.2 
" style="fill:none;stroke:#cccccc;stroke-linecap:round;stroke-opacity:0.9;"/>
     </g>
     <g id="text_9">
      <!-- 11 -->
      <g style="fill:#262626;" transform="translate(549.42524 527.597812)scale(0.14 -0.14)">
       <use xlink:href="#DejaVuSans-49"/>
       <use x="63.623047" xlink:href="#DejaVuSans-49"/>
      </g>
     </g>
    </g>
    <g id="text_10">
     <!-- Unemployment Rate -->
     <defs>
      <path d="M 8.6875 72.90625 
L 18.609375 72.90625 
L 18.609375 28.609375 
Q 18.609375 16.890625 22.84375 11.734375 
Q 27.09375 6.59375 36.625 6.59375 
Q 46.09375 6.59375 50.34375 11.734375 
Q 54.59375 16.890625 54.59375 28.609375 
L 54.59375 72.90625 
L 64.5 72.90625 
L 64.5 27.390625 
Q 64.5 13.140625 57.4375 5.859375 
Q 50.390625 -1.421875 36.625 -1.421875 
Q 22.796875 -1.421875 15.734375 5.859375 
Q 8.6875 13.140625 8.6875 27.390625 
z
" id="DejaVuSans-85"/>
      <path d="M 54.890625 33.015625 
L 54.890625 0 
L 45.90625 0 
L 45.90625 32.71875 
Q 45.90625 40.484375 42.875 44.328125 
Q 39.84375 48.1875 33.796875 48.1875 
Q 26.515625 48.1875 22.3125 43.546875 
Q 18.109375 38.921875 18.109375 30.90625 
L 18.109375 0 
L 9.078125 0 
L 9.078125 54.6875 
L 18.109375 54.6875 
L 18.109375 46.1875 
Q 21.34375 51.125 25.703125 53.5625 
Q 30.078125 56 35.796875 56 
Q 45.21875 56 50.046875 50.171875 
Q 54.890625 44.34375 54.890625 33.015625 
z
" id="DejaVuSans-110"/>
      <path d="M 56.203125 29.59375 
L 56.203125 25.203125 
L 14.890625 25.203125 
Q 15.484375 15.921875 20.484375 11.0625 
Q 25.484375 6.203125 34.421875 6.203125 
Q 39.59375 6.203125 44.453125 7.46875 
Q 49.3125 8.734375 54.109375 11.28125 
L 54.109375 2.78125 
Q 49.265625 0.734375 44.1875 -0.34375 
Q 39.109375 -1.421875 33.890625 -1.421875 
Q 20.796875 -1.421875 13.15625 6.1875 
Q 5.515625 13.8125 5.515625 26.8125 
Q 5.515625 40.234375 12.765625 48.109375 
Q 20.015625 56 32.328125 56 
Q 43.359375 56 49.78125 48.890625 
Q 56.203125 41.796875 56.203125 29.59375 
z
M 47.21875 32.234375 
Q 47.125 39.59375 43.09375 43.984375 
Q 39.0625 48.390625 32.421875 48.390625 
Q 24.90625 48.390625 20.390625 44.140625 
Q 15.875 39.890625 15.1875 32.171875 
z
" id="DejaVuSans-101"/>
      <path d="M 52 44.1875 
Q 55.375 50.25 60.0625 53.125 
Q 64.75 56 71.09375 56 
Q 79.640625 56 84.28125 50.015625 
Q 88.921875 44.046875 88.921875 33.015625 
L 88.921875 0 
L 79.890625 0 
L 79.890625 32.71875 
Q 79.890625 40.578125 77.09375 44.375 
Q 74.3125 48.1875 68.609375 48.1875 
Q 61.625 48.1875 57.5625 43.546875 
Q 53.515625 38.921875 53.515625 30.90625 
L 53.515625 0 
L 44.484375 0 
L 44.484375 32.71875 
Q 44.484375 40.625 41.703125 44.40625 
Q 38.921875 48.1875 33.109375 48.1875 
Q 26.21875 48.1875 22.15625 43.53125 
Q 18.109375 38.875 18.109375 30.90625 
L 18.109375 0 
L 9.078125 0 
L 9.078125 54.6875 
L 18.109375 54.6875 
L 18.109375 46.1875 
Q 21.1875 51.21875 25.484375 53.609375 
Q 29.78125 56 35.6875 56 
Q 41.65625 56 45.828125 52.96875 
Q 50 49.953125 52 44.1875 
z
" id="DejaVuSans-109"/>
      <path d="M 18.109375 8.203125 
L 18.109375 -20.796875 
L 9.078125 -20.796875 
L 9.078125 54.6875 
L 18.109375 54.6875 
L 18.109375 46.390625 
Q 20.953125 51.265625 25.265625 53.625 
Q 29.59375 56 35.59375 56 
Q 45.5625 56 51.78125 48.09375 
Q 58.015625 40.1875 58.015625 27.296875 
Q 58.015625 14.40625 51.78125 6.484375 
Q 45.5625 -1.421875 35.59375 -1.421875 
Q 29.59375 -1.421875 25.265625 0.953125 
Q 20.953125 3.328125 18.109375 8.203125 
z
M 48.6875 27.296875 
Q 48.6875 37.203125 44.609375 42.84375 
Q 40.53125 48.484375 33.40625 48.484375 
Q 26.265625 48.484375 22.1875 42.84375 
Q 18.109375 37.203125 18.109375 27.296875 
Q 18.109375 17.390625 22.1875 11.75 
Q 26.265625 6.109375 33.40625 6.109375 
Q 40.53125 6.109375 44.609375 11.75 
Q 48.6875 17.390625 48.6875 27.296875 
z
" id="DejaVuSans-112"/>
      <path d="M 9.421875 75.984375 
L 18.40625 75.984375 
L 18.40625 0 
L 9.421875 0 
z
" id="DejaVuSans-108"/>
      <path d="M 30.609375 48.390625 
Q 23.390625 48.390625 19.1875 42.75 
Q 14.984375 37.109375 14.984375 27.296875 
Q 14.984375 17.484375 19.15625 11.84375 
Q 23.34375 6.203125 30.609375 6.203125 
Q 37.796875 6.203125 41.984375 11.859375 
Q 46.1875 17.53125 46.1875 27.296875 
Q 46.1875 37.015625 41.984375 42.703125 
Q 37.796875 48.390625 30.609375 48.390625 
z
M 30.609375 56 
Q 42.328125 56 49.015625 48.375 
Q 55.71875 40.765625 55.71875 27.296875 
Q 55.71875 13.875 49.015625 6.21875 
Q 42.328125 -1.421875 30.609375 -1.421875 
Q 18.84375 -1.421875 12.171875 6.21875 
Q 5.515625 13.875 5.515625 27.296875 
Q 5.515625 40.765625 12.171875 48.375 
Q 18.84375 56 30.609375 56 
z
" id="DejaVuSans-111"/>
      <path d="M 32.171875 -5.078125 
Q 28.375 -14.84375 24.75 -17.8125 
Q 21.140625 -20.796875 15.09375 -20.796875 
L 7.90625 -20.796875 
L 7.90625 -13.28125 
L 13.1875 -13.28125 
Q 16.890625 -13.28125 18.9375 -11.515625 
Q 21 -9.765625 23.484375 -3.21875 
L 25.09375 0.875 
L 2.984375 54.6875 
L 12.5 54.6875 
L 29.59375 11.921875 
L 46.6875 54.6875 
L 56.203125 54.6875 
z
" id="DejaVuSans-121"/>
      <path d="M 18.3125 70.21875 
L 18.3125 54.6875 
L 36.8125 54.6875 
L 36.8125 47.703125 
L 18.3125 47.703125 
L 18.3125 18.015625 
Q 18.3125 11.328125 20.140625 9.421875 
Q 21.96875 7.515625 27.59375 7.515625 
L 36.8125 7.515625 
L 36.8125 0 
L 27.59375 0 
Q 17.1875 0 13.234375 3.875 
Q 9.28125 7.765625 9.28125 18.015625 
L 9.28125 47.703125 
L 2.6875 47.703125 
L 2.6875 54.6875 
L 9.28125 54.6875 
L 9.28125 70.21875 
z
" id="DejaVuSans-116"/>
      <path id="DejaVuSans-32"/>
      <path d="M 44.390625 34.1875 
Q 47.5625 33.109375 50.5625 29.59375 
Q 53.5625 26.078125 56.59375 19.921875 
L 66.609375 0 
L 56 0 
L 46.6875 18.703125 
Q 43.0625 26.03125 39.671875 28.421875 
Q 36.28125 30.8125 30.421875 30.8125 
L 19.671875 30.8125 
L 19.671875 0 
L 9.8125 0 
L 9.8125 72.90625 
L 32.078125 72.90625 
Q 44.578125 72.90625 50.734375 67.671875 
Q 56.890625 62.453125 56.890625 51.90625 
Q 56.890625 45.015625 53.6875 40.46875 
Q 50.484375 35.9375 44.390625 34.1875 
z
M 19.671875 64.796875 
L 19.671875 38.921875 
L 32.078125 38.921875 
Q 39.203125 38.921875 42.84375 42.21875 
Q 46.484375 45.515625 46.484375 51.90625 
Q 46.484375 58.296875 42.84375 61.546875 
Q 39.203125 64.796875 32.078125 64.796875 
z
" id="DejaVuSans-82"/>
      <path d="M 34.28125 27.484375 
Q 23.390625 27.484375 19.1875 25 
Q 14.984375 22.515625 14.984375 16.5 
Q 14.984375 11.71875 18.140625 8.90625 
Q 21.296875 6.109375 26.703125 6.109375 
Q 34.1875 6.109375 38.703125 11.40625 
Q 43.21875 16.703125 43.21875 25.484375 
L 43.21875 27.484375 
z
M 52.203125 31.203125 
L 52.203125 0 
L 43.21875 0 
L 43.21875 8.296875 
Q 40.140625 3.328125 35.546875 0.953125 
Q 30.953125 -1.421875 24.3125 -1.421875 
Q 15.921875 -1.421875 10.953125 3.296875 
Q 6 8.015625 6 15.921875 
Q 6 25.140625 12.171875 29.828125 
Q 18.359375 34.515625 30.609375 34.515625 
L 43.21875 34.515625 
L 43.21875 35.40625 
Q 43.21875 41.609375 39.140625 45 
Q 35.0625 48.390625 27.6875 48.390625 
Q 23 48.390625 18.546875 47.265625 
Q 14.109375 46.140625 10.015625 43.890625 
L 10.015625 52.203125 
Q 14.9375 54.109375 19.578125 55.046875 
Q 24.21875 56 28.609375 56 
Q 40.484375 56 46.34375 49.84375 
Q 52.203125 43.703125 52.203125 31.203125 
z
" id="DejaVuSans-97"/>
     </defs>
     <g style="fill:#262626;" transform="translate(234.417589 547.27475)scale(0.168 -0.168)">
      <use xlink:href="#DejaVuSans-85"/>
      <use x="73.193359" xlink:href="#DejaVuSans-110"/>
      <use x="136.572266" xlink:href="#DejaVuSans-101"/>
      <use x="198.095703" xlink:href="#DejaVuSans-109"/>
      <use x="295.507812" xlink:href="#DejaVuSans-112"/>
      <use x="358.984375" xlink:href="#DejaVuSans-108"/>
      <use x="386.767578" xlink:href="#DejaVuSans-111"/>
      <use x="447.949219" xlink:href="#DejaVuSans-121"/>
      <use x="507.128906" xlink:href="#DejaVuSans-109"/>
      <use x="604.541016" xlink:href="#DejaVuSans-101"/>
      <use x="666.064453" xlink:href="#DejaVuSans-110"/>
      <use x="729.443359" xlink:href="#DejaVuSans-116"/>
      <use x="768.652344" xlink:href="#DejaVuSans-32"/>
      <use x="800.439453" xlink:href="#DejaVuSans-82"/>
      <use x="869.890625" xlink:href="#DejaVuSans-97"/>
      <use x="931.169922" xlink:href="#DejaVuSans-116"/>
      <use x="970.378906" xlink:href="#DejaVuSans-101"/>
     </g>
    </g>
   </g>
   <g id="matplotlib.axis_2">
    <g id="ytick_1">
     <g id="line2d_10">
      <path clip-path="url(#p4b80f88398)" d="M 83.862688 503.46 
L 558.33274 503.46 
" style="fill:none;stroke:#cccccc;stroke-linecap:round;stroke-opacity:0.9;"/>
     </g>
     <g id="text_11">
      <!-- −0.02 -->
      <defs>
       <path d="M 10.59375 35.5 
L 73.1875 35.5 
L 73.1875 27.203125 
L 10.59375 27.203125 
z
" id="DejaVuSans-8722"/>
       <path d="M 10.6875 12.40625 
L 21 12.40625 
L 21 0 
L 10.6875 0 
z
" id="DejaVuSans-46"/>
       <path d="M 19.1875 8.296875 
L 53.609375 8.296875 
L 53.609375 0 
L 7.328125 0 
L 7.328125 8.296875 
Q 12.9375 14.109375 22.625 23.890625 
Q 32.328125 33.6875 34.8125 36.53125 
Q 39.546875 41.84375 41.421875 45.53125 
Q 43.3125 49.21875 43.3125 52.78125 
Q 43.3125 58.59375 39.234375 62.25 
Q 35.15625 65.921875 28.609375 65.921875 
Q 23.96875 65.921875 18.8125 64.3125 
Q 13.671875 62.703125 7.8125 59.421875 
L 7.8125 69.390625 
Q 13.765625 71.78125 18.9375 73 
Q 24.125 74.21875 28.421875 74.21875 
Q 39.75 74.21875 46.484375 68.546875 
Q 53.21875 62.890625 53.21875 53.421875 
Q 53.21875 48.921875 51.53125 44.890625 
Q 49.859375 40.875 45.40625 35.40625 
Q 44.1875 33.984375 37.640625 27.21875 
Q 31.109375 20.453125 19.1875 8.296875 
z
" id="DejaVuSans-50"/>
      </defs>
      <g style="fill:#262626;" transform="translate(27.45925 508.778906)scale(0.14 -0.14)">
       <use xlink:href="#DejaVuSans-8722"/>
       <use x="83.789062" xlink:href="#DejaVuSans-48"/>
       <use x="147.412109" xlink:href="#DejaVuSans-46"/>
       <use x="179.199219" xlink:href="#DejaVuSans-48"/>
       <use x="242.822266" xlink:href="#DejaVuSans-50"/>
      </g>
     </g>
    </g>
    <g id="ytick_2">
     <g id="line2d_11">
      <path clip-path="url(#p4b80f88398)" d="M 83.862688 437.292 
L 558.33274 437.292 
" style="fill:none;stroke:#cccccc;stroke-linecap:round;stroke-opacity:0.9;"/>
     </g>
     <g id="text_12">
      <!-- 0.00 -->
      <g style="fill:#262626;" transform="translate(39.190813 442.610906)scale(0.14 -0.14)">
       <use xlink:href="#DejaVuSans-48"/>
       <use x="63.623047" xlink:href="#DejaVuSans-46"/>
       <use x="95.410156" xlink:href="#DejaVuSans-48"/>
       <use x="159.033203" xlink:href="#DejaVuSans-48"/>
      </g>
     </g>
    </g>
    <g id="ytick_3">
     <g id="line2d_12">
      <path clip-path="url(#p4b80f88398)" d="M 83.862688 371.124 
L 558.33274 371.124 
" style="fill:none;stroke:#cccccc;stroke-linecap:round;stroke-opacity:0.9;"/>
     </g>
     <g id="text_13">
      <!-- 0.02 -->
      <g style="fill:#262626;" transform="translate(39.190813 376.442906)scale(0.14 -0.14)">
       <use xlink:href="#DejaVuSans-48"/>
       <use x="63.623047" xlink:href="#DejaVuSans-46"/>
       <use x="95.410156" xlink:href="#DejaVuSans-48"/>
       <use x="159.033203" xlink:href="#DejaVuSans-50"/>
      </g>
     </g>
    </g>
    <g id="ytick_4">
     <g id="line2d_13">
      <path clip-path="url(#p4b80f88398)" d="M 83.862688 304.956 
L 558.33274 304.956 
" style="fill:none;stroke:#cccccc;stroke-linecap:round;stroke-opacity:0.9;"/>
     </g>
     <g id="text_14">
      <!-- 0.04 -->
      <g style="fill:#262626;" transform="translate(39.190813 310.274906)scale(0.14 -0.14)">
       <use xlink:href="#DejaVuSans-48"/>
       <use x="63.623047" xlink:href="#DejaVuSans-46"/>
       <use x="95.410156" xlink:href="#DejaVuSans-48"/>
       <use x="159.033203" xlink:href="#DejaVuSans-52"/>
      </g>
     </g>
    </g>
    <g id="ytick_5">
     <g id="line2d_14">
      <path clip-path="url(#p4b80f88398)" d="M 83.862688 238.788 
L 558.33274 238.788 
" style="fill:none;stroke:#cccccc;stroke-linecap:round;stroke-opacity:0.9;"/>
     </g>
     <g id="text_15">
      <!-- 0.06 -->
      <g style="fill:#262626;" transform="translate(39.190813 244.106906)scale(0.14 -0.14)">
       <use xlink:href="#DejaVuSans-48"/>
       <use x="63.623047" xlink:href="#DejaVuSans-46"/>
       <use x="95.410156" xlink:href="#DejaVuSans-48"/>
       <use x="159.033203" xlink:href="#DejaVuSans-54"/>
      </g>
     </g>
    </g>
    <g id="ytick_6">
     <g id="line2d_15">
      <path clip-path="url(#p4b80f88398)" d="M 83.862688 172.62 
L 558.33274 172.62 
" style="fill:none;stroke:#cccccc;stroke-linecap:round;stroke-opacity:0.9;"/>
     </g>
     <g id="text_16">
      <!-- 0.08 -->
      <g style="fill:#262626;" transform="translate(39.190813 177.938906)scale(0.14 -0.14)">
       <use xlink:href="#DejaVuSans-48"/>
       <use x="63.623047" xlink:href="#DejaVuSans-46"/>
       <use x="95.410156" xlink:href="#DejaVuSans-48"/>
       <use x="159.033203" xlink:href="#DejaVuSans-56"/>
      </g>
     </g>
    </g>
    <g id="ytick_7">
     <g id="line2d_16">
      <path clip-path="url(#p4b80f88398)" d="M 83.862688 106.452 
L 558.33274 106.452 
" style="fill:none;stroke:#cccccc;stroke-linecap:round;stroke-opacity:0.9;"/>
     </g>
     <g id="text_17">
      <!-- 0.10 -->
      <g style="fill:#262626;" transform="translate(39.190813 111.770906)scale(0.14 -0.14)">
       <use xlink:href="#DejaVuSans-48"/>
       <use x="63.623047" xlink:href="#DejaVuSans-46"/>
       <use x="95.410156" xlink:href="#DejaVuSans-49"/>
       <use x="159.033203" xlink:href="#DejaVuSans-48"/>
      </g>
     </g>
    </g>
    <g id="ytick_8">
     <g id="line2d_17">
      <path clip-path="url(#p4b80f88398)" d="M 83.862688 40.284 
L 558.33274 40.284 
" style="fill:none;stroke:#cccccc;stroke-linecap:round;stroke-opacity:0.9;"/>
     </g>
     <g id="text_18">
      <!-- 0.12 -->
      <g style="fill:#262626;" transform="translate(39.190813 45.602906)scale(0.14 -0.14)">
       <use xlink:href="#DejaVuSans-48"/>
       <use x="63.623047" xlink:href="#DejaVuSans-46"/>
       <use x="95.410156" xlink:href="#DejaVuSans-49"/>
       <use x="159.033203" xlink:href="#DejaVuSans-50"/>
      </g>
     </g>
    </g>
    <g id="text_19">
     <!-- Inflation Rate -->
     <defs>
      <path d="M 9.8125 72.90625 
L 19.671875 72.90625 
L 19.671875 0 
L 9.8125 0 
z
" id="DejaVuSans-73"/>
      <path d="M 37.109375 75.984375 
L 37.109375 68.5 
L 28.515625 68.5 
Q 23.6875 68.5 21.796875 66.546875 
Q 19.921875 64.59375 19.921875 59.515625 
L 19.921875 54.6875 
L 34.71875 54.6875 
L 34.71875 47.703125 
L 19.921875 47.703125 
L 19.921875 0 
L 10.890625 0 
L 10.890625 47.703125 
L 2.296875 47.703125 
L 2.296875 54.6875 
L 10.890625 54.6875 
L 10.890625 58.5 
Q 10.890625 67.625 15.140625 71.796875 
Q 19.390625 75.984375 28.609375 75.984375 
z
" id="DejaVuSans-102"/>
      <path d="M 9.421875 54.6875 
L 18.40625 54.6875 
L 18.40625 0 
L 9.421875 0 
z
M 9.421875 75.984375 
L 18.40625 75.984375 
L 18.40625 64.59375 
L 9.421875 64.59375 
z
" id="DejaVuSans-105"/>
     </defs>
     <g style="fill:#262626;" transform="translate(19.965375 311.77275)rotate(-90)scale(0.168 -0.168)">
      <use xlink:href="#DejaVuSans-73"/>
      <use x="29.492188" xlink:href="#DejaVuSans-110"/>
      <use x="92.871094" xlink:href="#DejaVuSans-102"/>
      <use x="128.076172" xlink:href="#DejaVuSans-108"/>
      <use x="155.859375" xlink:href="#DejaVuSans-97"/>
      <use x="217.138672" xlink:href="#DejaVuSans-116"/>
      <use x="256.347656" xlink:href="#DejaVuSans-105"/>
      <use x="284.130859" xlink:href="#DejaVuSans-111"/>
      <use x="345.3125" xlink:href="#DejaVuSans-110"/>
      <use x="408.691406" xlink:href="#DejaVuSans-32"/>
      <use x="440.478516" xlink:href="#DejaVuSans-82"/>
      <use x="509.929688" xlink:href="#DejaVuSans-97"/>
      <use x="571.208984" xlink:href="#DejaVuSans-116"/>
      <use x="610.417969" xlink:href="#DejaVuSans-101"/>
     </g>
    </g>
   </g>
   <g id="PathCollection_1">
    <defs>
     <path d="M 0 3 
C 0.795609 3 1.55874 2.683901 2.12132 2.12132 
C 2.683901 1.55874 3 0.795609 3 0 
C 3 -0.795609 2.683901 -1.55874 2.12132 -2.12132 
C 1.55874 -2.683901 0.795609 -3 0 -3 
C -0.795609 -3 -1.55874 -2.683901 -2.12132 -2.12132 
C -2.683901 -1.55874 -3 -0.795609 -3 0 
C -3 0.795609 -2.683901 1.55874 -2.12132 2.12132 
C -1.55874 2.683901 -0.795609 3 0 3 
z
" id="m23b7d58029" style="stroke:#165aa7;stroke-opacity:0.8;"/>
    </defs>
    <g clip-path="url(#p4b80f88398)">
     <use style="fill:#165aa7;fill-opacity:0.8;stroke:#165aa7;stroke-opacity:0.8;" x="302.810847" xlink:href="#m23b7d58029" y="401.880136"/>
     <use style="fill:#165aa7;fill-opacity:0.8;stroke:#165aa7;stroke-opacity:0.8;" x="236.088496" xlink:href="#m23b7d58029" y="398.382664"/>
     <use style="fill:#165aa7;fill-opacity:0.8;stroke:#165aa7;stroke-opacity:0.8;" x="240.536653" xlink:href="#m23b7d58029" y="395.736513"/>
     <use style="fill:#165aa7;fill-opacity:0.8;stroke:#165aa7;stroke-opacity:0.8;" x="211.870754" xlink:href="#m23b7d58029" y="393.552"/>
     <use style="fill:#165aa7;fill-opacity:0.8;stroke:#165aa7;stroke-opacity:0.8;" x="173.320062" xlink:href="#m23b7d58029" y="385.06252"/>
     <use style="fill:#165aa7;fill-opacity:0.8;stroke:#165aa7;stroke-opacity:0.8;" x="130.815453" xlink:href="#m23b7d58029" y="338.39153"/>
     <use style="fill:#165aa7;fill-opacity:0.8;stroke:#165aa7;stroke-opacity:0.8;" x="133.780891" xlink:href="#m23b7d58029" y="345.16794"/>
     <use style="fill:#165aa7;fill-opacity:0.8;stroke:#165aa7;stroke-opacity:0.8;" x="116.976743" xlink:href="#m23b7d58029" y="296.860539"/>
     <use style="fill:#165aa7;fill-opacity:0.8;stroke:#165aa7;stroke-opacity:0.8;" x="113.022826" xlink:href="#m23b7d58029" y="257.410132"/>
    </g>
   </g>
   <g id="PathCollection_2">
    <defs>
     <path d="M 0 3 
C 0.795609 3 1.55874 2.683901 2.12132 2.12132 
C 2.683901 1.55874 3 0.795609 3 0 
C 3 -0.795609 2.683901 -1.55874 2.12132 -2.12132 
C 1.55874 -2.683901 0.795609 -3 0 -3 
C -0.795609 -3 -1.55874 -2.683901 -2.12132 -2.12132 
C -2.683901 -1.55874 -3 -0.795609 -3 0 
C -3 0.795609 -2.683901 1.55874 -2.12132 2.12132 
C -1.55874 2.683901 -0.795609 3 0 3 
z
" id="m2c1a1ad0d8" style="stroke:#cb495c;stroke-opacity:0.8;"/>
    </defs>
    <g clip-path="url(#p4b80f88398)">
     <use style="fill:#cb495c;fill-opacity:0.8;stroke:#cb495c;stroke-opacity:0.8;" x="201.491721" xlink:href="#m2c1a1ad0d8" y="242.636025"/>
     <use style="fill:#cb495c;fill-opacity:0.8;stroke:#cb495c;stroke-opacity:0.8;" x="258.82352" xlink:href="#m2c1a1ad0d8" y="297.460462"/>
     <use style="fill:#cb495c;fill-opacity:0.8;stroke:#cb495c;stroke-opacity:0.8;" x="238.065455" xlink:href="#m2c1a1ad0d8" y="329.009662"/>
     <use style="fill:#cb495c;fill-opacity:0.8;stroke:#cb495c;stroke-opacity:0.8;" x="194.078127" xlink:href="#m2c1a1ad0d8" y="230.228496"/>
     <use style="fill:#cb495c;fill-opacity:0.8;stroke:#cb495c;stroke-opacity:0.8;" x="240.536653" xlink:href="#m2c1a1ad0d8" y="73.001848"/>
     <use style="fill:#cb495c;fill-opacity:0.8;stroke:#cb495c;stroke-opacity:0.8;" x="408.57813" xlink:href="#m2c1a1ad0d8" y="134.851243"/>
     <use style="fill:#cb495c;fill-opacity:0.8;stroke:#cb495c;stroke-opacity:0.8;" x="362.613844" xlink:href="#m2c1a1ad0d8" y="246.235614"/>
     <use style="fill:#cb495c;fill-opacity:0.8;stroke:#cb495c;stroke-opacity:0.8;" x="324.063152" xlink:href="#m2c1a1ad0d8" y="223.253241"/>
     <use style="fill:#cb495c;fill-opacity:0.8;stroke:#cb495c;stroke-opacity:0.8;" x="265.742874" xlink:href="#m2c1a1ad0d8" y="184.8639"/>
     <use style="fill:#cb495c;fill-opacity:0.8;stroke:#cb495c;stroke-opacity:0.8;" x="252.892644" xlink:href="#m2c1a1ad0d8" y="64.996637"/>
    </g>
   </g>
   <g id="PathCollection_3">
    <defs>
     <path d="M 0 3 
C 0.795609 3 1.55874 2.683901 2.12132 2.12132 
C 2.683901 1.55874 3 0.795609 3 0 
C 3 -0.795609 2.683901 -1.55874 2.12132 -2.12132 
C 1.55874 -2.683901 0.795609 -3 0 -3 
C -0.795609 -3 -1.55874 -2.683901 -2.12132 -2.12132 
C -2.683901 -1.55874 -3 -0.795609 -3 0 
C -3 0.795609 -2.683901 1.55874 -2.12132 2.12132 
C -1.55874 2.683901 -0.795609 3 0 3 
z
" id="mc6e093f09e" style="stroke:#bb60d5;stroke-opacity:0.8;"/>
    </defs>
    <g clip-path="url(#p4b80f88398)">
     <use style="fill:#bb60d5;fill-opacity:0.8;stroke:#bb60d5;stroke-opacity:0.8;" x="333.605831" xlink:href="#mc6e093f09e" y="-1"/>
     <use style="fill:#bb60d5;fill-opacity:0.8;stroke:#bb60d5;stroke-opacity:0.8;" x="357.671447" xlink:href="#mc6e093f09e" y="93.9359"/>
     <use style="fill:#bb60d5;fill-opacity:0.8;stroke:#bb60d5;stroke-opacity:0.8;" x="481.725596" xlink:href="#mc6e093f09e" y="233.548891"/>
     <use style="fill:#bb60d5;fill-opacity:0.8;stroke:#bb60d5;stroke-opacity:0.8;" x="475.300481" xlink:href="#mc6e093f09e" y="332.762097"/>
     <use style="fill:#bb60d5;fill-opacity:0.8;stroke:#bb60d5;stroke-opacity:0.8;" x="351.246332" xlink:href="#mc6e093f09e" y="292.774444"/>
     <use style="fill:#bb60d5;fill-opacity:0.8;stroke:#bb60d5;stroke-opacity:0.8;" x="332.465226" xlink:href="#mc6e093f09e" y="320.574874"/>
     <use style="fill:#bb60d5;fill-opacity:0.8;stroke:#bb60d5;stroke-opacity:0.8;" x="321.097714" xlink:href="#mc6e093f09e" y="372.979082"/>
     <use style="fill:#bb60d5;fill-opacity:0.8;stroke:#bb60d5;stroke-opacity:0.8;" x="272.16799" xlink:href="#mc6e093f09e" y="318.910446"/>
     <use style="fill:#bb60d5;fill-opacity:0.8;stroke:#bb60d5;stroke-opacity:0.8;" x="231.640339" xlink:href="#mc6e093f09e" y="301.646144"/>
     <use style="fill:#bb60d5;fill-opacity:0.8;stroke:#bb60d5;stroke-opacity:0.8;" x="217.80163" xlink:href="#mc6e093f09e" y="278.783439"/>
    </g>
   </g>
   <g id="PathCollection_4">
    <defs>
     <path d="M 0 3 
C 0.795609 3 1.55874 2.683901 2.12132 2.12132 
C 2.683901 1.55874 3 0.795609 3 0 
C 3 -0.795609 2.683901 -1.55874 2.12132 -2.12132 
C 1.55874 -2.683901 0.795609 -3 0 -3 
C -0.795609 -3 -1.55874 -2.683901 -2.12132 -2.12132 
C -2.683901 -1.55874 -3 -0.795609 -3 0 
C -3 0.795609 -2.683901 1.55874 -2.12132 2.12132 
C -1.55874 2.683901 -0.795609 3 0 3 
z
" id="m252381b03b" style="stroke:#f47915;stroke-opacity:0.8;"/>
    </defs>
    <g clip-path="url(#p4b80f88398)">
     <use style="fill:#f47915;fill-opacity:0.8;stroke:#f47915;stroke-opacity:0.8;" x="239.053934" xlink:href="#m252381b03b" y="258.002657"/>
     <use style="fill:#f47915;fill-opacity:0.8;stroke:#f47915;stroke-opacity:0.8;" x="312.2014" xlink:href="#m252381b03b" y="297.815477"/>
     <use style="fill:#f47915;fill-opacity:0.8;stroke:#f47915;stroke-opacity:0.8;" x="350.257853" xlink:href="#m252381b03b" y="336.663187"/>
     <use style="fill:#f47915;fill-opacity:0.8;stroke:#f47915;stroke-opacity:0.8;" x="315.661078" xlink:href="#m252381b03b" y="339.044094"/>
     <use style="fill:#f47915;fill-opacity:0.8;stroke:#f47915;stroke-opacity:0.8;" x="267.719833" xlink:href="#m252381b03b" y="351.419012"/>
     <use style="fill:#f47915;fill-opacity:0.8;stroke:#f47915;stroke-opacity:0.8;" x="237.571215" xlink:href="#m252381b03b" y="344.477495"/>
     <use style="fill:#f47915;fill-opacity:0.8;stroke:#f47915;stroke-opacity:0.8;" x="226.697943" xlink:href="#m252381b03b" y="340.135115"/>
     <use style="fill:#f47915;fill-opacity:0.8;stroke:#f47915;stroke-opacity:0.8;" x="199.020523" xlink:href="#m252381b03b" y="359.955975"/>
     <use style="fill:#f47915;fill-opacity:0.8;stroke:#f47915;stroke-opacity:0.8;" x="172.825822" xlink:href="#m252381b03b" y="386.110813"/>
     <use style="fill:#f47915;fill-opacity:0.8;stroke:#f47915;stroke-opacity:0.8;" x="156.021675" xlink:href="#m252381b03b" y="364.734176"/>
    </g>
   </g>
   <g id="PathCollection_5">
    <defs>
     <path d="M 0 3 
C 0.795609 3 1.55874 2.683901 2.12132 2.12132 
C 2.683901 1.55874 3 0.795609 3 0 
C 3 -0.795609 2.683901 -1.55874 2.12132 -2.12132 
C 1.55874 -2.683901 0.795609 -3 0 -3 
C -0.795609 -3 -1.55874 -2.683901 -2.12132 -2.12132 
C -2.683901 -1.55874 -3 -0.795609 -3 0 
C -3 0.795609 -2.683901 1.55874 -2.12132 2.12132 
C -1.55874 2.683901 -0.795609 3 0 3 
z
" id="m49bd9c8787" style="stroke:#06ab54;stroke-opacity:0.8;"/>
    </defs>
    <g clip-path="url(#p4b80f88398)">
     <use style="fill:#06ab54;fill-opacity:0.8;stroke:#06ab54;stroke-opacity:0.8;" x="141.194486" xlink:href="#m49bd9c8787" y="325.908648"/>
     <use style="fill:#06ab54;fill-opacity:0.8;stroke:#06ab54;stroke-opacity:0.8;" x="187.158772" xlink:href="#m49bd9c8787" y="344.106654"/>
     <use style="fill:#06ab54;fill-opacity:0.8;stroke:#06ab54;stroke-opacity:0.8;" x="248.938727" xlink:href="#m49bd9c8787" y="384.500868"/>
     <use style="fill:#06ab54;fill-opacity:0.8;stroke:#06ab54;stroke-opacity:0.8;" x="261.294718" xlink:href="#m49bd9c8787" y="361.265017"/>
     <use style="fill:#06ab54;fill-opacity:0.8;stroke:#06ab54;stroke-opacity:0.8;" x="234.605777" xlink:href="#m49bd9c8787" y="349.038033"/>
     <use style="fill:#06ab54;fill-opacity:0.8;stroke:#06ab54;stroke-opacity:0.8;" x="207.422597" xlink:href="#m49bd9c8787" y="325.936881"/>
     <use style="fill:#06ab54;fill-opacity:0.8;stroke:#06ab54;stroke-opacity:0.8;" x="179.250938" xlink:href="#m49bd9c8787" y="330.692393"/>
     <use style="fill:#06ab54;fill-opacity:0.8;stroke:#06ab54;stroke-opacity:0.8;" x="179.745177" xlink:href="#m49bd9c8787" y="342.322714"/>
     <use style="fill:#06ab54;fill-opacity:0.8;stroke:#06ab54;stroke-opacity:0.8;" x="249.927206" xlink:href="#m49bd9c8787" y="311.078082"/>
     <use style="fill:#06ab54;fill-opacity:0.8;stroke:#06ab54;stroke-opacity:0.8;" x="456.519375" xlink:href="#m49bd9c8787" y="447.890711"/>
    </g>
   </g>
   <g id="line2d_18">
    <path clip-path="url(#p4b80f88398)" d="M 113.022826 310.942839 
L 114.939877 312.17891 
L 116.856928 313.414982 
L 118.773978 314.651053 
L 120.691029 315.887125 
L 122.60808 317.123196 
L 124.52513 318.359268 
L 126.442181 319.59534 
L 128.359232 320.831411 
L 130.276283 322.067483 
L 132.193333 323.303554 
L 134.110384 324.539626 
L 136.027435 325.775697 
L 137.944486 327.011769 
L 139.861536 328.24784 
L 141.778587 329.483912 
L 143.695638 330.719983 
L 145.612688 331.956055 
L 147.529739 333.192126 
L 149.44679 334.428198 
L 151.363841 335.664269 
L 153.280891 336.900341 
L 155.197942 338.136412 
L 157.114993 339.372484 
L 159.032043 340.608556 
L 160.949094 341.844627 
L 162.866145 343.080699 
L 164.783196 344.31677 
L 166.700246 345.552842 
L 168.617297 346.788913 
L 170.534348 348.024985 
L 172.451398 349.261056 
L 174.368449 350.497128 
L 176.2855 351.733199 
L 178.202551 352.969271 
L 180.119601 354.205342 
L 182.036652 355.441414 
L 183.953703 356.677485 
L 185.870753 357.913557 
L 187.787804 359.149629 
L 189.704855 360.3857 
L 191.621906 361.621772 
L 193.538956 362.857843 
L 195.456007 364.093915 
L 197.373058 365.329986 
L 199.290109 366.566058 
L 201.207159 367.802129 
L 203.12421 369.038201 
L 205.041261 370.274272 
L 206.958311 371.510344 
L 208.875362 372.746415 
L 210.792413 373.982487 
L 212.709464 375.218558 
L 214.626514 376.45463 
L 216.543565 377.690701 
L 218.460616 378.926773 
L 220.377666 380.162845 
L 222.294717 381.398916 
L 224.211768 382.634988 
L 226.128819 383.871059 
L 228.045869 385.107131 
L 229.96292 386.343202 
L 231.879971 387.579274 
L 233.797021 388.815345 
L 235.714072 390.051417 
L 237.631123 391.287488 
L 239.548174 392.52356 
L 241.465224 393.759631 
L 243.382275 394.995703 
L 245.299326 396.231774 
L 247.216377 397.467846 
L 249.133427 398.703918 
L 251.050478 399.939989 
L 252.967529 401.176061 
L 254.884579 402.412132 
L 256.80163 403.648204 
L 258.718681 404.884275 
L 260.635732 406.120347 
L 262.552782 407.356418 
L 264.469833 408.59249 
L 266.386884 409.828561 
L 268.303934 411.064633 
L 270.220985 412.300704 
L 272.138036 413.536776 
L 274.055087 414.772847 
L 275.972137 416.008919 
L 277.889188 417.24499 
L 279.806239 418.481062 
L 281.723289 419.717134 
L 283.64034 420.953205 
L 285.557391 422.189277 
L 287.474442 423.425348 
L 289.391492 424.66142 
L 291.308543 425.897491 
L 293.225594 427.133563 
L 295.142644 428.369634 
L 297.059695 429.605706 
L 298.976746 430.841777 
L 300.893797 432.077849 
L 302.810847 433.31392 
" style="fill:none;stroke:#165aa7;stroke-linecap:round;stroke-width:2.25;"/>
   </g>
   <g id="line2d_19">
    <path clip-path="url(#p4b80f88398)" d="M 194.078127 217.414999 
L 196.244794 217.018241 
L 198.41146 216.621484 
L 200.578127 216.224727 
L 202.744794 215.82797 
L 204.91146 215.431213 
L 207.078127 215.034456 
L 209.244794 214.637699 
L 211.41146 214.240941 
L 213.578127 213.844184 
L 215.744794 213.447427 
L 217.911461 213.05067 
L 220.078127 212.653913 
L 222.244794 212.257156 
L 224.411461 211.860398 
L 226.578127 211.463641 
L 228.744794 211.066884 
L 230.911461 210.670127 
L 233.078127 210.27337 
L 235.244794 209.876613 
L 237.411461 209.479856 
L 239.578128 209.083098 
L 241.744794 208.686341 
L 243.911461 208.289584 
L 246.078128 207.892827 
L 248.244794 207.49607 
L 250.411461 207.099313 
L 252.578128 206.702555 
L 254.744794 206.305798 
L 256.911461 205.909041 
L 259.078128 205.512284 
L 261.244795 205.115527 
L 263.411461 204.71877 
L 265.578128 204.322013 
L 267.744795 203.925255 
L 269.911461 203.528498 
L 272.078128 203.131741 
L 274.244795 202.734984 
L 276.411461 202.338227 
L 278.578128 201.94147 
L 280.744795 201.544712 
L 282.911462 201.147955 
L 285.078128 200.751198 
L 287.244795 200.354441 
L 289.411462 199.957684 
L 291.578128 199.560927 
L 293.744795 199.16417 
L 295.911462 198.767412 
L 298.078128 198.370655 
L 300.244795 197.973898 
L 302.411462 197.577141 
L 304.578128 197.180384 
L 306.744795 196.783627 
L 308.911462 196.386869 
L 311.078129 195.990112 
L 313.244795 195.593355 
L 315.411462 195.196598 
L 317.578129 194.799841 
L 319.744795 194.403084 
L 321.911462 194.006327 
L 324.078129 193.609569 
L 326.244795 193.212812 
L 328.411462 192.816055 
L 330.578129 192.419298 
L 332.744796 192.022541 
L 334.911462 191.625784 
L 337.078129 191.229026 
L 339.244796 190.832269 
L 341.411462 190.435512 
L 343.578129 190.038755 
L 345.744796 189.641998 
L 347.911462 189.245241 
L 350.078129 188.848484 
L 352.244796 188.451726 
L 354.411463 188.054969 
L 356.578129 187.658212 
L 358.744796 187.261455 
L 360.911463 186.864698 
L 363.078129 186.467941 
L 365.244796 186.071183 
L 367.411463 185.674426 
L 369.578129 185.277669 
L 371.744796 184.880912 
L 373.911463 184.484155 
L 376.07813 184.087398 
L 378.244796 183.690641 
L 380.411463 183.293883 
L 382.57813 182.897126 
L 384.744796 182.500369 
L 386.911463 182.103612 
L 389.07813 181.706855 
L 391.244796 181.310098 
L 393.411463 180.913341 
L 395.57813 180.516583 
L 397.744796 180.119826 
L 399.911463 179.723069 
L 402.07813 179.326312 
L 404.244797 178.929555 
L 406.411463 178.532798 
L 408.57813 178.13604 
" style="fill:none;stroke:#cb495c;stroke-linecap:round;stroke-width:2.25;"/>
   </g>
   <g id="line2d_20">
    <path clip-path="url(#p4b80f88398)" d="M 217.80163 266.769873 
L 220.467528 266.477118 
L 223.133427 266.184362 
L 225.799325 265.891607 
L 228.465224 265.598852 
L 231.131123 265.306096 
L 233.797021 265.013341 
L 236.46292 264.720585 
L 239.128819 264.42783 
L 241.794717 264.135074 
L 244.460616 263.842319 
L 247.126515 263.549564 
L 249.792413 263.256808 
L 252.458312 262.964053 
L 255.124211 262.671297 
L 257.790109 262.378542 
L 260.456008 262.085786 
L 263.121907 261.793031 
L 265.787805 261.500276 
L 268.453704 261.20752 
L 271.119603 260.914765 
L 273.785501 260.622009 
L 276.4514 260.329254 
L 279.117299 260.036498 
L 281.783197 259.743743 
L 284.449096 259.450988 
L 287.114995 259.158232 
L 289.780893 258.865477 
L 292.446792 258.572721 
L 295.112691 258.279966 
L 297.778589 257.98721 
L 300.444488 257.694455 
L 303.110387 257.4017 
L 305.776285 257.108944 
L 308.442184 256.816189 
L 311.108082 256.523433 
L 313.773981 256.230678 
L 316.43988 255.937922 
L 319.105778 255.645167 
L 321.771677 255.352412 
L 324.437576 255.059656 
L 327.103474 254.766901 
L 329.769373 254.474145 
L 332.435272 254.18139 
L 335.10117 253.888634 
L 337.767069 253.595879 
L 340.432968 253.303124 
L 343.098866 253.010368 
L 345.764765 252.717613 
L 348.430664 252.424857 
L 351.096562 252.132102 
L 353.762461 251.839346 
L 356.42836 251.546591 
L 359.094258 251.253836 
L 361.760157 250.96108 
L 364.426056 250.668325 
L 367.091954 250.375569 
L 369.757853 250.082814 
L 372.423752 249.790058 
L 375.08965 249.497303 
L 377.755549 249.204548 
L 380.421448 248.911792 
L 383.087346 248.619037 
L 385.753245 248.326281 
L 388.419144 248.033526 
L 391.085042 247.74077 
L 393.750941 247.448015 
L 396.416839 247.15526 
L 399.082738 246.862504 
L 401.748637 246.569749 
L 404.414535 246.276993 
L 407.080434 245.984238 
L 409.746333 245.691482 
L 412.412231 245.398727 
L 415.07813 245.105972 
L 417.744029 244.813216 
L 420.409927 244.520461 
L 423.075826 244.227705 
L 425.741725 243.93495 
L 428.407623 243.642194 
L 431.073522 243.349439 
L 433.739421 243.056684 
L 436.405319 242.763928 
L 439.071218 242.471173 
L 441.737117 242.178417 
L 444.403015 241.885662 
L 447.068914 241.592906 
L 449.734813 241.300151 
L 452.400711 241.007396 
L 455.06661 240.71464 
L 457.732509 240.421885 
L 460.398407 240.129129 
L 463.064306 239.836374 
L 465.730205 239.543618 
L 468.396103 239.250863 
L 471.062002 238.958108 
L 473.727901 238.665352 
L 476.393799 238.372597 
L 479.059698 238.079841 
L 481.725596 237.787086 
" style="fill:none;stroke:#bb60d5;stroke-linecap:round;stroke-width:2.25;"/>
   </g>
   <g id="line2d_21">
    <path clip-path="url(#p4b80f88398)" d="M 156.021675 360.146419 
L 157.983656 359.668972 
L 159.945638 359.191526 
L 161.90762 358.714079 
L 163.869601 358.236632 
L 165.831583 357.759185 
L 167.793564 357.281738 
L 169.755546 356.804291 
L 171.717527 356.326844 
L 173.679509 355.849397 
L 175.641491 355.37195 
L 177.603472 354.894504 
L 179.565454 354.417057 
L 181.527435 353.93961 
L 183.489417 353.462163 
L 185.451399 352.984716 
L 187.41338 352.507269 
L 189.375362 352.029822 
L 191.337343 351.552375 
L 193.299325 351.074928 
L 195.261307 350.597482 
L 197.223288 350.120035 
L 199.18527 349.642588 
L 201.147251 349.165141 
L 203.109233 348.687694 
L 205.071215 348.210247 
L 207.033196 347.7328 
L 208.995178 347.255353 
L 210.957159 346.777906 
L 212.919141 346.30046 
L 214.881123 345.823013 
L 216.843104 345.345566 
L 218.805086 344.868119 
L 220.767067 344.390672 
L 222.729049 343.913225 
L 224.691031 343.435778 
L 226.653012 342.958331 
L 228.614994 342.480884 
L 230.576975 342.003438 
L 232.538957 341.525991 
L 234.500939 341.048544 
L 236.46292 340.571097 
L 238.424902 340.09365 
L 240.386883 339.616203 
L 242.348865 339.138756 
L 244.310847 338.661309 
L 246.272828 338.183862 
L 248.23481 337.706416 
L 250.196791 337.228969 
L 252.158773 336.751522 
L 254.120754 336.274075 
L 256.082736 335.796628 
L 258.044718 335.319181 
L 260.006699 334.841734 
L 261.968681 334.364287 
L 263.930662 333.88684 
L 265.892644 333.409394 
L 267.854626 332.931947 
L 269.816607 332.4545 
L 271.778589 331.977053 
L 273.74057 331.499606 
L 275.702552 331.022159 
L 277.664534 330.544712 
L 279.626515 330.067265 
L 281.588497 329.589819 
L 283.550478 329.112372 
L 285.51246 328.634925 
L 287.474442 328.157478 
L 289.436423 327.680031 
L 291.398405 327.202584 
L 293.360386 326.725137 
L 295.322368 326.24769 
L 297.28435 325.770243 
L 299.246331 325.292797 
L 301.208313 324.81535 
L 303.170294 324.337903 
L 305.132276 323.860456 
L 307.094258 323.383009 
L 309.056239 322.905562 
L 311.018221 322.428115 
L 312.980202 321.950668 
L 314.942184 321.473221 
L 316.904166 320.995775 
L 318.866147 320.518328 
L 320.828129 320.040881 
L 322.79011 319.563434 
L 324.752092 319.085987 
L 326.714074 318.60854 
L 328.676055 318.131093 
L 330.638037 317.653646 
L 332.600018 317.176199 
L 334.562 316.698753 
L 336.523981 316.221306 
L 338.485963 315.743859 
L 340.447945 315.266412 
L 342.409926 314.788965 
L 344.371908 314.311518 
L 346.333889 313.834071 
L 348.295871 313.356624 
L 350.257853 312.879177 
" style="fill:none;stroke:#f47915;stroke-linecap:round;stroke-width:2.25;"/>
   </g>
   <g id="line2d_22">
    <path clip-path="url(#p4b80f88398)" d="M 141.194486 315.839563 
L 144.379585 317.081889 
L 147.564685 318.324216 
L 150.749785 319.566542 
L 153.934885 320.808869 
L 157.119985 322.051195 
L 160.305085 323.293522 
L 163.490185 324.535848 
L 166.675285 325.778175 
L 169.860385 327.020501 
L 173.045484 328.262828 
L 176.230584 329.505154 
L 179.415684 330.747481 
L 182.600784 331.989807 
L 185.785884 333.232134 
L 188.970984 334.47446 
L 192.156084 335.716786 
L 195.341184 336.959113 
L 198.526284 338.201439 
L 201.711384 339.443766 
L 204.896483 340.686092 
L 208.081583 341.928419 
L 211.266683 343.170745 
L 214.451783 344.413072 
L 217.636883 345.655398 
L 220.821983 346.897725 
L 224.007083 348.140051 
L 227.192183 349.382378 
L 230.377283 350.624704 
L 233.562382 351.867031 
L 236.747482 353.109357 
L 239.932582 354.351684 
L 243.117682 355.59401 
L 246.302782 356.836337 
L 249.487882 358.078663 
L 252.672982 359.32099 
L 255.858082 360.563316 
L 259.043182 361.805643 
L 262.228281 363.047969 
L 265.413381 364.290296 
L 268.598481 365.532622 
L 271.783581 366.774949 
L 274.968681 368.017275 
L 278.153781 369.259602 
L 281.338881 370.501928 
L 284.523981 371.744255 
L 287.709081 372.986581 
L 290.894181 374.228908 
L 294.07928 375.471234 
L 297.26438 376.713561 
L 300.44948 377.955887 
L 303.63458 379.198214 
L 306.81968 380.44054 
L 310.00478 381.682867 
L 313.18988 382.925193 
L 316.37498 384.16752 
L 319.56008 385.409846 
L 322.745179 386.652173 
L 325.930279 387.894499 
L 329.115379 389.136826 
L 332.300479 390.379152 
L 335.485579 391.621479 
L 338.670679 392.863805 
L 341.855779 394.106132 
L 345.040879 395.348458 
L 348.225979 396.590785 
L 351.411078 397.833111 
L 354.596178 399.075438 
L 357.781278 400.317764 
L 360.966378 401.560091 
L 364.151478 402.802417 
L 367.336578 404.044744 
L 370.521678 405.28707 
L 373.706778 406.529397 
L 376.891878 407.771723 
L 380.076978 409.01405 
L 383.262077 410.256376 
L 386.447177 411.498703 
L 389.632277 412.741029 
L 392.817377 413.983356 
L 396.002477 415.225682 
L 399.187577 416.468009 
L 402.372677 417.710335 
L 405.557777 418.952662 
L 408.742877 420.194988 
L 411.927976 421.437315 
L 415.113076 422.679641 
L 418.298176 423.921968 
L 421.483276 425.164294 
L 424.668376 426.406621 
L 427.853476 427.648947 
L 431.038576 428.891274 
L 434.223676 430.1336 
L 437.408776 431.375927 
L 440.593875 432.618253 
L 443.778975 433.86058 
L 446.964075 435.102906 
L 450.149175 436.345233 
L 453.334275 437.587559 
L 456.519375 438.829886 
" style="fill:none;stroke:#06ab54;stroke-linecap:round;stroke-width:2.25;"/>
   </g>
   <g id="text_20">
    <!-- Source: Consumer price index for all urban consumers (BLS) and own calculations -->
    <defs>
     <path d="M 53.515625 70.515625 
L 53.515625 60.890625 
Q 47.90625 63.578125 42.921875 64.890625 
Q 37.9375 66.21875 33.296875 66.21875 
Q 25.25 66.21875 20.875 63.09375 
Q 16.5 59.96875 16.5 54.203125 
Q 16.5 49.359375 19.40625 46.890625 
Q 22.3125 44.4375 30.421875 42.921875 
L 36.375 41.703125 
Q 47.40625 39.59375 52.65625 34.296875 
Q 57.90625 29 57.90625 20.125 
Q 57.90625 9.515625 50.796875 4.046875 
Q 43.703125 -1.421875 29.984375 -1.421875 
Q 24.8125 -1.421875 18.96875 -0.25 
Q 13.140625 0.921875 6.890625 3.21875 
L 6.890625 13.375 
Q 12.890625 10.015625 18.65625 8.296875 
Q 24.421875 6.59375 29.984375 6.59375 
Q 38.421875 6.59375 43.015625 9.90625 
Q 47.609375 13.234375 47.609375 19.390625 
Q 47.609375 24.75 44.3125 27.78125 
Q 41.015625 30.8125 33.5 32.328125 
L 27.484375 33.5 
Q 16.453125 35.6875 11.515625 40.375 
Q 6.59375 45.0625 6.59375 53.421875 
Q 6.59375 63.09375 13.40625 68.65625 
Q 20.21875 74.21875 32.171875 74.21875 
Q 37.3125 74.21875 42.625 73.28125 
Q 47.953125 72.359375 53.515625 70.515625 
z
" id="DejaVuSans-83"/>
     <path d="M 8.5 21.578125 
L 8.5 54.6875 
L 17.484375 54.6875 
L 17.484375 21.921875 
Q 17.484375 14.15625 20.5 10.265625 
Q 23.53125 6.390625 29.59375 6.390625 
Q 36.859375 6.390625 41.078125 11.03125 
Q 45.3125 15.671875 45.3125 23.6875 
L 45.3125 54.6875 
L 54.296875 54.6875 
L 54.296875 0 
L 45.3125 0 
L 45.3125 8.40625 
Q 42.046875 3.421875 37.71875 1 
Q 33.40625 -1.421875 27.6875 -1.421875 
Q 18.265625 -1.421875 13.375 4.4375 
Q 8.5 10.296875 8.5 21.578125 
z
M 31.109375 56 
z
" id="DejaVuSans-117"/>
     <path d="M 41.109375 46.296875 
Q 39.59375 47.171875 37.8125 47.578125 
Q 36.03125 48 33.890625 48 
Q 26.265625 48 22.1875 43.046875 
Q 18.109375 38.09375 18.109375 28.8125 
L 18.109375 0 
L 9.078125 0 
L 9.078125 54.6875 
L 18.109375 54.6875 
L 18.109375 46.1875 
Q 20.953125 51.171875 25.484375 53.578125 
Q 30.03125 56 36.53125 56 
Q 37.453125 56 38.578125 55.875 
Q 39.703125 55.765625 41.0625 55.515625 
z
" id="DejaVuSans-114"/>
     <path d="M 48.78125 52.59375 
L 48.78125 44.1875 
Q 44.96875 46.296875 41.140625 47.34375 
Q 37.3125 48.390625 33.40625 48.390625 
Q 24.65625 48.390625 19.8125 42.84375 
Q 14.984375 37.3125 14.984375 27.296875 
Q 14.984375 17.28125 19.8125 11.734375 
Q 24.65625 6.203125 33.40625 6.203125 
Q 37.3125 6.203125 41.140625 7.25 
Q 44.96875 8.296875 48.78125 10.40625 
L 48.78125 2.09375 
Q 45.015625 0.34375 40.984375 -0.53125 
Q 36.96875 -1.421875 32.421875 -1.421875 
Q 20.0625 -1.421875 12.78125 6.34375 
Q 5.515625 14.109375 5.515625 27.296875 
Q 5.515625 40.671875 12.859375 48.328125 
Q 20.21875 56 33.015625 56 
Q 37.15625 56 41.109375 55.140625 
Q 45.0625 54.296875 48.78125 52.59375 
z
" id="DejaVuSans-99"/>
     <path d="M 11.71875 12.40625 
L 22.015625 12.40625 
L 22.015625 0 
L 11.71875 0 
z
M 11.71875 51.703125 
L 22.015625 51.703125 
L 22.015625 39.3125 
L 11.71875 39.3125 
z
" id="DejaVuSans-58"/>
     <path d="M 64.40625 67.28125 
L 64.40625 56.890625 
Q 59.421875 61.53125 53.78125 63.8125 
Q 48.140625 66.109375 41.796875 66.109375 
Q 29.296875 66.109375 22.65625 58.46875 
Q 16.015625 50.828125 16.015625 36.375 
Q 16.015625 21.96875 22.65625 14.328125 
Q 29.296875 6.6875 41.796875 6.6875 
Q 48.140625 6.6875 53.78125 8.984375 
Q 59.421875 11.28125 64.40625 15.921875 
L 64.40625 5.609375 
Q 59.234375 2.09375 53.4375 0.328125 
Q 47.65625 -1.421875 41.21875 -1.421875 
Q 24.65625 -1.421875 15.125 8.703125 
Q 5.609375 18.84375 5.609375 36.375 
Q 5.609375 53.953125 15.125 64.078125 
Q 24.65625 74.21875 41.21875 74.21875 
Q 47.75 74.21875 53.53125 72.484375 
Q 59.328125 70.75 64.40625 67.28125 
z
" id="DejaVuSans-67"/>
     <path d="M 44.28125 53.078125 
L 44.28125 44.578125 
Q 40.484375 46.53125 36.375 47.5 
Q 32.28125 48.484375 27.875 48.484375 
Q 21.1875 48.484375 17.84375 46.4375 
Q 14.5 44.390625 14.5 40.28125 
Q 14.5 37.15625 16.890625 35.375 
Q 19.28125 33.59375 26.515625 31.984375 
L 29.59375 31.296875 
Q 39.15625 29.25 43.1875 25.515625 
Q 47.21875 21.78125 47.21875 15.09375 
Q 47.21875 7.46875 41.1875 3.015625 
Q 35.15625 -1.421875 24.609375 -1.421875 
Q 20.21875 -1.421875 15.453125 -0.5625 
Q 10.6875 0.296875 5.421875 2 
L 5.421875 11.28125 
Q 10.40625 8.6875 15.234375 7.390625 
Q 20.0625 6.109375 24.8125 6.109375 
Q 31.15625 6.109375 34.5625 8.28125 
Q 37.984375 10.453125 37.984375 14.40625 
Q 37.984375 18.0625 35.515625 20.015625 
Q 33.0625 21.96875 24.703125 23.78125 
L 21.578125 24.515625 
Q 13.234375 26.265625 9.515625 29.90625 
Q 5.8125 33.546875 5.8125 39.890625 
Q 5.8125 47.609375 11.28125 51.796875 
Q 16.75 56 26.8125 56 
Q 31.78125 56 36.171875 55.265625 
Q 40.578125 54.546875 44.28125 53.078125 
z
" id="DejaVuSans-115"/>
     <path d="M 45.40625 46.390625 
L 45.40625 75.984375 
L 54.390625 75.984375 
L 54.390625 0 
L 45.40625 0 
L 45.40625 8.203125 
Q 42.578125 3.328125 38.25 0.953125 
Q 33.9375 -1.421875 27.875 -1.421875 
Q 17.96875 -1.421875 11.734375 6.484375 
Q 5.515625 14.40625 5.515625 27.296875 
Q 5.515625 40.1875 11.734375 48.09375 
Q 17.96875 56 27.875 56 
Q 33.9375 56 38.25 53.625 
Q 42.578125 51.265625 45.40625 46.390625 
z
M 14.796875 27.296875 
Q 14.796875 17.390625 18.875 11.75 
Q 22.953125 6.109375 30.078125 6.109375 
Q 37.203125 6.109375 41.296875 11.75 
Q 45.40625 17.390625 45.40625 27.296875 
Q 45.40625 37.203125 41.296875 42.84375 
Q 37.203125 48.484375 30.078125 48.484375 
Q 22.953125 48.484375 18.875 42.84375 
Q 14.796875 37.203125 14.796875 27.296875 
z
" id="DejaVuSans-100"/>
     <path d="M 54.890625 54.6875 
L 35.109375 28.078125 
L 55.90625 0 
L 45.3125 0 
L 29.390625 21.484375 
L 13.484375 0 
L 2.875 0 
L 24.125 28.609375 
L 4.6875 54.6875 
L 15.28125 54.6875 
L 29.78125 35.203125 
L 44.28125 54.6875 
z
" id="DejaVuSans-120"/>
     <path d="M 48.6875 27.296875 
Q 48.6875 37.203125 44.609375 42.84375 
Q 40.53125 48.484375 33.40625 48.484375 
Q 26.265625 48.484375 22.1875 42.84375 
Q 18.109375 37.203125 18.109375 27.296875 
Q 18.109375 17.390625 22.1875 11.75 
Q 26.265625 6.109375 33.40625 6.109375 
Q 40.53125 6.109375 44.609375 11.75 
Q 48.6875 17.390625 48.6875 27.296875 
z
M 18.109375 46.390625 
Q 20.953125 51.265625 25.265625 53.625 
Q 29.59375 56 35.59375 56 
Q 45.5625 56 51.78125 48.09375 
Q 58.015625 40.1875 58.015625 27.296875 
Q 58.015625 14.40625 51.78125 6.484375 
Q 45.5625 -1.421875 35.59375 -1.421875 
Q 29.59375 -1.421875 25.265625 0.953125 
Q 20.953125 3.328125 18.109375 8.203125 
L 18.109375 0 
L 9.078125 0 
L 9.078125 75.984375 
L 18.109375 75.984375 
z
" id="DejaVuSans-98"/>
     <path d="M 31 75.875 
Q 24.46875 64.65625 21.28125 53.65625 
Q 18.109375 42.671875 18.109375 31.390625 
Q 18.109375 20.125 21.3125 9.0625 
Q 24.515625 -2 31 -13.1875 
L 23.1875 -13.1875 
Q 15.875 -1.703125 12.234375 9.375 
Q 8.59375 20.453125 8.59375 31.390625 
Q 8.59375 42.28125 12.203125 53.3125 
Q 15.828125 64.359375 23.1875 75.875 
z
" id="DejaVuSans-40"/>
     <path d="M 19.671875 34.8125 
L 19.671875 8.109375 
L 35.5 8.109375 
Q 43.453125 8.109375 47.28125 11.40625 
Q 51.125 14.703125 51.125 21.484375 
Q 51.125 28.328125 47.28125 31.5625 
Q 43.453125 34.8125 35.5 34.8125 
z
M 19.671875 64.796875 
L 19.671875 42.828125 
L 34.28125 42.828125 
Q 41.5 42.828125 45.03125 45.53125 
Q 48.578125 48.25 48.578125 53.8125 
Q 48.578125 59.328125 45.03125 62.0625 
Q 41.5 64.796875 34.28125 64.796875 
z
M 9.8125 72.90625 
L 35.015625 72.90625 
Q 46.296875 72.90625 52.390625 68.21875 
Q 58.5 63.53125 58.5 54.890625 
Q 58.5 48.1875 55.375 44.234375 
Q 52.25 40.28125 46.1875 39.3125 
Q 53.46875 37.75 57.5 32.78125 
Q 61.53125 27.828125 61.53125 20.40625 
Q 61.53125 10.640625 54.890625 5.3125 
Q 48.25 0 35.984375 0 
L 9.8125 0 
z
" id="DejaVuSans-66"/>
     <path d="M 9.8125 72.90625 
L 19.671875 72.90625 
L 19.671875 8.296875 
L 55.171875 8.296875 
L 55.171875 0 
L 9.8125 0 
z
" id="DejaVuSans-76"/>
     <path d="M 8.015625 75.875 
L 15.828125 75.875 
Q 23.140625 64.359375 26.78125 53.3125 
Q 30.421875 42.28125 30.421875 31.390625 
Q 30.421875 20.453125 26.78125 9.375 
Q 23.140625 -1.703125 15.828125 -13.1875 
L 8.015625 -13.1875 
Q 14.5 -2 17.703125 9.0625 
Q 20.90625 20.125 20.90625 31.390625 
Q 20.90625 42.671875 17.703125 53.65625 
Q 14.5 64.65625 8.015625 75.875 
z
" id="DejaVuSans-41"/>
     <path d="M 4.203125 54.6875 
L 13.1875 54.6875 
L 24.421875 12.015625 
L 35.59375 54.6875 
L 46.1875 54.6875 
L 57.421875 12.015625 
L 68.609375 54.6875 
L 77.59375 54.6875 
L 63.28125 0 
L 52.6875 0 
L 40.921875 44.828125 
L 29.109375 0 
L 18.5 0 
z
" id="DejaVuSans-119"/>
    </defs>
    <g style="fill:#262626;" transform="translate(83.862688 569.628)scale(0.14 -0.14)">
     <use xlink:href="#DejaVuSans-83"/>
     <use x="63.476562" xlink:href="#DejaVuSans-111"/>
     <use x="124.658203" xlink:href="#DejaVuSans-117"/>
     <use x="188.037109" xlink:href="#DejaVuSans-114"/>
     <use x="229.119141" xlink:href="#DejaVuSans-99"/>
     <use x="284.099609" xlink:href="#DejaVuSans-101"/>
     <use x="345.623047" xlink:href="#DejaVuSans-58"/>
     <use x="379.314453" xlink:href="#DejaVuSans-32"/>
     <use x="411.101562" xlink:href="#DejaVuSans-67"/>
     <use x="480.925781" xlink:href="#DejaVuSans-111"/>
     <use x="542.107422" xlink:href="#DejaVuSans-110"/>
     <use x="605.486328" xlink:href="#DejaVuSans-115"/>
     <use x="657.585938" xlink:href="#DejaVuSans-117"/>
     <use x="720.964844" xlink:href="#DejaVuSans-109"/>
     <use x="818.376953" xlink:href="#DejaVuSans-101"/>
     <use x="879.900391" xlink:href="#DejaVuSans-114"/>
     <use x="921.013672" xlink:href="#DejaVuSans-32"/>
     <use x="952.800781" xlink:href="#DejaVuSans-112"/>
     <use x="1016.277344" xlink:href="#DejaVuSans-114"/>
     <use x="1057.390625" xlink:href="#DejaVuSans-105"/>
     <use x="1085.173828" xlink:href="#DejaVuSans-99"/>
     <use x="1140.154297" xlink:href="#DejaVuSans-101"/>
     <use x="1201.677734" xlink:href="#DejaVuSans-32"/>
     <use x="1233.464844" xlink:href="#DejaVuSans-105"/>
     <use x="1261.248047" xlink:href="#DejaVuSans-110"/>
     <use x="1324.626953" xlink:href="#DejaVuSans-100"/>
     <use x="1388.103516" xlink:href="#DejaVuSans-101"/>
     <use x="1449.611328" xlink:href="#DejaVuSans-120"/>
     <use x="1508.791016" xlink:href="#DejaVuSans-32"/>
     <use x="1540.578125" xlink:href="#DejaVuSans-102"/>
     <use x="1575.783203" xlink:href="#DejaVuSans-111"/>
     <use x="1636.964844" xlink:href="#DejaVuSans-114"/>
     <use x="1678.078125" xlink:href="#DejaVuSans-32"/>
     <use x="1709.865234" xlink:href="#DejaVuSans-97"/>
     <use x="1771.144531" xlink:href="#DejaVuSans-108"/>
     <use x="1798.927734" xlink:href="#DejaVuSans-108"/>
     <use x="1826.710938" xlink:href="#DejaVuSans-32"/>
     <use x="1858.498047" xlink:href="#DejaVuSans-117"/>
     <use x="1921.876953" xlink:href="#DejaVuSans-114"/>
     <use x="1962.990234" xlink:href="#DejaVuSans-98"/>
     <use x="2026.466797" xlink:href="#DejaVuSans-97"/>
     <use x="2087.746094" xlink:href="#DejaVuSans-110"/>
     <use x="2151.125" xlink:href="#DejaVuSans-32"/>
     <use x="2182.912109" xlink:href="#DejaVuSans-99"/>
     <use x="2237.892578" xlink:href="#DejaVuSans-111"/>
     <use x="2299.074219" xlink:href="#DejaVuSans-110"/>
     <use x="2362.453125" xlink:href="#DejaVuSans-115"/>
     <use x="2414.552734" xlink:href="#DejaVuSans-117"/>
     <use x="2477.931641" xlink:href="#DejaVuSans-109"/>
     <use x="2575.34375" xlink:href="#DejaVuSans-101"/>
     <use x="2636.867188" xlink:href="#DejaVuSans-114"/>
     <use x="2677.980469" xlink:href="#DejaVuSans-115"/>
     <use x="2730.080078" xlink:href="#DejaVuSans-32"/>
     <use x="2761.867188" xlink:href="#DejaVuSans-40"/>
     <use x="2800.880859" xlink:href="#DejaVuSans-66"/>
     <use x="2869.484375" xlink:href="#DejaVuSans-76"/>
     <use x="2925.197266" xlink:href="#DejaVuSans-83"/>
     <use x="2988.673828" xlink:href="#DejaVuSans-41"/>
     <use x="3027.6875" xlink:href="#DejaVuSans-32"/>
     <use x="3059.474609" xlink:href="#DejaVuSans-97"/>
     <use x="3120.753906" xlink:href="#DejaVuSans-110"/>
     <use x="3184.132812" xlink:href="#DejaVuSans-100"/>
     <use x="3247.609375" xlink:href="#DejaVuSans-32"/>
     <use x="3279.396484" xlink:href="#DejaVuSans-111"/>
     <use x="3340.578125" xlink:href="#DejaVuSans-119"/>
     <use x="3422.365234" xlink:href="#DejaVuSans-110"/>
     <use x="3485.744141" xlink:href="#DejaVuSans-32"/>
     <use x="3517.53125" xlink:href="#DejaVuSans-99"/>
     <use x="3572.511719" xlink:href="#DejaVuSans-97"/>
     <use x="3633.791016" xlink:href="#DejaVuSans-108"/>
     <use x="3661.574219" xlink:href="#DejaVuSans-99"/>
     <use x="3716.554688" xlink:href="#DejaVuSans-117"/>
     <use x="3779.933594" xlink:href="#DejaVuSans-108"/>
     <use x="3807.716797" xlink:href="#DejaVuSans-97"/>
     <use x="3868.996094" xlink:href="#DejaVuSans-116"/>
     <use x="3908.205078" xlink:href="#DejaVuSans-105"/>
     <use x="3935.988281" xlink:href="#DejaVuSans-111"/>
     <use x="3997.169922" xlink:href="#DejaVuSans-110"/>
     <use x="4060.548828" xlink:href="#DejaVuSans-115"/>
    </g>
   </g>
   <g id="text_21">
    <!-- Unemployment Rate (BLS) -->
    <g style="fill:#262626;" transform="translate(83.862688 586.17)scale(0.14 -0.14)">
     <use xlink:href="#DejaVuSans-85"/>
     <use x="73.193359" xlink:href="#DejaVuSans-110"/>
     <use x="136.572266" xlink:href="#DejaVuSans-101"/>
     <use x="198.095703" xlink:href="#DejaVuSans-109"/>
     <use x="295.507812" xlink:href="#DejaVuSans-112"/>
     <use x="358.984375" xlink:href="#DejaVuSans-108"/>
     <use x="386.767578" xlink:href="#DejaVuSans-111"/>
     <use x="447.949219" xlink:href="#DejaVuSans-121"/>
     <use x="507.128906" xlink:href="#DejaVuSans-109"/>
     <use x="604.541016" xlink:href="#DejaVuSans-101"/>
     <use x="666.064453" xlink:href="#DejaVuSans-110"/>
     <use x="729.443359" xlink:href="#DejaVuSans-116"/>
     <use x="768.652344" xlink:href="#DejaVuSans-32"/>
     <use x="800.439453" xlink:href="#DejaVuSans-82"/>
     <use x="869.890625" xlink:href="#DejaVuSans-97"/>
     <use x="931.169922" xlink:href="#DejaVuSans-116"/>
     <use x="970.378906" xlink:href="#DejaVuSans-101"/>
     <use x="1031.902344" xlink:href="#DejaVuSans-32"/>
     <use x="1063.689453" xlink:href="#DejaVuSans-40"/>
     <use x="1102.703125" xlink:href="#DejaVuSans-66"/>
     <use x="1171.306641" xlink:href="#DejaVuSans-76"/>
     <use x="1227.019531" xlink:href="#DejaVuSans-83"/>
     <use x="1290.496094" xlink:href="#DejaVuSans-41"/>
    </g>
   </g>
  </g>
  <g id="legend_1">
   <g id="text_22">
    <!-- Decade -->
    <defs>
     <path d="M 19.671875 64.796875 
L 19.671875 8.109375 
L 31.59375 8.109375 
Q 46.6875 8.109375 53.6875 14.9375 
Q 60.6875 21.78125 60.6875 36.53125 
Q 60.6875 51.171875 53.6875 57.984375 
Q 46.6875 64.796875 31.59375 64.796875 
z
M 9.8125 72.90625 
L 30.078125 72.90625 
Q 51.265625 72.90625 61.171875 64.09375 
Q 71.09375 55.28125 71.09375 36.53125 
Q 71.09375 17.671875 61.125 8.828125 
Q 51.171875 0 30.078125 0 
L 9.8125 0 
z
" id="DejaVuSans-68"/>
    </defs>
    <g style="fill:#262626;" transform="translate(581.264375 251.403094)scale(0.168 -0.168)">
     <use xlink:href="#DejaVuSans-68"/>
     <use x="77.001953" xlink:href="#DejaVuSans-101"/>
     <use x="138.525391" xlink:href="#DejaVuSans-99"/>
     <use x="193.505859" xlink:href="#DejaVuSans-97"/>
     <use x="254.785156" xlink:href="#DejaVuSans-100"/>
     <use x="318.261719" xlink:href="#DejaVuSans-101"/>
    </g>
   </g>
   <g id="PathCollection_6">
    <g>
     <use style="fill:#165aa7;fill-opacity:0.8;stroke:#165aa7;stroke-opacity:0.8;" x="586.107062" xlink:href="#m23b7d58029" y="268.859781"/>
    </g>
   </g>
   <g id="text_23">
    <!-- 1960s -->
    <g style="fill:#262626;" transform="translate(611.307063 272.534781)scale(0.14 -0.14)">
     <use xlink:href="#DejaVuSans-49"/>
     <use x="63.623047" xlink:href="#DejaVuSans-57"/>
     <use x="127.246094" xlink:href="#DejaVuSans-54"/>
     <use x="190.869141" xlink:href="#DejaVuSans-48"/>
     <use x="254.492188" xlink:href="#DejaVuSans-115"/>
    </g>
   </g>
   <g id="PathCollection_7">
    <g>
     <use style="fill:#cb495c;fill-opacity:0.8;stroke:#cb495c;stroke-opacity:0.8;" x="586.107062" xlink:href="#m2c1a1ad0d8" y="289.409156"/>
    </g>
   </g>
   <g id="text_24">
    <!-- 1970s -->
    <g style="fill:#262626;" transform="translate(611.307063 293.084156)scale(0.14 -0.14)">
     <use xlink:href="#DejaVuSans-49"/>
     <use x="63.623047" xlink:href="#DejaVuSans-57"/>
     <use x="127.246094" xlink:href="#DejaVuSans-55"/>
     <use x="190.869141" xlink:href="#DejaVuSans-48"/>
     <use x="254.492188" xlink:href="#DejaVuSans-115"/>
    </g>
   </g>
   <g id="PathCollection_8">
    <g>
     <use style="fill:#bb60d5;fill-opacity:0.8;stroke:#bb60d5;stroke-opacity:0.8;" x="586.107062" xlink:href="#mc6e093f09e" y="309.958531"/>
    </g>
   </g>
   <g id="text_25">
    <!-- 1980s -->
    <g style="fill:#262626;" transform="translate(611.307063 313.633531)scale(0.14 -0.14)">
     <use xlink:href="#DejaVuSans-49"/>
     <use x="63.623047" xlink:href="#DejaVuSans-57"/>
     <use x="127.246094" xlink:href="#DejaVuSans-56"/>
     <use x="190.869141" xlink:href="#DejaVuSans-48"/>
     <use x="254.492188" xlink:href="#DejaVuSans-115"/>
    </g>
   </g>
   <g id="PathCollection_9">
    <g>
     <use style="fill:#f47915;fill-opacity:0.8;stroke:#f47915;stroke-opacity:0.8;" x="586.107062" xlink:href="#m252381b03b" y="330.507906"/>
    </g>
   </g>
   <g id="text_26">
    <!-- 1990s -->
    <g style="fill:#262626;" transform="translate(611.307063 334.182906)scale(0.14 -0.14)">
     <use xlink:href="#DejaVuSans-49"/>
     <use x="63.623047" xlink:href="#DejaVuSans-57"/>
     <use x="127.246094" xlink:href="#DejaVuSans-57"/>
     <use x="190.869141" xlink:href="#DejaVuSans-48"/>
     <use x="254.492188" xlink:href="#DejaVuSans-115"/>
    </g>
   </g>
   <g id="PathCollection_10">
    <g>
     <use style="fill:#06ab54;fill-opacity:0.8;stroke:#06ab54;stroke-opacity:0.8;" x="586.107062" xlink:href="#m49bd9c8787" y="351.057281"/>
    </g>
   </g>
   <g id="text_27">
    <!-- 2000s -->
    <g style="fill:#262626;" transform="translate(611.307063 354.732281)scale(0.14 -0.14)">
     <use xlink:href="#DejaVuSans-50"/>
     <use x="63.623047" xlink:href="#DejaVuSans-48"/>
     <use x="127.246094" xlink:href="#DejaVuSans-48"/>
     <use x="190.869141" xlink:href="#DejaVuSans-48"/>
     <use x="254.492188" xlink:href="#DejaVuSans-115"/>
    </g>
   </g>
  </g>
 </g>
 <defs>
  <clipPath id="p4b80f88398">
   <rect height="496.26" width="474.470053" x="83.862688" y="7.2"/>
  </clipPath>
 </defs>
</svg>
