<?xml version="1.0" encoding="utf-8" standalone="no"?>
<!DOCTYPE svg PUBLIC "-//W3C//DTD SVG 1.1//EN"
  "http://www.w3.org/Graphics/SVG/1.1/DTD/svg11.dtd">
<!-- Created with matplotlib (https://matplotlib.org/) -->
<svg height="543.015381pt" version="1.1" viewBox="0 0 841.053398 543.015381" width="841.053398pt" xmlns="http://www.w3.org/2000/svg" xmlns:xlink="http://www.w3.org/1999/xlink">
 <defs>
  <style type="text/css">
*{stroke-linecap:butt;stroke-linejoin:round;white-space:pre;}
  </style>
 </defs>
 <g id="figure_1">
  <g id="patch_1">
   <path d="M 0 543.015381 
L 841.053398 543.015381 
L 841.053398 0 
L 0 0 
z
" style="fill:#ffffff;"/>
  </g>
  <g id="axes_1">
   <g id="patch_2">
    <path d="M 63.223625 463.39845 
L 732.823625 463.39845 
L 732.823625 28.51845 
L 63.223625 28.51845 
z
" style="fill:#ffffff;"/>
   </g>
   <g id="matplotlib.axis_1">
    <g id="xtick_1">
     <g id="line2d_1">
      <path clip-path="url(#pff06accf76)" d="M 702.387261 463.39845 
L 702.387261 28.51845 
" style="fill:none;stroke:#cccccc;stroke-linecap:round;stroke-opacity:0.9;"/>
     </g>
     <g id="text_1">
      <!-- 2018 -->
      <defs>
       <path d="M 19.1875 8.296875 
L 53.609375 8.296875 
L 53.609375 0 
L 7.328125 0 
L 7.328125 8.296875 
Q 12.9375 14.109375 22.625 23.890625 
Q 32.328125 33.6875 34.8125 36.53125 
Q 39.546875 41.84375 41.421875 45.53125 
Q 43.3125 49.21875 43.3125 52.78125 
Q 43.3125 58.59375 39.234375 62.25 
Q 35.15625 65.921875 28.609375 65.921875 
Q 23.96875 65.921875 18.8125 64.3125 
Q 13.671875 62.703125 7.8125 59.421875 
L 7.8125 69.390625 
Q 13.765625 71.78125 18.9375 73 
Q 24.125 74.21875 28.421875 74.21875 
Q 39.75 74.21875 46.484375 68.546875 
Q 53.21875 62.890625 53.21875 53.421875 
Q 53.21875 48.921875 51.53125 44.890625 
Q 49.859375 40.875 45.40625 35.40625 
Q 44.1875 33.984375 37.640625 27.21875 
Q 31.109375 20.453125 19.1875 8.296875 
z
" id="DejaVuSans-50"/>
       <path d="M 31.78125 66.40625 
Q 24.171875 66.40625 20.328125 58.90625 
Q 16.5 51.421875 16.5 36.375 
Q 16.5 21.390625 20.328125 13.890625 
Q 24.171875 6.390625 31.78125 6.390625 
Q 39.453125 6.390625 43.28125 13.890625 
Q 47.125 21.390625 47.125 36.375 
Q 47.125 51.421875 43.28125 58.90625 
Q 39.453125 66.40625 31.78125 66.40625 
z
M 31.78125 74.21875 
Q 44.046875 74.21875 50.515625 64.515625 
Q 56.984375 54.828125 56.984375 36.375 
Q 56.984375 17.96875 50.515625 8.265625 
Q 44.046875 -1.421875 31.78125 -1.421875 
Q 19.53125 -1.421875 13.0625 8.265625 
Q 6.59375 17.96875 6.59375 36.375 
Q 6.59375 54.828125 13.0625 64.515625 
Q 19.53125 74.21875 31.78125 74.21875 
z
" id="DejaVuSans-48"/>
       <path d="M 12.40625 8.296875 
L 28.515625 8.296875 
L 28.515625 63.921875 
L 10.984375 60.40625 
L 10.984375 69.390625 
L 28.421875 72.90625 
L 38.28125 72.90625 
L 38.28125 8.296875 
L 54.390625 8.296875 
L 54.390625 0 
L 12.40625 0 
z
" id="DejaVuSans-49"/>
       <path d="M 31.78125 34.625 
Q 24.75 34.625 20.71875 30.859375 
Q 16.703125 27.09375 16.703125 20.515625 
Q 16.703125 13.921875 20.71875 10.15625 
Q 24.75 6.390625 31.78125 6.390625 
Q 38.8125 6.390625 42.859375 10.171875 
Q 46.921875 13.96875 46.921875 20.515625 
Q 46.921875 27.09375 42.890625 30.859375 
Q 38.875 34.625 31.78125 34.625 
z
M 21.921875 38.8125 
Q 15.578125 40.375 12.03125 44.71875 
Q 8.5 49.078125 8.5 55.328125 
Q 8.5 64.0625 14.71875 69.140625 
Q 20.953125 74.21875 31.78125 74.21875 
Q 42.671875 74.21875 48.875 69.140625 
Q 55.078125 64.0625 55.078125 55.328125 
Q 55.078125 49.078125 51.53125 44.71875 
Q 48 40.375 41.703125 38.8125 
Q 48.828125 37.15625 52.796875 32.3125 
Q 56.78125 27.484375 56.78125 20.515625 
Q 56.78125 9.90625 50.3125 4.234375 
Q 43.84375 -1.421875 31.78125 -1.421875 
Q 19.734375 -1.421875 13.25 4.234375 
Q 6.78125 9.90625 6.78125 20.515625 
Q 6.78125 27.484375 10.78125 32.3125 
Q 14.796875 37.15625 21.921875 38.8125 
z
M 18.3125 54.390625 
Q 18.3125 48.734375 21.84375 45.5625 
Q 25.390625 42.390625 31.78125 42.390625 
Q 38.140625 42.390625 41.71875 45.5625 
Q 45.3125 48.734375 45.3125 54.390625 
Q 45.3125 60.0625 41.71875 63.234375 
Q 38.140625 66.40625 31.78125 66.40625 
Q 25.390625 66.40625 21.84375 63.234375 
Q 18.3125 60.0625 18.3125 54.390625 
z
" id="DejaVuSans-56"/>
      </defs>
      <g style="fill:#262626;" transform="translate(684.572261 487.536262)scale(0.14 -0.14)">
       <use xlink:href="#DejaVuSans-50"/>
       <use x="63.623047" xlink:href="#DejaVuSans-48"/>
       <use x="127.246094" xlink:href="#DejaVuSans-49"/>
       <use x="190.869141" xlink:href="#DejaVuSans-56"/>
      </g>
     </g>
    </g>
    <g id="xtick_2">
     <g id="line2d_2">
      <path clip-path="url(#pff06accf76)" d="M 93.659989 463.39845 
L 93.659989 28.51845 
" style="fill:none;stroke:#cccccc;stroke-linecap:round;stroke-opacity:0.9;"/>
     </g>
     <g id="text_2">
      <!-- 1998 -->
      <defs>
       <path d="M 10.984375 1.515625 
L 10.984375 10.5 
Q 14.703125 8.734375 18.5 7.8125 
Q 22.3125 6.890625 25.984375 6.890625 
Q 35.75 6.890625 40.890625 13.453125 
Q 46.046875 20.015625 46.78125 33.40625 
Q 43.953125 29.203125 39.59375 26.953125 
Q 35.25 24.703125 29.984375 24.703125 
Q 19.046875 24.703125 12.671875 31.3125 
Q 6.296875 37.9375 6.296875 49.421875 
Q 6.296875 60.640625 12.9375 67.421875 
Q 19.578125 74.21875 30.609375 74.21875 
Q 43.265625 74.21875 49.921875 64.515625 
Q 56.59375 54.828125 56.59375 36.375 
Q 56.59375 19.140625 48.40625 8.859375 
Q 40.234375 -1.421875 26.421875 -1.421875 
Q 22.703125 -1.421875 18.890625 -0.6875 
Q 15.09375 0.046875 10.984375 1.515625 
z
M 30.609375 32.421875 
Q 37.25 32.421875 41.125 36.953125 
Q 45.015625 41.5 45.015625 49.421875 
Q 45.015625 57.28125 41.125 61.84375 
Q 37.25 66.40625 30.609375 66.40625 
Q 23.96875 66.40625 20.09375 61.84375 
Q 16.21875 57.28125 16.21875 49.421875 
Q 16.21875 41.5 20.09375 36.953125 
Q 23.96875 32.421875 30.609375 32.421875 
z
" id="DejaVuSans-57"/>
      </defs>
      <g style="fill:#262626;" transform="translate(75.844989 487.536262)scale(0.14 -0.14)">
       <use xlink:href="#DejaVuSans-49"/>
       <use x="63.623047" xlink:href="#DejaVuSans-57"/>
       <use x="127.246094" xlink:href="#DejaVuSans-57"/>
       <use x="190.869141" xlink:href="#DejaVuSans-56"/>
      </g>
     </g>
    </g>
    <g id="xtick_3">
     <g id="line2d_3">
      <path clip-path="url(#pff06accf76)" d="M 245.841807 463.39845 
L 245.841807 28.51845 
" style="fill:none;stroke:#cccccc;stroke-linecap:round;stroke-opacity:0.9;"/>
     </g>
     <g id="text_3">
      <!-- 2003 -->
      <defs>
       <path d="M 40.578125 39.3125 
Q 47.65625 37.796875 51.625 33 
Q 55.609375 28.21875 55.609375 21.1875 
Q 55.609375 10.40625 48.1875 4.484375 
Q 40.765625 -1.421875 27.09375 -1.421875 
Q 22.515625 -1.421875 17.65625 -0.515625 
Q 12.796875 0.390625 7.625 2.203125 
L 7.625 11.71875 
Q 11.71875 9.328125 16.59375 8.109375 
Q 21.484375 6.890625 26.8125 6.890625 
Q 36.078125 6.890625 40.9375 10.546875 
Q 45.796875 14.203125 45.796875 21.1875 
Q 45.796875 27.640625 41.28125 31.265625 
Q 36.765625 34.90625 28.71875 34.90625 
L 20.21875 34.90625 
L 20.21875 43.015625 
L 29.109375 43.015625 
Q 36.375 43.015625 40.234375 45.921875 
Q 44.09375 48.828125 44.09375 54.296875 
Q 44.09375 59.90625 40.109375 62.90625 
Q 36.140625 65.921875 28.71875 65.921875 
Q 24.65625 65.921875 20.015625 65.03125 
Q 15.375 64.15625 9.8125 62.3125 
L 9.8125 71.09375 
Q 15.4375 72.65625 20.34375 73.4375 
Q 25.25 74.21875 29.59375 74.21875 
Q 40.828125 74.21875 47.359375 69.109375 
Q 53.90625 64.015625 53.90625 55.328125 
Q 53.90625 49.265625 50.4375 45.09375 
Q 46.96875 40.921875 40.578125 39.3125 
z
" id="DejaVuSans-51"/>
      </defs>
      <g style="fill:#262626;" transform="translate(228.026807 487.536262)scale(0.14 -0.14)">
       <use xlink:href="#DejaVuSans-50"/>
       <use x="63.623047" xlink:href="#DejaVuSans-48"/>
       <use x="127.246094" xlink:href="#DejaVuSans-48"/>
       <use x="190.869141" xlink:href="#DejaVuSans-51"/>
      </g>
     </g>
    </g>
    <g id="xtick_4">
     <g id="line2d_4">
      <path clip-path="url(#pff06accf76)" d="M 398.023625 463.39845 
L 398.023625 28.51845 
" style="fill:none;stroke:#cccccc;stroke-linecap:round;stroke-opacity:0.9;"/>
     </g>
     <g id="text_4">
      <!-- 2008 -->
      <g style="fill:#262626;" transform="translate(380.208625 487.536262)scale(0.14 -0.14)">
       <use xlink:href="#DejaVuSans-50"/>
       <use x="63.623047" xlink:href="#DejaVuSans-48"/>
       <use x="127.246094" xlink:href="#DejaVuSans-48"/>
       <use x="190.869141" xlink:href="#DejaVuSans-56"/>
      </g>
     </g>
    </g>
    <g id="xtick_5">
     <g id="line2d_5">
      <path clip-path="url(#pff06accf76)" d="M 550.205443 463.39845 
L 550.205443 28.51845 
" style="fill:none;stroke:#cccccc;stroke-linecap:round;stroke-opacity:0.9;"/>
     </g>
     <g id="text_5">
      <!-- 2013 -->
      <g style="fill:#262626;" transform="translate(532.390443 487.536262)scale(0.14 -0.14)">
       <use xlink:href="#DejaVuSans-50"/>
       <use x="63.623047" xlink:href="#DejaVuSans-48"/>
       <use x="127.246094" xlink:href="#DejaVuSans-49"/>
       <use x="190.869141" xlink:href="#DejaVuSans-51"/>
      </g>
     </g>
    </g>
    <g id="text_6">
     <!-- Year -->
     <defs>
      <path d="M -0.203125 72.90625 
L 10.40625 72.90625 
L 30.609375 42.921875 
L 50.6875 72.90625 
L 61.28125 72.90625 
L 35.5 34.71875 
L 35.5 0 
L 25.59375 0 
L 25.59375 34.71875 
z
" id="DejaVuSans-89"/>
      <path d="M 56.203125 29.59375 
L 56.203125 25.203125 
L 14.890625 25.203125 
Q 15.484375 15.921875 20.484375 11.0625 
Q 25.484375 6.203125 34.421875 6.203125 
Q 39.59375 6.203125 44.453125 7.46875 
Q 49.3125 8.734375 54.109375 11.28125 
L 54.109375 2.78125 
Q 49.265625 0.734375 44.1875 -0.34375 
Q 39.109375 -1.421875 33.890625 -1.421875 
Q 20.796875 -1.421875 13.15625 6.1875 
Q 5.515625 13.8125 5.515625 26.8125 
Q 5.515625 40.234375 12.765625 48.109375 
Q 20.015625 56 32.328125 56 
Q 43.359375 56 49.78125 48.890625 
Q 56.203125 41.796875 56.203125 29.59375 
z
M 47.21875 32.234375 
Q 47.125 39.59375 43.09375 43.984375 
Q 39.0625 48.390625 32.421875 48.390625 
Q 24.90625 48.390625 20.390625 44.140625 
Q 15.875 39.890625 15.1875 32.171875 
z
" id="DejaVuSans-101"/>
      <path d="M 34.28125 27.484375 
Q 23.390625 27.484375 19.1875 25 
Q 14.984375 22.515625 14.984375 16.5 
Q 14.984375 11.71875 18.140625 8.90625 
Q 21.296875 6.109375 26.703125 6.109375 
Q 34.1875 6.109375 38.703125 11.40625 
Q 43.21875 16.703125 43.21875 25.484375 
L 43.21875 27.484375 
z
M 52.203125 31.203125 
L 52.203125 0 
L 43.21875 0 
L 43.21875 8.296875 
Q 40.140625 3.328125 35.546875 0.953125 
Q 30.953125 -1.421875 24.3125 -1.421875 
Q 15.921875 -1.421875 10.953125 3.296875 
Q 6 8.015625 6 15.921875 
Q 6 25.140625 12.171875 29.828125 
Q 18.359375 34.515625 30.609375 34.515625 
L 43.21875 34.515625 
L 43.21875 35.40625 
Q 43.21875 41.609375 39.140625 45 
Q 35.0625 48.390625 27.6875 48.390625 
Q 23 48.390625 18.546875 47.265625 
Q 14.109375 46.140625 10.015625 43.890625 
L 10.015625 52.203125 
Q 14.9375 54.109375 19.578125 55.046875 
Q 24.21875 56 28.609375 56 
Q 40.484375 56 46.34375 49.84375 
Q 52.203125 43.703125 52.203125 31.203125 
z
" id="DejaVuSans-97"/>
      <path d="M 41.109375 46.296875 
Q 39.59375 47.171875 37.8125 47.578125 
Q 36.03125 48 33.890625 48 
Q 26.265625 48 22.1875 43.046875 
Q 18.109375 38.09375 18.109375 28.8125 
L 18.109375 0 
L 9.078125 0 
L 9.078125 54.6875 
L 18.109375 54.6875 
L 18.109375 46.1875 
Q 20.953125 51.171875 25.484375 53.578125 
Q 30.03125 56 36.53125 56 
Q 37.453125 56 38.578125 55.875 
Q 39.703125 55.765625 41.0625 55.515625 
z
" id="DejaVuSans-114"/>
     </defs>
     <g style="fill:#262626;" transform="translate(379.140688 507.2132)scale(0.168 -0.168)">
      <use xlink:href="#DejaVuSans-89"/>
      <use x="60.880859" xlink:href="#DejaVuSans-101"/>
      <use x="122.404297" xlink:href="#DejaVuSans-97"/>
      <use x="183.683594" xlink:href="#DejaVuSans-114"/>
     </g>
    </g>
   </g>
   <g id="matplotlib.axis_2">
    <g id="ytick_1">
     <g id="line2d_6">
      <path clip-path="url(#pff06accf76)" d="M 63.223625 411.413467 
L 732.823625 411.413467 
" style="fill:none;stroke:#cccccc;stroke-linecap:round;stroke-opacity:0.9;"/>
     </g>
     <g id="text_7">
      <!-- 1.0 -->
      <defs>
       <path d="M 10.6875 12.40625 
L 21 12.40625 
L 21 0 
L 10.6875 0 
z
" id="DejaVuSans-46"/>
      </defs>
      <g style="fill:#262626;" transform="translate(27.45925 416.732374)scale(0.14 -0.14)">
       <use xlink:href="#DejaVuSans-49"/>
       <use x="63.623047" xlink:href="#DejaVuSans-46"/>
       <use x="95.410156" xlink:href="#DejaVuSans-48"/>
      </g>
     </g>
    </g>
    <g id="ytick_2">
     <g id="line2d_7">
      <path clip-path="url(#pff06accf76)" d="M 63.223625 335.741959 
L 732.823625 335.741959 
" style="fill:none;stroke:#cccccc;stroke-linecap:round;stroke-opacity:0.9;"/>
     </g>
     <g id="text_8">
      <!-- 1.5 -->
      <defs>
       <path d="M 10.796875 72.90625 
L 49.515625 72.90625 
L 49.515625 64.59375 
L 19.828125 64.59375 
L 19.828125 46.734375 
Q 21.96875 47.46875 24.109375 47.828125 
Q 26.265625 48.1875 28.421875 48.1875 
Q 40.625 48.1875 47.75 41.5 
Q 54.890625 34.8125 54.890625 23.390625 
Q 54.890625 11.625 47.5625 5.09375 
Q 40.234375 -1.421875 26.90625 -1.421875 
Q 22.3125 -1.421875 17.546875 -0.640625 
Q 12.796875 0.140625 7.71875 1.703125 
L 7.71875 11.625 
Q 12.109375 9.234375 16.796875 8.0625 
Q 21.484375 6.890625 26.703125 6.890625 
Q 35.15625 6.890625 40.078125 11.328125 
Q 45.015625 15.765625 45.015625 23.390625 
Q 45.015625 31 40.078125 35.4375 
Q 35.15625 39.890625 26.703125 39.890625 
Q 22.75 39.890625 18.8125 39.015625 
Q 14.890625 38.140625 10.796875 36.28125 
z
" id="DejaVuSans-53"/>
      </defs>
      <g style="fill:#262626;" transform="translate(27.45925 341.060865)scale(0.14 -0.14)">
       <use xlink:href="#DejaVuSans-49"/>
       <use x="63.623047" xlink:href="#DejaVuSans-46"/>
       <use x="95.410156" xlink:href="#DejaVuSans-53"/>
      </g>
     </g>
    </g>
    <g id="ytick_3">
     <g id="line2d_8">
      <path clip-path="url(#pff06accf76)" d="M 63.223625 260.07045 
L 732.823625 260.07045 
" style="fill:none;stroke:#cccccc;stroke-linecap:round;stroke-opacity:0.9;"/>
     </g>
     <g id="text_9">
      <!-- 2.0 -->
      <g style="fill:#262626;" transform="translate(27.45925 265.389356)scale(0.14 -0.14)">
       <use xlink:href="#DejaVuSans-50"/>
       <use x="63.623047" xlink:href="#DejaVuSans-46"/>
       <use x="95.410156" xlink:href="#DejaVuSans-48"/>
      </g>
     </g>
    </g>
    <g id="ytick_4">
     <g id="line2d_9">
      <path clip-path="url(#pff06accf76)" d="M 63.223625 184.398941 
L 732.823625 184.398941 
" style="fill:none;stroke:#cccccc;stroke-linecap:round;stroke-opacity:0.9;"/>
     </g>
     <g id="text_10">
      <!-- 2.5 -->
      <g style="fill:#262626;" transform="translate(27.45925 189.717847)scale(0.14 -0.14)">
       <use xlink:href="#DejaVuSans-50"/>
       <use x="63.623047" xlink:href="#DejaVuSans-46"/>
       <use x="95.410156" xlink:href="#DejaVuSans-53"/>
      </g>
     </g>
    </g>
    <g id="ytick_5">
     <g id="line2d_10">
      <path clip-path="url(#pff06accf76)" d="M 63.223625 108.727432 
L 732.823625 108.727432 
" style="fill:none;stroke:#cccccc;stroke-linecap:round;stroke-opacity:0.9;"/>
     </g>
     <g id="text_11">
      <!-- 3.0 -->
      <g style="fill:#262626;" transform="translate(27.45925 114.046339)scale(0.14 -0.14)">
       <use xlink:href="#DejaVuSans-51"/>
       <use x="63.623047" xlink:href="#DejaVuSans-46"/>
       <use x="95.410156" xlink:href="#DejaVuSans-48"/>
      </g>
     </g>
    </g>
    <g id="ytick_6">
     <g id="line2d_11">
      <path clip-path="url(#pff06accf76)" d="M 63.223625 33.055924 
L 732.823625 33.055924 
" style="fill:none;stroke:#cccccc;stroke-linecap:round;stroke-opacity:0.9;"/>
     </g>
     <g id="text_12">
      <!-- 3.5 -->
      <g style="fill:#262626;" transform="translate(27.45925 38.37483)scale(0.14 -0.14)">
       <use xlink:href="#DejaVuSans-51"/>
       <use x="63.623047" xlink:href="#DejaVuSans-46"/>
       <use x="95.410156" xlink:href="#DejaVuSans-53"/>
      </g>
     </g>
    </g>
    <g id="text_13">
     <!-- PMR -->
     <defs>
      <path d="M 19.671875 64.796875 
L 19.671875 37.40625 
L 32.078125 37.40625 
Q 38.96875 37.40625 42.71875 40.96875 
Q 46.484375 44.53125 46.484375 51.125 
Q 46.484375 57.671875 42.71875 61.234375 
Q 38.96875 64.796875 32.078125 64.796875 
z
M 9.8125 72.90625 
L 32.078125 72.90625 
Q 44.34375 72.90625 50.609375 67.359375 
Q 56.890625 61.8125 56.890625 51.125 
Q 56.890625 40.328125 50.609375 34.8125 
Q 44.34375 29.296875 32.078125 29.296875 
L 19.671875 29.296875 
L 19.671875 0 
L 9.8125 0 
z
" id="DejaVuSans-80"/>
      <path d="M 9.8125 72.90625 
L 24.515625 72.90625 
L 43.109375 23.296875 
L 61.8125 72.90625 
L 76.515625 72.90625 
L 76.515625 0 
L 66.890625 0 
L 66.890625 64.015625 
L 48.09375 14.015625 
L 38.1875 14.015625 
L 19.390625 64.015625 
L 19.390625 0 
L 9.8125 0 
z
" id="DejaVuSans-77"/>
      <path d="M 44.390625 34.1875 
Q 47.5625 33.109375 50.5625 29.59375 
Q 53.5625 26.078125 56.59375 19.921875 
L 66.609375 0 
L 56 0 
L 46.6875 18.703125 
Q 43.0625 26.03125 39.671875 28.421875 
Q 36.28125 30.8125 30.421875 30.8125 
L 19.671875 30.8125 
L 19.671875 0 
L 9.8125 0 
L 9.8125 72.90625 
L 32.078125 72.90625 
Q 44.578125 72.90625 50.734375 67.671875 
Q 56.890625 62.453125 56.890625 51.90625 
Q 56.890625 45.015625 53.6875 40.46875 
Q 50.484375 35.9375 44.390625 34.1875 
z
M 19.671875 64.796875 
L 19.671875 38.921875 
L 32.078125 38.921875 
Q 39.203125 38.921875 42.84375 42.21875 
Q 46.484375 45.515625 46.484375 51.90625 
Q 46.484375 58.296875 42.84375 61.546875 
Q 39.203125 64.796875 32.078125 64.796875 
z
" id="DejaVuSans-82"/>
     </defs>
     <g style="fill:#262626;" transform="translate(19.965375 264.1077)rotate(-90)scale(0.168 -0.168)">
      <use xlink:href="#DejaVuSans-80"/>
      <use x="60.302734" xlink:href="#DejaVuSans-77"/>
      <use x="146.582031" xlink:href="#DejaVuSans-82"/>
     </g>
    </g>
   </g>
   <g id="line2d_12">
    <path clip-path="url(#pff06accf76)" d="M 93.659989 302.266397 
L 245.841807 360.268003 
L 398.023625 344.527875 
L 550.205443 369.905375 
L 702.387261 378.999944 
" style="fill:none;stroke:#000000;stroke-linecap:round;stroke-opacity:0.2;"/>
   </g>
   <g id="line2d_13">
    <path clip-path="url(#pff06accf76)" d="M 93.659989 241.386095 
L 245.841807 319.343791 
L 398.023625 355.027297 
L 550.205443 382.392082 
L 702.387261 339.735191 
" style="fill:none;stroke:#000000;stroke-linecap:round;stroke-opacity:0.2;"/>
   </g>
   <g id="line2d_14">
    <path clip-path="url(#pff06accf76)" d="M 93.659989 215.32513 
L 245.841807 315.221964 
L 398.023625 332.694667 
L 550.205443 353.046671 
L 702.387261 303.836371 
" style="fill:none;stroke:#000000;stroke-linecap:round;stroke-opacity:0.2;"/>
   </g>
   <g id="line2d_15">
    <path clip-path="url(#pff06accf76)" d="M 93.659989 274.437594 
L 245.841807 314.965589 
L 398.023625 330.896863 
L 550.205443 347.116748 
L 702.387261 296.965431 
" style="fill:none;stroke:#000000;stroke-linecap:round;stroke-opacity:0.2;"/>
   </g>
   <g id="line2d_16">
    <path clip-path="url(#pff06accf76)" d="M 398.023625 298.136246 
L 550.205443 333.592282 
L 702.387261 347.312816 
" style="fill:none;stroke:#000000;stroke-linecap:round;stroke-opacity:0.2;"/>
   </g>
   <g id="line2d_17">
    <path clip-path="url(#pff06accf76)" d="M 93.659989 161.85322 
L 245.841807 277.358665 
L 398.023625 334.461597 
L 550.205443 350.056738 
L 702.387261 364.966643 
" style="fill:none;stroke:#000000;stroke-linecap:round;stroke-opacity:0.2;"/>
   </g>
   <g id="line2d_18">
    <path clip-path="url(#pff06accf76)" d="M 93.659989 311.164307 
L 245.841807 339.068327 
L 398.023625 360.586277 
L 550.205443 379.732228 
L 702.387261 401.308571 
" style="fill:none;stroke:#000000;stroke-linecap:round;stroke-opacity:0.2;"/>
   </g>
   <g id="line2d_19">
    <path clip-path="url(#pff06accf76)" d="M 93.659989 269.870516 
L 245.841807 336.616721 
L 398.023625 359.485862 
L 550.205443 366.996865 
L 702.387261 349.275641 
" style="fill:none;stroke:#000000;stroke-linecap:round;stroke-opacity:0.2;"/>
   </g>
   <g id="line2d_20">
    <path clip-path="url(#pff06accf76)" d="M 93.659989 202.995668 
L 245.841807 294.146692 
L 398.023625 333.113282 
L 550.205443 340.580092 
L 702.387261 324.572957 
" style="fill:none;stroke:#f47915;stroke-linecap:round;stroke-width:2;"/>
   </g>
   <g id="line2d_21">
    <path clip-path="url(#pff06accf76)" d="M 93.659989 225.967117 
L 245.841807 290.249761 
L 398.023625 350.381217 
L 550.205443 368.296901 
L 702.387261 395.403856 
" style="fill:none;stroke:#06ab54;stroke-linecap:round;stroke-width:2;"/>
   </g>
   <g id="line2d_22">
    <path clip-path="url(#pff06accf76)" d="M 93.659989 146.355847 
L 245.841807 183.359517 
L 398.023625 227.637944 
L 550.205443 299.29629 
L 702.387261 325.715696 
" style="fill:none;stroke:#165aa7;stroke-linecap:round;stroke-width:2;"/>
   </g>
   <g id="line2d_23">
    <path clip-path="url(#pff06accf76)" d="M 93.659989 159.520722 
L 245.841807 243.191768 
L 398.023625 329.831408 
L 550.205443 361.894637 
L 702.387261 359.874766 
" style="fill:none;stroke:#000000;stroke-linecap:round;stroke-opacity:0.2;"/>
   </g>
   <g id="line2d_24">
    <path clip-path="url(#pff06accf76)" d="M 93.659989 254.99274 
L 245.841807 317.882272 
L 398.023625 338.523795 
L 550.205443 336.153612 
L 702.387261 342.651833 
" style="fill:none;stroke:#000000;stroke-linecap:round;stroke-opacity:0.2;"/>
   </g>
   <g id="line2d_25">
    <path clip-path="url(#pff06accf76)" d="M 93.659989 281.672547 
L 245.841807 323.135539 
L 398.023625 358.371826 
L 550.205443 342.661967 
L 702.387261 348.948043 
" style="fill:none;stroke:#000000;stroke-linecap:round;stroke-opacity:0.2;"/>
   </g>
   <g id="line2d_26">
    <path clip-path="url(#pff06accf76)" d="M 398.023625 225.575139 
L 550.205443 237.464495 
L 702.387261 345.775654 
" style="fill:none;stroke:#000000;stroke-linecap:round;stroke-opacity:0.2;"/>
   </g>
   <g id="line2d_27">
    <path clip-path="url(#pff06accf76)" d="M 93.659989 205.727713 
L 245.841807 289.723693 
L 398.023625 333.631329 
L 550.205443 367.654904 
L 702.387261 357.908658 
" style="fill:none;stroke:#000000;stroke-linecap:round;stroke-opacity:0.2;"/>
   </g>
   <g id="line2d_28">
    <path clip-path="url(#pff06accf76)" d="M 93.659989 242.932215 
L 245.841807 355.919312 
L 398.023625 346.182962 
L 550.205443 349.085872 
L 702.387261 344.742607 
" style="fill:none;stroke:#000000;stroke-linecap:round;stroke-opacity:0.2;"/>
   </g>
   <g id="line2d_29">
    <path clip-path="url(#pff06accf76)" d="M 93.659989 175.653585 
L 245.841807 267.110019 
L 398.023625 268.661588 
L 550.205443 278.534298 
L 702.387261 306.722297 
" style="fill:none;stroke:#000000;stroke-linecap:round;stroke-opacity:0.2;"/>
   </g>
   <g id="line2d_30">
    <path clip-path="url(#pff06accf76)" d="M 550.205443 319.447915 
L 702.387261 371.796603 
" style="fill:none;stroke:#000000;stroke-linecap:round;stroke-opacity:0.2;"/>
   </g>
   <g id="line2d_31">
    <path clip-path="url(#pff06accf76)" d="M 550.205443 333.395385 
L 702.387261 387.569942 
" style="fill:none;stroke:#000000;stroke-linecap:round;stroke-opacity:0.2;"/>
   </g>
   <g id="line2d_32">
    <path clip-path="url(#pff06accf76)" d="M 245.841807 320.985712 
L 398.023625 345.287011 
L 550.205443 342.049633 
L 702.387261 302.427204 
" style="fill:none;stroke:#000000;stroke-linecap:round;stroke-opacity:0.2;"/>
   </g>
   <g id="line2d_33">
    <path clip-path="url(#pff06accf76)" d="M 93.659989 145.016158 
L 245.841807 183.747561 
L 398.023625 252.372085 
L 550.205443 274.26249 
L 702.387261 320.526476 
" style="fill:none;stroke:#000000;stroke-linecap:round;stroke-opacity:0.2;"/>
   </g>
   <g id="line2d_34">
    <path clip-path="url(#pff06accf76)" d="M 93.659989 287.870951 
L 245.841807 337.753307 
L 398.023625 417.168846 
L 550.205443 424.272826 
L 702.387261 378.513866 
" style="fill:none;stroke:#000000;stroke-linecap:round;stroke-opacity:0.2;"/>
   </g>
   <g id="line2d_35">
    <path clip-path="url(#pff06accf76)" d="M 93.659989 343.6348 
L 245.841807 368.199739 
L 398.023625 376.86791 
L 550.205443 372.017518 
L 702.387261 364.480141 
" style="fill:none;stroke:#000000;stroke-linecap:round;stroke-opacity:0.2;"/>
   </g>
   <g id="line2d_36">
    <path clip-path="url(#pff06accf76)" d="M 93.659989 279.910611 
L 245.841807 327.210147 
L 398.023625 329.931749 
L 550.205443 341.435483 
L 702.387261 382.15827 
" style="fill:none;stroke:#000000;stroke-linecap:round;stroke-opacity:0.2;"/>
   </g>
   <g id="line2d_37">
    <path clip-path="url(#pff06accf76)" d="M 93.659989 79.936542 
L 245.841807 196.042516 
L 398.023625 253.373067 
L 550.205443 313.356813 
L 702.387261 343.265126 
" style="fill:none;stroke:#002070;stroke-linecap:round;stroke-width:2;"/>
   </g>
   <g id="line2d_38">
    <path clip-path="url(#pff06accf76)" d="M 93.659989 170.940309 
L 245.841807 241.474328 
L 398.023625 306.747966 
L 550.205443 366.7924 
L 702.387261 357.663645 
" style="fill:none;stroke:#000000;stroke-linecap:round;stroke-opacity:0.2;"/>
   </g>
   <g id="line2d_39">
    <path clip-path="url(#pff06accf76)" d="M 245.841807 233.534873 
L 398.023625 317.532215 
L 550.205443 367.882827 
L 702.387261 332.305117 
" style="fill:none;stroke:#000000;stroke-linecap:round;stroke-opacity:0.2;"/>
   </g>
   <g id="line2d_40">
    <path clip-path="url(#pff06accf76)" d="M 398.023625 276.873006 
L 550.205443 305.177479 
L 702.387261 362.090135 
" style="fill:none;stroke:#000000;stroke-linecap:round;stroke-opacity:0.2;"/>
   </g>
   <g id="line2d_41">
    <path clip-path="url(#pff06accf76)" d="M 93.659989 200.938614 
L 245.841807 291.328837 
L 398.023625 321.42385 
L 550.205443 344.528026 
L 702.387261 404.825499 
" style="fill:none;stroke:#000000;stroke-linecap:round;stroke-opacity:0.2;"/>
   </g>
   <g id="line2d_42">
    <path clip-path="url(#pff06accf76)" d="M 93.659989 276.814285 
L 245.841807 335.180022 
L 398.023625 319.746364 
L 550.205443 332.798034 
L 702.387261 385.303872 
" style="fill:none;stroke:#000000;stroke-linecap:round;stroke-opacity:0.2;"/>
   </g>
   <g id="line2d_43">
    <path clip-path="url(#pff06accf76)" d="M 93.659989 186.430116 
L 245.841807 261.34945 
L 398.023625 328.580861 
L 550.205443 335.778432 
L 702.387261 327.824756 
" style="fill:none;stroke:#000000;stroke-linecap:round;stroke-opacity:0.2;"/>
   </g>
   <g id="line2d_44">
    <path clip-path="url(#pff06accf76)" d="M 93.659989 66.006477 
L 245.841807 135.490932 
L 398.023625 161.4903 
L 550.205443 190.453116 
L 702.387261 217.868203 
" style="fill:none;stroke:#000000;stroke-linecap:round;stroke-opacity:0.2;"/>
   </g>
   <g id="line2d_45">
    <path clip-path="url(#pff06accf76)" d="M 93.659989 363.102355 
L 245.841807 396.566566 
L 398.023625 379.910207 
L 550.205443 398.696568 
L 702.387261 443.631177 
" style="fill:none;stroke:#cb495c;stroke-linecap:round;stroke-width:2;"/>
   </g>
   <g id="line2d_46">
    <path clip-path="url(#pff06accf76)" d="M 702.387261 163.848597 
" style="fill:none;stroke:#000000;stroke-linecap:round;stroke-opacity:0.2;"/>
   </g>
   <g id="line2d_47">
    <path clip-path="url(#pff06accf76)" d="M 398.023625 178.403336 
L 550.205443 177.921914 
L 702.387261 165.878734 
" style="fill:none;stroke:#000000;stroke-linecap:round;stroke-opacity:0.2;"/>
   </g>
   <g id="line2d_48">
    <path clip-path="url(#pff06accf76)" d="M 702.387261 253.742053 
" style="fill:none;stroke:#000000;stroke-linecap:round;stroke-opacity:0.2;"/>
   </g>
   <g id="line2d_49">
    <path clip-path="url(#pff06accf76)" d="M 702.387261 240.80199 
" style="fill:none;stroke:#000000;stroke-linecap:round;stroke-opacity:0.2;"/>
   </g>
   <g id="line2d_50">
    <path clip-path="url(#pff06accf76)" d="M 398.023625 161.325487 
L 550.205443 228.411155 
L 702.387261 180.570608 
" style="fill:none;stroke:#000000;stroke-linecap:round;stroke-opacity:0.2;"/>
   </g>
   <g id="line2d_51">
    <path clip-path="url(#pff06accf76)" d="M 702.387261 350.49903 
" style="fill:none;stroke:#000000;stroke-linecap:round;stroke-opacity:0.2;"/>
   </g>
   <g id="line2d_52">
    <path clip-path="url(#pff06accf76)" d="M 702.387261 406.547809 
" style="fill:none;stroke:#000000;stroke-linecap:round;stroke-opacity:0.2;"/>
   </g>
   <g id="line2d_53">
    <path clip-path="url(#pff06accf76)" d="M 398.023625 355.450603 
L 550.205443 367.267012 
" style="fill:none;stroke:#000000;stroke-linecap:round;stroke-opacity:0.2;"/>
   </g>
   <g id="line2d_54">
    <path clip-path="url(#pff06accf76)" d="M 93.659989 316.318596 
L 245.841807 345.335895 
L 398.023625 322.151658 
L 550.205443 322.035881 
" style="fill:none;stroke:#bb60d5;stroke-linecap:round;stroke-width:2;"/>
   </g>
   <g id="line2d_55">
    <path clip-path="url(#pff06accf76)" d="M 550.205443 324.413328 
" style="fill:none;stroke:#000000;stroke-linecap:round;stroke-opacity:0.2;"/>
   </g>
   <g id="line2d_56">
    <path clip-path="url(#pff06accf76)" d="M 398.023625 83.133361 
L 550.205443 129.890786 
" style="fill:none;stroke:#000000;stroke-linecap:round;stroke-opacity:0.2;"/>
   </g>
   <g id="line2d_57">
    <path clip-path="url(#pff06accf76)" d="M 550.205443 248.653889 
" style="fill:none;stroke:#000000;stroke-linecap:round;stroke-opacity:0.2;"/>
   </g>
   <g id="line2d_58">
    <path clip-path="url(#pff06accf76)" d="M 550.205443 313.026431 
" style="fill:none;stroke:#000000;stroke-linecap:round;stroke-opacity:0.2;"/>
   </g>
   <g id="line2d_59">
    <path clip-path="url(#pff06accf76)" d="M 398.023625 48.285723 
L 550.205443 93.787606 
" style="fill:none;stroke:#b27d12;stroke-linecap:round;stroke-width:2;"/>
   </g>
   <g id="line2d_60">
    <path clip-path="url(#pff06accf76)" d="M 550.205443 131.122718 
" style="fill:none;stroke:#000000;stroke-linecap:round;stroke-opacity:0.2;"/>
   </g>
   <g id="line2d_61">
    <path clip-path="url(#pff06accf76)" d="M 550.205443 325.521008 
" style="fill:none;stroke:#000000;stroke-linecap:round;stroke-opacity:0.2;"/>
   </g>
   <g id="line2d_62">
    <path clip-path="url(#pff06accf76)" d="M 550.205443 307.449592 
" style="fill:none;stroke:#000000;stroke-linecap:round;stroke-opacity:0.2;"/>
   </g>
   <g id="line2d_63">
    <path clip-path="url(#pff06accf76)" d="M 398.023625 156.247778 
L 550.205443 226.709152 
" style="fill:none;stroke:#000000;stroke-linecap:round;stroke-opacity:0.2;"/>
   </g>
   <g id="text_14">
    <!-- France -->
    <defs>
     <path d="M 9.8125 72.90625 
L 51.703125 72.90625 
L 51.703125 64.59375 
L 19.671875 64.59375 
L 19.671875 43.109375 
L 48.578125 43.109375 
L 48.578125 34.8125 
L 19.671875 34.8125 
L 19.671875 0 
L 9.8125 0 
z
" id="DejaVuSans-70"/>
     <path d="M 54.890625 33.015625 
L 54.890625 0 
L 45.90625 0 
L 45.90625 32.71875 
Q 45.90625 40.484375 42.875 44.328125 
Q 39.84375 48.1875 33.796875 48.1875 
Q 26.515625 48.1875 22.3125 43.546875 
Q 18.109375 38.921875 18.109375 30.90625 
L 18.109375 0 
L 9.078125 0 
L 9.078125 54.6875 
L 18.109375 54.6875 
L 18.109375 46.1875 
Q 21.34375 51.125 25.703125 53.5625 
Q 30.078125 56 35.796875 56 
Q 45.21875 56 50.046875 50.171875 
Q 54.890625 44.34375 54.890625 33.015625 
z
" id="DejaVuSans-110"/>
     <path d="M 48.78125 52.59375 
L 48.78125 44.1875 
Q 44.96875 46.296875 41.140625 47.34375 
Q 37.3125 48.390625 33.40625 48.390625 
Q 24.65625 48.390625 19.8125 42.84375 
Q 14.984375 37.3125 14.984375 27.296875 
Q 14.984375 17.28125 19.8125 11.734375 
Q 24.65625 6.203125 33.40625 6.203125 
Q 37.3125 6.203125 41.140625 7.25 
Q 44.96875 8.296875 48.78125 10.40625 
L 48.78125 2.09375 
Q 45.015625 0.34375 40.984375 -0.53125 
Q 36.96875 -1.421875 32.421875 -1.421875 
Q 20.0625 -1.421875 12.78125 6.34375 
Q 5.515625 14.109375 5.515625 27.296875 
Q 5.515625 40.671875 12.859375 48.328125 
Q 20.21875 56 33.015625 56 
Q 37.15625 56 41.109375 55.140625 
Q 45.0625 54.296875 48.78125 52.59375 
z
" id="DejaVuSans-99"/>
    </defs>
    <g style="fill:#f47915;" transform="translate(93.659989 195.428517)scale(0.16 -0.16)">
     <use xlink:href="#DejaVuSans-70"/>
     <use x="57.410156" xlink:href="#DejaVuSans-114"/>
     <use x="98.523438" xlink:href="#DejaVuSans-97"/>
     <use x="159.802734" xlink:href="#DejaVuSans-110"/>
     <use x="223.181641" xlink:href="#DejaVuSans-99"/>
     <use x="278.162109" xlink:href="#DejaVuSans-101"/>
    </g>
   </g>
   <g id="text_15">
    <!-- Germany -->
    <defs>
     <path d="M 59.515625 10.40625 
L 59.515625 29.984375 
L 43.40625 29.984375 
L 43.40625 38.09375 
L 69.28125 38.09375 
L 69.28125 6.78125 
Q 63.578125 2.734375 56.6875 0.65625 
Q 49.8125 -1.421875 42 -1.421875 
Q 24.90625 -1.421875 15.25 8.5625 
Q 5.609375 18.5625 5.609375 36.375 
Q 5.609375 54.25 15.25 64.234375 
Q 24.90625 74.21875 42 74.21875 
Q 49.125 74.21875 55.546875 72.453125 
Q 61.96875 70.703125 67.390625 67.28125 
L 67.390625 56.78125 
Q 61.921875 61.421875 55.765625 63.765625 
Q 49.609375 66.109375 42.828125 66.109375 
Q 29.4375 66.109375 22.71875 58.640625 
Q 16.015625 51.171875 16.015625 36.375 
Q 16.015625 21.625 22.71875 14.15625 
Q 29.4375 6.6875 42.828125 6.6875 
Q 48.046875 6.6875 52.140625 7.59375 
Q 56.25 8.5 59.515625 10.40625 
z
" id="DejaVuSans-71"/>
     <path d="M 52 44.1875 
Q 55.375 50.25 60.0625 53.125 
Q 64.75 56 71.09375 56 
Q 79.640625 56 84.28125 50.015625 
Q 88.921875 44.046875 88.921875 33.015625 
L 88.921875 0 
L 79.890625 0 
L 79.890625 32.71875 
Q 79.890625 40.578125 77.09375 44.375 
Q 74.3125 48.1875 68.609375 48.1875 
Q 61.625 48.1875 57.5625 43.546875 
Q 53.515625 38.921875 53.515625 30.90625 
L 53.515625 0 
L 44.484375 0 
L 44.484375 32.71875 
Q 44.484375 40.625 41.703125 44.40625 
Q 38.921875 48.1875 33.109375 48.1875 
Q 26.21875 48.1875 22.15625 43.53125 
Q 18.109375 38.875 18.109375 30.90625 
L 18.109375 0 
L 9.078125 0 
L 9.078125 54.6875 
L 18.109375 54.6875 
L 18.109375 46.1875 
Q 21.1875 51.21875 25.484375 53.609375 
Q 29.78125 56 35.6875 56 
Q 41.65625 56 45.828125 52.96875 
Q 50 49.953125 52 44.1875 
z
" id="DejaVuSans-109"/>
     <path d="M 32.171875 -5.078125 
Q 28.375 -14.84375 24.75 -17.8125 
Q 21.140625 -20.796875 15.09375 -20.796875 
L 7.90625 -20.796875 
L 7.90625 -13.28125 
L 13.1875 -13.28125 
Q 16.890625 -13.28125 18.9375 -11.515625 
Q 21 -9.765625 23.484375 -3.21875 
L 25.09375 0.875 
L 2.984375 54.6875 
L 12.5 54.6875 
L 29.59375 11.921875 
L 46.6875 54.6875 
L 56.203125 54.6875 
z
" id="DejaVuSans-121"/>
    </defs>
    <g style="fill:#06ab54;" transform="translate(705.430898 401.457577)scale(0.16 -0.16)">
     <use xlink:href="#DejaVuSans-71"/>
     <use x="77.490234" xlink:href="#DejaVuSans-101"/>
     <use x="139.013672" xlink:href="#DejaVuSans-114"/>
     <use x="180.111328" xlink:href="#DejaVuSans-109"/>
     <use x="277.523438" xlink:href="#DejaVuSans-97"/>
     <use x="338.802734" xlink:href="#DejaVuSans-110"/>
     <use x="402.181641" xlink:href="#DejaVuSans-121"/>
    </g>
   </g>
   <g id="text_16">
    <!-- Greece -->
    <g style="fill:#165aa7;" transform="translate(705.430898 331.769417)scale(0.16 -0.16)">
     <use xlink:href="#DejaVuSans-71"/>
     <use x="77.490234" xlink:href="#DejaVuSans-114"/>
     <use x="118.572266" xlink:href="#DejaVuSans-101"/>
     <use x="180.095703" xlink:href="#DejaVuSans-101"/>
     <use x="241.619141" xlink:href="#DejaVuSans-99"/>
     <use x="296.599609" xlink:href="#DejaVuSans-101"/>
    </g>
   </g>
   <g id="text_17">
    <!-- Poland -->
    <defs>
     <path d="M 30.609375 48.390625 
Q 23.390625 48.390625 19.1875 42.75 
Q 14.984375 37.109375 14.984375 27.296875 
Q 14.984375 17.484375 19.15625 11.84375 
Q 23.34375 6.203125 30.609375 6.203125 
Q 37.796875 6.203125 41.984375 11.859375 
Q 46.1875 17.53125 46.1875 27.296875 
Q 46.1875 37.015625 41.984375 42.703125 
Q 37.796875 48.390625 30.609375 48.390625 
z
M 30.609375 56 
Q 42.328125 56 49.015625 48.375 
Q 55.71875 40.765625 55.71875 27.296875 
Q 55.71875 13.875 49.015625 6.21875 
Q 42.328125 -1.421875 30.609375 -1.421875 
Q 18.84375 -1.421875 12.171875 6.21875 
Q 5.515625 13.875 5.515625 27.296875 
Q 5.515625 40.765625 12.171875 48.375 
Q 18.84375 56 30.609375 56 
z
" id="DejaVuSans-111"/>
     <path d="M 9.421875 75.984375 
L 18.40625 75.984375 
L 18.40625 0 
L 9.421875 0 
z
" id="DejaVuSans-108"/>
     <path d="M 45.40625 46.390625 
L 45.40625 75.984375 
L 54.390625 75.984375 
L 54.390625 0 
L 45.40625 0 
L 45.40625 8.203125 
Q 42.578125 3.328125 38.25 0.953125 
Q 33.9375 -1.421875 27.875 -1.421875 
Q 17.96875 -1.421875 11.734375 6.484375 
Q 5.515625 14.40625 5.515625 27.296875 
Q 5.515625 40.1875 11.734375 48.09375 
Q 17.96875 56 27.875 56 
Q 33.9375 56 38.25 53.625 
Q 42.578125 51.265625 45.40625 46.390625 
z
M 14.796875 27.296875 
Q 14.796875 17.390625 18.875 11.75 
Q 22.953125 6.109375 30.078125 6.109375 
Q 37.203125 6.109375 41.296875 11.75 
Q 45.40625 17.390625 45.40625 27.296875 
Q 45.40625 37.203125 41.296875 42.84375 
Q 37.203125 48.484375 30.078125 48.484375 
Q 22.953125 48.484375 18.875 42.84375 
Q 14.796875 37.203125 14.796875 27.296875 
z
" id="DejaVuSans-100"/>
    </defs>
    <g style="fill:#002070;" transform="translate(705.430898 349.318847)scale(0.16 -0.16)">
     <use xlink:href="#DejaVuSans-80"/>
     <use x="60.255859" xlink:href="#DejaVuSans-111"/>
     <use x="121.4375" xlink:href="#DejaVuSans-108"/>
     <use x="149.220703" xlink:href="#DejaVuSans-97"/>
     <use x="210.5" xlink:href="#DejaVuSans-110"/>
     <use x="273.878906" xlink:href="#DejaVuSans-100"/>
    </g>
   </g>
   <g id="text_18">
    <!-- United Kingdom -->
    <defs>
     <path d="M 8.6875 72.90625 
L 18.609375 72.90625 
L 18.609375 28.609375 
Q 18.609375 16.890625 22.84375 11.734375 
Q 27.09375 6.59375 36.625 6.59375 
Q 46.09375 6.59375 50.34375 11.734375 
Q 54.59375 16.890625 54.59375 28.609375 
L 54.59375 72.90625 
L 64.5 72.90625 
L 64.5 27.390625 
Q 64.5 13.140625 57.4375 5.859375 
Q 50.390625 -1.421875 36.625 -1.421875 
Q 22.796875 -1.421875 15.734375 5.859375 
Q 8.6875 13.140625 8.6875 27.390625 
z
" id="DejaVuSans-85"/>
     <path d="M 9.421875 54.6875 
L 18.40625 54.6875 
L 18.40625 0 
L 9.421875 0 
z
M 9.421875 75.984375 
L 18.40625 75.984375 
L 18.40625 64.59375 
L 9.421875 64.59375 
z
" id="DejaVuSans-105"/>
     <path d="M 18.3125 70.21875 
L 18.3125 54.6875 
L 36.8125 54.6875 
L 36.8125 47.703125 
L 18.3125 47.703125 
L 18.3125 18.015625 
Q 18.3125 11.328125 20.140625 9.421875 
Q 21.96875 7.515625 27.59375 7.515625 
L 36.8125 7.515625 
L 36.8125 0 
L 27.59375 0 
Q 17.1875 0 13.234375 3.875 
Q 9.28125 7.765625 9.28125 18.015625 
L 9.28125 47.703125 
L 2.6875 47.703125 
L 2.6875 54.6875 
L 9.28125 54.6875 
L 9.28125 70.21875 
z
" id="DejaVuSans-116"/>
     <path id="DejaVuSans-32"/>
     <path d="M 9.8125 72.90625 
L 19.671875 72.90625 
L 19.671875 42.09375 
L 52.390625 72.90625 
L 65.09375 72.90625 
L 28.90625 38.921875 
L 67.671875 0 
L 54.6875 0 
L 19.671875 35.109375 
L 19.671875 0 
L 9.8125 0 
z
" id="DejaVuSans-75"/>
     <path d="M 45.40625 27.984375 
Q 45.40625 37.75 41.375 43.109375 
Q 37.359375 48.484375 30.078125 48.484375 
Q 22.859375 48.484375 18.828125 43.109375 
Q 14.796875 37.75 14.796875 27.984375 
Q 14.796875 18.265625 18.828125 12.890625 
Q 22.859375 7.515625 30.078125 7.515625 
Q 37.359375 7.515625 41.375 12.890625 
Q 45.40625 18.265625 45.40625 27.984375 
z
M 54.390625 6.78125 
Q 54.390625 -7.171875 48.1875 -13.984375 
Q 42 -20.796875 29.203125 -20.796875 
Q 24.46875 -20.796875 20.265625 -20.09375 
Q 16.0625 -19.390625 12.109375 -17.921875 
L 12.109375 -9.1875 
Q 16.0625 -11.328125 19.921875 -12.34375 
Q 23.78125 -13.375 27.78125 -13.375 
Q 36.625 -13.375 41.015625 -8.765625 
Q 45.40625 -4.15625 45.40625 5.171875 
L 45.40625 9.625 
Q 42.625 4.78125 38.28125 2.390625 
Q 33.9375 0 27.875 0 
Q 17.828125 0 11.671875 7.65625 
Q 5.515625 15.328125 5.515625 27.984375 
Q 5.515625 40.671875 11.671875 48.328125 
Q 17.828125 56 27.875 56 
Q 33.9375 56 38.28125 53.609375 
Q 42.625 51.21875 45.40625 46.390625 
L 45.40625 54.6875 
L 54.390625 54.6875 
z
" id="DejaVuSans-103"/>
    </defs>
    <g style="fill:#cb495c;" transform="translate(705.430898 449.684898)scale(0.16 -0.16)">
     <use xlink:href="#DejaVuSans-85"/>
     <use x="73.193359" xlink:href="#DejaVuSans-110"/>
     <use x="136.572266" xlink:href="#DejaVuSans-105"/>
     <use x="164.355469" xlink:href="#DejaVuSans-116"/>
     <use x="203.564453" xlink:href="#DejaVuSans-101"/>
     <use x="265.087891" xlink:href="#DejaVuSans-100"/>
     <use x="328.564453" xlink:href="#DejaVuSans-32"/>
     <use x="360.351562" xlink:href="#DejaVuSans-75"/>
     <use x="425.927734" xlink:href="#DejaVuSans-105"/>
     <use x="453.710938" xlink:href="#DejaVuSans-110"/>
     <use x="517.089844" xlink:href="#DejaVuSans-103"/>
     <use x="580.566406" xlink:href="#DejaVuSans-100"/>
     <use x="644.042969" xlink:href="#DejaVuSans-111"/>
     <use x="705.224609" xlink:href="#DejaVuSans-109"/>
    </g>
   </g>
   <g id="text_19">
    <!-- United States -->
    <defs>
     <path d="M 53.515625 70.515625 
L 53.515625 60.890625 
Q 47.90625 63.578125 42.921875 64.890625 
Q 37.9375 66.21875 33.296875 66.21875 
Q 25.25 66.21875 20.875 63.09375 
Q 16.5 59.96875 16.5 54.203125 
Q 16.5 49.359375 19.40625 46.890625 
Q 22.3125 44.4375 30.421875 42.921875 
L 36.375 41.703125 
Q 47.40625 39.59375 52.65625 34.296875 
Q 57.90625 29 57.90625 20.125 
Q 57.90625 9.515625 50.796875 4.046875 
Q 43.703125 -1.421875 29.984375 -1.421875 
Q 24.8125 -1.421875 18.96875 -0.25 
Q 13.140625 0.921875 6.890625 3.21875 
L 6.890625 13.375 
Q 12.890625 10.015625 18.65625 8.296875 
Q 24.421875 6.59375 29.984375 6.59375 
Q 38.421875 6.59375 43.015625 9.90625 
Q 47.609375 13.234375 47.609375 19.390625 
Q 47.609375 24.75 44.3125 27.78125 
Q 41.015625 30.8125 33.5 32.328125 
L 27.484375 33.5 
Q 16.453125 35.6875 11.515625 40.375 
Q 6.59375 45.0625 6.59375 53.421875 
Q 6.59375 63.09375 13.40625 68.65625 
Q 20.21875 74.21875 32.171875 74.21875 
Q 37.3125 74.21875 42.625 73.28125 
Q 47.953125 72.359375 53.515625 70.515625 
z
" id="DejaVuSans-83"/>
     <path d="M 44.28125 53.078125 
L 44.28125 44.578125 
Q 40.484375 46.53125 36.375 47.5 
Q 32.28125 48.484375 27.875 48.484375 
Q 21.1875 48.484375 17.84375 46.4375 
Q 14.5 44.390625 14.5 40.28125 
Q 14.5 37.15625 16.890625 35.375 
Q 19.28125 33.59375 26.515625 31.984375 
L 29.59375 31.296875 
Q 39.15625 29.25 43.1875 25.515625 
Q 47.21875 21.78125 47.21875 15.09375 
Q 47.21875 7.46875 41.1875 3.015625 
Q 35.15625 -1.421875 24.609375 -1.421875 
Q 20.21875 -1.421875 15.453125 -0.5625 
Q 10.6875 0.296875 5.421875 2 
L 5.421875 11.28125 
Q 10.40625 8.6875 15.234375 7.390625 
Q 20.0625 6.109375 24.8125 6.109375 
Q 31.15625 6.109375 34.5625 8.28125 
Q 37.984375 10.453125 37.984375 14.40625 
Q 37.984375 18.0625 35.515625 20.015625 
Q 33.0625 21.96875 24.703125 23.78125 
L 21.578125 24.515625 
Q 13.234375 26.265625 9.515625 29.90625 
Q 5.8125 33.546875 5.8125 39.890625 
Q 5.8125 47.609375 11.28125 51.796875 
Q 16.75 56 26.8125 56 
Q 31.78125 56 36.171875 55.265625 
Q 40.578125 54.546875 44.28125 53.078125 
z
" id="DejaVuSans-115"/>
    </defs>
    <g style="fill:#bb60d5;" transform="translate(93.659989 308.751445)scale(0.16 -0.16)">
     <use xlink:href="#DejaVuSans-85"/>
     <use x="73.193359" xlink:href="#DejaVuSans-110"/>
     <use x="136.572266" xlink:href="#DejaVuSans-105"/>
     <use x="164.355469" xlink:href="#DejaVuSans-116"/>
     <use x="203.564453" xlink:href="#DejaVuSans-101"/>
     <use x="265.087891" xlink:href="#DejaVuSans-100"/>
     <use x="328.564453" xlink:href="#DejaVuSans-32"/>
     <use x="360.351562" xlink:href="#DejaVuSans-83"/>
     <use x="423.828125" xlink:href="#DejaVuSans-116"/>
     <use x="463.037109" xlink:href="#DejaVuSans-97"/>
     <use x="524.316406" xlink:href="#DejaVuSans-116"/>
     <use x="563.525391" xlink:href="#DejaVuSans-101"/>
     <use x="625.048828" xlink:href="#DejaVuSans-115"/>
    </g>
   </g>
   <g id="text_20">
    <!-- India -->
    <defs>
     <path d="M 9.8125 72.90625 
L 19.671875 72.90625 
L 19.671875 0 
L 9.8125 0 
z
" id="DejaVuSans-73"/>
    </defs>
    <g style="fill:#b27d12;" transform="translate(553.24908 99.841327)scale(0.16 -0.16)">
     <use xlink:href="#DejaVuSans-73"/>
     <use x="29.492188" xlink:href="#DejaVuSans-110"/>
     <use x="92.871094" xlink:href="#DejaVuSans-100"/>
     <use x="156.347656" xlink:href="#DejaVuSans-105"/>
     <use x="184.130859" xlink:href="#DejaVuSans-97"/>
    </g>
   </g>
   <g id="text_21">
    <!-- Source: OECD, Indicators of product market regulation -->
    <defs>
     <path d="M 8.5 21.578125 
L 8.5 54.6875 
L 17.484375 54.6875 
L 17.484375 21.921875 
Q 17.484375 14.15625 20.5 10.265625 
Q 23.53125 6.390625 29.59375 6.390625 
Q 36.859375 6.390625 41.078125 11.03125 
Q 45.3125 15.671875 45.3125 23.6875 
L 45.3125 54.6875 
L 54.296875 54.6875 
L 54.296875 0 
L 45.3125 0 
L 45.3125 8.40625 
Q 42.046875 3.421875 37.71875 1 
Q 33.40625 -1.421875 27.6875 -1.421875 
Q 18.265625 -1.421875 13.375 4.4375 
Q 8.5 10.296875 8.5 21.578125 
z
M 31.109375 56 
z
" id="DejaVuSans-117"/>
     <path d="M 11.71875 12.40625 
L 22.015625 12.40625 
L 22.015625 0 
L 11.71875 0 
z
M 11.71875 51.703125 
L 22.015625 51.703125 
L 22.015625 39.3125 
L 11.71875 39.3125 
z
" id="DejaVuSans-58"/>
     <path d="M 39.40625 66.21875 
Q 28.65625 66.21875 22.328125 58.203125 
Q 16.015625 50.203125 16.015625 36.375 
Q 16.015625 22.609375 22.328125 14.59375 
Q 28.65625 6.59375 39.40625 6.59375 
Q 50.140625 6.59375 56.421875 14.59375 
Q 62.703125 22.609375 62.703125 36.375 
Q 62.703125 50.203125 56.421875 58.203125 
Q 50.140625 66.21875 39.40625 66.21875 
z
M 39.40625 74.21875 
Q 54.734375 74.21875 63.90625 63.9375 
Q 73.09375 53.65625 73.09375 36.375 
Q 73.09375 19.140625 63.90625 8.859375 
Q 54.734375 -1.421875 39.40625 -1.421875 
Q 24.03125 -1.421875 14.8125 8.828125 
Q 5.609375 19.09375 5.609375 36.375 
Q 5.609375 53.65625 14.8125 63.9375 
Q 24.03125 74.21875 39.40625 74.21875 
z
" id="DejaVuSans-79"/>
     <path d="M 9.8125 72.90625 
L 55.90625 72.90625 
L 55.90625 64.59375 
L 19.671875 64.59375 
L 19.671875 43.015625 
L 54.390625 43.015625 
L 54.390625 34.71875 
L 19.671875 34.71875 
L 19.671875 8.296875 
L 56.78125 8.296875 
L 56.78125 0 
L 9.8125 0 
z
" id="DejaVuSans-69"/>
     <path d="M 64.40625 67.28125 
L 64.40625 56.890625 
Q 59.421875 61.53125 53.78125 63.8125 
Q 48.140625 66.109375 41.796875 66.109375 
Q 29.296875 66.109375 22.65625 58.46875 
Q 16.015625 50.828125 16.015625 36.375 
Q 16.015625 21.96875 22.65625 14.328125 
Q 29.296875 6.6875 41.796875 6.6875 
Q 48.140625 6.6875 53.78125 8.984375 
Q 59.421875 11.28125 64.40625 15.921875 
L 64.40625 5.609375 
Q 59.234375 2.09375 53.4375 0.328125 
Q 47.65625 -1.421875 41.21875 -1.421875 
Q 24.65625 -1.421875 15.125 8.703125 
Q 5.609375 18.84375 5.609375 36.375 
Q 5.609375 53.953125 15.125 64.078125 
Q 24.65625 74.21875 41.21875 74.21875 
Q 47.75 74.21875 53.53125 72.484375 
Q 59.328125 70.75 64.40625 67.28125 
z
" id="DejaVuSans-67"/>
     <path d="M 19.671875 64.796875 
L 19.671875 8.109375 
L 31.59375 8.109375 
Q 46.6875 8.109375 53.6875 14.9375 
Q 60.6875 21.78125 60.6875 36.53125 
Q 60.6875 51.171875 53.6875 57.984375 
Q 46.6875 64.796875 31.59375 64.796875 
z
M 9.8125 72.90625 
L 30.078125 72.90625 
Q 51.265625 72.90625 61.171875 64.09375 
Q 71.09375 55.28125 71.09375 36.53125 
Q 71.09375 17.671875 61.125 8.828125 
Q 51.171875 0 30.078125 0 
L 9.8125 0 
z
" id="DejaVuSans-68"/>
     <path d="M 11.71875 12.40625 
L 22.015625 12.40625 
L 22.015625 4 
L 14.015625 -11.625 
L 7.71875 -11.625 
L 11.71875 4 
z
" id="DejaVuSans-44"/>
     <path d="M 37.109375 75.984375 
L 37.109375 68.5 
L 28.515625 68.5 
Q 23.6875 68.5 21.796875 66.546875 
Q 19.921875 64.59375 19.921875 59.515625 
L 19.921875 54.6875 
L 34.71875 54.6875 
L 34.71875 47.703125 
L 19.921875 47.703125 
L 19.921875 0 
L 10.890625 0 
L 10.890625 47.703125 
L 2.296875 47.703125 
L 2.296875 54.6875 
L 10.890625 54.6875 
L 10.890625 58.5 
Q 10.890625 67.625 15.140625 71.796875 
Q 19.390625 75.984375 28.609375 75.984375 
z
" id="DejaVuSans-102"/>
     <path d="M 18.109375 8.203125 
L 18.109375 -20.796875 
L 9.078125 -20.796875 
L 9.078125 54.6875 
L 18.109375 54.6875 
L 18.109375 46.390625 
Q 20.953125 51.265625 25.265625 53.625 
Q 29.59375 56 35.59375 56 
Q 45.5625 56 51.78125 48.09375 
Q 58.015625 40.1875 58.015625 27.296875 
Q 58.015625 14.40625 51.78125 6.484375 
Q 45.5625 -1.421875 35.59375 -1.421875 
Q 29.59375 -1.421875 25.265625 0.953125 
Q 20.953125 3.328125 18.109375 8.203125 
z
M 48.6875 27.296875 
Q 48.6875 37.203125 44.609375 42.84375 
Q 40.53125 48.484375 33.40625 48.484375 
Q 26.265625 48.484375 22.1875 42.84375 
Q 18.109375 37.203125 18.109375 27.296875 
Q 18.109375 17.390625 22.1875 11.75 
Q 26.265625 6.109375 33.40625 6.109375 
Q 40.53125 6.109375 44.609375 11.75 
Q 48.6875 17.390625 48.6875 27.296875 
z
" id="DejaVuSans-112"/>
     <path d="M 9.078125 75.984375 
L 18.109375 75.984375 
L 18.109375 31.109375 
L 44.921875 54.6875 
L 56.390625 54.6875 
L 27.390625 29.109375 
L 57.625 0 
L 45.90625 0 
L 18.109375 26.703125 
L 18.109375 0 
L 9.078125 0 
z
" id="DejaVuSans-107"/>
    </defs>
    <g style="fill:#262626;" transform="translate(87.572716 532.487881)scale(0.16 -0.16)">
     <use xlink:href="#DejaVuSans-83"/>
     <use x="63.476562" xlink:href="#DejaVuSans-111"/>
     <use x="124.658203" xlink:href="#DejaVuSans-117"/>
     <use x="188.037109" xlink:href="#DejaVuSans-114"/>
     <use x="229.119141" xlink:href="#DejaVuSans-99"/>
     <use x="284.099609" xlink:href="#DejaVuSans-101"/>
     <use x="345.623047" xlink:href="#DejaVuSans-58"/>
     <use x="379.314453" xlink:href="#DejaVuSans-32"/>
     <use x="411.101562" xlink:href="#DejaVuSans-79"/>
     <use x="489.8125" xlink:href="#DejaVuSans-69"/>
     <use x="552.996094" xlink:href="#DejaVuSans-67"/>
     <use x="622.820312" xlink:href="#DejaVuSans-68"/>
     <use x="699.822266" xlink:href="#DejaVuSans-44"/>
     <use x="731.609375" xlink:href="#DejaVuSans-32"/>
     <use x="763.396484" xlink:href="#DejaVuSans-73"/>
     <use x="792.888672" xlink:href="#DejaVuSans-110"/>
     <use x="856.267578" xlink:href="#DejaVuSans-100"/>
     <use x="919.744141" xlink:href="#DejaVuSans-105"/>
     <use x="947.527344" xlink:href="#DejaVuSans-99"/>
     <use x="1002.507812" xlink:href="#DejaVuSans-97"/>
     <use x="1063.787109" xlink:href="#DejaVuSans-116"/>
     <use x="1102.996094" xlink:href="#DejaVuSans-111"/>
     <use x="1164.177734" xlink:href="#DejaVuSans-114"/>
     <use x="1205.291016" xlink:href="#DejaVuSans-115"/>
     <use x="1257.390625" xlink:href="#DejaVuSans-32"/>
     <use x="1289.177734" xlink:href="#DejaVuSans-111"/>
     <use x="1350.359375" xlink:href="#DejaVuSans-102"/>
     <use x="1385.564453" xlink:href="#DejaVuSans-32"/>
     <use x="1417.351562" xlink:href="#DejaVuSans-112"/>
     <use x="1480.828125" xlink:href="#DejaVuSans-114"/>
     <use x="1521.910156" xlink:href="#DejaVuSans-111"/>
     <use x="1583.091797" xlink:href="#DejaVuSans-100"/>
     <use x="1646.568359" xlink:href="#DejaVuSans-117"/>
     <use x="1709.947266" xlink:href="#DejaVuSans-99"/>
     <use x="1764.927734" xlink:href="#DejaVuSans-116"/>
     <use x="1804.136719" xlink:href="#DejaVuSans-32"/>
     <use x="1835.923828" xlink:href="#DejaVuSans-109"/>
     <use x="1933.335938" xlink:href="#DejaVuSans-97"/>
     <use x="1994.615234" xlink:href="#DejaVuSans-114"/>
     <use x="2035.728516" xlink:href="#DejaVuSans-107"/>
     <use x="2093.591797" xlink:href="#DejaVuSans-101"/>
     <use x="2155.115234" xlink:href="#DejaVuSans-116"/>
     <use x="2194.324219" xlink:href="#DejaVuSans-32"/>
     <use x="2226.111328" xlink:href="#DejaVuSans-114"/>
     <use x="2267.193359" xlink:href="#DejaVuSans-101"/>
     <use x="2328.716797" xlink:href="#DejaVuSans-103"/>
     <use x="2392.193359" xlink:href="#DejaVuSans-117"/>
     <use x="2455.572266" xlink:href="#DejaVuSans-108"/>
     <use x="2483.355469" xlink:href="#DejaVuSans-97"/>
     <use x="2544.634766" xlink:href="#DejaVuSans-116"/>
     <use x="2583.84375" xlink:href="#DejaVuSans-105"/>
     <use x="2611.626953" xlink:href="#DejaVuSans-111"/>
     <use x="2672.808594" xlink:href="#DejaVuSans-110"/>
    </g>
   </g>
   <g id="text_22">
    <!-- Product Market Regulation Index -->
    <defs>
     <path d="M 54.890625 54.6875 
L 35.109375 28.078125 
L 55.90625 0 
L 45.3125 0 
L 29.390625 21.484375 
L 13.484375 0 
L 2.875 0 
L 24.125 28.609375 
L 4.6875 54.6875 
L 15.28125 54.6875 
L 29.78125 35.203125 
L 44.28125 54.6875 
z
" id="DejaVuSans-120"/>
    </defs>
    <g style="fill:#262626;" transform="translate(232.541525 22.51845)scale(0.2016 -0.2016)">
     <use xlink:href="#DejaVuSans-80"/>
     <use x="60.287109" xlink:href="#DejaVuSans-114"/>
     <use x="101.369141" xlink:href="#DejaVuSans-111"/>
     <use x="162.550781" xlink:href="#DejaVuSans-100"/>
     <use x="226.027344" xlink:href="#DejaVuSans-117"/>
     <use x="289.40625" xlink:href="#DejaVuSans-99"/>
     <use x="344.386719" xlink:href="#DejaVuSans-116"/>
     <use x="383.595703" xlink:href="#DejaVuSans-32"/>
     <use x="415.382812" xlink:href="#DejaVuSans-77"/>
     <use x="501.662109" xlink:href="#DejaVuSans-97"/>
     <use x="562.941406" xlink:href="#DejaVuSans-114"/>
     <use x="604.054688" xlink:href="#DejaVuSans-107"/>
     <use x="661.917969" xlink:href="#DejaVuSans-101"/>
     <use x="723.441406" xlink:href="#DejaVuSans-116"/>
     <use x="762.650391" xlink:href="#DejaVuSans-32"/>
     <use x="794.4375" xlink:href="#DejaVuSans-82"/>
     <use x="863.857422" xlink:href="#DejaVuSans-101"/>
     <use x="925.380859" xlink:href="#DejaVuSans-103"/>
     <use x="988.857422" xlink:href="#DejaVuSans-117"/>
     <use x="1052.236328" xlink:href="#DejaVuSans-108"/>
     <use x="1080.019531" xlink:href="#DejaVuSans-97"/>
     <use x="1141.298828" xlink:href="#DejaVuSans-116"/>
     <use x="1180.507812" xlink:href="#DejaVuSans-105"/>
     <use x="1208.291016" xlink:href="#DejaVuSans-111"/>
     <use x="1269.472656" xlink:href="#DejaVuSans-110"/>
     <use x="1332.851562" xlink:href="#DejaVuSans-32"/>
     <use x="1364.638672" xlink:href="#DejaVuSans-73"/>
     <use x="1394.130859" xlink:href="#DejaVuSans-110"/>
     <use x="1457.509766" xlink:href="#DejaVuSans-100"/>
     <use x="1520.986328" xlink:href="#DejaVuSans-101"/>
     <use x="1582.494141" xlink:href="#DejaVuSans-120"/>
    </g>
   </g>
  </g>
 </g>
 <defs>
  <clipPath id="pff06accf76">
   <rect height="434.88" width="669.6" x="63.223625" y="28.51845"/>
  </clipPath>
 </defs>
</svg>
