<?xml version="1.0" encoding="utf-8" standalone="no"?>
<!DOCTYPE svg PUBLIC "-//W3C//DTD SVG 1.1//EN"
  "http://www.w3.org/Graphics/SVG/1.1/DTD/svg11.dtd">
<!-- Created with matplotlib (https://matplotlib.org/) -->
<svg height="277.507562pt" version="1.1" viewBox="0 0 397.63475 277.507562" width="397.63475pt" xmlns="http://www.w3.org/2000/svg" xmlns:xlink="http://www.w3.org/1999/xlink">
 <defs>
  <style type="text/css">
*{stroke-linecap:butt;stroke-linejoin:round;}
  </style>
 </defs>
 <g id="figure_1">
  <g id="patch_1">
   <path d="M 0 277.507562 
L 397.63475 277.507562 
L 397.63475 0 
L 0 0 
z
" style="fill:#ffffff;"/>
  </g>
  <g id="axes_1">
   <g id="patch_2">
    <path d="M 55.63475 224.64 
L 390.43475 224.64 
L 390.43475 7.2 
L 55.63475 7.2 
z
" style="fill:#ffffff;"/>
   </g>
   <g id="matplotlib.axis_1">
    <g id="xtick_1">
     <g id="line2d_1">
      <path clip-path="url(#p898569f0a9)" d="M 108.339102 224.64 
L 108.339102 7.2 
" style="fill:none;stroke:#cccccc;stroke-linecap:round;stroke-opacity:0.9;"/>
     </g>
     <g id="text_1">
      <!-- 5 -->
      <defs>
       <path d="M 4.15625 18.75 
L 13.375 19.53125 
Q 14.40625 12.796875 18.140625 9.390625 
Q 21.875 6 27.15625 6 
Q 33.5 6 37.890625 10.78125 
Q 42.28125 15.578125 42.28125 23.484375 
Q 42.28125 31 38.0625 35.34375 
Q 33.84375 39.703125 27 39.703125 
Q 22.75 39.703125 19.328125 37.765625 
Q 15.921875 35.84375 13.96875 32.765625 
L 5.71875 33.84375 
L 12.640625 70.609375 
L 48.25 70.609375 
L 48.25 62.203125 
L 19.671875 62.203125 
L 15.828125 42.96875 
Q 22.265625 47.46875 29.34375 47.46875 
Q 38.71875 47.46875 45.15625 40.96875 
Q 51.609375 34.46875 51.609375 24.265625 
Q 51.609375 14.546875 45.953125 7.46875 
Q 39.0625 -1.21875 27.15625 -1.21875 
Q 17.390625 -1.21875 11.203125 4.25 
Q 5.03125 9.71875 4.15625 18.75 
z
" id="ArialMT-53"/>
      </defs>
      <g style="fill:#262626;" transform="translate(104.446446 248.160937)scale(0.14 -0.14)">
       <use xlink:href="#ArialMT-53"/>
      </g>
     </g>
    </g>
    <g id="xtick_2">
     <g id="line2d_2">
      <path clip-path="url(#p898569f0a9)" d="M 171.485131 224.64 
L 171.485131 7.2 
" style="fill:none;stroke:#cccccc;stroke-linecap:round;stroke-opacity:0.9;"/>
     </g>
     <g id="text_2">
      <!-- 10 -->
      <defs>
       <path d="M 37.25 0 
L 28.46875 0 
L 28.46875 56 
Q 25.296875 52.984375 20.140625 49.953125 
Q 14.984375 46.921875 10.890625 45.40625 
L 10.890625 53.90625 
Q 18.265625 57.375 23.78125 62.296875 
Q 29.296875 67.234375 31.59375 71.875 
L 37.25 71.875 
z
" id="ArialMT-49"/>
       <path d="M 4.15625 35.296875 
Q 4.15625 48 6.765625 55.734375 
Q 9.375 63.484375 14.515625 67.671875 
Q 19.671875 71.875 27.484375 71.875 
Q 33.25 71.875 37.59375 69.546875 
Q 41.9375 67.234375 44.765625 62.859375 
Q 47.609375 58.5 49.21875 52.21875 
Q 50.828125 45.953125 50.828125 35.296875 
Q 50.828125 22.703125 48.234375 14.96875 
Q 45.65625 7.234375 40.5 3 
Q 35.359375 -1.21875 27.484375 -1.21875 
Q 17.140625 -1.21875 11.234375 6.203125 
Q 4.15625 15.140625 4.15625 35.296875 
z
M 13.1875 35.296875 
Q 13.1875 17.671875 17.3125 11.828125 
Q 21.4375 6 27.484375 6 
Q 33.546875 6 37.671875 11.859375 
Q 41.796875 17.71875 41.796875 35.296875 
Q 41.796875 52.984375 37.671875 58.78125 
Q 33.546875 64.59375 27.390625 64.59375 
Q 21.34375 64.59375 17.71875 59.46875 
Q 13.1875 52.9375 13.1875 35.296875 
z
" id="ArialMT-48"/>
      </defs>
      <g style="fill:#262626;" transform="translate(163.699818 248.160937)scale(0.14 -0.14)">
       <use xlink:href="#ArialMT-49"/>
       <use x="55.615234" xlink:href="#ArialMT-48"/>
      </g>
     </g>
    </g>
    <g id="xtick_3">
     <g id="line2d_3">
      <path clip-path="url(#p898569f0a9)" d="M 234.631159 224.64 
L 234.631159 7.2 
" style="fill:none;stroke:#cccccc;stroke-linecap:round;stroke-opacity:0.9;"/>
     </g>
     <g id="text_3">
      <!-- 15 -->
      <g style="fill:#262626;" transform="translate(226.845847 248.160937)scale(0.14 -0.14)">
       <use xlink:href="#ArialMT-49"/>
       <use x="55.615234" xlink:href="#ArialMT-53"/>
      </g>
     </g>
    </g>
    <g id="xtick_4">
     <g id="line2d_4">
      <path clip-path="url(#p898569f0a9)" d="M 297.777188 224.64 
L 297.777188 7.2 
" style="fill:none;stroke:#cccccc;stroke-linecap:round;stroke-opacity:0.9;"/>
     </g>
     <g id="text_4">
      <!-- 20 -->
      <defs>
       <path d="M 50.34375 8.453125 
L 50.34375 0 
L 3.03125 0 
Q 2.9375 3.171875 4.046875 6.109375 
Q 5.859375 10.9375 9.828125 15.625 
Q 13.8125 20.3125 21.34375 26.46875 
Q 33.015625 36.03125 37.109375 41.625 
Q 41.21875 47.21875 41.21875 52.203125 
Q 41.21875 57.421875 37.46875 61 
Q 33.734375 64.59375 27.734375 64.59375 
Q 21.390625 64.59375 17.578125 60.78125 
Q 13.765625 56.984375 13.71875 50.25 
L 4.6875 51.171875 
Q 5.609375 61.28125 11.65625 66.578125 
Q 17.71875 71.875 27.9375 71.875 
Q 38.234375 71.875 44.234375 66.15625 
Q 50.25 60.453125 50.25 52 
Q 50.25 47.703125 48.484375 43.546875 
Q 46.734375 39.40625 42.65625 34.8125 
Q 38.578125 30.21875 29.109375 22.21875 
Q 21.1875 15.578125 18.9375 13.203125 
Q 16.703125 10.84375 15.234375 8.453125 
z
" id="ArialMT-50"/>
      </defs>
      <g style="fill:#262626;" transform="translate(289.991875 248.160937)scale(0.14 -0.14)">
       <use xlink:href="#ArialMT-50"/>
       <use x="55.615234" xlink:href="#ArialMT-48"/>
      </g>
     </g>
    </g>
    <g id="xtick_5">
     <g id="line2d_5">
      <path clip-path="url(#p898569f0a9)" d="M 360.923216 224.64 
L 360.923216 7.2 
" style="fill:none;stroke:#cccccc;stroke-linecap:round;stroke-opacity:0.9;"/>
     </g>
     <g id="text_5">
      <!-- 25 -->
      <g style="fill:#262626;" transform="translate(353.137903 248.160937)scale(0.14 -0.14)">
       <use xlink:href="#ArialMT-50"/>
       <use x="55.615234" xlink:href="#ArialMT-53"/>
      </g>
     </g>
    </g>
    <g id="text_6">
     <!-- UR, % -->
     <defs>
      <path d="M 54.6875 71.578125 
L 64.15625 71.578125 
L 64.15625 30.21875 
Q 64.15625 19.4375 61.71875 13.078125 
Q 59.28125 6.734375 52.90625 2.75 
Q 46.53125 -1.21875 36.1875 -1.21875 
Q 26.125 -1.21875 19.71875 2.25 
Q 13.328125 5.71875 10.59375 12.28125 
Q 7.859375 18.84375 7.859375 30.21875 
L 7.859375 71.578125 
L 17.328125 71.578125 
L 17.328125 30.28125 
Q 17.328125 20.953125 19.0625 16.53125 
Q 20.796875 12.109375 25.015625 9.71875 
Q 29.25 7.328125 35.359375 7.328125 
Q 45.796875 7.328125 50.234375 12.0625 
Q 54.6875 16.796875 54.6875 30.28125 
z
" id="ArialMT-85"/>
      <path d="M 7.859375 0 
L 7.859375 71.578125 
L 39.59375 71.578125 
Q 49.171875 71.578125 54.140625 69.640625 
Q 59.125 67.71875 62.109375 62.828125 
Q 65.09375 57.953125 65.09375 52.046875 
Q 65.09375 44.4375 60.15625 39.203125 
Q 55.21875 33.984375 44.921875 32.5625 
Q 48.6875 30.765625 50.640625 29 
Q 54.78125 25.203125 58.5 19.484375 
L 70.953125 0 
L 59.03125 0 
L 49.5625 14.890625 
Q 45.40625 21.34375 42.71875 24.75 
Q 40.046875 28.171875 37.921875 29.53125 
Q 35.796875 30.90625 33.59375 31.453125 
Q 31.984375 31.78125 28.328125 31.78125 
L 17.328125 31.78125 
L 17.328125 0 
z
M 17.328125 39.984375 
L 37.703125 39.984375 
Q 44.1875 39.984375 47.84375 41.328125 
Q 51.515625 42.671875 53.421875 45.625 
Q 55.328125 48.578125 55.328125 52.046875 
Q 55.328125 57.125 51.640625 60.390625 
Q 47.953125 63.671875 39.984375 63.671875 
L 17.328125 63.671875 
z
" id="ArialMT-82"/>
      <path d="M 8.890625 0 
L 8.890625 10.015625 
L 18.890625 10.015625 
L 18.890625 0 
Q 18.890625 -5.515625 16.9375 -8.90625 
Q 14.984375 -12.3125 10.75 -14.15625 
L 8.296875 -10.40625 
Q 11.078125 -9.1875 12.390625 -6.8125 
Q 13.71875 -4.4375 13.875 0 
z
" id="ArialMT-44"/>
      <path id="ArialMT-32"/>
      <path d="M 5.8125 54.390625 
Q 5.8125 62.0625 9.671875 67.421875 
Q 13.53125 72.796875 20.84375 72.796875 
Q 27.59375 72.796875 32 67.984375 
Q 36.421875 63.1875 36.421875 53.859375 
Q 36.421875 44.78125 31.953125 39.875 
Q 27.484375 34.96875 20.953125 34.96875 
Q 14.453125 34.96875 10.125 39.796875 
Q 5.8125 44.625 5.8125 54.390625 
z
M 21.09375 66.75 
Q 17.828125 66.75 15.65625 63.90625 
Q 13.484375 61.078125 13.484375 53.515625 
Q 13.484375 46.625 15.671875 43.8125 
Q 17.875 41.015625 21.09375 41.015625 
Q 24.421875 41.015625 26.59375 43.84375 
Q 28.765625 46.6875 28.765625 54.203125 
Q 28.765625 61.140625 26.5625 63.9375 
Q 24.359375 66.75 21.09375 66.75 
z
M 21.140625 -2.640625 
L 60.296875 72.796875 
L 67.4375 72.796875 
L 28.421875 -2.640625 
z
M 52.09375 16.796875 
Q 52.09375 24.515625 55.953125 29.859375 
Q 59.8125 35.203125 67.1875 35.203125 
Q 73.921875 35.203125 78.34375 30.390625 
Q 82.765625 25.59375 82.765625 16.265625 
Q 82.765625 7.171875 78.296875 2.265625 
Q 73.828125 -2.640625 67.234375 -2.640625 
Q 60.75 -2.640625 56.421875 2.21875 
Q 52.09375 7.078125 52.09375 16.796875 
z
M 67.4375 29.15625 
Q 64.109375 29.15625 61.9375 26.3125 
Q 59.765625 23.484375 59.765625 15.921875 
Q 59.765625 9.078125 61.953125 6.25 
Q 64.15625 3.421875 67.390625 3.421875 
Q 70.75 3.421875 72.921875 6.25 
Q 75.09375 9.078125 75.09375 16.609375 
Q 75.09375 23.53125 72.890625 26.34375 
Q 70.703125 29.15625 67.4375 29.15625 
z
" id="ArialMT-37"/>
     </defs>
     <g style="fill:#262626;" transform="translate(198.765312 266.968562)scale(0.168 -0.168)">
      <use xlink:href="#ArialMT-85"/>
      <use x="72.216797" xlink:href="#ArialMT-82"/>
      <use x="144.433594" xlink:href="#ArialMT-44"/>
      <use x="172.216797" xlink:href="#ArialMT-32"/>
      <use x="200" xlink:href="#ArialMT-37"/>
     </g>
    </g>
   </g>
   <g id="matplotlib.axis_2">
    <g id="ytick_1">
     <g id="line2d_6">
      <path clip-path="url(#p898569f0a9)" d="M 55.63475 213.199131 
L 390.43475 213.199131 
" style="fill:none;stroke:#cccccc;stroke-linecap:round;stroke-opacity:0.9;"/>
     </g>
     <g id="text_7">
      <!-- 50 -->
      <g style="fill:#262626;" transform="translate(26.564125 218.209599)scale(0.14 -0.14)">
       <use xlink:href="#ArialMT-53"/>
       <use x="55.615234" xlink:href="#ArialMT-48"/>
      </g>
     </g>
    </g>
    <g id="ytick_2">
     <g id="line2d_7">
      <path clip-path="url(#p898569f0a9)" d="M 55.63475 179.750564 
L 390.43475 179.750564 
" style="fill:none;stroke:#cccccc;stroke-linecap:round;stroke-opacity:0.9;"/>
     </g>
     <g id="text_8">
      <!-- 55 -->
      <g style="fill:#262626;" transform="translate(26.564125 184.761032)scale(0.14 -0.14)">
       <use xlink:href="#ArialMT-53"/>
       <use x="55.615234" xlink:href="#ArialMT-53"/>
      </g>
     </g>
    </g>
    <g id="ytick_3">
     <g id="line2d_8">
      <path clip-path="url(#p898569f0a9)" d="M 55.63475 146.301997 
L 390.43475 146.301997 
" style="fill:none;stroke:#cccccc;stroke-linecap:round;stroke-opacity:0.9;"/>
     </g>
     <g id="text_9">
      <!-- 60 -->
      <defs>
       <path d="M 49.75 54.046875 
L 41.015625 53.375 
Q 39.84375 58.546875 37.703125 60.890625 
Q 34.125 64.65625 28.90625 64.65625 
Q 24.703125 64.65625 21.53125 62.3125 
Q 17.390625 59.28125 14.984375 53.46875 
Q 12.59375 47.65625 12.5 36.921875 
Q 15.671875 41.75 20.265625 44.09375 
Q 24.859375 46.4375 29.890625 46.4375 
Q 38.671875 46.4375 44.84375 39.96875 
Q 51.03125 33.5 51.03125 23.25 
Q 51.03125 16.5 48.125 10.71875 
Q 45.21875 4.9375 40.140625 1.859375 
Q 35.0625 -1.21875 28.609375 -1.21875 
Q 17.625 -1.21875 10.6875 6.859375 
Q 3.765625 14.9375 3.765625 33.5 
Q 3.765625 54.25 11.421875 63.671875 
Q 18.109375 71.875 29.4375 71.875 
Q 37.890625 71.875 43.28125 67.140625 
Q 48.6875 62.40625 49.75 54.046875 
z
M 13.875 23.1875 
Q 13.875 18.65625 15.796875 14.5 
Q 17.71875 10.359375 21.1875 8.171875 
Q 24.65625 6 28.46875 6 
Q 34.03125 6 38.03125 10.484375 
Q 42.046875 14.984375 42.046875 22.703125 
Q 42.046875 30.125 38.078125 34.390625 
Q 34.125 38.671875 28.125 38.671875 
Q 22.171875 38.671875 18.015625 34.390625 
Q 13.875 30.125 13.875 23.1875 
z
" id="ArialMT-54"/>
      </defs>
      <g style="fill:#262626;" transform="translate(26.564125 151.312466)scale(0.14 -0.14)">
       <use xlink:href="#ArialMT-54"/>
       <use x="55.615234" xlink:href="#ArialMT-48"/>
      </g>
     </g>
    </g>
    <g id="ytick_4">
     <g id="line2d_9">
      <path clip-path="url(#p898569f0a9)" d="M 55.63475 112.85343 
L 390.43475 112.85343 
" style="fill:none;stroke:#cccccc;stroke-linecap:round;stroke-opacity:0.9;"/>
     </g>
     <g id="text_10">
      <!-- 65 -->
      <g style="fill:#262626;" transform="translate(26.564125 117.863899)scale(0.14 -0.14)">
       <use xlink:href="#ArialMT-54"/>
       <use x="55.615234" xlink:href="#ArialMT-53"/>
      </g>
     </g>
    </g>
    <g id="ytick_5">
     <g id="line2d_10">
      <path clip-path="url(#p898569f0a9)" d="M 55.63475 79.404863 
L 390.43475 79.404863 
" style="fill:none;stroke:#cccccc;stroke-linecap:round;stroke-opacity:0.9;"/>
     </g>
     <g id="text_11">
      <!-- 70 -->
      <defs>
       <path d="M 4.734375 62.203125 
L 4.734375 70.65625 
L 51.078125 70.65625 
L 51.078125 63.8125 
Q 44.234375 56.546875 37.515625 44.484375 
Q 30.8125 32.421875 27.15625 19.671875 
Q 24.515625 10.6875 23.78125 0 
L 14.75 0 
Q 14.890625 8.453125 18.0625 20.40625 
Q 21.234375 32.375 27.171875 43.484375 
Q 33.109375 54.59375 39.796875 62.203125 
z
" id="ArialMT-55"/>
      </defs>
      <g style="fill:#262626;" transform="translate(26.564125 84.415332)scale(0.14 -0.14)">
       <use xlink:href="#ArialMT-55"/>
       <use x="55.615234" xlink:href="#ArialMT-48"/>
      </g>
     </g>
    </g>
    <g id="ytick_6">
     <g id="line2d_11">
      <path clip-path="url(#p898569f0a9)" d="M 55.63475 45.956296 
L 390.43475 45.956296 
" style="fill:none;stroke:#cccccc;stroke-linecap:round;stroke-opacity:0.9;"/>
     </g>
     <g id="text_12">
      <!-- 75 -->
      <g style="fill:#262626;" transform="translate(26.564125 50.966765)scale(0.14 -0.14)">
       <use xlink:href="#ArialMT-55"/>
       <use x="55.615234" xlink:href="#ArialMT-53"/>
      </g>
     </g>
    </g>
    <g id="ytick_7">
     <g id="line2d_12">
      <path clip-path="url(#p898569f0a9)" d="M 55.63475 12.507729 
L 390.43475 12.507729 
" style="fill:none;stroke:#cccccc;stroke-linecap:round;stroke-opacity:0.9;"/>
     </g>
     <g id="text_13">
      <!-- 80 -->
      <defs>
       <path d="M 17.671875 38.8125 
Q 12.203125 40.828125 9.5625 44.53125 
Q 6.9375 48.25 6.9375 53.421875 
Q 6.9375 61.234375 12.546875 66.546875 
Q 18.171875 71.875 27.484375 71.875 
Q 36.859375 71.875 42.578125 66.421875 
Q 48.296875 60.984375 48.296875 53.171875 
Q 48.296875 48.1875 45.671875 44.5 
Q 43.0625 40.828125 37.75 38.8125 
Q 44.34375 36.671875 47.78125 31.875 
Q 51.21875 27.09375 51.21875 20.453125 
Q 51.21875 11.28125 44.71875 5.03125 
Q 38.234375 -1.21875 27.640625 -1.21875 
Q 17.046875 -1.21875 10.546875 5.046875 
Q 4.046875 11.328125 4.046875 20.703125 
Q 4.046875 27.6875 7.59375 32.390625 
Q 11.140625 37.109375 17.671875 38.8125 
z
M 15.921875 53.71875 
Q 15.921875 48.640625 19.1875 45.40625 
Q 22.46875 42.1875 27.6875 42.1875 
Q 32.765625 42.1875 36.015625 45.375 
Q 39.265625 48.578125 39.265625 53.21875 
Q 39.265625 58.0625 35.90625 61.359375 
Q 32.5625 64.65625 27.59375 64.65625 
Q 22.5625 64.65625 19.234375 61.421875 
Q 15.921875 58.203125 15.921875 53.71875 
z
M 13.09375 20.65625 
Q 13.09375 16.890625 14.875 13.375 
Q 16.65625 9.859375 20.171875 7.921875 
Q 23.6875 6 27.734375 6 
Q 34.03125 6 38.125 10.046875 
Q 42.234375 14.109375 42.234375 20.359375 
Q 42.234375 26.703125 38.015625 30.859375 
Q 33.796875 35.015625 27.4375 35.015625 
Q 21.234375 35.015625 17.15625 30.90625 
Q 13.09375 26.8125 13.09375 20.65625 
z
" id="ArialMT-56"/>
      </defs>
      <g style="fill:#262626;" transform="translate(26.564125 17.518198)scale(0.14 -0.14)">
       <use xlink:href="#ArialMT-56"/>
       <use x="55.615234" xlink:href="#ArialMT-48"/>
      </g>
     </g>
    </g>
    <g id="text_14">
     <!-- LFPR, % -->
     <defs>
      <path d="M 7.328125 0 
L 7.328125 71.578125 
L 16.796875 71.578125 
L 16.796875 8.453125 
L 52.046875 8.453125 
L 52.046875 0 
z
" id="ArialMT-76"/>
      <path d="M 8.203125 0 
L 8.203125 71.578125 
L 56.5 71.578125 
L 56.5 63.140625 
L 17.671875 63.140625 
L 17.671875 40.96875 
L 51.265625 40.96875 
L 51.265625 32.515625 
L 17.671875 32.515625 
L 17.671875 0 
z
" id="ArialMT-70"/>
      <path d="M 7.71875 0 
L 7.71875 71.578125 
L 34.71875 71.578125 
Q 41.84375 71.578125 45.609375 70.90625 
Q 50.875 70.015625 54.4375 67.546875 
Q 58.015625 65.09375 60.1875 60.640625 
Q 62.359375 56.203125 62.359375 50.875 
Q 62.359375 41.75 56.546875 35.421875 
Q 50.734375 29.109375 35.546875 29.109375 
L 17.1875 29.109375 
L 17.1875 0 
z
M 17.1875 37.546875 
L 35.6875 37.546875 
Q 44.875 37.546875 48.734375 40.96875 
Q 52.59375 44.390625 52.59375 50.59375 
Q 52.59375 55.078125 50.3125 58.265625 
Q 48.046875 61.46875 44.34375 62.5 
Q 41.9375 63.140625 35.5 63.140625 
L 17.1875 63.140625 
z
" id="ArialMT-80"/>
     </defs>
     <g style="fill:#262626;" transform="translate(19.225125 149.527875)rotate(-90)scale(0.168 -0.168)">
      <use xlink:href="#ArialMT-76"/>
      <use x="55.615234" xlink:href="#ArialMT-70"/>
      <use x="116.699219" xlink:href="#ArialMT-80"/>
      <use x="183.398438" xlink:href="#ArialMT-82"/>
      <use x="255.615234" xlink:href="#ArialMT-44"/>
      <use x="283.398438" xlink:href="#ArialMT-32"/>
      <use x="311.181641" xlink:href="#ArialMT-37"/>
     </g>
    </g>
   </g>
   <g id="PathCollection_1">
    <defs>
     <path d="M 0 3 
C 0.795609 3 1.55874 2.683901 2.12132 2.12132 
C 2.683901 1.55874 3 0.795609 3 0 
C 3 -0.795609 2.683901 -1.55874 2.12132 -2.12132 
C 1.55874 -2.683901 0.795609 -3 0 -3 
C -0.795609 -3 -1.55874 -2.683901 -2.12132 -2.12132 
C -2.683901 -1.55874 -3 -0.795609 -3 0 
C -3 0.795609 -2.683901 1.55874 -2.12132 2.12132 
C -1.55874 2.683901 -0.795609 3 0 3 
z
" id="mc1559a59aa" style="stroke:#165aa7;"/>
    </defs>
    <g clip-path="url(#p898569f0a9)">
     <use style="fill:#165aa7;stroke:#165aa7;" x="113.47919" xlink:href="#mc1559a59aa" y="134.12672"/>
     <use style="fill:#165aa7;stroke:#165aa7;" x="119.831678" xlink:href="#mc1559a59aa" y="134.708712"/>
     <use style="fill:#165aa7;stroke:#165aa7;" x="120.526288" xlink:href="#mc1559a59aa" y="136.113571"/>
     <use style="fill:#165aa7;stroke:#165aa7;" x="112.746695" xlink:href="#mc1559a59aa" y="132.8356"/>
     <use style="fill:#165aa7;stroke:#165aa7;" x="124.845476" xlink:href="#mc1559a59aa" y="125.684295"/>
     <use style="fill:#165aa7;stroke:#165aa7;" x="108.793751" xlink:href="#mc1559a59aa" y="117.067931"/>
     <use style="fill:#165aa7;stroke:#165aa7;" x="104.386159" xlink:href="#mc1559a59aa" y="107.080214"/>
     <use style="fill:#165aa7;stroke:#165aa7;" x="92.388416" xlink:href="#mc1559a59aa" y="100.410559"/>
     <use style="fill:#165aa7;stroke:#165aa7;" x="86.200105" xlink:href="#mc1559a59aa" y="101.989332"/>
     <use style="fill:#165aa7;stroke:#165aa7;" x="88.864867" xlink:href="#mc1559a59aa" y="100.042623"/>
     <use style="fill:#165aa7;stroke:#165aa7;" x="92.401044" xlink:href="#mc1559a59aa" y="100.303531"/>
     <use style="fill:#165aa7;stroke:#165aa7;" x="95.987737" xlink:href="#mc1559a59aa" y="98.925442"/>
     <use style="fill:#165aa7;stroke:#165aa7;" x="98.500954" xlink:href="#mc1559a59aa" y="107.481581"/>
     <use style="fill:#165aa7;stroke:#165aa7;" x="98.942974" xlink:href="#mc1559a59aa" y="108.030142"/>
     <use style="fill:#165aa7;stroke:#165aa7;" x="100.521625" xlink:href="#mc1559a59aa" y="110.043762"/>
     <use style="fill:#165aa7;stroke:#165aa7;" x="88.119743" xlink:href="#mc1559a59aa" y="108.297737"/>
     <use style="fill:#165aa7;stroke:#165aa7;" x="76.677684" xlink:href="#mc1559a59aa" y="103.514565"/>
     <use style="fill:#165aa7;stroke:#165aa7;" x="77.397548" xlink:href="#mc1559a59aa" y="96.72451"/>
     <use style="fill:#165aa7;stroke:#165aa7;" x="84.381498" xlink:href="#mc1559a59aa" y="103.280452"/>
     <use style="fill:#165aa7;stroke:#165aa7;" x="89.660506" xlink:href="#mc1559a59aa" y="108.230825"/>
     <use style="fill:#165aa7;stroke:#165aa7;" x="85.795969" xlink:href="#mc1559a59aa" y="111.52888"/>
     <use style="fill:#165aa7;stroke:#165aa7;" x="84.634082" xlink:href="#mc1559a59aa" y="110.886663"/>
     <use style="fill:#165aa7;stroke:#165aa7;" x="88.422846" xlink:href="#mc1559a59aa" y="112.913655"/>
     <use style="fill:#165aa7;stroke:#165aa7;" x="89.193226" xlink:href="#mc1559a59aa" y="114.733227"/>
     <use style="fill:#165aa7;stroke:#165aa7;" x="99.448142" xlink:href="#mc1559a59aa" y="113.595988"/>
     <use style="fill:#165aa7;stroke:#165aa7;" x="104.285126" xlink:href="#mc1559a59aa" y="117.054559"/>
     <use style="fill:#165aa7;stroke:#165aa7;" x="97.75583" xlink:href="#mc1559a59aa" y="122.279239"/>
     <use style="fill:#165aa7;stroke:#165aa7;" x="94.68693" xlink:href="#mc1559a59aa" y="123.035169"/>
     <use style="fill:#165aa7;stroke:#165aa7;" x="95.293133" xlink:href="#mc1559a59aa" y="123.804498"/>
    </g>
   </g>
   <g id="PathCollection_2">
    <defs>
     <path d="M 0 3 
C 0.795609 3 1.55874 2.683901 2.12132 2.12132 
C 2.683901 1.55874 3 0.795609 3 0 
C 3 -0.795609 2.683901 -1.55874 2.12132 -2.12132 
C 1.55874 -2.683901 0.795609 -3 0 -3 
C -0.795609 -3 -1.55874 -2.683901 -2.12132 -2.12132 
C -2.683901 -1.55874 -3 -0.795609 -3 0 
C -3 0.795609 -2.683901 1.55874 -2.12132 2.12132 
C -1.55874 2.683901 -0.795609 3 0 3 
z
" id="mbb27e19b27" style="stroke:#cb495c;"/>
    </defs>
    <g clip-path="url(#p898569f0a9)">
     <use style="fill:#cb495c;stroke:#cb495c;" x="246.36369" xlink:href="#mbb27e19b27" y="212.657255"/>
     <use style="fill:#cb495c;stroke:#cb495c;" x="268.742646" xlink:href="#mbb27e19b27" y="214.15577"/>
     <use style="fill:#cb495c;stroke:#cb495c;" x="325.068892" xlink:href="#mbb27e19b27" y="214.021973"/>
     <use style="fill:#cb495c;stroke:#cb495c;" x="350.93351" xlink:href="#mbb27e19b27" y="211.841125"/>
     <use style="fill:#cb495c;stroke:#cb495c;" x="331.560303" xlink:href="#mbb27e19b27" y="213.3463"/>
     <use style="fill:#cb495c;stroke:#cb495c;" x="324.828949" xlink:href="#mbb27e19b27" y="211.085169"/>
     <use style="fill:#cb495c;stroke:#cb495c;" x="306.592373" xlink:href="#mbb27e19b27" y="207.827281"/>
     <use style="fill:#cb495c;stroke:#cb495c;" x="281.030858" xlink:href="#mbb27e19b27" y="205.392236"/>
     <use style="fill:#cb495c;stroke:#cb495c;" x="240.642659" xlink:href="#mbb27e19b27" y="201.766413"/>
     <use style="fill:#cb495c;stroke:#cb495c;" x="219.286672" xlink:href="#mbb27e19b27" y="194.374283"/>
     <use style="fill:#cb495c;stroke:#cb495c;" x="175.880089" xlink:href="#mbb27e19b27" y="199.010259"/>
     <use style="fill:#cb495c;stroke:#cb495c;" x="185.958199" xlink:href="#mbb27e19b27" y="188.487328"/>
     <use style="fill:#cb495c;stroke:#cb495c;" x="187.688402" xlink:href="#mbb27e19b27" y="180.854373"/>
     <use style="fill:#cb495c;stroke:#cb495c;" x="185.250967" xlink:href="#mbb27e19b27" y="175.041015"/>
     <use style="fill:#cb495c;stroke:#cb495c;" x="160.699788" xlink:href="#mbb27e19b27" y="167.575287"/>
     <use style="fill:#cb495c;stroke:#cb495c;" x="151.935116" xlink:href="#mbb27e19b27" y="162.223522"/>
     <use style="fill:#cb495c;stroke:#cb495c;" x="149.1567" xlink:href="#mbb27e19b27" y="158.985693"/>
     <use style="fill:#cb495c;stroke:#cb495c;" x="187.322151" xlink:href="#mbb27e19b27" y="154.088833"/>
     <use style="fill:#cb495c;stroke:#cb495c;" x="270.712804" xlink:href="#mbb27e19b27" y="152.730802"/>
     <use style="fill:#cb495c;stroke:#cb495c;" x="296.009106" xlink:href="#mbb27e19b27" y="151.098515"/>
     <use style="fill:#cb495c;stroke:#cb495c;" x="315.331776" xlink:href="#mbb27e19b27" y="151.272454"/>
     <use style="fill:#cb495c;stroke:#cb495c;" x="358.233203" xlink:href="#mbb27e19b27" y="151.27914"/>
     <use style="fill:#cb495c;stroke:#cb495c;" x="374.739565" xlink:href="#mbb27e19b27" y="153.600471"/>
     <use style="fill:#cb495c;stroke:#cb495c;" x="353.86349" xlink:href="#mbb27e19b27" y="156.269681"/>
     <use style="fill:#cb495c;stroke:#cb495c;" x="323.755454" xlink:href="#mbb27e19b27" y="157.400234"/>
     <use style="fill:#cb495c;stroke:#cb495c;" x="293.16753" xlink:href="#mbb27e19b27" y="159.005751"/>
     <use style="fill:#cb495c;stroke:#cb495c;" x="262.718524" xlink:href="#mbb27e19b27" y="161.802072"/>
     <use style="fill:#cb495c;stroke:#cb495c;" x="240.781588" xlink:href="#mbb27e19b27" y="164.069864"/>
     <use style="fill:#cb495c;stroke:#cb495c;" x="230.842395" xlink:href="#mbb27e19b27" y="166.591904"/>
    </g>
   </g>
   <g id="PathCollection_3">
    <defs>
     <path d="M 0 3 
C 0.795609 3 1.55874 2.683901 2.12132 2.12132 
C 2.683901 1.55874 3 0.795609 3 0 
C 3 -0.795609 2.683901 -1.55874 2.12132 -2.12132 
C 1.55874 -2.683901 0.795609 -3 0 -3 
C -0.795609 -3 -1.55874 -2.683901 -2.12132 -2.12132 
C -2.683901 -1.55874 -3 -0.795609 -3 0 
C -3 0.795609 -2.683901 1.55874 -2.12132 2.12132 
C -1.55874 2.683901 -0.795609 3 0 3 
z
" id="m59d553b1b2" style="stroke:#bb60d5;"/>
    </defs>
    <g clip-path="url(#p898569f0a9)">
     <use style="fill:#bb60d5;stroke:#bb60d5;" x="75.503169" xlink:href="#m59d553b1b2" y="18.876359"/>
     <use style="fill:#bb60d5;stroke:#bb60d5;" x="75.503169" xlink:href="#m59d553b1b2" y="19.311156"/>
     <use style="fill:#bb60d5;stroke:#bb60d5;" x="79.29193" xlink:href="#m59d553b1b2" y="19.725946"/>
     <use style="fill:#bb60d5;stroke:#bb60d5;" x="81.817772" xlink:href="#m59d553b1b2" y="20.327995"/>
     <use style="fill:#bb60d5;stroke:#bb60d5;" x="83.080691" xlink:href="#m59d553b1b2" y="21.271237"/>
     <use style="fill:#bb60d5;stroke:#bb60d5;" x="84.34361" xlink:href="#m59d553b1b2" y="22.555671"/>
     <use style="fill:#bb60d5;stroke:#bb60d5;" x="85.606533" xlink:href="#m59d553b1b2" y="24.167874"/>
     <use style="fill:#bb60d5;stroke:#bb60d5;" x="85.606533" xlink:href="#m59d553b1b2" y="26.128006"/>
     <use style="fill:#bb60d5;stroke:#bb60d5;" x="86.869452" xlink:href="#m59d553b1b2" y="28.456024"/>
     <use style="fill:#bb60d5;stroke:#bb60d5;" x="86.869452" xlink:href="#m59d553b1b2" y="31.125182"/>
     <use style="fill:#bb60d5;stroke:#bb60d5;" x="93.184055" xlink:href="#m59d553b1b2" y="35.981951"/>
     <use style="fill:#bb60d5;stroke:#bb60d5;" x="98.235736" xlink:href="#m59d553b1b2" y="41.360487"/>
     <use style="fill:#bb60d5;stroke:#bb60d5;" x="103.287419" xlink:href="#m59d553b1b2" y="46.946391"/>
     <use style="fill:#bb60d5;stroke:#bb60d5;" x="102.0245" xlink:href="#m59d553b1b2" y="52.204476"/>
     <use style="fill:#bb60d5;stroke:#bb60d5;" x="102.0245" xlink:href="#m59d553b1b2" y="56.800336"/>
     <use style="fill:#bb60d5;stroke:#bb60d5;" x="100.76158" xlink:href="#m59d553b1b2" y="60.767301"/>
     <use style="fill:#bb60d5;stroke:#bb60d5;" x="99.498661" xlink:href="#m59d553b1b2" y="64.011816"/>
     <use style="fill:#bb60d5;stroke:#bb60d5;" x="103.287419" xlink:href="#m59d553b1b2" y="66.82822"/>
     <use style="fill:#bb60d5;stroke:#bb60d5;" x="104.550338" xlink:href="#m59d553b1b2" y="69.698113"/>
     <use style="fill:#bb60d5;stroke:#bb60d5;" x="102.0245" xlink:href="#m59d553b1b2" y="72.895775"/>
     <use style="fill:#bb60d5;stroke:#bb60d5;" x="102.0245" xlink:href="#m59d553b1b2" y="74.153413"/>
     <use style="fill:#bb60d5;stroke:#bb60d5;" x="103.287419" xlink:href="#m59d553b1b2" y="75.263908"/>
     <use style="fill:#bb60d5;stroke:#bb60d5;" x="103.287419" xlink:href="#m59d553b1b2" y="76.635312"/>
     <use style="fill:#bb60d5;stroke:#bb60d5;" x="103.287419" xlink:href="#m59d553b1b2" y="78.18734"/>
     <use style="fill:#bb60d5;stroke:#bb60d5;" x="103.287419" xlink:href="#m59d553b1b2" y="80.113991"/>
     <use style="fill:#bb60d5;stroke:#bb60d5;" x="102.0245" xlink:href="#m59d553b1b2" y="82.408527"/>
     <use style="fill:#bb60d5;stroke:#bb60d5;" x="100.76158" xlink:href="#m59d553b1b2" y="84.696429"/>
     <use style="fill:#bb60d5;stroke:#bb60d5;" x="100.976273" xlink:href="#m59d553b1b2" y="87.974374"/>
     <use style="fill:#bb60d5;stroke:#bb60d5;" x="101.064677" xlink:href="#m59d553b1b2" y="91.499856"/>
    </g>
   </g>
   <g id="PathCollection_4">
    <defs>
     <path d="M 0 3 
C 0.795609 3 1.55874 2.683901 2.12132 2.12132 
C 2.683901 1.55874 3 0.795609 3 0 
C 3 -0.795609 2.683901 -1.55874 2.12132 -2.12132 
C 1.55874 -2.683901 0.795609 -3 0 -3 
C -0.795609 -3 -1.55874 -2.683901 -2.12132 -2.12132 
C -2.683901 -1.55874 -3 -0.795609 -3 0 
C -3 0.795609 -2.683901 1.55874 -2.12132 2.12132 
C -1.55874 2.683901 -0.795609 3 0 3 
z
" id="m97379d9d1c" style="stroke:#f47915;"/>
    </defs>
    <g clip-path="url(#p898569f0a9)">
     <use style="fill:#f47915;stroke:#f47915;" x="75.010629" xlink:href="#m97379d9d1c" y="155.687664"/>
     <use style="fill:#f47915;stroke:#f47915;" x="75.604201" xlink:href="#m97379d9d1c" y="155.801378"/>
     <use style="fill:#f47915;stroke:#f47915;" x="77.68802" xlink:href="#m97379d9d1c" y="155.72112"/>
     <use style="fill:#f47915;stroke:#f47915;" x="77.915347" xlink:href="#m97379d9d1c" y="155.426755"/>
     <use style="fill:#f47915;stroke:#f47915;" x="78.167931" xlink:href="#m97379d9d1c" y="156.584078"/>
     <use style="fill:#f47915;stroke:#f47915;" x="78.849907" xlink:href="#m97379d9d1c" y="157.922026"/>
     <use style="fill:#f47915;stroke:#f47915;" x="78.407886" xlink:href="#m97379d9d1c" y="159.259973"/>
     <use style="fill:#f47915;stroke:#f47915;" x="78.925682" xlink:href="#m97379d9d1c" y="160.584524"/>
     <use style="fill:#f47915;stroke:#f47915;" x="79.847614" xlink:href="#m97379d9d1c" y="161.862272"/>
     <use style="fill:#f47915;stroke:#f47915;" x="79.683434" xlink:href="#m97379d9d1c" y="163.073108"/>
     <use style="fill:#f47915;stroke:#f47915;" x="81.413636" xlink:href="#m97379d9d1c" y="161.875644"/>
     <use style="fill:#f47915;stroke:#f47915;" x="83.73741" xlink:href="#m97379d9d1c" y="160.604607"/>
     <use style="fill:#f47915;stroke:#f47915;" x="85.379206" xlink:href="#m97379d9d1c" y="159.259973"/>
     <use style="fill:#f47915;stroke:#f47915;" x="84.318354" xlink:href="#m97379d9d1c" y="157.835056"/>
     <use style="fill:#f47915;stroke:#f47915;" x="84.36887" xlink:href="#m97379d9d1c" y="156.336567"/>
     <use style="fill:#f47915;stroke:#f47915;" x="79.75921" xlink:href="#m97379d9d1c" y="162.598144"/>
     <use style="fill:#f47915;stroke:#f47915;" x="75.490538" xlink:href="#m97379d9d1c" y="168.64564"/>
     <use style="fill:#f47915;stroke:#f47915;" x="73.836111" xlink:href="#m97379d9d1c" y="174.512512"/>
     <use style="fill:#f47915;stroke:#f47915;" x="76.450357" xlink:href="#m97379d9d1c" y="180.232214"/>
     <use style="fill:#f47915;stroke:#f47915;" x="76.058853" xlink:href="#m97379d9d1c" y="185.831516"/>
     <use style="fill:#f47915;stroke:#f47915;" x="77.006044" xlink:href="#m97379d9d1c" y="192.093093"/>
     <use style="fill:#f47915;stroke:#f47915;" x="79.165638" xlink:href="#m97379d9d1c" y="198.133903"/>
     <use style="fill:#f47915;stroke:#f47915;" x="80.845321" xlink:href="#m97379d9d1c" y="198.107134"/>
     <use style="fill:#f47915;stroke:#f47915;" x="80.112829" xlink:href="#m97379d9d1c" y="198.187417"/>
     <use style="fill:#f47915;stroke:#f47915;" x="80.327525" xlink:href="#m97379d9d1c" y="198.428242"/>
     <use style="fill:#f47915;stroke:#f47915;" x="79.670806" xlink:href="#m97379d9d1c" y="198.916604"/>
     <use style="fill:#f47915;stroke:#f47915;" x="77.485952" xlink:href="#m97379d9d1c" y="199.498595"/>
     <use style="fill:#f47915;stroke:#f47915;" x="77.410179" xlink:href="#m97379d9d1c" y="200.314751"/>
     <use style="fill:#f47915;stroke:#f47915;" x="77.410179" xlink:href="#m97379d9d1c" y="201.110824"/>
    </g>
   </g>
   <g id="PathCollection_5">
    <defs>
     <path d="M 0 3 
C 0.795609 3 1.55874 2.683901 2.12132 2.12132 
C 2.683901 1.55874 3 0.795609 3 0 
C 3 -0.795609 2.683901 -1.55874 2.12132 -2.12132 
C 1.55874 -2.683901 0.795609 -3 0 -3 
C -0.795609 -3 -1.55874 -2.683901 -2.12132 -2.12132 
C -2.683901 -1.55874 -3 -0.795609 -3 0 
C -3 0.795609 -2.683901 1.55874 -2.12132 2.12132 
C -1.55874 2.683901 -0.795609 3 0 3 
z
" id="m42816c4ab4" style="stroke:#06ab54;"/>
    </defs>
    <g clip-path="url(#p898569f0a9)">
     <use style="fill:#06ab54;stroke:#06ab54;" x="160.548236" xlink:href="#m42816c4ab4" y="178.031308"/>
     <use style="fill:#06ab54;stroke:#06ab54;" x="174.074117" xlink:href="#m42816c4ab4" y="177.542946"/>
     <use style="fill:#06ab54;stroke:#06ab54;" x="188.168313" xlink:href="#m42816c4ab4" y="177.777111"/>
     <use style="fill:#06ab54;stroke:#06ab54;" x="204.232666" xlink:href="#m42816c4ab4" y="178.506271"/>
     <use style="fill:#06ab54;stroke:#06ab54;" x="194.672358" xlink:href="#m42816c4ab4" y="178.40593"/>
     <use style="fill:#06ab54;stroke:#06ab54;" x="201.378456" xlink:href="#m42816c4ab4" y="175.810318"/>
     <use style="fill:#06ab54;stroke:#06ab54;" x="203.891672" xlink:href="#m42816c4ab4" y="178.138335"/>
     <use style="fill:#06ab54;stroke:#06ab54;" x="197.69073" xlink:href="#m42816c4ab4" y="177.696827"/>
     <use style="fill:#06ab54;stroke:#06ab54;" x="196.503587" xlink:href="#m42816c4ab4" y="175.910659"/>
     <use style="fill:#06ab54;stroke:#06ab54;" x="174.225669" xlink:href="#m42816c4ab4" y="176.104682"/>
     <use style="fill:#06ab54;stroke:#06ab54;" x="153.930531" xlink:href="#m42816c4ab4" y="178.098193"/>
     <use style="fill:#06ab54;stroke:#06ab54;" x="155.092418" xlink:href="#m42816c4ab4" y="176.599704"/>
     <use style="fill:#06ab54;stroke:#06ab54;" x="150.091253" xlink:href="#m42816c4ab4" y="172.171122"/>
     <use style="fill:#06ab54;stroke:#06ab54;" x="157.769808" xlink:href="#m42816c4ab4" y="172.706286"/>
     <use style="fill:#06ab54;stroke:#06ab54;" x="152.452918" xlink:href="#m42816c4ab4" y="172.023953"/>
     <use style="fill:#06ab54;stroke:#06ab54;" x="151.884603" xlink:href="#m42816c4ab4" y="172.840083"/>
     <use style="fill:#06ab54;stroke:#06ab54;" x="141.894903" xlink:href="#m42816c4ab4" y="172.104211"/>
     <use style="fill:#06ab54;stroke:#06ab54;" x="134.393156" xlink:href="#m42816c4ab4" y="171.555675"/>
     <use style="fill:#06ab54;stroke:#06ab54;" x="155.521816" xlink:href="#m42816c4ab4" y="170.47861"/>
     <use style="fill:#06ab54;stroke:#06ab54;" x="157.226761" xlink:href="#m42816c4ab4" y="171.174341"/>
     <use style="fill:#06ab54;stroke:#06ab54;" x="156.469004" xlink:href="#m42816c4ab4" y="173.040792"/>
     <use style="fill:#06ab54;stroke:#06ab54;" x="163.907603" xlink:href="#m42816c4ab4" y="171.963728"/>
     <use style="fill:#06ab54;stroke:#06ab54;" x="170.487418" xlink:href="#m42816c4ab4" y="172.318292"/>
     <use style="fill:#06ab54;stroke:#06ab54;" x="175.172857" xlink:href="#m42816c4ab4" y="175.074445"/>
     <use style="fill:#06ab54;stroke:#06ab54;" x="176.019018" xlink:href="#m42816c4ab4" y="175.883915"/>
     <use style="fill:#06ab54;stroke:#06ab54;" x="172.204998" xlink:href="#m42816c4ab4" y="176.934185"/>
     <use style="fill:#06ab54;stroke:#06ab54;" x="163.869724" xlink:href="#m42816c4ab4" y="178.058077"/>
     <use style="fill:#06ab54;stroke:#06ab54;" x="161.129186" xlink:href="#m42816c4ab4" y="179.362569"/>
     <use style="fill:#06ab54;stroke:#06ab54;" x="160.106216" xlink:href="#m42816c4ab4" y="180.580092"/>
    </g>
   </g>
   <g id="PathCollection_6">
    <defs>
     <path d="M 0 3 
C 0.795609 3 1.55874 2.683901 2.12132 2.12132 
C 2.683901 1.55874 3 0.795609 3 0 
C 3 -0.795609 2.683901 -1.55874 2.12132 -2.12132 
C 1.55874 -2.683901 0.795609 -3 0 -3 
C -0.795609 -3 -1.55874 -2.683901 -2.12132 -2.12132 
C -2.683901 -1.55874 -3 -0.795609 -3 0 
C -3 0.795609 -2.683901 1.55874 -2.12132 2.12132 
C -1.55874 2.683901 -0.795609 3 0 3 
z
" id="mf4b6d291b8" style="stroke:#002070;"/>
    </defs>
    <g clip-path="url(#p898569f0a9)">
     <use style="fill:#002070;stroke:#002070;" x="153.198042" xlink:href="#mf4b6d291b8" y="131.805389"/>
     <use style="fill:#002070;stroke:#002070;" x="168.668823" xlink:href="#mf4b6d291b8" y="134.742168"/>
     <use style="fill:#002070;stroke:#002070;" x="175.880089" xlink:href="#mf4b6d291b8" y="138.428217"/>
     <use style="fill:#002070;stroke:#002070;" x="167.064904" xlink:href="#mf4b6d291b8" y="139.692567"/>
     <use style="fill:#002070;stroke:#002070;" x="154.991391" xlink:href="#mf4b6d291b8" y="140.836492"/>
     <use style="fill:#002070;stroke:#002070;" x="148.651532" xlink:href="#mf4b6d291b8" y="140.515383"/>
     <use style="fill:#002070;stroke:#002070;" x="134.506817" xlink:href="#mf4b6d291b8" y="139.344689"/>
     <use style="fill:#002070;stroke:#002070;" x="123.532038" xlink:href="#mf4b6d291b8" y="140.047106"/>
     <use style="fill:#002070;stroke:#002070;" x="121.511367" xlink:href="#mf4b6d291b8" y="137.939855"/>
     <use style="fill:#002070;stroke:#002070;" x="115.436713" xlink:href="#mf4b6d291b8" y="136.668819"/>
     <use style="fill:#002070;stroke:#002070;" x="104.487197" xlink:href="#mf4b6d291b8" y="139.692567"/>
     <use style="fill:#002070;stroke:#002070;" x="108.806385" xlink:href="#mf4b6d291b8" y="137.966625"/>
     <use style="fill:#002070;stroke:#002070;" x="105.901668" xlink:href="#mf4b6d291b8" y="137.183924"/>
     <use style="fill:#002070;stroke:#002070;" x="103.211643" xlink:href="#mf4b6d291b8" y="136.88956"/>
     <use style="fill:#002070;stroke:#002070;" x="105.181801" xlink:href="#mf4b6d291b8" y="134.621768"/>
     <use style="fill:#002070;stroke:#002070;" x="112.759323" xlink:href="#mf4b6d291b8" y="132.400778"/>
     <use style="fill:#002070;stroke:#002070;" x="111.647955" xlink:href="#mf4b6d291b8" y="133.444362"/>
     <use style="fill:#002070;stroke:#002070;" x="116.106061" xlink:href="#mf4b6d291b8" y="131.671592"/>
     <use style="fill:#002070;stroke:#002070;" x="140.3794" xlink:href="#mf4b6d291b8" y="132.802145"/>
     <use style="fill:#002070;stroke:#002070;" x="143.536701" xlink:href="#mf4b6d291b8" y="134.033065"/>
     <use style="fill:#002070;stroke:#002070;" x="146.693996" xlink:href="#mf4b6d291b8" y="134.641826"/>
     <use style="fill:#002070;stroke:#002070;" x="144.774364" xlink:href="#mf4b6d291b8" y="133.076425"/>
     <use style="fill:#002070;stroke:#002070;" x="140.227848" xlink:href="#mf4b6d291b8" y="132.07967"/>
     <use style="fill:#002070;stroke:#002070;" x="122.357522" xlink:href="#mf4b6d291b8" y="131.557878"/>
     <use style="fill:#002070;stroke:#002070;" x="112.140495" xlink:href="#mf4b6d291b8" y="131.317028"/>
     <use style="fill:#002070;stroke:#002070;" x="105.977444" xlink:href="#mf4b6d291b8" y="130.581181"/>
     <use style="fill:#002070;stroke:#002070;" x="99.940681" xlink:href="#mf4b6d291b8" y="130.842064"/>
     <use style="fill:#002070;stroke:#002070;" x="95.128953" xlink:href="#mf4b6d291b8" y="130.801922"/>
     <use style="fill:#002070;stroke:#002070;" x="93.297719" xlink:href="#mf4b6d291b8" y="130.915661"/>
    </g>
   </g>
   <g id="text_15">
    <!-- NOR -->
    <defs>
     <path d="M 7.625 0 
L 7.625 71.578125 
L 17.328125 71.578125 
L 54.9375 15.375 
L 54.9375 71.578125 
L 64.015625 71.578125 
L 64.015625 0 
L 54.296875 0 
L 16.703125 56.25 
L 16.703125 0 
z
" id="ArialMT-78"/>
     <path d="M 4.828125 34.859375 
Q 4.828125 52.6875 14.390625 62.765625 
Q 23.96875 72.859375 39.109375 72.859375 
Q 49.03125 72.859375 56.984375 68.109375 
Q 64.9375 63.375 69.109375 54.90625 
Q 73.296875 46.4375 73.296875 35.6875 
Q 73.296875 24.8125 68.890625 16.21875 
Q 64.5 7.625 56.4375 3.203125 
Q 48.390625 -1.21875 39.0625 -1.21875 
Q 28.953125 -1.21875 20.984375 3.65625 
Q 13.03125 8.546875 8.921875 16.984375 
Q 4.828125 25.4375 4.828125 34.859375 
z
M 14.59375 34.71875 
Q 14.59375 21.78125 21.546875 14.328125 
Q 28.515625 6.890625 39.015625 6.890625 
Q 49.703125 6.890625 56.609375 14.40625 
Q 63.53125 21.921875 63.53125 35.75 
Q 63.53125 44.484375 60.578125 51 
Q 57.625 57.515625 51.921875 61.109375 
Q 46.234375 64.703125 39.15625 64.703125 
Q 29.109375 64.703125 21.84375 57.78125 
Q 14.59375 50.875 14.59375 34.71875 
z
" id="ArialMT-79"/>
    </defs>
    <g style="fill:#165aa7;" transform="translate(108.339102 112.85343)scale(0.14 -0.14)">
     <use xlink:href="#ArialMT-78"/>
     <use x="72.216797" xlink:href="#ArialMT-79"/>
     <use x="150" xlink:href="#ArialMT-82"/>
    </g>
   </g>
   <g id="text_16">
    <!-- ESP -->
    <defs>
     <path d="M 7.90625 0 
L 7.90625 71.578125 
L 59.671875 71.578125 
L 59.671875 63.140625 
L 17.390625 63.140625 
L 17.390625 41.21875 
L 56.984375 41.21875 
L 56.984375 32.8125 
L 17.390625 32.8125 
L 17.390625 8.453125 
L 61.328125 8.453125 
L 61.328125 0 
z
" id="ArialMT-69"/>
     <path d="M 4.5 23 
L 13.421875 23.78125 
Q 14.0625 18.40625 16.375 14.96875 
Q 18.703125 11.53125 23.578125 9.40625 
Q 28.46875 7.28125 34.578125 7.28125 
Q 39.984375 7.28125 44.140625 8.890625 
Q 48.296875 10.5 50.3125 13.296875 
Q 52.34375 16.109375 52.34375 19.4375 
Q 52.34375 22.796875 50.390625 25.3125 
Q 48.4375 27.828125 43.953125 29.546875 
Q 41.0625 30.671875 31.203125 33.03125 
Q 21.34375 35.40625 17.390625 37.5 
Q 12.25 40.1875 9.734375 44.15625 
Q 7.234375 48.140625 7.234375 53.078125 
Q 7.234375 58.5 10.296875 63.203125 
Q 13.375 67.921875 19.28125 70.359375 
Q 25.203125 72.796875 32.421875 72.796875 
Q 40.375 72.796875 46.453125 70.234375 
Q 52.546875 67.671875 55.8125 62.6875 
Q 59.078125 57.71875 59.328125 51.421875 
L 50.25 50.734375 
Q 49.515625 57.515625 45.28125 60.984375 
Q 41.0625 64.453125 32.8125 64.453125 
Q 24.21875 64.453125 20.28125 61.296875 
Q 16.359375 58.15625 16.359375 53.71875 
Q 16.359375 49.859375 19.140625 47.359375 
Q 21.875 44.875 33.421875 42.265625 
Q 44.96875 39.65625 49.265625 37.703125 
Q 55.515625 34.8125 58.484375 30.390625 
Q 61.46875 25.984375 61.46875 20.21875 
Q 61.46875 14.5 58.203125 9.4375 
Q 54.9375 4.390625 48.796875 1.578125 
Q 42.671875 -1.21875 35.015625 -1.21875 
Q 25.296875 -1.21875 18.71875 1.609375 
Q 12.15625 4.4375 8.421875 10.125 
Q 4.6875 15.828125 4.5 23 
z
" id="ArialMT-83"/>
    </defs>
    <g style="fill:#cb495c;" transform="translate(297.777188 179.750564)scale(0.14 -0.14)">
     <use xlink:href="#ArialMT-69"/>
     <use x="66.699219" xlink:href="#ArialMT-83"/>
     <use x="133.398438" xlink:href="#ArialMT-80"/>
    </g>
   </g>
   <g id="text_17">
    <!-- CHN -->
    <defs>
     <path d="M 58.796875 25.09375 
L 68.265625 22.703125 
Q 65.28125 11.03125 57.546875 4.90625 
Q 49.8125 -1.21875 38.625 -1.21875 
Q 27.046875 -1.21875 19.796875 3.484375 
Q 12.546875 8.203125 8.765625 17.140625 
Q 4.984375 26.078125 4.984375 36.328125 
Q 4.984375 47.515625 9.25 55.828125 
Q 13.53125 64.15625 21.40625 68.46875 
Q 29.296875 72.796875 38.765625 72.796875 
Q 49.515625 72.796875 56.828125 67.328125 
Q 64.15625 61.859375 67.046875 51.953125 
L 57.71875 49.75 
Q 55.21875 57.5625 50.484375 61.125 
Q 45.75 64.703125 38.578125 64.703125 
Q 30.328125 64.703125 24.78125 60.734375 
Q 19.234375 56.78125 16.984375 50.109375 
Q 14.75 43.453125 14.75 36.375 
Q 14.75 27.25 17.40625 20.4375 
Q 20.0625 13.625 25.671875 10.25 
Q 31.296875 6.890625 37.84375 6.890625 
Q 45.796875 6.890625 51.3125 11.46875 
Q 56.84375 16.0625 58.796875 25.09375 
z
" id="ArialMT-67"/>
     <path d="M 8.015625 0 
L 8.015625 71.578125 
L 17.484375 71.578125 
L 17.484375 42.1875 
L 54.6875 42.1875 
L 54.6875 71.578125 
L 64.15625 71.578125 
L 64.15625 0 
L 54.6875 0 
L 54.6875 33.734375 
L 17.484375 33.734375 
L 17.484375 0 
z
" id="ArialMT-72"/>
    </defs>
    <g style="fill:#bb60d5;" transform="translate(108.339102 45.956296)scale(0.14 -0.14)">
     <use xlink:href="#ArialMT-67"/>
     <use x="72.216797" xlink:href="#ArialMT-72"/>
     <use x="144.433594" xlink:href="#ArialMT-78"/>
    </g>
   </g>
   <g id="text_18">
    <!-- IND -->
    <defs>
     <path d="M 9.328125 0 
L 9.328125 71.578125 
L 18.796875 71.578125 
L 18.796875 0 
z
" id="ArialMT-73"/>
     <path d="M 7.71875 0 
L 7.71875 71.578125 
L 32.375 71.578125 
Q 40.71875 71.578125 45.125 70.5625 
Q 51.265625 69.140625 55.609375 65.4375 
Q 61.28125 60.640625 64.078125 53.1875 
Q 66.890625 45.75 66.890625 36.1875 
Q 66.890625 28.03125 64.984375 21.734375 
Q 63.09375 15.4375 60.109375 11.296875 
Q 57.125 7.171875 53.578125 4.796875 
Q 50.046875 2.4375 45.046875 1.21875 
Q 40.046875 0 33.546875 0 
z
M 17.1875 8.453125 
L 32.46875 8.453125 
Q 39.546875 8.453125 43.578125 9.765625 
Q 47.609375 11.078125 50 13.484375 
Q 53.375 16.84375 55.25 22.53125 
Q 57.125 28.21875 57.125 36.328125 
Q 57.125 47.5625 53.4375 53.59375 
Q 49.75 59.625 44.484375 61.671875 
Q 40.671875 63.140625 32.234375 63.140625 
L 17.1875 63.140625 
z
" id="ArialMT-68"/>
    </defs>
    <g style="fill:#f47915;" transform="translate(83.080691 179.750564)scale(0.14 -0.14)">
     <use xlink:href="#ArialMT-73"/>
     <use x="27.783203" xlink:href="#ArialMT-78"/>
     <use x="100" xlink:href="#ArialMT-68"/>
    </g>
   </g>
   <g id="text_19">
    <!-- FRA -->
    <defs>
     <path d="M -0.140625 0 
L 27.34375 71.578125 
L 37.546875 71.578125 
L 66.84375 0 
L 56.0625 0 
L 47.703125 21.6875 
L 17.78125 21.6875 
L 9.90625 0 
z
M 20.515625 29.390625 
L 44.78125 29.390625 
L 37.3125 49.21875 
Q 33.890625 58.25 32.234375 64.0625 
Q 30.859375 57.171875 28.375 50.390625 
z
" id="ArialMT-65"/>
    </defs>
    <g style="fill:#06ab54;" transform="translate(120.968308 193.12999)scale(0.14 -0.14)">
     <use xlink:href="#ArialMT-70"/>
     <use x="61.083984" xlink:href="#ArialMT-82"/>
     <use x="133.300781" xlink:href="#ArialMT-65"/>
    </g>
   </g>
   <g id="text_20">
    <!-- GBR -->
    <defs>
     <path d="M 41.21875 28.078125 
L 41.21875 36.46875 
L 71.53125 36.53125 
L 71.53125 9.96875 
Q 64.546875 4.390625 57.125 1.578125 
Q 49.703125 -1.21875 41.890625 -1.21875 
Q 31.34375 -1.21875 22.71875 3.296875 
Q 14.109375 7.8125 9.71875 16.359375 
Q 5.328125 24.90625 5.328125 35.453125 
Q 5.328125 45.90625 9.6875 54.953125 
Q 14.0625 64.015625 22.265625 68.40625 
Q 30.46875 72.796875 41.15625 72.796875 
Q 48.921875 72.796875 55.1875 70.28125 
Q 61.46875 67.78125 65.03125 63.28125 
Q 68.609375 58.796875 70.453125 51.5625 
L 61.921875 49.21875 
Q 60.296875 54.6875 57.90625 57.8125 
Q 55.515625 60.9375 51.0625 62.8125 
Q 46.625 64.703125 41.21875 64.703125 
Q 34.71875 64.703125 29.984375 62.71875 
Q 25.25 60.75 22.34375 57.515625 
Q 19.4375 54.296875 17.828125 50.4375 
Q 15.09375 43.796875 15.09375 36.03125 
Q 15.09375 26.46875 18.390625 20.015625 
Q 21.6875 13.578125 27.984375 10.453125 
Q 34.28125 7.328125 41.359375 7.328125 
Q 47.515625 7.328125 53.375 9.6875 
Q 59.234375 12.0625 62.25 14.75 
L 62.25 28.078125 
z
" id="ArialMT-71"/>
     <path d="M 7.328125 0 
L 7.328125 71.578125 
L 34.1875 71.578125 
Q 42.390625 71.578125 47.34375 69.40625 
Q 52.296875 67.234375 55.09375 62.71875 
Q 57.90625 58.203125 57.90625 53.265625 
Q 57.90625 48.6875 55.421875 44.625 
Q 52.9375 40.578125 47.90625 38.09375 
Q 54.390625 36.1875 57.875 31.59375 
Q 61.375 27 61.375 20.75 
Q 61.375 15.71875 59.25 11.390625 
Q 57.125 7.078125 54 4.734375 
Q 50.875 2.390625 46.15625 1.1875 
Q 41.453125 0 34.625 0 
z
M 16.796875 41.5 
L 32.28125 41.5 
Q 38.578125 41.5 41.3125 42.328125 
Q 44.921875 43.40625 46.75 45.890625 
Q 48.578125 48.390625 48.578125 52.15625 
Q 48.578125 55.71875 46.875 58.421875 
Q 45.171875 61.140625 41.984375 62.140625 
Q 38.8125 63.140625 31.109375 63.140625 
L 16.796875 63.140625 
z
M 16.796875 8.453125 
L 34.625 8.453125 
Q 39.203125 8.453125 41.0625 8.796875 
Q 44.34375 9.375 46.53125 10.734375 
Q 48.734375 12.109375 50.140625 14.71875 
Q 51.5625 17.328125 51.5625 20.75 
Q 51.5625 24.75 49.515625 27.703125 
Q 47.46875 30.671875 43.828125 31.859375 
Q 40.1875 33.0625 33.34375 33.0625 
L 16.796875 33.0625 
z
" id="ArialMT-66"/>
    </defs>
    <g style="fill:#002070;" transform="translate(146.226719 126.232857)scale(0.14 -0.14)">
     <use xlink:href="#ArialMT-71"/>
     <use x="77.783203" xlink:href="#ArialMT-66"/>
     <use x="144.482422" xlink:href="#ArialMT-82"/>
    </g>
   </g>
  </g>
 </g>
 <defs>
  <clipPath id="p898569f0a9">
   <rect height="217.44" width="334.8" x="55.63475" y="7.2"/>
  </clipPath>
 </defs>
</svg>
