<?xml version="1.0" encoding="utf-8" standalone="no"?>
<!DOCTYPE svg PUBLIC "-//W3C//DTD SVG 1.1//EN"
  "http://www.w3.org/Graphics/SVG/1.1/DTD/svg11.dtd">
<!-- Created with matplotlib (https://matplotlib.org/) -->
<svg height="303.536983pt" version="1.1" viewBox="0 0 531.982319 303.536983" width="531.982319pt" xmlns="http://www.w3.org/2000/svg" xmlns:xlink="http://www.w3.org/1999/xlink">
 <defs>
  <style type="text/css">
*{stroke-linecap:butt;stroke-linejoin:round;white-space:pre;}
  </style>
 </defs>
 <g id="figure_1">
  <g id="patch_1">
   <path d="M 0 303.536983 
L 531.982319 303.536983 
L 531.982319 0 
L 0 0 
z
" style="fill:#ffffff;"/>
  </g>
  <g id="axes_1">
   <g id="patch_2">
    <path d="M 85.49675 225.394176 
L 420.29675 225.394176 
L 420.29675 7.954176 
L 85.49675 7.954176 
z
" style="fill:#ffffff;"/>
   </g>
   <g id="matplotlib.axis_1">
    <g id="xtick_1">
     <g id="line2d_1">
      <path clip-path="url(#pab8dc65754)" d="M 100.714932 225.394176 
L 100.714932 7.954176 
" style="fill:none;stroke:#cccccc;stroke-linecap:round;stroke-opacity:0.9;"/>
     </g>
     <g id="text_1">
      <!-- 1850 -->
      <defs>
       <path d="M 12.40625 8.296875 
L 28.515625 8.296875 
L 28.515625 63.921875 
L 10.984375 60.40625 
L 10.984375 69.390625 
L 28.421875 72.90625 
L 38.28125 72.90625 
L 38.28125 8.296875 
L 54.390625 8.296875 
L 54.390625 0 
L 12.40625 0 
z
" id="DejaVuSans-49"/>
       <path d="M 31.78125 34.625 
Q 24.75 34.625 20.71875 30.859375 
Q 16.703125 27.09375 16.703125 20.515625 
Q 16.703125 13.921875 20.71875 10.15625 
Q 24.75 6.390625 31.78125 6.390625 
Q 38.8125 6.390625 42.859375 10.171875 
Q 46.921875 13.96875 46.921875 20.515625 
Q 46.921875 27.09375 42.890625 30.859375 
Q 38.875 34.625 31.78125 34.625 
z
M 21.921875 38.8125 
Q 15.578125 40.375 12.03125 44.71875 
Q 8.5 49.078125 8.5 55.328125 
Q 8.5 64.0625 14.71875 69.140625 
Q 20.953125 74.21875 31.78125 74.21875 
Q 42.671875 74.21875 48.875 69.140625 
Q 55.078125 64.0625 55.078125 55.328125 
Q 55.078125 49.078125 51.53125 44.71875 
Q 48 40.375 41.703125 38.8125 
Q 48.828125 37.15625 52.796875 32.3125 
Q 56.78125 27.484375 56.78125 20.515625 
Q 56.78125 9.90625 50.3125 4.234375 
Q 43.84375 -1.421875 31.78125 -1.421875 
Q 19.734375 -1.421875 13.25 4.234375 
Q 6.78125 9.90625 6.78125 20.515625 
Q 6.78125 27.484375 10.78125 32.3125 
Q 14.796875 37.15625 21.921875 38.8125 
z
M 18.3125 54.390625 
Q 18.3125 48.734375 21.84375 45.5625 
Q 25.390625 42.390625 31.78125 42.390625 
Q 38.140625 42.390625 41.71875 45.5625 
Q 45.3125 48.734375 45.3125 54.390625 
Q 45.3125 60.0625 41.71875 63.234375 
Q 38.140625 66.40625 31.78125 66.40625 
Q 25.390625 66.40625 21.84375 63.234375 
Q 18.3125 60.0625 18.3125 54.390625 
z
" id="DejaVuSans-56"/>
       <path d="M 10.796875 72.90625 
L 49.515625 72.90625 
L 49.515625 64.59375 
L 19.828125 64.59375 
L 19.828125 46.734375 
Q 21.96875 47.46875 24.109375 47.828125 
Q 26.265625 48.1875 28.421875 48.1875 
Q 40.625 48.1875 47.75 41.5 
Q 54.890625 34.8125 54.890625 23.390625 
Q 54.890625 11.625 47.5625 5.09375 
Q 40.234375 -1.421875 26.90625 -1.421875 
Q 22.3125 -1.421875 17.546875 -0.640625 
Q 12.796875 0.140625 7.71875 1.703125 
L 7.71875 11.625 
Q 12.109375 9.234375 16.796875 8.0625 
Q 21.484375 6.890625 26.703125 6.890625 
Q 35.15625 6.890625 40.078125 11.328125 
Q 45.015625 15.765625 45.015625 23.390625 
Q 45.015625 31 40.078125 35.4375 
Q 35.15625 39.890625 26.703125 39.890625 
Q 22.75 39.890625 18.8125 39.015625 
Q 14.890625 38.140625 10.796875 36.28125 
z
" id="DejaVuSans-53"/>
       <path d="M 31.78125 66.40625 
Q 24.171875 66.40625 20.328125 58.90625 
Q 16.5 51.421875 16.5 36.375 
Q 16.5 21.390625 20.328125 13.890625 
Q 24.171875 6.390625 31.78125 6.390625 
Q 39.453125 6.390625 43.28125 13.890625 
Q 47.125 21.390625 47.125 36.375 
Q 47.125 51.421875 43.28125 58.90625 
Q 39.453125 66.40625 31.78125 66.40625 
z
M 31.78125 74.21875 
Q 44.046875 74.21875 50.515625 64.515625 
Q 56.984375 54.828125 56.984375 36.375 
Q 56.984375 17.96875 50.515625 8.265625 
Q 44.046875 -1.421875 31.78125 -1.421875 
Q 19.53125 -1.421875 13.0625 8.265625 
Q 6.59375 17.96875 6.59375 36.375 
Q 6.59375 54.828125 13.0625 64.515625 
Q 19.53125 74.21875 31.78125 74.21875 
z
" id="DejaVuSans-48"/>
      </defs>
      <g style="fill:#262626;" transform="translate(82.899932 249.531989)scale(0.14 -0.14)">
       <use xlink:href="#DejaVuSans-49"/>
       <use x="63.623047" xlink:href="#DejaVuSans-56"/>
       <use x="127.246094" xlink:href="#DejaVuSans-53"/>
       <use x="190.869141" xlink:href="#DejaVuSans-48"/>
      </g>
     </g>
    </g>
    <g id="xtick_2">
     <g id="line2d_2">
      <path clip-path="url(#pab8dc65754)" d="M 192.390726 225.394176 
L 192.390726 7.954176 
" style="fill:none;stroke:#cccccc;stroke-linecap:round;stroke-opacity:0.9;"/>
     </g>
     <g id="text_2">
      <!-- 1900 -->
      <defs>
       <path d="M 10.984375 1.515625 
L 10.984375 10.5 
Q 14.703125 8.734375 18.5 7.8125 
Q 22.3125 6.890625 25.984375 6.890625 
Q 35.75 6.890625 40.890625 13.453125 
Q 46.046875 20.015625 46.78125 33.40625 
Q 43.953125 29.203125 39.59375 26.953125 
Q 35.25 24.703125 29.984375 24.703125 
Q 19.046875 24.703125 12.671875 31.3125 
Q 6.296875 37.9375 6.296875 49.421875 
Q 6.296875 60.640625 12.9375 67.421875 
Q 19.578125 74.21875 30.609375 74.21875 
Q 43.265625 74.21875 49.921875 64.515625 
Q 56.59375 54.828125 56.59375 36.375 
Q 56.59375 19.140625 48.40625 8.859375 
Q 40.234375 -1.421875 26.421875 -1.421875 
Q 22.703125 -1.421875 18.890625 -0.6875 
Q 15.09375 0.046875 10.984375 1.515625 
z
M 30.609375 32.421875 
Q 37.25 32.421875 41.125 36.953125 
Q 45.015625 41.5 45.015625 49.421875 
Q 45.015625 57.28125 41.125 61.84375 
Q 37.25 66.40625 30.609375 66.40625 
Q 23.96875 66.40625 20.09375 61.84375 
Q 16.21875 57.28125 16.21875 49.421875 
Q 16.21875 41.5 20.09375 36.953125 
Q 23.96875 32.421875 30.609375 32.421875 
z
" id="DejaVuSans-57"/>
      </defs>
      <g style="fill:#262626;" transform="translate(174.575726 249.531989)scale(0.14 -0.14)">
       <use xlink:href="#DejaVuSans-49"/>
       <use x="63.623047" xlink:href="#DejaVuSans-57"/>
       <use x="127.246094" xlink:href="#DejaVuSans-48"/>
       <use x="190.869141" xlink:href="#DejaVuSans-48"/>
      </g>
     </g>
    </g>
    <g id="xtick_3">
     <g id="line2d_3">
      <path clip-path="url(#pab8dc65754)" d="M 284.06652 225.394176 
L 284.06652 7.954176 
" style="fill:none;stroke:#cccccc;stroke-linecap:round;stroke-opacity:0.9;"/>
     </g>
     <g id="text_3">
      <!-- 1950 -->
      <g style="fill:#262626;" transform="translate(266.25152 249.531989)scale(0.14 -0.14)">
       <use xlink:href="#DejaVuSans-49"/>
       <use x="63.623047" xlink:href="#DejaVuSans-57"/>
       <use x="127.246094" xlink:href="#DejaVuSans-53"/>
       <use x="190.869141" xlink:href="#DejaVuSans-48"/>
      </g>
     </g>
    </g>
    <g id="xtick_4">
     <g id="line2d_4">
      <path clip-path="url(#pab8dc65754)" d="M 375.742314 225.394176 
L 375.742314 7.954176 
" style="fill:none;stroke:#cccccc;stroke-linecap:round;stroke-opacity:0.9;"/>
     </g>
     <g id="text_4">
      <!-- 2000 -->
      <defs>
       <path d="M 19.1875 8.296875 
L 53.609375 8.296875 
L 53.609375 0 
L 7.328125 0 
L 7.328125 8.296875 
Q 12.9375 14.109375 22.625 23.890625 
Q 32.328125 33.6875 34.8125 36.53125 
Q 39.546875 41.84375 41.421875 45.53125 
Q 43.3125 49.21875 43.3125 52.78125 
Q 43.3125 58.59375 39.234375 62.25 
Q 35.15625 65.921875 28.609375 65.921875 
Q 23.96875 65.921875 18.8125 64.3125 
Q 13.671875 62.703125 7.8125 59.421875 
L 7.8125 69.390625 
Q 13.765625 71.78125 18.9375 73 
Q 24.125 74.21875 28.421875 74.21875 
Q 39.75 74.21875 46.484375 68.546875 
Q 53.21875 62.890625 53.21875 53.421875 
Q 53.21875 48.921875 51.53125 44.890625 
Q 49.859375 40.875 45.40625 35.40625 
Q 44.1875 33.984375 37.640625 27.21875 
Q 31.109375 20.453125 19.1875 8.296875 
z
" id="DejaVuSans-50"/>
      </defs>
      <g style="fill:#262626;" transform="translate(357.927314 249.531989)scale(0.14 -0.14)">
       <use xlink:href="#DejaVuSans-50"/>
       <use x="63.623047" xlink:href="#DejaVuSans-48"/>
       <use x="127.246094" xlink:href="#DejaVuSans-48"/>
       <use x="190.869141" xlink:href="#DejaVuSans-48"/>
      </g>
     </g>
    </g>
    <g id="text_5">
     <!-- Year -->
     <defs>
      <path d="M -0.203125 72.90625 
L 10.40625 72.90625 
L 30.609375 42.921875 
L 50.6875 72.90625 
L 61.28125 72.90625 
L 35.5 34.71875 
L 35.5 0 
L 25.59375 0 
L 25.59375 34.71875 
z
" id="DejaVuSans-89"/>
      <path d="M 56.203125 29.59375 
L 56.203125 25.203125 
L 14.890625 25.203125 
Q 15.484375 15.921875 20.484375 11.0625 
Q 25.484375 6.203125 34.421875 6.203125 
Q 39.59375 6.203125 44.453125 7.46875 
Q 49.3125 8.734375 54.109375 11.28125 
L 54.109375 2.78125 
Q 49.265625 0.734375 44.1875 -0.34375 
Q 39.109375 -1.421875 33.890625 -1.421875 
Q 20.796875 -1.421875 13.15625 6.1875 
Q 5.515625 13.8125 5.515625 26.8125 
Q 5.515625 40.234375 12.765625 48.109375 
Q 20.015625 56 32.328125 56 
Q 43.359375 56 49.78125 48.890625 
Q 56.203125 41.796875 56.203125 29.59375 
z
M 47.21875 32.234375 
Q 47.125 39.59375 43.09375 43.984375 
Q 39.0625 48.390625 32.421875 48.390625 
Q 24.90625 48.390625 20.390625 44.140625 
Q 15.875 39.890625 15.1875 32.171875 
z
" id="DejaVuSans-101"/>
      <path d="M 34.28125 27.484375 
Q 23.390625 27.484375 19.1875 25 
Q 14.984375 22.515625 14.984375 16.5 
Q 14.984375 11.71875 18.140625 8.90625 
Q 21.296875 6.109375 26.703125 6.109375 
Q 34.1875 6.109375 38.703125 11.40625 
Q 43.21875 16.703125 43.21875 25.484375 
L 43.21875 27.484375 
z
M 52.203125 31.203125 
L 52.203125 0 
L 43.21875 0 
L 43.21875 8.296875 
Q 40.140625 3.328125 35.546875 0.953125 
Q 30.953125 -1.421875 24.3125 -1.421875 
Q 15.921875 -1.421875 10.953125 3.296875 
Q 6 8.015625 6 15.921875 
Q 6 25.140625 12.171875 29.828125 
Q 18.359375 34.515625 30.609375 34.515625 
L 43.21875 34.515625 
L 43.21875 35.40625 
Q 43.21875 41.609375 39.140625 45 
Q 35.0625 48.390625 27.6875 48.390625 
Q 23 48.390625 18.546875 47.265625 
Q 14.109375 46.140625 10.015625 43.890625 
L 10.015625 52.203125 
Q 14.9375 54.109375 19.578125 55.046875 
Q 24.21875 56 28.609375 56 
Q 40.484375 56 46.34375 49.84375 
Q 52.203125 43.703125 52.203125 31.203125 
z
" id="DejaVuSans-97"/>
      <path d="M 41.109375 46.296875 
Q 39.59375 47.171875 37.8125 47.578125 
Q 36.03125 48 33.890625 48 
Q 26.265625 48 22.1875 43.046875 
Q 18.109375 38.09375 18.109375 28.8125 
L 18.109375 0 
L 9.078125 0 
L 9.078125 54.6875 
L 18.109375 54.6875 
L 18.109375 46.1875 
Q 20.953125 51.171875 25.484375 53.578125 
Q 30.03125 56 36.53125 56 
Q 37.453125 56 38.578125 55.875 
Q 39.703125 55.765625 41.0625 55.515625 
z
" id="DejaVuSans-114"/>
     </defs>
     <g style="fill:#262626;" transform="translate(234.013813 269.208926)scale(0.168 -0.168)">
      <use xlink:href="#DejaVuSans-89"/>
      <use x="60.880859" xlink:href="#DejaVuSans-101"/>
      <use x="122.404297" xlink:href="#DejaVuSans-97"/>
      <use x="183.683594" xlink:href="#DejaVuSans-114"/>
     </g>
    </g>
   </g>
   <g id="matplotlib.axis_2">
    <g id="ytick_1">
     <g id="line2d_5">
      <path clip-path="url(#pab8dc65754)" d="M 85.49675 217.937477 
L 420.29675 217.937477 
" style="fill:none;stroke:#cccccc;stroke-linecap:round;stroke-opacity:0.9;"/>
     </g>
     <g id="text_6">
      <!-- 0 -->
      <g style="fill:#262626;" transform="translate(63.08925 223.256383)scale(0.14 -0.14)">
       <use xlink:href="#DejaVuSans-48"/>
      </g>
     </g>
    </g>
    <g id="ytick_2">
     <g id="line2d_6">
      <path clip-path="url(#pab8dc65754)" d="M 85.49675 180.193506 
L 420.29675 180.193506 
" style="fill:none;stroke:#cccccc;stroke-linecap:round;stroke-opacity:0.9;"/>
     </g>
     <g id="text_7">
      <!-- 10000 -->
      <g style="fill:#262626;" transform="translate(27.45925 185.512412)scale(0.14 -0.14)">
       <use xlink:href="#DejaVuSans-49"/>
       <use x="63.623047" xlink:href="#DejaVuSans-48"/>
       <use x="127.246094" xlink:href="#DejaVuSans-48"/>
       <use x="190.869141" xlink:href="#DejaVuSans-48"/>
       <use x="254.492188" xlink:href="#DejaVuSans-48"/>
      </g>
     </g>
    </g>
    <g id="ytick_3">
     <g id="line2d_7">
      <path clip-path="url(#pab8dc65754)" d="M 85.49675 142.449534 
L 420.29675 142.449534 
" style="fill:none;stroke:#cccccc;stroke-linecap:round;stroke-opacity:0.9;"/>
     </g>
     <g id="text_8">
      <!-- 20000 -->
      <g style="fill:#262626;" transform="translate(27.45925 147.76844)scale(0.14 -0.14)">
       <use xlink:href="#DejaVuSans-50"/>
       <use x="63.623047" xlink:href="#DejaVuSans-48"/>
       <use x="127.246094" xlink:href="#DejaVuSans-48"/>
       <use x="190.869141" xlink:href="#DejaVuSans-48"/>
       <use x="254.492188" xlink:href="#DejaVuSans-48"/>
      </g>
     </g>
    </g>
    <g id="ytick_4">
     <g id="line2d_8">
      <path clip-path="url(#pab8dc65754)" d="M 85.49675 104.705563 
L 420.29675 104.705563 
" style="fill:none;stroke:#cccccc;stroke-linecap:round;stroke-opacity:0.9;"/>
     </g>
     <g id="text_9">
      <!-- 30000 -->
      <defs>
       <path d="M 40.578125 39.3125 
Q 47.65625 37.796875 51.625 33 
Q 55.609375 28.21875 55.609375 21.1875 
Q 55.609375 10.40625 48.1875 4.484375 
Q 40.765625 -1.421875 27.09375 -1.421875 
Q 22.515625 -1.421875 17.65625 -0.515625 
Q 12.796875 0.390625 7.625 2.203125 
L 7.625 11.71875 
Q 11.71875 9.328125 16.59375 8.109375 
Q 21.484375 6.890625 26.8125 6.890625 
Q 36.078125 6.890625 40.9375 10.546875 
Q 45.796875 14.203125 45.796875 21.1875 
Q 45.796875 27.640625 41.28125 31.265625 
Q 36.765625 34.90625 28.71875 34.90625 
L 20.21875 34.90625 
L 20.21875 43.015625 
L 29.109375 43.015625 
Q 36.375 43.015625 40.234375 45.921875 
Q 44.09375 48.828125 44.09375 54.296875 
Q 44.09375 59.90625 40.109375 62.90625 
Q 36.140625 65.921875 28.71875 65.921875 
Q 24.65625 65.921875 20.015625 65.03125 
Q 15.375 64.15625 9.8125 62.3125 
L 9.8125 71.09375 
Q 15.4375 72.65625 20.34375 73.4375 
Q 25.25 74.21875 29.59375 74.21875 
Q 40.828125 74.21875 47.359375 69.109375 
Q 53.90625 64.015625 53.90625 55.328125 
Q 53.90625 49.265625 50.4375 45.09375 
Q 46.96875 40.921875 40.578125 39.3125 
z
" id="DejaVuSans-51"/>
      </defs>
      <g style="fill:#262626;" transform="translate(27.45925 110.024469)scale(0.14 -0.14)">
       <use xlink:href="#DejaVuSans-51"/>
       <use x="63.623047" xlink:href="#DejaVuSans-48"/>
       <use x="127.246094" xlink:href="#DejaVuSans-48"/>
       <use x="190.869141" xlink:href="#DejaVuSans-48"/>
       <use x="254.492188" xlink:href="#DejaVuSans-48"/>
      </g>
     </g>
    </g>
    <g id="ytick_5">
     <g id="line2d_9">
      <path clip-path="url(#pab8dc65754)" d="M 85.49675 66.961591 
L 420.29675 66.961591 
" style="fill:none;stroke:#cccccc;stroke-linecap:round;stroke-opacity:0.9;"/>
     </g>
     <g id="text_10">
      <!-- 40000 -->
      <defs>
       <path d="M 37.796875 64.3125 
L 12.890625 25.390625 
L 37.796875 25.390625 
z
M 35.203125 72.90625 
L 47.609375 72.90625 
L 47.609375 25.390625 
L 58.015625 25.390625 
L 58.015625 17.1875 
L 47.609375 17.1875 
L 47.609375 0 
L 37.796875 0 
L 37.796875 17.1875 
L 4.890625 17.1875 
L 4.890625 26.703125 
z
" id="DejaVuSans-52"/>
      </defs>
      <g style="fill:#262626;" transform="translate(27.45925 72.280498)scale(0.14 -0.14)">
       <use xlink:href="#DejaVuSans-52"/>
       <use x="63.623047" xlink:href="#DejaVuSans-48"/>
       <use x="127.246094" xlink:href="#DejaVuSans-48"/>
       <use x="190.869141" xlink:href="#DejaVuSans-48"/>
       <use x="254.492188" xlink:href="#DejaVuSans-48"/>
      </g>
     </g>
    </g>
    <g id="ytick_6">
     <g id="line2d_10">
      <path clip-path="url(#pab8dc65754)" d="M 85.49675 29.21762 
L 420.29675 29.21762 
" style="fill:none;stroke:#cccccc;stroke-linecap:round;stroke-opacity:0.9;"/>
     </g>
     <g id="text_11">
      <!-- 50000 -->
      <g style="fill:#262626;" transform="translate(27.45925 34.536526)scale(0.14 -0.14)">
       <use xlink:href="#DejaVuSans-53"/>
       <use x="63.623047" xlink:href="#DejaVuSans-48"/>
       <use x="127.246094" xlink:href="#DejaVuSans-48"/>
       <use x="190.869141" xlink:href="#DejaVuSans-48"/>
       <use x="254.492188" xlink:href="#DejaVuSans-48"/>
      </g>
     </g>
    </g>
    <g id="text_12">
     <!-- GDP per capita -->
     <defs>
      <path d="M 59.515625 10.40625 
L 59.515625 29.984375 
L 43.40625 29.984375 
L 43.40625 38.09375 
L 69.28125 38.09375 
L 69.28125 6.78125 
Q 63.578125 2.734375 56.6875 0.65625 
Q 49.8125 -1.421875 42 -1.421875 
Q 24.90625 -1.421875 15.25 8.5625 
Q 5.609375 18.5625 5.609375 36.375 
Q 5.609375 54.25 15.25 64.234375 
Q 24.90625 74.21875 42 74.21875 
Q 49.125 74.21875 55.546875 72.453125 
Q 61.96875 70.703125 67.390625 67.28125 
L 67.390625 56.78125 
Q 61.921875 61.421875 55.765625 63.765625 
Q 49.609375 66.109375 42.828125 66.109375 
Q 29.4375 66.109375 22.71875 58.640625 
Q 16.015625 51.171875 16.015625 36.375 
Q 16.015625 21.625 22.71875 14.15625 
Q 29.4375 6.6875 42.828125 6.6875 
Q 48.046875 6.6875 52.140625 7.59375 
Q 56.25 8.5 59.515625 10.40625 
z
" id="DejaVuSans-71"/>
      <path d="M 19.671875 64.796875 
L 19.671875 8.109375 
L 31.59375 8.109375 
Q 46.6875 8.109375 53.6875 14.9375 
Q 60.6875 21.78125 60.6875 36.53125 
Q 60.6875 51.171875 53.6875 57.984375 
Q 46.6875 64.796875 31.59375 64.796875 
z
M 9.8125 72.90625 
L 30.078125 72.90625 
Q 51.265625 72.90625 61.171875 64.09375 
Q 71.09375 55.28125 71.09375 36.53125 
Q 71.09375 17.671875 61.125 8.828125 
Q 51.171875 0 30.078125 0 
L 9.8125 0 
z
" id="DejaVuSans-68"/>
      <path d="M 19.671875 64.796875 
L 19.671875 37.40625 
L 32.078125 37.40625 
Q 38.96875 37.40625 42.71875 40.96875 
Q 46.484375 44.53125 46.484375 51.125 
Q 46.484375 57.671875 42.71875 61.234375 
Q 38.96875 64.796875 32.078125 64.796875 
z
M 9.8125 72.90625 
L 32.078125 72.90625 
Q 44.34375 72.90625 50.609375 67.359375 
Q 56.890625 61.8125 56.890625 51.125 
Q 56.890625 40.328125 50.609375 34.8125 
Q 44.34375 29.296875 32.078125 29.296875 
L 19.671875 29.296875 
L 19.671875 0 
L 9.8125 0 
z
" id="DejaVuSans-80"/>
      <path id="DejaVuSans-32"/>
      <path d="M 18.109375 8.203125 
L 18.109375 -20.796875 
L 9.078125 -20.796875 
L 9.078125 54.6875 
L 18.109375 54.6875 
L 18.109375 46.390625 
Q 20.953125 51.265625 25.265625 53.625 
Q 29.59375 56 35.59375 56 
Q 45.5625 56 51.78125 48.09375 
Q 58.015625 40.1875 58.015625 27.296875 
Q 58.015625 14.40625 51.78125 6.484375 
Q 45.5625 -1.421875 35.59375 -1.421875 
Q 29.59375 -1.421875 25.265625 0.953125 
Q 20.953125 3.328125 18.109375 8.203125 
z
M 48.6875 27.296875 
Q 48.6875 37.203125 44.609375 42.84375 
Q 40.53125 48.484375 33.40625 48.484375 
Q 26.265625 48.484375 22.1875 42.84375 
Q 18.109375 37.203125 18.109375 27.296875 
Q 18.109375 17.390625 22.1875 11.75 
Q 26.265625 6.109375 33.40625 6.109375 
Q 40.53125 6.109375 44.609375 11.75 
Q 48.6875 17.390625 48.6875 27.296875 
z
" id="DejaVuSans-112"/>
      <path d="M 48.78125 52.59375 
L 48.78125 44.1875 
Q 44.96875 46.296875 41.140625 47.34375 
Q 37.3125 48.390625 33.40625 48.390625 
Q 24.65625 48.390625 19.8125 42.84375 
Q 14.984375 37.3125 14.984375 27.296875 
Q 14.984375 17.28125 19.8125 11.734375 
Q 24.65625 6.203125 33.40625 6.203125 
Q 37.3125 6.203125 41.140625 7.25 
Q 44.96875 8.296875 48.78125 10.40625 
L 48.78125 2.09375 
Q 45.015625 0.34375 40.984375 -0.53125 
Q 36.96875 -1.421875 32.421875 -1.421875 
Q 20.0625 -1.421875 12.78125 6.34375 
Q 5.515625 14.109375 5.515625 27.296875 
Q 5.515625 40.671875 12.859375 48.328125 
Q 20.21875 56 33.015625 56 
Q 37.15625 56 41.109375 55.140625 
Q 45.0625 54.296875 48.78125 52.59375 
z
" id="DejaVuSans-99"/>
      <path d="M 9.421875 54.6875 
L 18.40625 54.6875 
L 18.40625 0 
L 9.421875 0 
z
M 9.421875 75.984375 
L 18.40625 75.984375 
L 18.40625 64.59375 
L 9.421875 64.59375 
z
" id="DejaVuSans-105"/>
      <path d="M 18.3125 70.21875 
L 18.3125 54.6875 
L 36.8125 54.6875 
L 36.8125 47.703125 
L 18.3125 47.703125 
L 18.3125 18.015625 
Q 18.3125 11.328125 20.140625 9.421875 
Q 21.96875 7.515625 27.59375 7.515625 
L 36.8125 7.515625 
L 36.8125 0 
L 27.59375 0 
Q 17.1875 0 13.234375 3.875 
Q 9.28125 7.765625 9.28125 18.015625 
L 9.28125 47.703125 
L 2.6875 47.703125 
L 2.6875 54.6875 
L 9.28125 54.6875 
L 9.28125 70.21875 
z
" id="DejaVuSans-116"/>
     </defs>
     <g style="fill:#262626;" transform="translate(19.965375 179.882864)rotate(-90)scale(0.168 -0.168)">
      <use xlink:href="#DejaVuSans-71"/>
      <use x="77.490234" xlink:href="#DejaVuSans-68"/>
      <use x="154.492188" xlink:href="#DejaVuSans-80"/>
      <use x="214.794922" xlink:href="#DejaVuSans-32"/>
      <use x="246.582031" xlink:href="#DejaVuSans-112"/>
      <use x="310.058594" xlink:href="#DejaVuSans-101"/>
      <use x="371.582031" xlink:href="#DejaVuSans-114"/>
      <use x="412.695312" xlink:href="#DejaVuSans-32"/>
      <use x="444.482422" xlink:href="#DejaVuSans-99"/>
      <use x="499.462891" xlink:href="#DejaVuSans-97"/>
      <use x="560.742188" xlink:href="#DejaVuSans-112"/>
      <use x="624.21875" xlink:href="#DejaVuSans-105"/>
      <use x="652.001953" xlink:href="#DejaVuSans-116"/>
      <use x="691.210938" xlink:href="#DejaVuSans-97"/>
     </g>
    </g>
   </g>
   <g id="line2d_11">
    <path clip-path="url(#pab8dc65754)" d="M 100.714932 215.51054 
L 137.385249 215.102905 
L 168.555019 215.068935 
L 174.055567 214.880215 
L 192.390726 214.766984 
L 212.559401 214.902862 
L 214.392916 214.759435 
L 216.226432 214.612233 
L 245.562686 214.3518 
L 247.396202 214.306507 
L 249.229718 214.283861 
L 251.063234 214.185726 
L 252.89675 214.593361 
L 254.730266 214.532971 
L 256.563782 214.264989 
L 258.397298 214.057397 
L 260.230814 214.174403 
L 262.064329 214.295184 
L 284.06652 215.080258 
L 285.900036 214.544294 
L 287.733552 214.204598 
L 289.567068 213.793189 
L 291.400584 214.204598 
L 293.234099 213.929067 
L 295.067615 213.781866 
L 296.901131 213.774317 
L 298.734647 213.887549 
L 300.568163 214.208373 
L 302.401679 214.453709 
L 304.235195 214.921734 
L 306.068711 214.668849 
L 307.902226 214.3518 
L 309.735742 213.97436 
L 311.569258 213.657311 
L 313.402774 213.608244 
L 315.23629 213.593146 
L 317.069806 213.812061 
L 318.903322 213.513884 
L 320.736838 213.06473 
L 322.570354 212.823169 
L 324.403869 213.00434 
L 326.237385 212.759004 
L 328.070901 212.736358 
L 329.904417 212.558961 
L 331.737933 212.713711 
L 333.571449 212.604254 
L 335.404965 211.962606 
L 337.238481 211.717271 
L 339.071996 211.558746 
L 340.905512 211.615362 
L 342.739028 211.045428 
L 344.572544 210.739702 
L 346.40606 209.935755 
L 348.239576 209.21862 
L 350.073092 208.844954 
L 351.906608 208.46374 
L 353.740123 208.233502 
L 355.573639 208.467515 
L 357.407155 208.65246 
L 359.240671 208.312764 
L 361.074187 207.629599 
L 362.907703 206.625609 
L 364.741219 206.104742 
L 366.574735 205.474418 
L 368.408251 204.749734 
L 370.241766 204.576111 
L 372.075282 204.52327 
L 373.908798 203.726872 
L 375.742314 202.571906 
L 377.57583 201.33013 
L 379.409346 199.846792 
L 381.242862 198.605015 
L 383.076378 196.819725 
L 384.909893 194.015348 
L 386.743409 191.754484 
L 388.576925 189.697438 
L 390.410441 188.719869 
L 392.243957 186.255188 
L 394.077473 182.175064 
L 395.910989 179.359364 
L 397.744505 177.72505 
L 399.578021 176.086962 
L 401.411536 173.746835 
L 403.245052 172.637163 
L 405.078568 171.436904 
" style="fill:none;stroke:#f47915;stroke-linecap:round;stroke-width:2;"/>
   </g>
   <g id="line2d_12">
    <path clip-path="url(#pab8dc65754)" d="M 100.714932 207.15025 
L 108.048995 205.712205 
L 109.882511 206.116065 
L 111.716027 205.455546 
L 113.549543 205.440448 
L 115.383059 205.791467 
L 117.216575 205.410253 
L 119.050091 205.274375 
L 120.883607 205.429125 
L 122.717122 206.074547 
L 124.550638 205.078106 
L 130.051186 204.364745 
L 131.884702 204.432684 
L 133.718218 203.904269 
L 135.551734 203.908043 
L 137.385249 203.421146 
L 141.052281 203.575896 
L 146.552829 202.934248 
L 152.053377 202.9267 
L 153.886892 203.100322 
L 155.720408 202.500193 
L 159.38744 201.662277 
L 163.054472 201.658502 
L 164.887988 201.824576 
L 166.721504 201.654728 
L 170.388535 200.424274 
L 172.222051 199.571261 
L 175.889083 199.688267 
L 177.722599 200.228006 
L 179.556115 200.337463 
L 181.389631 199.276858 
L 183.223146 198.808832 
L 185.056662 198.144539 
L 186.890178 198.016209 
L 190.55721 196.476255 
L 192.390726 196.770658 
L 194.224242 196.906536 
L 196.057758 196.491353 
L 197.891274 196.838597 
L 199.724789 196.838597 
L 203.391821 195.747796 
L 205.225337 195.457168 
L 207.058853 196.502676 
L 208.892369 196.147882 
L 212.559401 195.034435 
L 214.392916 194.683416 
L 216.226432 193.807756 
L 218.059948 193.924763 
L 219.893464 192.297997 
L 221.72698 191.984722 
L 225.394012 191.93943 
L 227.227528 194.917429 
L 229.061044 196.589487 
L 230.894559 197.174518 
L 232.728075 195.234478 
L 234.561591 194.521117 
L 236.395107 193.611488 
L 238.228623 192.384808 
L 240.062139 193.301987 
L 241.895655 191.286459 
L 243.729171 190.950538 
L 245.562686 190.082426 
L 247.396202 190.380604 
L 249.229718 191.894137 
L 251.063234 191.826198 
L 252.89675 191.150581 
L 254.730266 189.455876 
L 256.563782 188.46321 
L 258.397298 187.24408 
L 260.230814 186.292931 
L 262.064329 186.021175 
L 263.897845 186.021175 
L 267.564877 179.755676 
L 269.398393 178.925308 
L 271.231909 178.362923 
L 276.732456 183.394194 
L 278.565972 184.092458 
L 280.399488 183.345127 
L 282.233004 182.243003 
L 284.06652 182.303394 
L 285.900036 181.707039 
L 287.733552 182.054283 
L 291.400584 178.683747 
L 293.234099 177.25325 
L 296.901131 175.93976 
L 298.734647 175.920888 
L 300.568163 174.43755 
L 302.401679 172.644711 
L 304.235195 171.191568 
L 306.068711 171.036818 
L 307.902226 169.440248 
L 309.735742 166.934049 
L 313.402774 164.722252 
L 315.23629 163.435182 
L 317.069806 162.793535 
L 318.903322 160.41189 
L 320.736838 158.622826 
L 322.570354 158.668119 
L 324.403869 157.34708 
L 326.237385 153.334896 
L 328.070901 154.43702 
L 329.904417 154.735197 
L 331.737933 152.270516 
L 333.571449 149.477462 
L 337.238481 141.962637 
L 339.071996 140.211317 
L 340.905512 142.543894 
L 342.739028 142.959078 
L 344.572544 142.053223 
L 346.40606 141.430447 
L 348.239576 139.762163 
L 350.073092 137.531495 
L 351.906608 133.972238 
L 353.740123 130.843263 
L 355.573639 128.70318 
L 357.407155 127.344397 
L 359.240671 128.499362 
L 361.074187 128.061532 
L 362.907703 125.536461 
L 364.741219 122.245186 
L 366.574735 117.915953 
L 368.408251 113.103596 
L 370.241766 105.309466 
L 372.075282 101.014202 
L 373.908798 96.232041 
L 375.742314 88.135959 
L 377.57583 85.146637 
L 379.409346 84.384209 
L 381.242862 84.49744 
L 383.076378 80.851373 
L 384.909893 75.552119 
L 386.743409 73.563012 
L 388.576925 74.242403 
L 390.410441 75.805004 
L 392.243957 83.078267 
L 394.077473 85.395747 
L 395.910989 85.943035 
L 397.744505 82.87445 
L 399.578021 75.635156 
L 403.245052 71.683362 
L 405.078568 70.124536 
L 405.078568 70.124536 
" style="fill:none;stroke:#165aa7;stroke-linecap:round;stroke-width:2;"/>
   </g>
   <g id="line2d_13">
    <path clip-path="url(#pab8dc65754)" d="M 102.548448 214.246117 
L 137.385249 214.623556 
L 166.721504 214.264989 
L 168.555019 214.087592 
L 170.388535 214.042299 
L 172.222051 214.140434 
L 174.055567 213.951714 
L 175.889083 214.310281 
L 177.722599 214.00833 
L 181.389631 213.823384 
L 183.223146 213.91397 
L 185.056662 214.200824 
L 186.890178 213.506335 
L 188.723694 213.487463 
L 190.55721 213.823384 
L 194.224242 213.589372 
L 196.057758 213.234578 
L 199.724789 213.162865 
L 201.558305 213.257225 
L 203.391821 213.13267 
L 205.225337 213.434621 
L 207.058853 213.378005 
L 208.892369 212.762779 
L 214.392916 212.777876 
L 216.226432 212.879785 
L 218.059948 212.589156 
L 219.893464 212.702388 
L 221.72698 212.53254 
L 223.560496 212.615577 
L 225.394012 213.279871 
L 227.227528 212.619352 
L 229.061044 213.026986 
L 230.894559 212.664644 
L 232.728075 212.475924 
L 234.561591 212.687291 
L 236.395107 212.460827 
L 243.729171 212.306077 
L 245.562686 212.109808 
L 251.063234 212.196619 
L 256.563782 212.366467 
L 258.397298 212.207942 
L 262.064329 212.404211 
L 271.231909 212.053192 
L 274.898941 212.298528 
L 276.732456 212.638224 
L 280.399488 212.641998 
L 282.233004 212.558961 
L 289.567068 212.611803 
L 291.400584 212.581608 
L 293.234099 212.683516 
L 295.067615 212.540089 
L 296.901131 212.808071 
L 298.734647 212.679742 
L 300.568163 212.830718 
L 302.401679 212.641998 
L 307.902226 212.819395 
L 309.735742 212.69484 
L 311.569258 213.117572 
L 313.402774 213.283645 
L 315.23629 213.136444 
L 317.069806 213.283645 
L 324.403869 213.264773 
L 326.237385 213.026986 
L 328.070901 213.166639 
L 329.904417 212.796748 
L 331.737933 213.015663 
L 335.404965 213.264773 
L 337.238481 213.668634 
L 339.071996 213.623341 
L 346.40606 214.030976 
L 348.239576 214.083818 
L 351.906608 213.808287 
L 355.573639 213.302517 
L 357.407155 213.094926 
L 359.240671 213.042084 
L 364.741219 212.336272 
L 366.574735 212.030546 
L 368.408251 211.607813 
L 370.241766 211.362477 
L 373.908798 210.634019 
L 377.57583 210.064085 
L 379.409346 209.720615 
L 383.076378 208.493935 
L 388.576925 205.357411 
L 390.410441 203.76839 
L 392.243957 203.08145 
L 395.910989 199.941152 
L 397.744505 199.163626 
L 399.578021 198.869223 
L 401.411536 197.88788 
L 405.078568 195.438296 
L 405.078568 195.438296 
" style="fill:none;stroke:#06ab54;stroke-linecap:round;stroke-width:2;"/>
   </g>
   <g id="line2d_14">
    <path clip-path="url(#pab8dc65754)" d="M 100.714932 214.502776 
L 144.719313 214.125336 
L 146.552829 213.853579 
L 148.386345 213.981909 
L 150.219861 213.891323 
L 152.053377 213.936616 
L 155.720408 213.585597 
L 157.553924 213.755445 
L 161.220956 213.717701 
L 163.054472 213.72525 
L 164.887988 213.600695 
L 168.555019 213.140218 
L 170.388535 213.404426 
L 172.222051 213.234578 
L 174.055567 212.838267 
L 175.889083 213.117572 
L 177.722599 212.834492 
L 179.556115 212.853364 
L 181.389631 212.294753 
L 183.223146 212.275881 
L 185.056662 212.638224 
L 186.890178 212.585382 
L 188.723694 211.641783 
L 190.55721 212.173973 
L 194.224242 211.856923 
L 196.057758 212.245686 
L 197.891274 211.924862 
L 199.724789 211.947509 
L 201.558305 212.106034 
L 203.391821 211.400221 
L 205.225337 211.256794 
L 210.725885 211.366252 
L 212.559401 211.105818 
L 214.392916 210.962391 
L 216.226432 210.947294 
L 218.059948 211.249245 
L 219.893464 210.732153 
L 221.72698 209.720615 
L 223.560496 209.543218 
L 225.394012 209.52812 
L 227.227528 208.727948 
L 229.061044 209.388468 
L 230.894559 208.565649 
L 234.561591 208.818534 
L 236.395107 208.682655 
L 238.228623 208.433545 
L 241.895655 208.512807 
L 243.729171 207.893806 
L 245.562686 207.727733 
L 247.396202 208.610942 
L 249.229718 208.675107 
L 251.063234 208.048557 
L 252.89675 207.237061 
L 254.730266 207.361616 
L 256.563782 207.248384 
L 258.397298 206.636932 
L 260.230814 206.297236 
L 262.064329 205.636717 
L 263.897845 203.809909 
L 265.731361 203.538152 
L 267.564877 203.560798 
L 269.398393 203.851427 
L 271.231909 203.851427 
L 273.065425 204.681794 
L 274.898941 211.234148 
L 278.565972 210.283 
L 280.399488 209.377144 
L 282.233004 209.018577 
L 284.06652 208.429771 
L 285.900036 207.169122 
L 287.733552 206.289688 
L 291.400584 205.266826 
L 293.234099 204.232641 
L 296.901131 202.587004 
L 298.734647 201.616984 
L 300.568163 200.378982 
L 306.068711 194.305977 
L 307.902226 192.769797 
L 309.735742 190.116396 
L 311.569258 188.674576 
L 313.402774 185.756967 
L 315.23629 182.594022 
L 320.736838 169.232656 
L 322.570354 166.903853 
L 324.403869 163.027547 
L 326.237385 159.611718 
L 328.070901 160.940306 
L 329.904417 158.668119 
L 331.737933 155.629729 
L 333.571449 152.251644 
L 335.404965 148.096032 
L 337.238481 144.374477 
L 339.071996 140.90958 
L 340.905512 142.623157 
L 342.739028 143.951744 
L 344.572544 146.027663 
L 346.40606 146.612694 
L 348.239576 146.159767 
L 350.073092 141.041684 
L 351.906608 136.719999 
L 353.740123 129.616584 
L 357.407155 118.516082 
L 359.240671 111.835399 
L 362.907703 104.830118 
L 364.741219 101.957802 
L 366.574735 96.605707 
L 368.408251 95.118594 
L 370.241766 94.658118 
L 372.075282 96.658548 
L 373.908798 97.232256 
L 375.742314 92.272699 
L 377.57583 93.057773 
L 379.409346 92.570876 
L 381.242862 91.208319 
L 383.076378 88.271838 
L 384.909893 84.731453 
L 386.743409 83.674622 
L 388.576925 81.855362 
L 390.410441 84.863557 
L 392.243957 90.370402 
L 394.077473 84.03319 
L 395.910989 85.912839 
L 397.744505 85.293838 
L 399.578021 83.969025 
L 401.411536 83.757659 
L 403.245052 81.945948 
L 405.078568 80.353152 
L 405.078568 80.353152 
" style="fill:none;stroke:#bb60d5;stroke-linecap:round;stroke-width:2;"/>
   </g>
   <g id="line2d_15">
    <path clip-path="url(#pab8dc65754)" d="M 100.714932 207.274805 
L 102.548448 206.84075 
L 104.381964 206.278364 
L 106.215479 205.481967 
L 108.048995 205.444223 
L 109.882511 205.719754 
L 111.716027 205.463095 
L 113.549543 205.734851 
L 115.383059 205.678235 
L 119.050091 205.010167 
L 120.883607 205.278149 
L 122.717122 204.881837 
L 124.550638 204.036372 
L 126.384154 203.57967 
L 128.21767 204.323227 
L 130.051186 204.42891 
L 131.884702 203.983531 
L 133.718218 203.80236 
L 135.551734 203.42492 
L 137.385249 203.836329 
L 139.218765 203.500408 
L 141.052281 203.281493 
L 142.885797 202.915377 
L 144.719313 203.360755 
L 146.552829 202.949346 
L 148.386345 203.111645 
L 150.219861 202.968218 
L 152.053377 202.673815 
L 155.720408 199.571261 
L 157.553924 199.39009 
L 159.38744 198.684277 
L 163.054472 198.786186 
L 164.887988 199.076815 
L 166.721504 198.937162 
L 168.555019 198.510655 
L 170.388535 199.008875 
L 172.222051 198.250222 
L 174.055567 198.371002 
L 175.889083 197.936947 
L 177.722599 196.434737 
L 179.556115 197.872782 
L 181.389631 198.82393 
L 183.223146 196.917859 
L 185.056662 197.721806 
L 186.890178 196.193175 
L 188.723694 196.136559 
L 190.55721 194.570184 
L 192.390726 194.339946 
L 194.224242 192.18854 
L 196.057758 192.43765 
L 197.891274 191.686545 
L 199.724789 192.501815 
L 201.558305 191.161904 
L 203.391821 188.640606 
L 205.225337 188.723643 
L 207.058853 191.629929 
L 208.892369 188.9954 
L 210.725885 189.3049 
L 212.559401 188.833101 
L 214.392916 187.938569 
L 216.226432 187.361086 
L 218.059948 190.256048 
L 219.893464 189.878609 
L 221.72698 186.451456 
L 223.560496 187.666812 
L 225.394012 185.296491 
L 227.227528 185.171936 
L 229.061044 185.911717 
L 230.894559 187.236531 
L 232.728075 185.983431 
L 234.561591 182.382656 
L 238.228623 181.69949 
L 240.062139 179.85381 
L 241.895655 180.004786 
L 243.729171 180.04253 
L 245.562686 178.144008 
L 247.396202 182.118448 
L 249.229718 184.481221 
L 251.063234 189.535139 
L 252.89675 190.49761 
L 254.730266 188.210325 
L 256.563782 184.534062 
L 258.397298 181.257886 
L 260.230814 178.495027 
L 262.064329 180.959708 
L 263.897845 178.461057 
L 265.731361 175.260369 
L 267.564877 169.45912 
L 269.398393 164.435398 
L 271.231909 159.841956 
L 273.065425 156.03359 
L 274.898941 157.577318 
L 276.732456 163.318176 
L 278.565972 164.880776 
L 280.399488 162.986029 
L 282.233004 164.673185 
L 284.06652 160.41189 
L 285.900036 157.071549 
L 287.733552 155.875065 
L 289.567068 154.086001 
L 291.400584 155.610857 
L 293.234099 152.376199 
L 296.901131 152.236546 
L 298.734647 153.980318 
L 300.568163 150.371994 
L 302.401679 149.779413 
L 304.235195 149.337809 
L 306.068711 146.310743 
L 307.902226 144.280117 
L 309.735742 141.090751 
L 311.569258 137.203122 
L 313.402774 132.904084 
L 315.23629 131.722698 
L 317.069806 128.51446 
L 318.903322 126.612164 
L 320.736838 127.51047 
L 322.570354 125.861059 
L 324.403869 122.011174 
L 326.237385 117.52719 
L 329.904417 119.969225 
L 331.737933 115.806065 
L 333.571449 112.250583 
L 335.404965 107.396708 
L 337.238481 104.890508 
L 339.071996 106.166254 
L 340.905512 104.494197 
L 342.739028 107.683562 
L 344.572544 104.105434 
L 346.40606 96.869914 
L 348.239576 93.291786 
L 351.906608 86.852664 
L 353.740123 82.568724 
L 355.573639 79.201961 
L 357.407155 78.352722 
L 359.240671 80.30786 
L 361.074187 77.375153 
L 362.907703 75.408692 
L 364.741219 71.460673 
L 366.574735 69.260199 
L 368.408251 65.398991 
L 372.075282 55.362869 
L 373.908798 49.68995 
L 375.742314 44.741715 
L 377.57583 44.775685 
L 379.409346 43.307444 
L 381.242862 39.944457 
L 383.076378 34.905636 
L 384.909893 30.519787 
L 386.743409 27.368165 
L 388.576925 25.813114 
L 390.410441 28.175886 
L 392.243957 35.056612 
L 394.077473 31.984253 
L 395.910989 30.444299 
L 397.744505 27.730507 
L 399.578021 25.960315 
L 401.411536 22.937023 
L 403.245052 19.438157 
L 405.078568 17.837813 
L 405.078568 17.837813 
" style="fill:none;stroke:#cb495c;stroke-linecap:round;stroke-width:2;"/>
   </g>
   <g id="text_13">
    <!-- United Kingdom -->
    <defs>
     <path d="M 8.6875 72.90625 
L 18.609375 72.90625 
L 18.609375 28.609375 
Q 18.609375 16.890625 22.84375 11.734375 
Q 27.09375 6.59375 36.625 6.59375 
Q 46.09375 6.59375 50.34375 11.734375 
Q 54.59375 16.890625 54.59375 28.609375 
L 54.59375 72.90625 
L 64.5 72.90625 
L 64.5 27.390625 
Q 64.5 13.140625 57.4375 5.859375 
Q 50.390625 -1.421875 36.625 -1.421875 
Q 22.796875 -1.421875 15.734375 5.859375 
Q 8.6875 13.140625 8.6875 27.390625 
z
" id="DejaVuSans-85"/>
     <path d="M 54.890625 33.015625 
L 54.890625 0 
L 45.90625 0 
L 45.90625 32.71875 
Q 45.90625 40.484375 42.875 44.328125 
Q 39.84375 48.1875 33.796875 48.1875 
Q 26.515625 48.1875 22.3125 43.546875 
Q 18.109375 38.921875 18.109375 30.90625 
L 18.109375 0 
L 9.078125 0 
L 9.078125 54.6875 
L 18.109375 54.6875 
L 18.109375 46.1875 
Q 21.34375 51.125 25.703125 53.5625 
Q 30.078125 56 35.796875 56 
Q 45.21875 56 50.046875 50.171875 
Q 54.890625 44.34375 54.890625 33.015625 
z
" id="DejaVuSans-110"/>
     <path d="M 45.40625 46.390625 
L 45.40625 75.984375 
L 54.390625 75.984375 
L 54.390625 0 
L 45.40625 0 
L 45.40625 8.203125 
Q 42.578125 3.328125 38.25 0.953125 
Q 33.9375 -1.421875 27.875 -1.421875 
Q 17.96875 -1.421875 11.734375 6.484375 
Q 5.515625 14.40625 5.515625 27.296875 
Q 5.515625 40.1875 11.734375 48.09375 
Q 17.96875 56 27.875 56 
Q 33.9375 56 38.25 53.625 
Q 42.578125 51.265625 45.40625 46.390625 
z
M 14.796875 27.296875 
Q 14.796875 17.390625 18.875 11.75 
Q 22.953125 6.109375 30.078125 6.109375 
Q 37.203125 6.109375 41.296875 11.75 
Q 45.40625 17.390625 45.40625 27.296875 
Q 45.40625 37.203125 41.296875 42.84375 
Q 37.203125 48.484375 30.078125 48.484375 
Q 22.953125 48.484375 18.875 42.84375 
Q 14.796875 37.203125 14.796875 27.296875 
z
" id="DejaVuSans-100"/>
     <path d="M 9.8125 72.90625 
L 19.671875 72.90625 
L 19.671875 42.09375 
L 52.390625 72.90625 
L 65.09375 72.90625 
L 28.90625 38.921875 
L 67.671875 0 
L 54.6875 0 
L 19.671875 35.109375 
L 19.671875 0 
L 9.8125 0 
z
" id="DejaVuSans-75"/>
     <path d="M 45.40625 27.984375 
Q 45.40625 37.75 41.375 43.109375 
Q 37.359375 48.484375 30.078125 48.484375 
Q 22.859375 48.484375 18.828125 43.109375 
Q 14.796875 37.75 14.796875 27.984375 
Q 14.796875 18.265625 18.828125 12.890625 
Q 22.859375 7.515625 30.078125 7.515625 
Q 37.359375 7.515625 41.375 12.890625 
Q 45.40625 18.265625 45.40625 27.984375 
z
M 54.390625 6.78125 
Q 54.390625 -7.171875 48.1875 -13.984375 
Q 42 -20.796875 29.203125 -20.796875 
Q 24.46875 -20.796875 20.265625 -20.09375 
Q 16.0625 -19.390625 12.109375 -17.921875 
L 12.109375 -9.1875 
Q 16.0625 -11.328125 19.921875 -12.34375 
Q 23.78125 -13.375 27.78125 -13.375 
Q 36.625 -13.375 41.015625 -8.765625 
Q 45.40625 -4.15625 45.40625 5.171875 
L 45.40625 9.625 
Q 42.625 4.78125 38.28125 2.390625 
Q 33.9375 0 27.875 0 
Q 17.828125 0 11.671875 7.65625 
Q 5.515625 15.328125 5.515625 27.984375 
Q 5.515625 40.671875 11.671875 48.328125 
Q 17.828125 56 27.875 56 
Q 33.9375 56 38.28125 53.609375 
Q 42.625 51.21875 45.40625 46.390625 
L 45.40625 54.6875 
L 54.390625 54.6875 
z
" id="DejaVuSans-103"/>
     <path d="M 30.609375 48.390625 
Q 23.390625 48.390625 19.1875 42.75 
Q 14.984375 37.109375 14.984375 27.296875 
Q 14.984375 17.484375 19.15625 11.84375 
Q 23.34375 6.203125 30.609375 6.203125 
Q 37.796875 6.203125 41.984375 11.859375 
Q 46.1875 17.53125 46.1875 27.296875 
Q 46.1875 37.015625 41.984375 42.703125 
Q 37.796875 48.390625 30.609375 48.390625 
z
M 30.609375 56 
Q 42.328125 56 49.015625 48.375 
Q 55.71875 40.765625 55.71875 27.296875 
Q 55.71875 13.875 49.015625 6.21875 
Q 42.328125 -1.421875 30.609375 -1.421875 
Q 18.84375 -1.421875 12.171875 6.21875 
Q 5.515625 13.875 5.515625 27.296875 
Q 5.515625 40.765625 12.171875 48.375 
Q 18.84375 56 30.609375 56 
z
" id="DejaVuSans-111"/>
     <path d="M 52 44.1875 
Q 55.375 50.25 60.0625 53.125 
Q 64.75 56 71.09375 56 
Q 79.640625 56 84.28125 50.015625 
Q 88.921875 44.046875 88.921875 33.015625 
L 88.921875 0 
L 79.890625 0 
L 79.890625 32.71875 
Q 79.890625 40.578125 77.09375 44.375 
Q 74.3125 48.1875 68.609375 48.1875 
Q 61.625 48.1875 57.5625 43.546875 
Q 53.515625 38.921875 53.515625 30.90625 
L 53.515625 0 
L 44.484375 0 
L 44.484375 32.71875 
Q 44.484375 40.625 41.703125 44.40625 
Q 38.921875 48.1875 33.109375 48.1875 
Q 26.21875 48.1875 22.15625 43.53125 
Q 18.109375 38.875 18.109375 30.90625 
L 18.109375 0 
L 9.078125 0 
L 9.078125 54.6875 
L 18.109375 54.6875 
L 18.109375 46.1875 
Q 21.1875 51.21875 25.484375 53.609375 
Q 29.78125 56 35.6875 56 
Q 41.65625 56 45.828125 52.96875 
Q 50 49.953125 52 44.1875 
z
" id="DejaVuSans-109"/>
    </defs>
    <g style="fill:#165aa7;" transform="translate(412.412632 70.124536)scale(0.14 -0.14)">
     <use xlink:href="#DejaVuSans-85"/>
     <use x="73.193359" xlink:href="#DejaVuSans-110"/>
     <use x="136.572266" xlink:href="#DejaVuSans-105"/>
     <use x="164.355469" xlink:href="#DejaVuSans-116"/>
     <use x="203.564453" xlink:href="#DejaVuSans-101"/>
     <use x="265.087891" xlink:href="#DejaVuSans-100"/>
     <use x="328.564453" xlink:href="#DejaVuSans-32"/>
     <use x="360.351562" xlink:href="#DejaVuSans-75"/>
     <use x="425.927734" xlink:href="#DejaVuSans-105"/>
     <use x="453.710938" xlink:href="#DejaVuSans-110"/>
     <use x="517.089844" xlink:href="#DejaVuSans-103"/>
     <use x="580.566406" xlink:href="#DejaVuSans-100"/>
     <use x="644.042969" xlink:href="#DejaVuSans-111"/>
     <use x="705.224609" xlink:href="#DejaVuSans-109"/>
    </g>
   </g>
   <g id="text_14">
    <!-- United States -->
    <defs>
     <path d="M 53.515625 70.515625 
L 53.515625 60.890625 
Q 47.90625 63.578125 42.921875 64.890625 
Q 37.9375 66.21875 33.296875 66.21875 
Q 25.25 66.21875 20.875 63.09375 
Q 16.5 59.96875 16.5 54.203125 
Q 16.5 49.359375 19.40625 46.890625 
Q 22.3125 44.4375 30.421875 42.921875 
L 36.375 41.703125 
Q 47.40625 39.59375 52.65625 34.296875 
Q 57.90625 29 57.90625 20.125 
Q 57.90625 9.515625 50.796875 4.046875 
Q 43.703125 -1.421875 29.984375 -1.421875 
Q 24.8125 -1.421875 18.96875 -0.25 
Q 13.140625 0.921875 6.890625 3.21875 
L 6.890625 13.375 
Q 12.890625 10.015625 18.65625 8.296875 
Q 24.421875 6.59375 29.984375 6.59375 
Q 38.421875 6.59375 43.015625 9.90625 
Q 47.609375 13.234375 47.609375 19.390625 
Q 47.609375 24.75 44.3125 27.78125 
Q 41.015625 30.8125 33.5 32.328125 
L 27.484375 33.5 
Q 16.453125 35.6875 11.515625 40.375 
Q 6.59375 45.0625 6.59375 53.421875 
Q 6.59375 63.09375 13.40625 68.65625 
Q 20.21875 74.21875 32.171875 74.21875 
Q 37.3125 74.21875 42.625 73.28125 
Q 47.953125 72.359375 53.515625 70.515625 
z
" id="DejaVuSans-83"/>
     <path d="M 44.28125 53.078125 
L 44.28125 44.578125 
Q 40.484375 46.53125 36.375 47.5 
Q 32.28125 48.484375 27.875 48.484375 
Q 21.1875 48.484375 17.84375 46.4375 
Q 14.5 44.390625 14.5 40.28125 
Q 14.5 37.15625 16.890625 35.375 
Q 19.28125 33.59375 26.515625 31.984375 
L 29.59375 31.296875 
Q 39.15625 29.25 43.1875 25.515625 
Q 47.21875 21.78125 47.21875 15.09375 
Q 47.21875 7.46875 41.1875 3.015625 
Q 35.15625 -1.421875 24.609375 -1.421875 
Q 20.21875 -1.421875 15.453125 -0.5625 
Q 10.6875 0.296875 5.421875 2 
L 5.421875 11.28125 
Q 10.40625 8.6875 15.234375 7.390625 
Q 20.0625 6.109375 24.8125 6.109375 
Q 31.15625 6.109375 34.5625 8.28125 
Q 37.984375 10.453125 37.984375 14.40625 
Q 37.984375 18.0625 35.515625 20.015625 
Q 33.0625 21.96875 24.703125 23.78125 
L 21.578125 24.515625 
Q 13.234375 26.265625 9.515625 29.90625 
Q 5.8125 33.546875 5.8125 39.890625 
Q 5.8125 47.609375 11.28125 51.796875 
Q 16.75 56 26.8125 56 
Q 31.78125 56 36.171875 55.265625 
Q 40.578125 54.546875 44.28125 53.078125 
z
" id="DejaVuSans-115"/>
    </defs>
    <g style="fill:#cb495c;" transform="translate(412.412632 17.837813)scale(0.14 -0.14)">
     <use xlink:href="#DejaVuSans-85"/>
     <use x="73.193359" xlink:href="#DejaVuSans-110"/>
     <use x="136.572266" xlink:href="#DejaVuSans-105"/>
     <use x="164.355469" xlink:href="#DejaVuSans-116"/>
     <use x="203.564453" xlink:href="#DejaVuSans-101"/>
     <use x="265.087891" xlink:href="#DejaVuSans-100"/>
     <use x="328.564453" xlink:href="#DejaVuSans-32"/>
     <use x="360.351562" xlink:href="#DejaVuSans-83"/>
     <use x="423.828125" xlink:href="#DejaVuSans-116"/>
     <use x="463.037109" xlink:href="#DejaVuSans-97"/>
     <use x="524.316406" xlink:href="#DejaVuSans-116"/>
     <use x="563.525391" xlink:href="#DejaVuSans-101"/>
     <use x="625.048828" xlink:href="#DejaVuSans-115"/>
    </g>
   </g>
   <g id="text_15">
    <!-- Japan -->
    <defs>
     <path d="M 9.8125 72.90625 
L 19.671875 72.90625 
L 19.671875 5.078125 
Q 19.671875 -8.109375 14.671875 -14.0625 
Q 9.671875 -20.015625 -1.421875 -20.015625 
L -5.171875 -20.015625 
L -5.171875 -11.71875 
L -2.09375 -11.71875 
Q 4.4375 -11.71875 7.125 -8.046875 
Q 9.8125 -4.390625 9.8125 5.078125 
z
" id="DejaVuSans-74"/>
    </defs>
    <g style="fill:#bb60d5;" transform="translate(412.412632 84.12755)scale(0.14 -0.14)">
     <use xlink:href="#DejaVuSans-74"/>
     <use x="29.492188" xlink:href="#DejaVuSans-97"/>
     <use x="90.771484" xlink:href="#DejaVuSans-112"/>
     <use x="154.248047" xlink:href="#DejaVuSans-97"/>
     <use x="215.527344" xlink:href="#DejaVuSans-110"/>
    </g>
   </g>
   <g id="text_16">
    <!-- China -->
    <defs>
     <path d="M 64.40625 67.28125 
L 64.40625 56.890625 
Q 59.421875 61.53125 53.78125 63.8125 
Q 48.140625 66.109375 41.796875 66.109375 
Q 29.296875 66.109375 22.65625 58.46875 
Q 16.015625 50.828125 16.015625 36.375 
Q 16.015625 21.96875 22.65625 14.328125 
Q 29.296875 6.6875 41.796875 6.6875 
Q 48.140625 6.6875 53.78125 8.984375 
Q 59.421875 11.28125 64.40625 15.921875 
L 64.40625 5.609375 
Q 59.234375 2.09375 53.4375 0.328125 
Q 47.65625 -1.421875 41.21875 -1.421875 
Q 24.65625 -1.421875 15.125 8.703125 
Q 5.609375 18.84375 5.609375 36.375 
Q 5.609375 53.953125 15.125 64.078125 
Q 24.65625 74.21875 41.21875 74.21875 
Q 47.75 74.21875 53.53125 72.484375 
Q 59.328125 70.75 64.40625 67.28125 
z
" id="DejaVuSans-67"/>
     <path d="M 54.890625 33.015625 
L 54.890625 0 
L 45.90625 0 
L 45.90625 32.71875 
Q 45.90625 40.484375 42.875 44.328125 
Q 39.84375 48.1875 33.796875 48.1875 
Q 26.515625 48.1875 22.3125 43.546875 
Q 18.109375 38.921875 18.109375 30.90625 
L 18.109375 0 
L 9.078125 0 
L 9.078125 75.984375 
L 18.109375 75.984375 
L 18.109375 46.1875 
Q 21.34375 51.125 25.703125 53.5625 
Q 30.078125 56 35.796875 56 
Q 45.21875 56 50.046875 50.171875 
Q 54.890625 44.34375 54.890625 33.015625 
z
" id="DejaVuSans-104"/>
    </defs>
    <g style="fill:#f47915;" transform="translate(412.412632 171.436904)scale(0.14 -0.14)">
     <use xlink:href="#DejaVuSans-67"/>
     <use x="69.824219" xlink:href="#DejaVuSans-104"/>
     <use x="133.203125" xlink:href="#DejaVuSans-105"/>
     <use x="160.986328" xlink:href="#DejaVuSans-110"/>
     <use x="224.365234" xlink:href="#DejaVuSans-97"/>
    </g>
   </g>
   <g id="text_17">
    <!-- India -->
    <defs>
     <path d="M 9.8125 72.90625 
L 19.671875 72.90625 
L 19.671875 0 
L 9.8125 0 
z
" id="DejaVuSans-73"/>
    </defs>
    <g style="fill:#06ab54;" transform="translate(412.412632 195.438296)scale(0.14 -0.14)">
     <use xlink:href="#DejaVuSans-73"/>
     <use x="29.492188" xlink:href="#DejaVuSans-110"/>
     <use x="92.871094" xlink:href="#DejaVuSans-100"/>
     <use x="156.347656" xlink:href="#DejaVuSans-105"/>
     <use x="184.130859" xlink:href="#DejaVuSans-97"/>
    </g>
   </g>
   <g id="text_18">
    <!-- Source: Maddison Project Database (MPD) 2018 -->
    <defs>
     <path d="M 8.5 21.578125 
L 8.5 54.6875 
L 17.484375 54.6875 
L 17.484375 21.921875 
Q 17.484375 14.15625 20.5 10.265625 
Q 23.53125 6.390625 29.59375 6.390625 
Q 36.859375 6.390625 41.078125 11.03125 
Q 45.3125 15.671875 45.3125 23.6875 
L 45.3125 54.6875 
L 54.296875 54.6875 
L 54.296875 0 
L 45.3125 0 
L 45.3125 8.40625 
Q 42.046875 3.421875 37.71875 1 
Q 33.40625 -1.421875 27.6875 -1.421875 
Q 18.265625 -1.421875 13.375 4.4375 
Q 8.5 10.296875 8.5 21.578125 
z
M 31.109375 56 
z
" id="DejaVuSans-117"/>
     <path d="M 11.71875 12.40625 
L 22.015625 12.40625 
L 22.015625 0 
L 11.71875 0 
z
M 11.71875 51.703125 
L 22.015625 51.703125 
L 22.015625 39.3125 
L 11.71875 39.3125 
z
" id="DejaVuSans-58"/>
     <path d="M 9.8125 72.90625 
L 24.515625 72.90625 
L 43.109375 23.296875 
L 61.8125 72.90625 
L 76.515625 72.90625 
L 76.515625 0 
L 66.890625 0 
L 66.890625 64.015625 
L 48.09375 14.015625 
L 38.1875 14.015625 
L 19.390625 64.015625 
L 19.390625 0 
L 9.8125 0 
z
" id="DejaVuSans-77"/>
     <path d="M 9.421875 54.6875 
L 18.40625 54.6875 
L 18.40625 -0.984375 
Q 18.40625 -11.421875 14.421875 -16.109375 
Q 10.453125 -20.796875 1.609375 -20.796875 
L -1.8125 -20.796875 
L -1.8125 -13.1875 
L 0.59375 -13.1875 
Q 5.71875 -13.1875 7.5625 -10.8125 
Q 9.421875 -8.453125 9.421875 -0.984375 
z
M 9.421875 75.984375 
L 18.40625 75.984375 
L 18.40625 64.59375 
L 9.421875 64.59375 
z
" id="DejaVuSans-106"/>
     <path d="M 48.6875 27.296875 
Q 48.6875 37.203125 44.609375 42.84375 
Q 40.53125 48.484375 33.40625 48.484375 
Q 26.265625 48.484375 22.1875 42.84375 
Q 18.109375 37.203125 18.109375 27.296875 
Q 18.109375 17.390625 22.1875 11.75 
Q 26.265625 6.109375 33.40625 6.109375 
Q 40.53125 6.109375 44.609375 11.75 
Q 48.6875 17.390625 48.6875 27.296875 
z
M 18.109375 46.390625 
Q 20.953125 51.265625 25.265625 53.625 
Q 29.59375 56 35.59375 56 
Q 45.5625 56 51.78125 48.09375 
Q 58.015625 40.1875 58.015625 27.296875 
Q 58.015625 14.40625 51.78125 6.484375 
Q 45.5625 -1.421875 35.59375 -1.421875 
Q 29.59375 -1.421875 25.265625 0.953125 
Q 20.953125 3.328125 18.109375 8.203125 
L 18.109375 0 
L 9.078125 0 
L 9.078125 75.984375 
L 18.109375 75.984375 
z
" id="DejaVuSans-98"/>
     <path d="M 31 75.875 
Q 24.46875 64.65625 21.28125 53.65625 
Q 18.109375 42.671875 18.109375 31.390625 
Q 18.109375 20.125 21.3125 9.0625 
Q 24.515625 -2 31 -13.1875 
L 23.1875 -13.1875 
Q 15.875 -1.703125 12.234375 9.375 
Q 8.59375 20.453125 8.59375 31.390625 
Q 8.59375 42.28125 12.203125 53.3125 
Q 15.828125 64.359375 23.1875 75.875 
z
" id="DejaVuSans-40"/>
     <path d="M 8.015625 75.875 
L 15.828125 75.875 
Q 23.140625 64.359375 26.78125 53.3125 
Q 30.421875 42.28125 30.421875 31.390625 
Q 30.421875 20.453125 26.78125 9.375 
Q 23.140625 -1.703125 15.828125 -13.1875 
L 8.015625 -13.1875 
Q 14.5 -2 17.703125 9.0625 
Q 20.90625 20.125 20.90625 31.390625 
Q 20.90625 42.671875 17.703125 53.65625 
Q 14.5 64.65625 8.015625 75.875 
z
" id="DejaVuSans-41"/>
    </defs>
    <g style="fill:#262626;" transform="translate(9.039138 293.42542)scale(0.14 -0.14)">
     <use xlink:href="#DejaVuSans-83"/>
     <use x="63.476562" xlink:href="#DejaVuSans-111"/>
     <use x="124.658203" xlink:href="#DejaVuSans-117"/>
     <use x="188.037109" xlink:href="#DejaVuSans-114"/>
     <use x="229.119141" xlink:href="#DejaVuSans-99"/>
     <use x="284.099609" xlink:href="#DejaVuSans-101"/>
     <use x="345.623047" xlink:href="#DejaVuSans-58"/>
     <use x="379.314453" xlink:href="#DejaVuSans-32"/>
     <use x="411.101562" xlink:href="#DejaVuSans-77"/>
     <use x="497.380859" xlink:href="#DejaVuSans-97"/>
     <use x="558.660156" xlink:href="#DejaVuSans-100"/>
     <use x="622.136719" xlink:href="#DejaVuSans-100"/>
     <use x="685.613281" xlink:href="#DejaVuSans-105"/>
     <use x="713.396484" xlink:href="#DejaVuSans-115"/>
     <use x="765.496094" xlink:href="#DejaVuSans-111"/>
     <use x="826.677734" xlink:href="#DejaVuSans-110"/>
     <use x="890.056641" xlink:href="#DejaVuSans-32"/>
     <use x="921.84375" xlink:href="#DejaVuSans-80"/>
     <use x="982.130859" xlink:href="#DejaVuSans-114"/>
     <use x="1023.212891" xlink:href="#DejaVuSans-111"/>
     <use x="1084.394531" xlink:href="#DejaVuSans-106"/>
     <use x="1112.177734" xlink:href="#DejaVuSans-101"/>
     <use x="1173.701172" xlink:href="#DejaVuSans-99"/>
     <use x="1228.681641" xlink:href="#DejaVuSans-116"/>
     <use x="1267.890625" xlink:href="#DejaVuSans-32"/>
     <use x="1299.677734" xlink:href="#DejaVuSans-68"/>
     <use x="1376.679688" xlink:href="#DejaVuSans-97"/>
     <use x="1437.958984" xlink:href="#DejaVuSans-116"/>
     <use x="1477.167969" xlink:href="#DejaVuSans-97"/>
     <use x="1538.447266" xlink:href="#DejaVuSans-98"/>
     <use x="1601.923828" xlink:href="#DejaVuSans-97"/>
     <use x="1663.203125" xlink:href="#DejaVuSans-115"/>
     <use x="1715.302734" xlink:href="#DejaVuSans-101"/>
     <use x="1776.826172" xlink:href="#DejaVuSans-32"/>
     <use x="1808.613281" xlink:href="#DejaVuSans-40"/>
     <use x="1847.626953" xlink:href="#DejaVuSans-77"/>
     <use x="1933.90625" xlink:href="#DejaVuSans-80"/>
     <use x="1994.208984" xlink:href="#DejaVuSans-68"/>
     <use x="2071.210938" xlink:href="#DejaVuSans-41"/>
     <use x="2110.224609" xlink:href="#DejaVuSans-32"/>
     <use x="2142.011719" xlink:href="#DejaVuSans-50"/>
     <use x="2205.634766" xlink:href="#DejaVuSans-48"/>
     <use x="2269.257812" xlink:href="#DejaVuSans-49"/>
     <use x="2332.880859" xlink:href="#DejaVuSans-56"/>
    </g>
   </g>
  </g>
 </g>
 <defs>
  <clipPath id="pab8dc65754">
   <rect height="217.44" width="334.8" x="85.49675" y="7.954176"/>
  </clipPath>
 </defs>
</svg>
