<?xml version="1.0" encoding="utf-8" standalone="no"?>
<!DOCTYPE svg PUBLIC "-//W3C//DTD SVG 1.1//EN"
  "http://www.w3.org/Graphics/SVG/1.1/DTD/svg11.dtd">
<!-- Created with matplotlib (https://matplotlib.org/) -->
<svg height="302.955108pt" version="1.1" viewBox="0 0 517.381306 302.955108" width="517.381306pt" xmlns="http://www.w3.org/2000/svg" xmlns:xlink="http://www.w3.org/1999/xlink">
 <defs>
  <style type="text/css">
*{stroke-linecap:butt;stroke-linejoin:round;}
  </style>
 </defs>
 <g id="figure_1">
  <g id="patch_1">
   <path d="M -0 302.955108 
L 517.381306 302.955108 
L 517.381306 0 
L -0 0 
z
" style="fill:#ffffff;"/>
  </g>
  <g id="axes_1">
   <g id="patch_2">
    <path d="M 83.657612 224.777301 
L 418.457612 224.777301 
L 418.457612 7.337301 
L 83.657612 7.337301 
z
" style="fill:#ffffff;"/>
   </g>
   <g id="matplotlib.axis_1">
    <g id="xtick_1">
     <g id="line2d_1">
      <path clip-path="url(#p17ed64a3c4)" d="M 98.875794 224.777301 
L 98.875794 7.337301 
" style="fill:none;stroke:#cccccc;stroke-linecap:round;stroke-opacity:0.9;"/>
     </g>
     <g id="text_1">
      <!-- 1850 -->
      <defs>
       <path d="M 37.25 0 
L 28.46875 0 
L 28.46875 56 
Q 25.296875 52.984375 20.140625 49.953125 
Q 14.984375 46.921875 10.890625 45.40625 
L 10.890625 53.90625 
Q 18.265625 57.375 23.78125 62.296875 
Q 29.296875 67.234375 31.59375 71.875 
L 37.25 71.875 
z
" id="ArialMT-49"/>
       <path d="M 17.671875 38.8125 
Q 12.203125 40.828125 9.5625 44.53125 
Q 6.9375 48.25 6.9375 53.421875 
Q 6.9375 61.234375 12.546875 66.546875 
Q 18.171875 71.875 27.484375 71.875 
Q 36.859375 71.875 42.578125 66.421875 
Q 48.296875 60.984375 48.296875 53.171875 
Q 48.296875 48.1875 45.671875 44.5 
Q 43.0625 40.828125 37.75 38.8125 
Q 44.34375 36.671875 47.78125 31.875 
Q 51.21875 27.09375 51.21875 20.453125 
Q 51.21875 11.28125 44.71875 5.03125 
Q 38.234375 -1.21875 27.640625 -1.21875 
Q 17.046875 -1.21875 10.546875 5.046875 
Q 4.046875 11.328125 4.046875 20.703125 
Q 4.046875 27.6875 7.59375 32.390625 
Q 11.140625 37.109375 17.671875 38.8125 
z
M 15.921875 53.71875 
Q 15.921875 48.640625 19.1875 45.40625 
Q 22.46875 42.1875 27.6875 42.1875 
Q 32.765625 42.1875 36.015625 45.375 
Q 39.265625 48.578125 39.265625 53.21875 
Q 39.265625 58.0625 35.90625 61.359375 
Q 32.5625 64.65625 27.59375 64.65625 
Q 22.5625 64.65625 19.234375 61.421875 
Q 15.921875 58.203125 15.921875 53.71875 
z
M 13.09375 20.65625 
Q 13.09375 16.890625 14.875 13.375 
Q 16.65625 9.859375 20.171875 7.921875 
Q 23.6875 6 27.734375 6 
Q 34.03125 6 38.125 10.046875 
Q 42.234375 14.109375 42.234375 20.359375 
Q 42.234375 26.703125 38.015625 30.859375 
Q 33.796875 35.015625 27.4375 35.015625 
Q 21.234375 35.015625 17.15625 30.90625 
Q 13.09375 26.8125 13.09375 20.65625 
z
" id="ArialMT-56"/>
       <path d="M 4.15625 18.75 
L 13.375 19.53125 
Q 14.40625 12.796875 18.140625 9.390625 
Q 21.875 6 27.15625 6 
Q 33.5 6 37.890625 10.78125 
Q 42.28125 15.578125 42.28125 23.484375 
Q 42.28125 31 38.0625 35.34375 
Q 33.84375 39.703125 27 39.703125 
Q 22.75 39.703125 19.328125 37.765625 
Q 15.921875 35.84375 13.96875 32.765625 
L 5.71875 33.84375 
L 12.640625 70.609375 
L 48.25 70.609375 
L 48.25 62.203125 
L 19.671875 62.203125 
L 15.828125 42.96875 
Q 22.265625 47.46875 29.34375 47.46875 
Q 38.71875 47.46875 45.15625 40.96875 
Q 51.609375 34.46875 51.609375 24.265625 
Q 51.609375 14.546875 45.953125 7.46875 
Q 39.0625 -1.21875 27.15625 -1.21875 
Q 17.390625 -1.21875 11.203125 4.25 
Q 5.03125 9.71875 4.15625 18.75 
z
" id="ArialMT-53"/>
       <path d="M 4.15625 35.296875 
Q 4.15625 48 6.765625 55.734375 
Q 9.375 63.484375 14.515625 67.671875 
Q 19.671875 71.875 27.484375 71.875 
Q 33.25 71.875 37.59375 69.546875 
Q 41.9375 67.234375 44.765625 62.859375 
Q 47.609375 58.5 49.21875 52.21875 
Q 50.828125 45.953125 50.828125 35.296875 
Q 50.828125 22.703125 48.234375 14.96875 
Q 45.65625 7.234375 40.5 3 
Q 35.359375 -1.21875 27.484375 -1.21875 
Q 17.140625 -1.21875 11.234375 6.203125 
Q 4.15625 15.140625 4.15625 35.296875 
z
M 13.1875 35.296875 
Q 13.1875 17.671875 17.3125 11.828125 
Q 21.4375 6 27.484375 6 
Q 33.546875 6 37.671875 11.859375 
Q 41.796875 17.71875 41.796875 35.296875 
Q 41.796875 52.984375 37.671875 58.78125 
Q 33.546875 64.59375 27.390625 64.59375 
Q 21.34375 64.59375 17.71875 59.46875 
Q 13.1875 52.9375 13.1875 35.296875 
z
" id="ArialMT-48"/>
      </defs>
      <g style="fill:#262626;" transform="translate(83.305169 248.298239)scale(0.14 -0.14)">
       <use xlink:href="#ArialMT-49"/>
       <use x="55.615234" xlink:href="#ArialMT-56"/>
       <use x="111.230469" xlink:href="#ArialMT-53"/>
       <use x="166.845703" xlink:href="#ArialMT-48"/>
      </g>
     </g>
    </g>
    <g id="xtick_2">
     <g id="line2d_2">
      <path clip-path="url(#p17ed64a3c4)" d="M 190.551588 224.777301 
L 190.551588 7.337301 
" style="fill:none;stroke:#cccccc;stroke-linecap:round;stroke-opacity:0.9;"/>
     </g>
     <g id="text_2">
      <!-- 1900 -->
      <defs>
       <path d="M 5.46875 16.546875 
L 13.921875 17.328125 
Q 14.984375 11.375 18.015625 8.6875 
Q 21.046875 6 25.78125 6 
Q 29.828125 6 32.875 7.859375 
Q 35.9375 9.71875 37.890625 12.8125 
Q 39.84375 15.921875 41.15625 21.1875 
Q 42.484375 26.46875 42.484375 31.9375 
Q 42.484375 32.515625 42.4375 33.6875 
Q 39.796875 29.5 35.234375 26.875 
Q 30.671875 24.265625 25.34375 24.265625 
Q 16.453125 24.265625 10.296875 30.703125 
Q 4.15625 37.15625 4.15625 47.703125 
Q 4.15625 58.59375 10.578125 65.234375 
Q 17 71.875 26.65625 71.875 
Q 33.640625 71.875 39.421875 68.109375 
Q 45.21875 64.359375 48.21875 57.390625 
Q 51.21875 50.4375 51.21875 37.25 
Q 51.21875 23.53125 48.234375 15.40625 
Q 45.265625 7.28125 39.375 3.03125 
Q 33.5 -1.21875 25.59375 -1.21875 
Q 17.1875 -1.21875 11.859375 3.4375 
Q 6.546875 8.109375 5.46875 16.546875 
z
M 41.453125 48.140625 
Q 41.453125 55.71875 37.421875 60.15625 
Q 33.40625 64.59375 27.734375 64.59375 
Q 21.875 64.59375 17.53125 59.8125 
Q 13.1875 55.03125 13.1875 47.40625 
Q 13.1875 40.578125 17.3125 36.296875 
Q 21.4375 32.03125 27.484375 32.03125 
Q 33.59375 32.03125 37.515625 36.296875 
Q 41.453125 40.578125 41.453125 48.140625 
z
" id="ArialMT-57"/>
      </defs>
      <g style="fill:#262626;" transform="translate(174.980963 248.298239)scale(0.14 -0.14)">
       <use xlink:href="#ArialMT-49"/>
       <use x="55.615234" xlink:href="#ArialMT-57"/>
       <use x="111.230469" xlink:href="#ArialMT-48"/>
       <use x="166.845703" xlink:href="#ArialMT-48"/>
      </g>
     </g>
    </g>
    <g id="xtick_3">
     <g id="line2d_3">
      <path clip-path="url(#p17ed64a3c4)" d="M 282.227382 224.777301 
L 282.227382 7.337301 
" style="fill:none;stroke:#cccccc;stroke-linecap:round;stroke-opacity:0.9;"/>
     </g>
     <g id="text_3">
      <!-- 1950 -->
      <g style="fill:#262626;" transform="translate(266.656757 248.298239)scale(0.14 -0.14)">
       <use xlink:href="#ArialMT-49"/>
       <use x="55.615234" xlink:href="#ArialMT-57"/>
       <use x="111.230469" xlink:href="#ArialMT-53"/>
       <use x="166.845703" xlink:href="#ArialMT-48"/>
      </g>
     </g>
    </g>
    <g id="xtick_4">
     <g id="line2d_4">
      <path clip-path="url(#p17ed64a3c4)" d="M 373.903176 224.777301 
L 373.903176 7.337301 
" style="fill:none;stroke:#cccccc;stroke-linecap:round;stroke-opacity:0.9;"/>
     </g>
     <g id="text_4">
      <!-- 2000 -->
      <defs>
       <path d="M 50.34375 8.453125 
L 50.34375 0 
L 3.03125 0 
Q 2.9375 3.171875 4.046875 6.109375 
Q 5.859375 10.9375 9.828125 15.625 
Q 13.8125 20.3125 21.34375 26.46875 
Q 33.015625 36.03125 37.109375 41.625 
Q 41.21875 47.21875 41.21875 52.203125 
Q 41.21875 57.421875 37.46875 61 
Q 33.734375 64.59375 27.734375 64.59375 
Q 21.390625 64.59375 17.578125 60.78125 
Q 13.765625 56.984375 13.71875 50.25 
L 4.6875 51.171875 
Q 5.609375 61.28125 11.65625 66.578125 
Q 17.71875 71.875 27.9375 71.875 
Q 38.234375 71.875 44.234375 66.15625 
Q 50.25 60.453125 50.25 52 
Q 50.25 47.703125 48.484375 43.546875 
Q 46.734375 39.40625 42.65625 34.8125 
Q 38.578125 30.21875 29.109375 22.21875 
Q 21.1875 15.578125 18.9375 13.203125 
Q 16.703125 10.84375 15.234375 8.453125 
z
" id="ArialMT-50"/>
      </defs>
      <g style="fill:#262626;" transform="translate(358.332551 248.298239)scale(0.14 -0.14)">
       <use xlink:href="#ArialMT-50"/>
       <use x="55.615234" xlink:href="#ArialMT-48"/>
       <use x="111.230469" xlink:href="#ArialMT-48"/>
       <use x="166.845703" xlink:href="#ArialMT-48"/>
      </g>
     </g>
    </g>
    <g id="text_5">
     <!-- Year -->
     <defs>
      <path d="M 27.875 0 
L 27.875 30.328125 
L 0.296875 71.578125 
L 11.8125 71.578125 
L 25.921875 50 
Q 29.828125 43.953125 33.203125 37.890625 
Q 36.421875 43.5 41.015625 50.53125 
L 54.890625 71.578125 
L 65.921875 71.578125 
L 37.359375 30.328125 
L 37.359375 0 
z
" id="ArialMT-89"/>
      <path d="M 42.09375 16.703125 
L 51.171875 15.578125 
Q 49.03125 7.625 43.21875 3.21875 
Q 37.40625 -1.171875 28.375 -1.171875 
Q 17 -1.171875 10.328125 5.828125 
Q 3.65625 12.84375 3.65625 25.484375 
Q 3.65625 38.578125 10.390625 45.796875 
Q 17.140625 53.03125 27.875 53.03125 
Q 38.28125 53.03125 44.875 45.953125 
Q 51.46875 38.875 51.46875 26.03125 
Q 51.46875 25.25 51.421875 23.6875 
L 12.75 23.6875 
Q 13.234375 15.140625 17.578125 10.59375 
Q 21.921875 6.0625 28.421875 6.0625 
Q 33.25 6.0625 36.671875 8.59375 
Q 40.09375 11.140625 42.09375 16.703125 
z
M 13.234375 30.90625 
L 42.1875 30.90625 
Q 41.609375 37.453125 38.875 40.71875 
Q 34.671875 45.796875 27.984375 45.796875 
Q 21.921875 45.796875 17.796875 41.75 
Q 13.671875 37.703125 13.234375 30.90625 
z
" id="ArialMT-101"/>
      <path d="M 40.4375 6.390625 
Q 35.546875 2.25 31.03125 0.53125 
Q 26.515625 -1.171875 21.34375 -1.171875 
Q 12.796875 -1.171875 8.203125 3 
Q 3.609375 7.171875 3.609375 13.671875 
Q 3.609375 17.484375 5.34375 20.625 
Q 7.078125 23.78125 9.890625 25.6875 
Q 12.703125 27.59375 16.21875 28.5625 
Q 18.796875 29.25 24.03125 29.890625 
Q 34.671875 31.15625 39.703125 32.90625 
Q 39.75 34.71875 39.75 35.203125 
Q 39.75 40.578125 37.25 42.78125 
Q 33.890625 45.75 27.25 45.75 
Q 21.046875 45.75 18.09375 43.578125 
Q 15.140625 41.40625 13.71875 35.890625 
L 5.125 37.0625 
Q 6.296875 42.578125 8.984375 45.96875 
Q 11.671875 49.359375 16.75 51.1875 
Q 21.828125 53.03125 28.515625 53.03125 
Q 35.15625 53.03125 39.296875 51.46875 
Q 43.453125 49.90625 45.40625 47.53125 
Q 47.359375 45.171875 48.140625 41.546875 
Q 48.578125 39.3125 48.578125 33.453125 
L 48.578125 21.734375 
Q 48.578125 9.46875 49.140625 6.21875 
Q 49.703125 2.984375 51.375 0 
L 42.1875 0 
Q 40.828125 2.734375 40.4375 6.390625 
z
M 39.703125 26.03125 
Q 34.90625 24.078125 25.34375 22.703125 
Q 19.921875 21.921875 17.671875 20.9375 
Q 15.4375 19.96875 14.203125 18.09375 
Q 12.984375 16.21875 12.984375 13.921875 
Q 12.984375 10.40625 15.640625 8.0625 
Q 18.3125 5.71875 23.4375 5.71875 
Q 28.515625 5.71875 32.46875 7.9375 
Q 36.421875 10.15625 38.28125 14.015625 
Q 39.703125 17 39.703125 22.796875 
z
" id="ArialMT-97"/>
      <path d="M 6.5 0 
L 6.5 51.859375 
L 14.40625 51.859375 
L 14.40625 44 
Q 17.4375 49.515625 20 51.265625 
Q 22.5625 53.03125 25.640625 53.03125 
Q 30.078125 53.03125 34.671875 50.203125 
L 31.640625 42.046875 
Q 28.421875 43.953125 25.203125 43.953125 
Q 22.3125 43.953125 20.015625 42.21875 
Q 17.71875 40.484375 16.75 37.40625 
Q 15.28125 32.71875 15.28125 27.15625 
L 15.28125 0 
z
" id="ArialMT-114"/>
     </defs>
     <g style="fill:#262626;" transform="translate(233.32705 267.105864)scale(0.168 -0.168)">
      <use xlink:href="#ArialMT-89"/>
      <use x="66.558594" xlink:href="#ArialMT-101"/>
      <use x="122.173828" xlink:href="#ArialMT-97"/>
      <use x="177.789062" xlink:href="#ArialMT-114"/>
     </g>
    </g>
   </g>
   <g id="matplotlib.axis_2">
    <g id="ytick_1">
     <g id="line2d_5">
      <path clip-path="url(#p17ed64a3c4)" d="M 83.657612 217.320602 
L 418.457612 217.320602 
" style="fill:none;stroke:#cccccc;stroke-linecap:round;stroke-opacity:0.9;"/>
     </g>
     <g id="text_6">
      <!-- 0 -->
      <g style="fill:#262626;" transform="translate(62.3723 222.331071)scale(0.14 -0.14)">
       <use xlink:href="#ArialMT-48"/>
      </g>
     </g>
    </g>
    <g id="ytick_2">
     <g id="line2d_6">
      <path clip-path="url(#p17ed64a3c4)" d="M 83.657612 179.576631 
L 418.457612 179.576631 
" style="fill:none;stroke:#cccccc;stroke-linecap:round;stroke-opacity:0.9;"/>
     </g>
     <g id="text_7">
      <!-- 10000 -->
      <g style="fill:#262626;" transform="translate(31.23105 184.587099)scale(0.14 -0.14)">
       <use xlink:href="#ArialMT-49"/>
       <use x="55.615234" xlink:href="#ArialMT-48"/>
       <use x="111.230469" xlink:href="#ArialMT-48"/>
       <use x="166.845703" xlink:href="#ArialMT-48"/>
       <use x="222.460938" xlink:href="#ArialMT-48"/>
      </g>
     </g>
    </g>
    <g id="ytick_3">
     <g id="line2d_7">
      <path clip-path="url(#p17ed64a3c4)" d="M 83.657612 141.832659 
L 418.457612 141.832659 
" style="fill:none;stroke:#cccccc;stroke-linecap:round;stroke-opacity:0.9;"/>
     </g>
     <g id="text_8">
      <!-- 20000 -->
      <g style="fill:#262626;" transform="translate(31.23105 146.843128)scale(0.14 -0.14)">
       <use xlink:href="#ArialMT-50"/>
       <use x="55.615234" xlink:href="#ArialMT-48"/>
       <use x="111.230469" xlink:href="#ArialMT-48"/>
       <use x="166.845703" xlink:href="#ArialMT-48"/>
       <use x="222.460938" xlink:href="#ArialMT-48"/>
      </g>
     </g>
    </g>
    <g id="ytick_4">
     <g id="line2d_8">
      <path clip-path="url(#p17ed64a3c4)" d="M 83.657612 104.088688 
L 418.457612 104.088688 
" style="fill:none;stroke:#cccccc;stroke-linecap:round;stroke-opacity:0.9;"/>
     </g>
     <g id="text_9">
      <!-- 30000 -->
      <defs>
       <path d="M 4.203125 18.890625 
L 12.984375 20.0625 
Q 14.5 12.59375 18.140625 9.296875 
Q 21.78125 6 27 6 
Q 33.203125 6 37.46875 10.296875 
Q 41.75 14.59375 41.75 20.953125 
Q 41.75 27 37.796875 30.921875 
Q 33.84375 34.859375 27.734375 34.859375 
Q 25.25 34.859375 21.53125 33.890625 
L 22.515625 41.609375 
Q 23.390625 41.5 23.921875 41.5 
Q 29.546875 41.5 34.03125 44.421875 
Q 38.53125 47.359375 38.53125 53.46875 
Q 38.53125 58.296875 35.25 61.46875 
Q 31.984375 64.65625 26.8125 64.65625 
Q 21.6875 64.65625 18.265625 61.421875 
Q 14.84375 58.203125 13.875 51.765625 
L 5.078125 53.328125 
Q 6.6875 62.15625 12.390625 67.015625 
Q 18.109375 71.875 26.609375 71.875 
Q 32.46875 71.875 37.390625 69.359375 
Q 42.328125 66.84375 44.9375 62.5 
Q 47.5625 58.15625 47.5625 53.265625 
Q 47.5625 48.640625 45.0625 44.828125 
Q 42.578125 41.015625 37.703125 38.765625 
Q 44.046875 37.3125 47.5625 32.6875 
Q 51.078125 28.078125 51.078125 21.140625 
Q 51.078125 11.765625 44.234375 5.25 
Q 37.40625 -1.265625 26.953125 -1.265625 
Q 17.53125 -1.265625 11.296875 4.34375 
Q 5.078125 9.96875 4.203125 18.890625 
z
" id="ArialMT-51"/>
      </defs>
      <g style="fill:#262626;" transform="translate(31.23105 109.099157)scale(0.14 -0.14)">
       <use xlink:href="#ArialMT-51"/>
       <use x="55.615234" xlink:href="#ArialMT-48"/>
       <use x="111.230469" xlink:href="#ArialMT-48"/>
       <use x="166.845703" xlink:href="#ArialMT-48"/>
       <use x="222.460938" xlink:href="#ArialMT-48"/>
      </g>
     </g>
    </g>
    <g id="ytick_5">
     <g id="line2d_9">
      <path clip-path="url(#p17ed64a3c4)" d="M 83.657612 66.344716 
L 418.457612 66.344716 
" style="fill:none;stroke:#cccccc;stroke-linecap:round;stroke-opacity:0.9;"/>
     </g>
     <g id="text_10">
      <!-- 40000 -->
      <defs>
       <path d="M 32.328125 0 
L 32.328125 17.140625 
L 1.265625 17.140625 
L 1.265625 25.203125 
L 33.9375 71.578125 
L 41.109375 71.578125 
L 41.109375 25.203125 
L 50.78125 25.203125 
L 50.78125 17.140625 
L 41.109375 17.140625 
L 41.109375 0 
z
M 32.328125 25.203125 
L 32.328125 57.46875 
L 9.90625 25.203125 
z
" id="ArialMT-52"/>
      </defs>
      <g style="fill:#262626;" transform="translate(31.23105 71.355185)scale(0.14 -0.14)">
       <use xlink:href="#ArialMT-52"/>
       <use x="55.615234" xlink:href="#ArialMT-48"/>
       <use x="111.230469" xlink:href="#ArialMT-48"/>
       <use x="166.845703" xlink:href="#ArialMT-48"/>
       <use x="222.460938" xlink:href="#ArialMT-48"/>
      </g>
     </g>
    </g>
    <g id="ytick_6">
     <g id="line2d_10">
      <path clip-path="url(#p17ed64a3c4)" d="M 83.657612 28.600745 
L 418.457612 28.600745 
" style="fill:none;stroke:#cccccc;stroke-linecap:round;stroke-opacity:0.9;"/>
     </g>
     <g id="text_11">
      <!-- 50000 -->
      <g style="fill:#262626;" transform="translate(31.23105 33.611214)scale(0.14 -0.14)">
       <use xlink:href="#ArialMT-53"/>
       <use x="55.615234" xlink:href="#ArialMT-48"/>
       <use x="111.230469" xlink:href="#ArialMT-48"/>
       <use x="166.845703" xlink:href="#ArialMT-48"/>
       <use x="222.460938" xlink:href="#ArialMT-48"/>
      </g>
     </g>
    </g>
    <g id="text_12">
     <!-- GDP per capita -->
     <defs>
      <path d="M 41.21875 28.078125 
L 41.21875 36.46875 
L 71.53125 36.53125 
L 71.53125 9.96875 
Q 64.546875 4.390625 57.125 1.578125 
Q 49.703125 -1.21875 41.890625 -1.21875 
Q 31.34375 -1.21875 22.71875 3.296875 
Q 14.109375 7.8125 9.71875 16.359375 
Q 5.328125 24.90625 5.328125 35.453125 
Q 5.328125 45.90625 9.6875 54.953125 
Q 14.0625 64.015625 22.265625 68.40625 
Q 30.46875 72.796875 41.15625 72.796875 
Q 48.921875 72.796875 55.1875 70.28125 
Q 61.46875 67.78125 65.03125 63.28125 
Q 68.609375 58.796875 70.453125 51.5625 
L 61.921875 49.21875 
Q 60.296875 54.6875 57.90625 57.8125 
Q 55.515625 60.9375 51.0625 62.8125 
Q 46.625 64.703125 41.21875 64.703125 
Q 34.71875 64.703125 29.984375 62.71875 
Q 25.25 60.75 22.34375 57.515625 
Q 19.4375 54.296875 17.828125 50.4375 
Q 15.09375 43.796875 15.09375 36.03125 
Q 15.09375 26.46875 18.390625 20.015625 
Q 21.6875 13.578125 27.984375 10.453125 
Q 34.28125 7.328125 41.359375 7.328125 
Q 47.515625 7.328125 53.375 9.6875 
Q 59.234375 12.0625 62.25 14.75 
L 62.25 28.078125 
z
" id="ArialMT-71"/>
      <path d="M 7.71875 0 
L 7.71875 71.578125 
L 32.375 71.578125 
Q 40.71875 71.578125 45.125 70.5625 
Q 51.265625 69.140625 55.609375 65.4375 
Q 61.28125 60.640625 64.078125 53.1875 
Q 66.890625 45.75 66.890625 36.1875 
Q 66.890625 28.03125 64.984375 21.734375 
Q 63.09375 15.4375 60.109375 11.296875 
Q 57.125 7.171875 53.578125 4.796875 
Q 50.046875 2.4375 45.046875 1.21875 
Q 40.046875 0 33.546875 0 
z
M 17.1875 8.453125 
L 32.46875 8.453125 
Q 39.546875 8.453125 43.578125 9.765625 
Q 47.609375 11.078125 50 13.484375 
Q 53.375 16.84375 55.25 22.53125 
Q 57.125 28.21875 57.125 36.328125 
Q 57.125 47.5625 53.4375 53.59375 
Q 49.75 59.625 44.484375 61.671875 
Q 40.671875 63.140625 32.234375 63.140625 
L 17.1875 63.140625 
z
" id="ArialMT-68"/>
      <path d="M 7.71875 0 
L 7.71875 71.578125 
L 34.71875 71.578125 
Q 41.84375 71.578125 45.609375 70.90625 
Q 50.875 70.015625 54.4375 67.546875 
Q 58.015625 65.09375 60.1875 60.640625 
Q 62.359375 56.203125 62.359375 50.875 
Q 62.359375 41.75 56.546875 35.421875 
Q 50.734375 29.109375 35.546875 29.109375 
L 17.1875 29.109375 
L 17.1875 0 
z
M 17.1875 37.546875 
L 35.6875 37.546875 
Q 44.875 37.546875 48.734375 40.96875 
Q 52.59375 44.390625 52.59375 50.59375 
Q 52.59375 55.078125 50.3125 58.265625 
Q 48.046875 61.46875 44.34375 62.5 
Q 41.9375 63.140625 35.5 63.140625 
L 17.1875 63.140625 
z
" id="ArialMT-80"/>
      <path id="ArialMT-32"/>
      <path d="M 6.59375 -19.875 
L 6.59375 51.859375 
L 14.59375 51.859375 
L 14.59375 45.125 
Q 17.4375 49.078125 21 51.046875 
Q 24.5625 53.03125 29.640625 53.03125 
Q 36.28125 53.03125 41.359375 49.609375 
Q 46.4375 46.1875 49.015625 39.953125 
Q 51.609375 33.734375 51.609375 26.3125 
Q 51.609375 18.359375 48.75 11.984375 
Q 45.90625 5.609375 40.453125 2.21875 
Q 35.015625 -1.171875 29 -1.171875 
Q 24.609375 -1.171875 21.109375 0.6875 
Q 17.625 2.546875 15.375 5.375 
L 15.375 -19.875 
z
M 14.546875 25.640625 
Q 14.546875 15.625 18.59375 10.84375 
Q 22.65625 6.0625 28.421875 6.0625 
Q 34.28125 6.0625 38.453125 11.015625 
Q 42.625 15.96875 42.625 26.375 
Q 42.625 36.28125 38.546875 41.203125 
Q 34.46875 46.140625 28.8125 46.140625 
Q 23.1875 46.140625 18.859375 40.890625 
Q 14.546875 35.640625 14.546875 25.640625 
z
" id="ArialMT-112"/>
      <path d="M 40.4375 19 
L 49.078125 17.875 
Q 47.65625 8.9375 41.8125 3.875 
Q 35.984375 -1.171875 27.484375 -1.171875 
Q 16.84375 -1.171875 10.375 5.78125 
Q 3.90625 12.75 3.90625 25.734375 
Q 3.90625 34.125 6.6875 40.421875 
Q 9.46875 46.734375 15.15625 49.875 
Q 20.84375 53.03125 27.546875 53.03125 
Q 35.984375 53.03125 41.359375 48.75 
Q 46.734375 44.484375 48.25 36.625 
L 39.703125 35.296875 
Q 38.484375 40.53125 35.375 43.15625 
Q 32.28125 45.796875 27.875 45.796875 
Q 21.234375 45.796875 17.078125 41.03125 
Q 12.9375 36.28125 12.9375 25.984375 
Q 12.9375 15.53125 16.9375 10.796875 
Q 20.953125 6.0625 27.390625 6.0625 
Q 32.5625 6.0625 36.03125 9.234375 
Q 39.5 12.40625 40.4375 19 
z
" id="ArialMT-99"/>
      <path d="M 6.640625 61.46875 
L 6.640625 71.578125 
L 15.4375 71.578125 
L 15.4375 61.46875 
z
M 6.640625 0 
L 6.640625 51.859375 
L 15.4375 51.859375 
L 15.4375 0 
z
" id="ArialMT-105"/>
      <path d="M 25.78125 7.859375 
L 27.046875 0.09375 
Q 23.34375 -0.6875 20.40625 -0.6875 
Q 15.625 -0.6875 12.984375 0.828125 
Q 10.359375 2.34375 9.28125 4.8125 
Q 8.203125 7.28125 8.203125 15.1875 
L 8.203125 45.015625 
L 1.765625 45.015625 
L 1.765625 51.859375 
L 8.203125 51.859375 
L 8.203125 64.703125 
L 16.9375 69.96875 
L 16.9375 51.859375 
L 25.78125 51.859375 
L 25.78125 45.015625 
L 16.9375 45.015625 
L 16.9375 14.703125 
Q 16.9375 10.9375 17.40625 9.859375 
Q 17.875 8.796875 18.921875 8.15625 
Q 19.96875 7.515625 21.921875 7.515625 
Q 23.390625 7.515625 25.78125 7.859375 
z
" id="ArialMT-116"/>
     </defs>
     <g style="fill:#262626;" transform="translate(23.89205 173.479176)rotate(-90)scale(0.168 -0.168)">
      <use xlink:href="#ArialMT-71"/>
      <use x="77.783203" xlink:href="#ArialMT-68"/>
      <use x="150" xlink:href="#ArialMT-80"/>
      <use x="216.683594" xlink:href="#ArialMT-32"/>
      <use x="244.466797" xlink:href="#ArialMT-112"/>
      <use x="300.082031" xlink:href="#ArialMT-101"/>
      <use x="355.697266" xlink:href="#ArialMT-114"/>
      <use x="388.998047" xlink:href="#ArialMT-32"/>
      <use x="416.78125" xlink:href="#ArialMT-99"/>
      <use x="466.78125" xlink:href="#ArialMT-97"/>
      <use x="522.396484" xlink:href="#ArialMT-112"/>
      <use x="578.011719" xlink:href="#ArialMT-105"/>
      <use x="600.228516" xlink:href="#ArialMT-116"/>
      <use x="628.011719" xlink:href="#ArialMT-97"/>
     </g>
    </g>
   </g>
   <g id="line2d_11">
    <path clip-path="url(#p17ed64a3c4)" d="M 98.875794 214.893665 
L 135.546112 214.48603 
L 166.715882 214.45206 
L 172.216429 214.26334 
L 190.551588 214.150109 
L 210.720263 214.285987 
L 212.553779 214.14256 
L 214.387295 213.995358 
L 243.723549 213.734925 
L 245.557065 213.689632 
L 247.390581 213.666986 
L 249.224096 213.568851 
L 251.057612 213.976486 
L 252.891128 213.916096 
L 254.724644 213.648114 
L 256.55816 213.440522 
L 258.391676 213.557528 
L 260.225192 213.678309 
L 282.227382 214.463383 
L 284.060898 213.927419 
L 285.894414 213.587723 
L 287.72793 213.176314 
L 289.561446 213.587723 
L 291.394962 213.312192 
L 293.228478 213.164991 
L 295.061993 213.157442 
L 296.895509 213.270674 
L 298.729025 213.591498 
L 300.562541 213.836834 
L 302.396057 214.304859 
L 304.229573 214.051974 
L 306.063089 213.734925 
L 307.896605 213.357485 
L 309.73012 213.040436 
L 311.563636 212.991369 
L 313.397152 212.976271 
L 315.230668 213.195186 
L 317.064184 212.897009 
L 318.8977 212.447855 
L 320.731216 212.206294 
L 322.564732 212.387465 
L 324.398248 212.142129 
L 326.231763 212.119483 
L 328.065279 211.942086 
L 329.898795 212.096836 
L 331.732311 211.987379 
L 333.565827 211.345731 
L 335.399343 211.100396 
L 337.232859 210.941871 
L 339.066375 210.998487 
L 340.89989 210.428553 
L 342.733406 210.122827 
L 344.566922 209.31888 
L 346.400438 208.601745 
L 348.233954 208.228079 
L 350.06747 207.846865 
L 351.900986 207.616627 
L 353.734502 207.85064 
L 355.568018 208.035585 
L 357.401533 207.695889 
L 359.235049 207.012724 
L 361.068565 206.008734 
L 362.902081 205.487867 
L 364.735597 204.857543 
L 366.569113 204.132859 
L 368.402629 203.959236 
L 370.236145 203.906395 
L 372.06966 203.109997 
L 373.903176 201.955031 
L 375.736692 200.713255 
L 377.570208 199.229917 
L 379.403724 197.98814 
L 381.23724 196.20285 
L 383.070756 193.398473 
L 384.904272 191.137609 
L 386.737788 189.080563 
L 388.571303 188.102994 
L 390.404819 185.638313 
L 392.238335 181.558189 
L 394.071851 178.742489 
L 395.905367 177.108175 
L 397.738883 175.470087 
L 399.572399 173.12996 
L 401.405915 172.020288 
L 403.23943 170.820029 
" style="fill:none;stroke:#f47915;stroke-linecap:round;stroke-width:2;"/>
   </g>
   <g id="line2d_12">
    <path clip-path="url(#p17ed64a3c4)" d="M 98.875794 206.533375 
L 106.209858 205.09533 
L 108.043373 205.49919 
L 109.876889 204.838671 
L 111.710405 204.823573 
L 113.543921 205.174592 
L 115.377437 204.793378 
L 117.210953 204.6575 
L 119.044469 204.81225 
L 120.877985 205.457672 
L 122.711501 204.461231 
L 128.212048 203.74787 
L 130.045564 203.815809 
L 131.87908 203.287394 
L 133.712596 203.291168 
L 135.546112 202.804271 
L 139.213143 202.959021 
L 144.713691 202.317373 
L 150.214239 202.309825 
L 152.047755 202.483447 
L 153.881271 201.883318 
L 157.548302 201.045402 
L 161.215334 201.041627 
L 163.04885 201.207701 
L 164.882366 201.037853 
L 168.549398 199.807399 
L 170.382913 198.954386 
L 174.049945 199.071392 
L 175.883461 199.611131 
L 177.716977 199.720588 
L 179.550493 198.659983 
L 181.384009 198.191957 
L 183.217525 197.527664 
L 185.051041 197.399334 
L 188.718072 195.85938 
L 190.551588 196.153783 
L 192.385104 196.289661 
L 194.21862 195.874478 
L 196.052136 196.221722 
L 197.885652 196.221722 
L 201.552683 195.130921 
L 203.386199 194.840293 
L 205.219715 195.885801 
L 207.053231 195.531007 
L 210.720263 194.41756 
L 212.553779 194.066541 
L 214.387295 193.190881 
L 216.220811 193.307888 
L 218.054326 191.681122 
L 219.887842 191.367847 
L 223.554874 191.322555 
L 225.38839 194.300554 
L 227.221906 195.972612 
L 229.055422 196.557643 
L 230.888938 194.617603 
L 232.722453 193.904242 
L 234.555969 192.994613 
L 236.389485 191.767933 
L 238.223001 192.685112 
L 240.056517 190.669584 
L 241.890033 190.333663 
L 243.723549 189.465551 
L 245.557065 189.763729 
L 247.390581 191.277262 
L 249.224096 191.209323 
L 251.057612 190.533706 
L 252.891128 188.839001 
L 254.724644 187.846335 
L 256.55816 186.627205 
L 258.391676 185.676056 
L 260.225192 185.4043 
L 262.058708 185.4043 
L 265.725739 179.138801 
L 267.559255 178.308433 
L 269.392771 177.746048 
L 274.893319 182.777319 
L 276.726835 183.475583 
L 278.56035 182.728252 
L 280.393866 181.626128 
L 282.227382 181.686519 
L 284.060898 181.090164 
L 285.894414 181.437408 
L 289.561446 178.066872 
L 291.394962 176.636375 
L 295.061993 175.322885 
L 296.895509 175.304013 
L 298.729025 173.820675 
L 300.562541 172.027836 
L 302.396057 170.574693 
L 304.229573 170.419943 
L 306.063089 168.823373 
L 307.896605 166.317174 
L 311.563636 164.105377 
L 313.397152 162.818307 
L 315.230668 162.17666 
L 317.064184 159.795015 
L 318.8977 158.005951 
L 320.731216 158.051244 
L 322.564732 156.730205 
L 324.398248 152.718021 
L 326.231763 153.820145 
L 328.065279 154.118322 
L 329.898795 151.653641 
L 331.732311 148.860587 
L 335.399343 141.345762 
L 337.232859 139.594442 
L 339.066375 141.927019 
L 340.89989 142.342203 
L 342.733406 141.436348 
L 344.566922 140.813572 
L 346.400438 139.145288 
L 348.233954 136.91462 
L 350.06747 133.355363 
L 351.900986 130.226388 
L 353.734502 128.086305 
L 355.568018 126.727522 
L 357.401533 127.882487 
L 359.235049 127.444657 
L 361.068565 124.919586 
L 362.902081 121.628311 
L 364.735597 117.299078 
L 366.569113 112.486721 
L 368.402629 104.692591 
L 370.236145 100.397327 
L 372.06966 95.615166 
L 373.903176 87.519084 
L 375.736692 84.529762 
L 377.570208 83.767334 
L 379.403724 83.880565 
L 381.23724 80.234498 
L 383.070756 74.935244 
L 384.904272 72.946137 
L 386.737788 73.625528 
L 388.571303 75.188129 
L 390.404819 82.461392 
L 392.238335 84.778872 
L 394.071851 85.32616 
L 395.905367 82.257575 
L 397.738883 75.018281 
L 401.405915 71.066487 
L 403.23943 69.507661 
L 403.23943 69.507661 
" style="fill:none;stroke:#165aa7;stroke-linecap:round;stroke-width:2;"/>
   </g>
   <g id="line2d_13">
    <path clip-path="url(#p17ed64a3c4)" d="M 100.70931 213.629242 
L 135.546112 214.006681 
L 164.882366 213.648114 
L 166.715882 213.470717 
L 168.549398 213.425424 
L 170.382913 213.523559 
L 172.216429 213.334839 
L 174.049945 213.693406 
L 175.883461 213.391455 
L 179.550493 213.206509 
L 181.384009 213.297095 
L 183.217525 213.583949 
L 185.051041 212.88946 
L 186.884556 212.870588 
L 188.718072 213.206509 
L 192.385104 212.972497 
L 194.21862 212.617703 
L 197.885652 212.54599 
L 199.719168 212.64035 
L 201.552683 212.515795 
L 203.386199 212.817746 
L 205.219715 212.76113 
L 207.053231 212.145904 
L 212.553779 212.161001 
L 214.387295 212.26291 
L 216.220811 211.972281 
L 218.054326 212.085513 
L 219.887842 211.915665 
L 221.721358 211.998702 
L 223.554874 212.662996 
L 225.38839 212.002477 
L 227.221906 212.410111 
L 229.055422 212.047769 
L 230.888938 211.859049 
L 232.722453 212.070416 
L 234.555969 211.843952 
L 241.890033 211.689202 
L 243.723549 211.492933 
L 249.224096 211.579744 
L 254.724644 211.749592 
L 256.55816 211.591067 
L 260.225192 211.787336 
L 269.392771 211.436317 
L 273.059803 211.681653 
L 274.893319 212.021349 
L 278.56035 212.025123 
L 280.393866 211.942086 
L 287.72793 211.994928 
L 289.561446 211.964733 
L 291.394962 212.066641 
L 293.228478 211.923214 
L 295.061993 212.191196 
L 296.895509 212.062867 
L 298.729025 212.213843 
L 300.562541 212.025123 
L 306.063089 212.20252 
L 307.896605 212.077965 
L 309.73012 212.500697 
L 311.563636 212.66677 
L 313.397152 212.519569 
L 315.230668 212.66677 
L 322.564732 212.647898 
L 324.398248 212.410111 
L 326.231763 212.549764 
L 328.065279 212.179873 
L 329.898795 212.398788 
L 333.565827 212.647898 
L 335.399343 213.051759 
L 337.232859 213.006466 
L 344.566922 213.414101 
L 346.400438 213.466943 
L 350.06747 213.191412 
L 353.734502 212.685642 
L 355.568018 212.478051 
L 357.401533 212.425209 
L 362.902081 211.719397 
L 364.735597 211.413671 
L 366.569113 210.990938 
L 368.402629 210.745602 
L 372.06966 210.017144 
L 375.736692 209.44721 
L 377.570208 209.10374 
L 381.23724 207.87706 
L 386.737788 204.740536 
L 388.571303 203.151515 
L 390.404819 202.464575 
L 394.071851 199.324277 
L 395.905367 198.546751 
L 397.738883 198.252348 
L 399.572399 197.271005 
L 403.23943 194.821421 
L 403.23943 194.821421 
" style="fill:none;stroke:#06ab54;stroke-linecap:round;stroke-width:2;"/>
   </g>
   <g id="line2d_14">
    <path clip-path="url(#p17ed64a3c4)" d="M 98.875794 213.885901 
L 142.880175 213.508461 
L 144.713691 213.236704 
L 146.547207 213.365034 
L 148.380723 213.274448 
L 150.214239 213.319741 
L 153.881271 212.968722 
L 155.714786 213.13857 
L 159.381818 213.100826 
L 161.215334 213.108375 
L 163.04885 212.98382 
L 166.715882 212.523343 
L 168.549398 212.787551 
L 170.382913 212.617703 
L 172.216429 212.221392 
L 174.049945 212.500697 
L 175.883461 212.217617 
L 177.716977 212.236489 
L 179.550493 211.677878 
L 181.384009 211.659006 
L 183.217525 212.021349 
L 185.051041 211.968507 
L 186.884556 211.024908 
L 188.718072 211.557098 
L 192.385104 211.240048 
L 194.21862 211.628811 
L 196.052136 211.307987 
L 197.885652 211.330634 
L 199.719168 211.489159 
L 201.552683 210.783346 
L 203.386199 210.639919 
L 208.886747 210.749377 
L 210.720263 210.488943 
L 212.553779 210.345516 
L 214.387295 210.330419 
L 216.220811 210.63237 
L 218.054326 210.115278 
L 219.887842 209.10374 
L 221.721358 208.926343 
L 223.554874 208.911245 
L 225.38839 208.111073 
L 227.221906 208.771593 
L 229.055422 207.948774 
L 232.722453 208.201659 
L 234.555969 208.06578 
L 236.389485 207.81667 
L 240.056517 207.895932 
L 241.890033 207.276931 
L 243.723549 207.110858 
L 245.557065 207.994067 
L 247.390581 208.058232 
L 249.224096 207.431682 
L 251.057612 206.620186 
L 252.891128 206.744741 
L 254.724644 206.631509 
L 256.55816 206.020057 
L 258.391676 205.680361 
L 260.225192 205.019842 
L 262.058708 203.193034 
L 263.892223 202.921277 
L 265.725739 202.943923 
L 267.559255 203.234552 
L 269.392771 203.234552 
L 271.226287 204.064919 
L 273.059803 210.617273 
L 276.726835 209.666125 
L 278.56035 208.760269 
L 280.393866 208.401702 
L 282.227382 207.812896 
L 284.060898 206.552247 
L 285.894414 205.672813 
L 289.561446 204.649951 
L 291.394962 203.615766 
L 295.061993 201.970129 
L 296.895509 201.000109 
L 298.729025 199.762107 
L 304.229573 193.689102 
L 306.063089 192.152922 
L 307.896605 189.499521 
L 309.73012 188.057701 
L 311.563636 185.140092 
L 313.397152 181.977147 
L 318.8977 168.615781 
L 320.731216 166.286978 
L 322.564732 162.410672 
L 324.398248 158.994843 
L 326.231763 160.323431 
L 328.065279 158.051244 
L 329.898795 155.012854 
L 331.732311 151.634769 
L 333.565827 147.479157 
L 335.399343 143.757602 
L 337.232859 140.292705 
L 339.066375 142.006282 
L 340.89989 143.334869 
L 342.733406 145.410788 
L 344.566922 145.995819 
L 346.400438 145.542892 
L 348.233954 140.424809 
L 350.06747 136.103124 
L 351.900986 128.999709 
L 355.568018 117.899207 
L 357.401533 111.218524 
L 361.068565 104.213243 
L 362.902081 101.340927 
L 364.735597 95.988832 
L 366.569113 94.501719 
L 368.402629 94.041243 
L 370.236145 96.041673 
L 372.06966 96.615381 
L 373.903176 91.655824 
L 375.736692 92.440898 
L 377.570208 91.954001 
L 379.403724 90.591444 
L 381.23724 87.654963 
L 383.070756 84.114578 
L 384.904272 83.057747 
L 386.737788 81.238487 
L 388.571303 84.246682 
L 390.404819 89.753527 
L 392.238335 83.416315 
L 394.071851 85.295964 
L 395.905367 84.676963 
L 397.738883 83.35215 
L 399.572399 83.140784 
L 401.405915 81.329073 
L 403.23943 79.736277 
L 403.23943 79.736277 
" style="fill:none;stroke:#bb60d5;stroke-linecap:round;stroke-width:2;"/>
   </g>
   <g id="line2d_15">
    <path clip-path="url(#p17ed64a3c4)" d="M 98.875794 206.65793 
L 100.70931 206.223875 
L 102.542826 205.661489 
L 104.376342 204.865092 
L 106.209858 204.827348 
L 108.043373 205.102879 
L 109.876889 204.84622 
L 111.710405 205.117976 
L 113.543921 205.06136 
L 117.210953 204.393292 
L 119.044469 204.661274 
L 120.877985 204.264962 
L 122.711501 203.419497 
L 124.545016 202.962795 
L 126.378532 203.706352 
L 128.212048 203.812035 
L 130.045564 203.366656 
L 131.87908 203.185485 
L 133.712596 202.808045 
L 135.546112 203.219454 
L 137.379628 202.883533 
L 139.213143 202.664618 
L 141.046659 202.298502 
L 142.880175 202.74388 
L 144.713691 202.332471 
L 146.547207 202.49477 
L 148.380723 202.351343 
L 150.214239 202.05694 
L 153.881271 198.954386 
L 155.714786 198.773215 
L 157.548302 198.067402 
L 161.215334 198.169311 
L 163.04885 198.45994 
L 164.882366 198.320287 
L 166.715882 197.89378 
L 168.549398 198.392 
L 170.382913 197.633347 
L 172.216429 197.754127 
L 174.049945 197.320072 
L 175.883461 195.817862 
L 177.716977 197.255907 
L 179.550493 198.207055 
L 181.384009 196.300984 
L 183.217525 197.104931 
L 185.051041 195.5763 
L 186.884556 195.519684 
L 188.718072 193.953309 
L 190.551588 193.723071 
L 192.385104 191.571665 
L 194.21862 191.820775 
L 196.052136 191.06967 
L 197.885652 191.88494 
L 199.719168 190.545029 
L 201.552683 188.023731 
L 203.386199 188.106768 
L 205.219715 191.013054 
L 207.053231 188.378525 
L 208.886747 188.688025 
L 210.720263 188.216226 
L 212.553779 187.321694 
L 214.387295 186.744211 
L 216.220811 189.639173 
L 218.054326 189.261734 
L 219.887842 185.834581 
L 221.721358 187.049937 
L 223.554874 184.679616 
L 225.38839 184.555061 
L 227.221906 185.294842 
L 229.055422 186.619656 
L 230.888938 185.366556 
L 232.722453 181.765781 
L 236.389485 181.082615 
L 238.223001 179.236935 
L 240.056517 179.387911 
L 241.890033 179.425655 
L 243.723549 177.527133 
L 245.557065 181.501573 
L 247.390581 183.864346 
L 249.224096 188.918264 
L 251.057612 189.880735 
L 252.891128 187.59345 
L 254.724644 183.917187 
L 256.55816 180.641011 
L 258.391676 177.878152 
L 260.225192 180.342833 
L 262.058708 177.844182 
L 263.892223 174.643494 
L 265.725739 168.842245 
L 267.559255 163.818523 
L 269.392771 159.225081 
L 271.226287 155.416715 
L 273.059803 156.960443 
L 274.893319 162.701301 
L 276.726835 164.263901 
L 278.56035 162.369154 
L 280.393866 164.05631 
L 282.227382 159.795015 
L 284.060898 156.454674 
L 285.894414 155.25819 
L 287.72793 153.469126 
L 289.561446 154.993982 
L 291.394962 151.759324 
L 295.061993 151.619671 
L 296.895509 153.363443 
L 298.729025 149.755119 
L 300.562541 149.162538 
L 302.396057 148.720934 
L 304.229573 145.693868 
L 306.063089 143.663242 
L 307.896605 140.473876 
L 309.73012 136.586247 
L 311.563636 132.287209 
L 313.397152 131.105823 
L 315.230668 127.897585 
L 317.064184 125.995289 
L 318.8977 126.893595 
L 320.731216 125.244184 
L 322.564732 121.394299 
L 324.398248 116.910315 
L 328.065279 119.35235 
L 329.898795 115.18919 
L 331.732311 111.633708 
L 333.565827 106.779833 
L 335.399343 104.273633 
L 337.232859 105.549379 
L 339.066375 103.877322 
L 340.89989 107.066687 
L 342.733406 103.488559 
L 344.566922 96.253039 
L 346.400438 92.674911 
L 350.06747 86.235789 
L 351.900986 81.951849 
L 353.734502 78.585086 
L 355.568018 77.735847 
L 357.401533 79.690985 
L 359.235049 76.758278 
L 361.068565 74.791817 
L 362.902081 70.843798 
L 364.735597 68.643324 
L 366.569113 64.782116 
L 370.236145 54.745994 
L 372.06966 49.073075 
L 373.903176 44.12484 
L 375.736692 44.15881 
L 377.570208 42.690569 
L 379.403724 39.327582 
L 381.23724 34.288761 
L 383.070756 29.902912 
L 384.904272 26.75129 
L 386.737788 25.196239 
L 388.571303 27.559011 
L 390.404819 34.439737 
L 392.238335 31.367378 
L 394.071851 29.827424 
L 395.905367 27.113632 
L 397.738883 25.34344 
L 399.572399 22.320148 
L 401.405915 18.821282 
L 403.23943 17.220938 
L 403.23943 17.220938 
" style="fill:none;stroke:#cb495c;stroke-linecap:round;stroke-width:2;"/>
   </g>
   <g id="text_13">
    <!-- United Kingdom -->
    <defs>
     <path d="M 54.6875 71.578125 
L 64.15625 71.578125 
L 64.15625 30.21875 
Q 64.15625 19.4375 61.71875 13.078125 
Q 59.28125 6.734375 52.90625 2.75 
Q 46.53125 -1.21875 36.1875 -1.21875 
Q 26.125 -1.21875 19.71875 2.25 
Q 13.328125 5.71875 10.59375 12.28125 
Q 7.859375 18.84375 7.859375 30.21875 
L 7.859375 71.578125 
L 17.328125 71.578125 
L 17.328125 30.28125 
Q 17.328125 20.953125 19.0625 16.53125 
Q 20.796875 12.109375 25.015625 9.71875 
Q 29.25 7.328125 35.359375 7.328125 
Q 45.796875 7.328125 50.234375 12.0625 
Q 54.6875 16.796875 54.6875 30.28125 
z
" id="ArialMT-85"/>
     <path d="M 6.59375 0 
L 6.59375 51.859375 
L 14.5 51.859375 
L 14.5 44.484375 
Q 20.21875 53.03125 31 53.03125 
Q 35.6875 53.03125 39.625 51.34375 
Q 43.5625 49.65625 45.515625 46.921875 
Q 47.46875 44.1875 48.25 40.4375 
Q 48.734375 37.984375 48.734375 31.890625 
L 48.734375 0 
L 39.9375 0 
L 39.9375 31.546875 
Q 39.9375 36.921875 38.90625 39.578125 
Q 37.890625 42.234375 35.28125 43.8125 
Q 32.671875 45.40625 29.15625 45.40625 
Q 23.53125 45.40625 19.453125 41.84375 
Q 15.375 38.28125 15.375 28.328125 
L 15.375 0 
z
" id="ArialMT-110"/>
     <path d="M 40.234375 0 
L 40.234375 6.546875 
Q 35.296875 -1.171875 25.734375 -1.171875 
Q 19.53125 -1.171875 14.328125 2.25 
Q 9.125 5.671875 6.265625 11.796875 
Q 3.421875 17.921875 3.421875 25.875 
Q 3.421875 33.640625 6 39.96875 
Q 8.59375 46.296875 13.765625 49.65625 
Q 18.953125 53.03125 25.34375 53.03125 
Q 30.03125 53.03125 33.6875 51.046875 
Q 37.359375 49.078125 39.65625 45.90625 
L 39.65625 71.578125 
L 48.390625 71.578125 
L 48.390625 0 
z
M 12.453125 25.875 
Q 12.453125 15.921875 16.640625 10.984375 
Q 20.84375 6.0625 26.5625 6.0625 
Q 32.328125 6.0625 36.34375 10.765625 
Q 40.375 15.484375 40.375 25.140625 
Q 40.375 35.796875 36.265625 40.765625 
Q 32.171875 45.75 26.171875 45.75 
Q 20.3125 45.75 16.375 40.96875 
Q 12.453125 36.1875 12.453125 25.875 
z
" id="ArialMT-100"/>
     <path d="M 7.328125 0 
L 7.328125 71.578125 
L 16.796875 71.578125 
L 16.796875 36.078125 
L 52.34375 71.578125 
L 65.1875 71.578125 
L 35.15625 42.578125 
L 66.5 0 
L 54 0 
L 28.515625 36.234375 
L 16.796875 24.8125 
L 16.796875 0 
z
" id="ArialMT-75"/>
     <path d="M 4.984375 -4.296875 
L 13.53125 -5.5625 
Q 14.0625 -9.515625 16.5 -11.328125 
Q 19.78125 -13.765625 25.4375 -13.765625 
Q 31.546875 -13.765625 34.859375 -11.328125 
Q 38.1875 -8.890625 39.359375 -4.5 
Q 40.046875 -1.8125 39.984375 6.78125 
Q 34.234375 0 25.640625 0 
Q 14.9375 0 9.078125 7.71875 
Q 3.21875 15.4375 3.21875 26.21875 
Q 3.21875 33.640625 5.90625 39.90625 
Q 8.59375 46.1875 13.6875 49.609375 
Q 18.796875 53.03125 25.6875 53.03125 
Q 34.859375 53.03125 40.828125 45.609375 
L 40.828125 51.859375 
L 48.921875 51.859375 
L 48.921875 7.03125 
Q 48.921875 -5.078125 46.453125 -10.125 
Q 44 -15.1875 38.640625 -18.109375 
Q 33.296875 -21.046875 25.484375 -21.046875 
Q 16.21875 -21.046875 10.5 -16.875 
Q 4.78125 -12.703125 4.984375 -4.296875 
z
M 12.25 26.859375 
Q 12.25 16.65625 16.296875 11.96875 
Q 20.359375 7.28125 26.46875 7.28125 
Q 32.515625 7.28125 36.609375 11.9375 
Q 40.71875 16.609375 40.71875 26.5625 
Q 40.71875 36.078125 36.5 40.90625 
Q 32.28125 45.75 26.3125 45.75 
Q 20.453125 45.75 16.34375 40.984375 
Q 12.25 36.234375 12.25 26.859375 
z
" id="ArialMT-103"/>
     <path d="M 3.328125 25.921875 
Q 3.328125 40.328125 11.328125 47.265625 
Q 18.015625 53.03125 27.640625 53.03125 
Q 38.328125 53.03125 45.109375 46.015625 
Q 51.90625 39.015625 51.90625 26.65625 
Q 51.90625 16.65625 48.90625 10.90625 
Q 45.90625 5.171875 40.15625 2 
Q 34.421875 -1.171875 27.640625 -1.171875 
Q 16.75 -1.171875 10.03125 5.8125 
Q 3.328125 12.796875 3.328125 25.921875 
z
M 12.359375 25.921875 
Q 12.359375 15.96875 16.703125 11.015625 
Q 21.046875 6.0625 27.640625 6.0625 
Q 34.1875 6.0625 38.53125 11.03125 
Q 42.875 16.015625 42.875 26.21875 
Q 42.875 35.84375 38.5 40.796875 
Q 34.125 45.75 27.640625 45.75 
Q 21.046875 45.75 16.703125 40.8125 
Q 12.359375 35.890625 12.359375 25.921875 
z
" id="ArialMT-111"/>
     <path d="M 6.59375 0 
L 6.59375 51.859375 
L 14.453125 51.859375 
L 14.453125 44.578125 
Q 16.890625 48.390625 20.9375 50.703125 
Q 25 53.03125 30.171875 53.03125 
Q 35.9375 53.03125 39.625 50.640625 
Q 43.3125 48.25 44.828125 43.953125 
Q 50.984375 53.03125 60.84375 53.03125 
Q 68.5625 53.03125 72.703125 48.75 
Q 76.859375 44.484375 76.859375 35.59375 
L 76.859375 0 
L 68.109375 0 
L 68.109375 32.671875 
Q 68.109375 37.9375 67.25 40.25 
Q 66.40625 42.578125 64.15625 43.984375 
Q 61.921875 45.40625 58.890625 45.40625 
Q 53.421875 45.40625 49.796875 41.765625 
Q 46.1875 38.140625 46.1875 30.125 
L 46.1875 0 
L 37.40625 0 
L 37.40625 33.6875 
Q 37.40625 39.546875 35.25 42.46875 
Q 33.109375 45.40625 28.21875 45.40625 
Q 24.515625 45.40625 21.359375 43.453125 
Q 18.21875 41.5 16.796875 37.734375 
Q 15.375 33.984375 15.375 26.90625 
L 15.375 0 
z
" id="ArialMT-109"/>
    </defs>
    <g style="fill:#165aa7;" transform="translate(410.573494 69.507661)scale(0.14 -0.14)">
     <use xlink:href="#ArialMT-85"/>
     <use x="72.216797" xlink:href="#ArialMT-110"/>
     <use x="127.832031" xlink:href="#ArialMT-105"/>
     <use x="150.048828" xlink:href="#ArialMT-116"/>
     <use x="177.832031" xlink:href="#ArialMT-101"/>
     <use x="233.447266" xlink:href="#ArialMT-100"/>
     <use x="289.0625" xlink:href="#ArialMT-32"/>
     <use x="316.845703" xlink:href="#ArialMT-75"/>
     <use x="383.544922" xlink:href="#ArialMT-105"/>
     <use x="405.761719" xlink:href="#ArialMT-110"/>
     <use x="461.376953" xlink:href="#ArialMT-103"/>
     <use x="516.992188" xlink:href="#ArialMT-100"/>
     <use x="572.607422" xlink:href="#ArialMT-111"/>
     <use x="628.222656" xlink:href="#ArialMT-109"/>
    </g>
   </g>
   <g id="text_14">
    <!-- United States -->
    <defs>
     <path d="M 4.5 23 
L 13.421875 23.78125 
Q 14.0625 18.40625 16.375 14.96875 
Q 18.703125 11.53125 23.578125 9.40625 
Q 28.46875 7.28125 34.578125 7.28125 
Q 39.984375 7.28125 44.140625 8.890625 
Q 48.296875 10.5 50.3125 13.296875 
Q 52.34375 16.109375 52.34375 19.4375 
Q 52.34375 22.796875 50.390625 25.3125 
Q 48.4375 27.828125 43.953125 29.546875 
Q 41.0625 30.671875 31.203125 33.03125 
Q 21.34375 35.40625 17.390625 37.5 
Q 12.25 40.1875 9.734375 44.15625 
Q 7.234375 48.140625 7.234375 53.078125 
Q 7.234375 58.5 10.296875 63.203125 
Q 13.375 67.921875 19.28125 70.359375 
Q 25.203125 72.796875 32.421875 72.796875 
Q 40.375 72.796875 46.453125 70.234375 
Q 52.546875 67.671875 55.8125 62.6875 
Q 59.078125 57.71875 59.328125 51.421875 
L 50.25 50.734375 
Q 49.515625 57.515625 45.28125 60.984375 
Q 41.0625 64.453125 32.8125 64.453125 
Q 24.21875 64.453125 20.28125 61.296875 
Q 16.359375 58.15625 16.359375 53.71875 
Q 16.359375 49.859375 19.140625 47.359375 
Q 21.875 44.875 33.421875 42.265625 
Q 44.96875 39.65625 49.265625 37.703125 
Q 55.515625 34.8125 58.484375 30.390625 
Q 61.46875 25.984375 61.46875 20.21875 
Q 61.46875 14.5 58.203125 9.4375 
Q 54.9375 4.390625 48.796875 1.578125 
Q 42.671875 -1.21875 35.015625 -1.21875 
Q 25.296875 -1.21875 18.71875 1.609375 
Q 12.15625 4.4375 8.421875 10.125 
Q 4.6875 15.828125 4.5 23 
z
" id="ArialMT-83"/>
     <path d="M 3.078125 15.484375 
L 11.765625 16.84375 
Q 12.5 11.625 15.84375 8.84375 
Q 19.1875 6.0625 25.203125 6.0625 
Q 31.25 6.0625 34.171875 8.515625 
Q 37.109375 10.984375 37.109375 14.3125 
Q 37.109375 17.28125 34.515625 19 
Q 32.71875 20.171875 25.53125 21.96875 
Q 15.875 24.421875 12.140625 26.203125 
Q 8.40625 27.984375 6.46875 31.125 
Q 4.546875 34.28125 4.546875 38.09375 
Q 4.546875 41.546875 6.125 44.5 
Q 7.71875 47.46875 10.453125 49.421875 
Q 12.5 50.921875 16.03125 51.96875 
Q 19.578125 53.03125 23.640625 53.03125 
Q 29.734375 53.03125 34.34375 51.265625 
Q 38.96875 49.515625 41.15625 46.5 
Q 43.359375 43.5 44.1875 38.484375 
L 35.59375 37.3125 
Q 35.015625 41.3125 32.203125 43.546875 
Q 29.390625 45.796875 24.265625 45.796875 
Q 18.21875 45.796875 15.625 43.796875 
Q 13.03125 41.796875 13.03125 39.109375 
Q 13.03125 37.40625 14.109375 36.03125 
Q 15.1875 34.625 17.484375 33.6875 
Q 18.796875 33.203125 25.25 31.453125 
Q 34.578125 28.953125 38.25 27.359375 
Q 41.9375 25.78125 44.03125 22.75 
Q 46.140625 19.734375 46.140625 15.234375 
Q 46.140625 10.84375 43.578125 6.953125 
Q 41.015625 3.078125 36.171875 0.953125 
Q 31.34375 -1.171875 25.25 -1.171875 
Q 15.140625 -1.171875 9.84375 3.03125 
Q 4.546875 7.234375 3.078125 15.484375 
z
" id="ArialMT-115"/>
    </defs>
    <g style="fill:#cb495c;" transform="translate(410.573494 17.220938)scale(0.14 -0.14)">
     <use xlink:href="#ArialMT-85"/>
     <use x="72.216797" xlink:href="#ArialMT-110"/>
     <use x="127.832031" xlink:href="#ArialMT-105"/>
     <use x="150.048828" xlink:href="#ArialMT-116"/>
     <use x="177.832031" xlink:href="#ArialMT-101"/>
     <use x="233.447266" xlink:href="#ArialMT-100"/>
     <use x="289.0625" xlink:href="#ArialMT-32"/>
     <use x="316.845703" xlink:href="#ArialMT-83"/>
     <use x="383.544922" xlink:href="#ArialMT-116"/>
     <use x="411.328125" xlink:href="#ArialMT-97"/>
     <use x="466.943359" xlink:href="#ArialMT-116"/>
     <use x="494.726562" xlink:href="#ArialMT-101"/>
     <use x="550.341797" xlink:href="#ArialMT-115"/>
    </g>
   </g>
   <g id="text_15">
    <!-- Japan -->
    <defs>
     <path d="M 2.875 20.3125 
L 11.421875 21.484375 
Q 11.765625 13.28125 14.5 10.25 
Q 17.234375 7.234375 22.078125 7.234375 
Q 25.640625 7.234375 28.21875 8.859375 
Q 30.8125 10.5 31.78125 13.296875 
Q 32.765625 16.109375 32.765625 22.265625 
L 32.765625 71.578125 
L 42.234375 71.578125 
L 42.234375 22.796875 
Q 42.234375 13.8125 40.0625 8.875 
Q 37.890625 3.953125 33.171875 1.359375 
Q 28.46875 -1.21875 22.125 -1.21875 
Q 12.703125 -1.21875 7.6875 4.203125 
Q 2.6875 9.625 2.875 20.3125 
z
" id="ArialMT-74"/>
    </defs>
    <g style="fill:#bb60d5;" transform="translate(410.573494 83.510675)scale(0.14 -0.14)">
     <use xlink:href="#ArialMT-74"/>
     <use x="50" xlink:href="#ArialMT-97"/>
     <use x="105.615234" xlink:href="#ArialMT-112"/>
     <use x="161.230469" xlink:href="#ArialMT-97"/>
     <use x="216.845703" xlink:href="#ArialMT-110"/>
    </g>
   </g>
   <g id="text_16">
    <!-- China -->
    <defs>
     <path d="M 58.796875 25.09375 
L 68.265625 22.703125 
Q 65.28125 11.03125 57.546875 4.90625 
Q 49.8125 -1.21875 38.625 -1.21875 
Q 27.046875 -1.21875 19.796875 3.484375 
Q 12.546875 8.203125 8.765625 17.140625 
Q 4.984375 26.078125 4.984375 36.328125 
Q 4.984375 47.515625 9.25 55.828125 
Q 13.53125 64.15625 21.40625 68.46875 
Q 29.296875 72.796875 38.765625 72.796875 
Q 49.515625 72.796875 56.828125 67.328125 
Q 64.15625 61.859375 67.046875 51.953125 
L 57.71875 49.75 
Q 55.21875 57.5625 50.484375 61.125 
Q 45.75 64.703125 38.578125 64.703125 
Q 30.328125 64.703125 24.78125 60.734375 
Q 19.234375 56.78125 16.984375 50.109375 
Q 14.75 43.453125 14.75 36.375 
Q 14.75 27.25 17.40625 20.4375 
Q 20.0625 13.625 25.671875 10.25 
Q 31.296875 6.890625 37.84375 6.890625 
Q 45.796875 6.890625 51.3125 11.46875 
Q 56.84375 16.0625 58.796875 25.09375 
z
" id="ArialMT-67"/>
     <path d="M 6.59375 0 
L 6.59375 71.578125 
L 15.375 71.578125 
L 15.375 45.90625 
Q 21.53125 53.03125 30.90625 53.03125 
Q 36.671875 53.03125 40.921875 50.75 
Q 45.171875 48.484375 47 44.484375 
Q 48.828125 40.484375 48.828125 32.859375 
L 48.828125 0 
L 40.046875 0 
L 40.046875 32.859375 
Q 40.046875 39.453125 37.1875 42.453125 
Q 34.328125 45.453125 29.109375 45.453125 
Q 25.203125 45.453125 21.75 43.421875 
Q 18.3125 41.40625 16.84375 37.9375 
Q 15.375 34.46875 15.375 28.375 
L 15.375 0 
z
" id="ArialMT-104"/>
    </defs>
    <g style="fill:#f47915;" transform="translate(410.573494 170.820029)scale(0.14 -0.14)">
     <use xlink:href="#ArialMT-67"/>
     <use x="72.216797" xlink:href="#ArialMT-104"/>
     <use x="127.832031" xlink:href="#ArialMT-105"/>
     <use x="150.048828" xlink:href="#ArialMT-110"/>
     <use x="205.664062" xlink:href="#ArialMT-97"/>
    </g>
   </g>
   <g id="text_17">
    <!-- India -->
    <defs>
     <path d="M 9.328125 0 
L 9.328125 71.578125 
L 18.796875 71.578125 
L 18.796875 0 
z
" id="ArialMT-73"/>
    </defs>
    <g style="fill:#06ab54;" transform="translate(410.573494 194.821421)scale(0.14 -0.14)">
     <use xlink:href="#ArialMT-73"/>
     <use x="27.783203" xlink:href="#ArialMT-110"/>
     <use x="83.398438" xlink:href="#ArialMT-100"/>
     <use x="139.013672" xlink:href="#ArialMT-105"/>
     <use x="161.230469" xlink:href="#ArialMT-97"/>
    </g>
   </g>
   <g id="text_18">
    <!-- Source: Maddison Project Database (MPD) 2018 -->
    <defs>
     <path d="M 40.578125 0 
L 40.578125 7.625 
Q 34.515625 -1.171875 24.125 -1.171875 
Q 19.53125 -1.171875 15.546875 0.578125 
Q 11.578125 2.34375 9.640625 5 
Q 7.71875 7.671875 6.9375 11.53125 
Q 6.390625 14.109375 6.390625 19.734375 
L 6.390625 51.859375 
L 15.1875 51.859375 
L 15.1875 23.09375 
Q 15.1875 16.21875 15.71875 13.8125 
Q 16.546875 10.359375 19.234375 8.375 
Q 21.921875 6.390625 25.875 6.390625 
Q 29.828125 6.390625 33.296875 8.421875 
Q 36.765625 10.453125 38.203125 13.9375 
Q 39.65625 17.4375 39.65625 24.078125 
L 39.65625 51.859375 
L 48.4375 51.859375 
L 48.4375 0 
z
" id="ArialMT-117"/>
     <path d="M 9.03125 41.84375 
L 9.03125 51.859375 
L 19.046875 51.859375 
L 19.046875 41.84375 
z
M 9.03125 0 
L 9.03125 10.015625 
L 19.046875 10.015625 
L 19.046875 0 
z
" id="ArialMT-58"/>
     <path d="M 7.421875 0 
L 7.421875 71.578125 
L 21.6875 71.578125 
L 38.625 20.90625 
Q 40.96875 13.8125 42.046875 10.296875 
Q 43.265625 14.203125 45.84375 21.78125 
L 62.984375 71.578125 
L 75.734375 71.578125 
L 75.734375 0 
L 66.609375 0 
L 66.609375 59.90625 
L 45.796875 0 
L 37.25 0 
L 16.546875 60.9375 
L 16.546875 0 
z
" id="ArialMT-77"/>
     <path d="M 6.546875 61.375 
L 6.546875 71.578125 
L 15.328125 71.578125 
L 15.328125 61.375 
z
M -4.59375 -20.125 
L -2.9375 -12.640625 
Q -0.296875 -13.328125 1.21875 -13.328125 
Q 3.90625 -13.328125 5.21875 -11.546875 
Q 6.546875 -9.765625 6.546875 -2.640625 
L 6.546875 51.859375 
L 15.328125 51.859375 
L 15.328125 -2.828125 
Q 15.328125 -12.40625 12.84375 -16.15625 
Q 9.671875 -21.046875 2.296875 -21.046875 
Q -1.265625 -21.046875 -4.59375 -20.125 
z
" id="ArialMT-106"/>
     <path d="M 14.703125 0 
L 6.546875 0 
L 6.546875 71.578125 
L 15.328125 71.578125 
L 15.328125 46.046875 
Q 20.90625 53.03125 29.546875 53.03125 
Q 34.328125 53.03125 38.59375 51.09375 
Q 42.875 49.171875 45.625 45.671875 
Q 48.390625 42.1875 49.953125 37.25 
Q 51.515625 32.328125 51.515625 26.703125 
Q 51.515625 13.375 44.921875 6.09375 
Q 38.328125 -1.171875 29.109375 -1.171875 
Q 19.921875 -1.171875 14.703125 6.5 
z
M 14.59375 26.3125 
Q 14.59375 17 17.140625 12.84375 
Q 21.296875 6.0625 28.375 6.0625 
Q 34.125 6.0625 38.328125 11.0625 
Q 42.53125 16.0625 42.53125 25.984375 
Q 42.53125 36.140625 38.5 40.96875 
Q 34.46875 45.796875 28.765625 45.796875 
Q 23 45.796875 18.796875 40.796875 
Q 14.59375 35.796875 14.59375 26.3125 
z
" id="ArialMT-98"/>
     <path d="M 23.390625 -21.046875 
Q 16.109375 -11.859375 11.078125 0.4375 
Q 6.0625 12.75 6.0625 25.921875 
Q 6.0625 37.546875 9.8125 48.1875 
Q 14.203125 60.546875 23.390625 72.796875 
L 29.6875 72.796875 
Q 23.78125 62.640625 21.875 58.296875 
Q 18.890625 51.5625 17.1875 44.234375 
Q 15.09375 35.109375 15.09375 25.875 
Q 15.09375 2.390625 29.6875 -21.046875 
z
" id="ArialMT-40"/>
     <path d="M 12.359375 -21.046875 
L 6.0625 -21.046875 
Q 20.65625 2.390625 20.65625 25.875 
Q 20.65625 35.0625 18.5625 44.09375 
Q 16.890625 51.421875 13.921875 58.15625 
Q 12.015625 62.546875 6.0625 72.796875 
L 12.359375 72.796875 
Q 21.53125 60.546875 25.921875 48.1875 
Q 29.6875 37.546875 29.6875 25.921875 
Q 29.6875 12.75 24.625 0.4375 
Q 19.578125 -11.859375 12.359375 -21.046875 
z
" id="ArialMT-41"/>
    </defs>
    <g style="fill:#262626;" transform="translate(7.2 292.808545)scale(0.14 -0.14)">
     <use xlink:href="#ArialMT-83"/>
     <use x="66.699219" xlink:href="#ArialMT-111"/>
     <use x="122.314453" xlink:href="#ArialMT-117"/>
     <use x="177.929688" xlink:href="#ArialMT-114"/>
     <use x="211.230469" xlink:href="#ArialMT-99"/>
     <use x="261.230469" xlink:href="#ArialMT-101"/>
     <use x="316.845703" xlink:href="#ArialMT-58"/>
     <use x="344.628906" xlink:href="#ArialMT-32"/>
     <use x="372.412109" xlink:href="#ArialMT-77"/>
     <use x="455.712891" xlink:href="#ArialMT-97"/>
     <use x="511.328125" xlink:href="#ArialMT-100"/>
     <use x="566.943359" xlink:href="#ArialMT-100"/>
     <use x="622.558594" xlink:href="#ArialMT-105"/>
     <use x="644.775391" xlink:href="#ArialMT-115"/>
     <use x="694.775391" xlink:href="#ArialMT-111"/>
     <use x="750.390625" xlink:href="#ArialMT-110"/>
     <use x="806.005859" xlink:href="#ArialMT-32"/>
     <use x="833.789062" xlink:href="#ArialMT-80"/>
     <use x="900.488281" xlink:href="#ArialMT-114"/>
     <use x="933.789062" xlink:href="#ArialMT-111"/>
     <use x="989.404297" xlink:href="#ArialMT-106"/>
     <use x="1011.621094" xlink:href="#ArialMT-101"/>
     <use x="1067.236328" xlink:href="#ArialMT-99"/>
     <use x="1117.236328" xlink:href="#ArialMT-116"/>
     <use x="1145.019531" xlink:href="#ArialMT-32"/>
     <use x="1172.802734" xlink:href="#ArialMT-68"/>
     <use x="1245.019531" xlink:href="#ArialMT-97"/>
     <use x="1300.634766" xlink:href="#ArialMT-116"/>
     <use x="1328.417969" xlink:href="#ArialMT-97"/>
     <use x="1384.033203" xlink:href="#ArialMT-98"/>
     <use x="1439.648438" xlink:href="#ArialMT-97"/>
     <use x="1495.263672" xlink:href="#ArialMT-115"/>
     <use x="1545.263672" xlink:href="#ArialMT-101"/>
     <use x="1600.878906" xlink:href="#ArialMT-32"/>
     <use x="1628.662109" xlink:href="#ArialMT-40"/>
     <use x="1661.962891" xlink:href="#ArialMT-77"/>
     <use x="1745.263672" xlink:href="#ArialMT-80"/>
     <use x="1811.962891" xlink:href="#ArialMT-68"/>
     <use x="1884.179688" xlink:href="#ArialMT-41"/>
     <use x="1917.480469" xlink:href="#ArialMT-32"/>
     <use x="1945.263672" xlink:href="#ArialMT-50"/>
     <use x="2000.878906" xlink:href="#ArialMT-48"/>
     <use x="2056.494141" xlink:href="#ArialMT-49"/>
     <use x="2112.109375" xlink:href="#ArialMT-56"/>
    </g>
   </g>
  </g>
 </g>
 <defs>
  <clipPath id="p17ed64a3c4">
   <rect height="217.44" width="334.8" x="83.657612" y="7.337301"/>
  </clipPath>
 </defs>
</svg>
