<?xml version="1.0" encoding="utf-8" standalone="no"?>
<!DOCTYPE svg PUBLIC "-//W3C//DTD SVG 1.1//EN"
  "http://www.w3.org/Graphics/SVG/1.1/DTD/svg11.dtd">
<!-- Created with matplotlib (https://matplotlib.org/) -->
<svg height="302.980325pt" version="1.1" viewBox="0 0 525.594954 302.980325" width="525.594954pt" xmlns="http://www.w3.org/2000/svg" xmlns:xlink="http://www.w3.org/1999/xlink">
 <defs>
  <style type="text/css">
*{stroke-linecap:butt;stroke-linejoin:round;white-space:pre;}
  </style>
 </defs>
 <g id="figure_1">
  <g id="patch_1">
   <path d="M 0 302.980325 
L 525.594954 302.980325 
L 525.594954 0 
L 0 0 
z
" style="fill:#ffffff;"/>
  </g>
  <g id="axes_1">
   <g id="patch_2">
    <path d="M 85.49675 225.394176 
L 420.29675 225.394176 
L 420.29675 7.954176 
L 85.49675 7.954176 
z
" style="fill:#ffffff;"/>
   </g>
   <g id="matplotlib.axis_1">
    <g id="xtick_1">
     <g id="line2d_1">
      <path clip-path="url(#p67ca69b459)" d="M 105.448425 225.394176 
L 105.448425 7.954176 
" style="fill:none;stroke:#cccccc;stroke-linecap:round;stroke-opacity:0.9;"/>
     </g>
     <g id="text_1">
      <!-- 750 -->
      <defs>
       <path d="M 8.203125 72.90625 
L 55.078125 72.90625 
L 55.078125 68.703125 
L 28.609375 0 
L 18.3125 0 
L 43.21875 64.59375 
L 8.203125 64.59375 
z
" id="DejaVuSans-55"/>
       <path d="M 10.796875 72.90625 
L 49.515625 72.90625 
L 49.515625 64.59375 
L 19.828125 64.59375 
L 19.828125 46.734375 
Q 21.96875 47.46875 24.109375 47.828125 
Q 26.265625 48.1875 28.421875 48.1875 
Q 40.625 48.1875 47.75 41.5 
Q 54.890625 34.8125 54.890625 23.390625 
Q 54.890625 11.625 47.5625 5.09375 
Q 40.234375 -1.421875 26.90625 -1.421875 
Q 22.3125 -1.421875 17.546875 -0.640625 
Q 12.796875 0.140625 7.71875 1.703125 
L 7.71875 11.625 
Q 12.109375 9.234375 16.796875 8.0625 
Q 21.484375 6.890625 26.703125 6.890625 
Q 35.15625 6.890625 40.078125 11.328125 
Q 45.015625 15.765625 45.015625 23.390625 
Q 45.015625 31 40.078125 35.4375 
Q 35.15625 39.890625 26.703125 39.890625 
Q 22.75 39.890625 18.8125 39.015625 
Q 14.890625 38.140625 10.796875 36.28125 
z
" id="DejaVuSans-53"/>
       <path d="M 31.78125 66.40625 
Q 24.171875 66.40625 20.328125 58.90625 
Q 16.5 51.421875 16.5 36.375 
Q 16.5 21.390625 20.328125 13.890625 
Q 24.171875 6.390625 31.78125 6.390625 
Q 39.453125 6.390625 43.28125 13.890625 
Q 47.125 21.390625 47.125 36.375 
Q 47.125 51.421875 43.28125 58.90625 
Q 39.453125 66.40625 31.78125 66.40625 
z
M 31.78125 74.21875 
Q 44.046875 74.21875 50.515625 64.515625 
Q 56.984375 54.828125 56.984375 36.375 
Q 56.984375 17.96875 50.515625 8.265625 
Q 44.046875 -1.421875 31.78125 -1.421875 
Q 19.53125 -1.421875 13.0625 8.265625 
Q 6.59375 17.96875 6.59375 36.375 
Q 6.59375 54.828125 13.0625 64.515625 
Q 19.53125 74.21875 31.78125 74.21875 
z
" id="DejaVuSans-48"/>
      </defs>
      <g style="fill:#262626;" transform="translate(92.087175 249.531989)scale(0.14 -0.14)">
       <use xlink:href="#DejaVuSans-55"/>
       <use x="63.623047" xlink:href="#DejaVuSans-53"/>
       <use x="127.246094" xlink:href="#DejaVuSans-48"/>
      </g>
     </g>
    </g>
    <g id="xtick_2">
     <g id="line2d_2">
      <path clip-path="url(#p67ca69b459)" d="M 164.617095 225.394176 
L 164.617095 7.954176 
" style="fill:none;stroke:#cccccc;stroke-linecap:round;stroke-opacity:0.9;"/>
     </g>
     <g id="text_2">
      <!-- 1000 -->
      <defs>
       <path d="M 12.40625 8.296875 
L 28.515625 8.296875 
L 28.515625 63.921875 
L 10.984375 60.40625 
L 10.984375 69.390625 
L 28.421875 72.90625 
L 38.28125 72.90625 
L 38.28125 8.296875 
L 54.390625 8.296875 
L 54.390625 0 
L 12.40625 0 
z
" id="DejaVuSans-49"/>
      </defs>
      <g style="fill:#262626;" transform="translate(146.802095 249.531989)scale(0.14 -0.14)">
       <use xlink:href="#DejaVuSans-49"/>
       <use x="63.623047" xlink:href="#DejaVuSans-48"/>
       <use x="127.246094" xlink:href="#DejaVuSans-48"/>
       <use x="190.869141" xlink:href="#DejaVuSans-48"/>
      </g>
     </g>
    </g>
    <g id="xtick_3">
     <g id="line2d_3">
      <path clip-path="url(#p67ca69b459)" d="M 223.785765 225.394176 
L 223.785765 7.954176 
" style="fill:none;stroke:#cccccc;stroke-linecap:round;stroke-opacity:0.9;"/>
     </g>
     <g id="text_3">
      <!-- 1250 -->
      <defs>
       <path d="M 19.1875 8.296875 
L 53.609375 8.296875 
L 53.609375 0 
L 7.328125 0 
L 7.328125 8.296875 
Q 12.9375 14.109375 22.625 23.890625 
Q 32.328125 33.6875 34.8125 36.53125 
Q 39.546875 41.84375 41.421875 45.53125 
Q 43.3125 49.21875 43.3125 52.78125 
Q 43.3125 58.59375 39.234375 62.25 
Q 35.15625 65.921875 28.609375 65.921875 
Q 23.96875 65.921875 18.8125 64.3125 
Q 13.671875 62.703125 7.8125 59.421875 
L 7.8125 69.390625 
Q 13.765625 71.78125 18.9375 73 
Q 24.125 74.21875 28.421875 74.21875 
Q 39.75 74.21875 46.484375 68.546875 
Q 53.21875 62.890625 53.21875 53.421875 
Q 53.21875 48.921875 51.53125 44.890625 
Q 49.859375 40.875 45.40625 35.40625 
Q 44.1875 33.984375 37.640625 27.21875 
Q 31.109375 20.453125 19.1875 8.296875 
z
" id="DejaVuSans-50"/>
      </defs>
      <g style="fill:#262626;" transform="translate(205.970765 249.531989)scale(0.14 -0.14)">
       <use xlink:href="#DejaVuSans-49"/>
       <use x="63.623047" xlink:href="#DejaVuSans-50"/>
       <use x="127.246094" xlink:href="#DejaVuSans-53"/>
       <use x="190.869141" xlink:href="#DejaVuSans-48"/>
      </g>
     </g>
    </g>
    <g id="xtick_4">
     <g id="line2d_4">
      <path clip-path="url(#p67ca69b459)" d="M 282.954434 225.394176 
L 282.954434 7.954176 
" style="fill:none;stroke:#cccccc;stroke-linecap:round;stroke-opacity:0.9;"/>
     </g>
     <g id="text_4">
      <!-- 1500 -->
      <g style="fill:#262626;" transform="translate(265.139434 249.531989)scale(0.14 -0.14)">
       <use xlink:href="#DejaVuSans-49"/>
       <use x="63.623047" xlink:href="#DejaVuSans-53"/>
       <use x="127.246094" xlink:href="#DejaVuSans-48"/>
       <use x="190.869141" xlink:href="#DejaVuSans-48"/>
      </g>
     </g>
    </g>
    <g id="xtick_5">
     <g id="line2d_5">
      <path clip-path="url(#p67ca69b459)" d="M 342.123104 225.394176 
L 342.123104 7.954176 
" style="fill:none;stroke:#cccccc;stroke-linecap:round;stroke-opacity:0.9;"/>
     </g>
     <g id="text_5">
      <!-- 1750 -->
      <g style="fill:#262626;" transform="translate(324.308104 249.531989)scale(0.14 -0.14)">
       <use xlink:href="#DejaVuSans-49"/>
       <use x="63.623047" xlink:href="#DejaVuSans-55"/>
       <use x="127.246094" xlink:href="#DejaVuSans-53"/>
       <use x="190.869141" xlink:href="#DejaVuSans-48"/>
      </g>
     </g>
    </g>
    <g id="xtick_6">
     <g id="line2d_6">
      <path clip-path="url(#p67ca69b459)" d="M 401.291773 225.394176 
L 401.291773 7.954176 
" style="fill:none;stroke:#cccccc;stroke-linecap:round;stroke-opacity:0.9;"/>
     </g>
     <g id="text_6">
      <!-- 2000 -->
      <g style="fill:#262626;" transform="translate(383.476773 249.531989)scale(0.14 -0.14)">
       <use xlink:href="#DejaVuSans-50"/>
       <use x="63.623047" xlink:href="#DejaVuSans-48"/>
       <use x="127.246094" xlink:href="#DejaVuSans-48"/>
       <use x="190.869141" xlink:href="#DejaVuSans-48"/>
      </g>
     </g>
    </g>
    <g id="text_7">
     <!-- Year -->
     <defs>
      <path d="M -0.203125 72.90625 
L 10.40625 72.90625 
L 30.609375 42.921875 
L 50.6875 72.90625 
L 61.28125 72.90625 
L 35.5 34.71875 
L 35.5 0 
L 25.59375 0 
L 25.59375 34.71875 
z
" id="DejaVuSans-89"/>
      <path d="M 56.203125 29.59375 
L 56.203125 25.203125 
L 14.890625 25.203125 
Q 15.484375 15.921875 20.484375 11.0625 
Q 25.484375 6.203125 34.421875 6.203125 
Q 39.59375 6.203125 44.453125 7.46875 
Q 49.3125 8.734375 54.109375 11.28125 
L 54.109375 2.78125 
Q 49.265625 0.734375 44.1875 -0.34375 
Q 39.109375 -1.421875 33.890625 -1.421875 
Q 20.796875 -1.421875 13.15625 6.1875 
Q 5.515625 13.8125 5.515625 26.8125 
Q 5.515625 40.234375 12.765625 48.109375 
Q 20.015625 56 32.328125 56 
Q 43.359375 56 49.78125 48.890625 
Q 56.203125 41.796875 56.203125 29.59375 
z
M 47.21875 32.234375 
Q 47.125 39.59375 43.09375 43.984375 
Q 39.0625 48.390625 32.421875 48.390625 
Q 24.90625 48.390625 20.390625 44.140625 
Q 15.875 39.890625 15.1875 32.171875 
z
" id="DejaVuSans-101"/>
      <path d="M 34.28125 27.484375 
Q 23.390625 27.484375 19.1875 25 
Q 14.984375 22.515625 14.984375 16.5 
Q 14.984375 11.71875 18.140625 8.90625 
Q 21.296875 6.109375 26.703125 6.109375 
Q 34.1875 6.109375 38.703125 11.40625 
Q 43.21875 16.703125 43.21875 25.484375 
L 43.21875 27.484375 
z
M 52.203125 31.203125 
L 52.203125 0 
L 43.21875 0 
L 43.21875 8.296875 
Q 40.140625 3.328125 35.546875 0.953125 
Q 30.953125 -1.421875 24.3125 -1.421875 
Q 15.921875 -1.421875 10.953125 3.296875 
Q 6 8.015625 6 15.921875 
Q 6 25.140625 12.171875 29.828125 
Q 18.359375 34.515625 30.609375 34.515625 
L 43.21875 34.515625 
L 43.21875 35.40625 
Q 43.21875 41.609375 39.140625 45 
Q 35.0625 48.390625 27.6875 48.390625 
Q 23 48.390625 18.546875 47.265625 
Q 14.109375 46.140625 10.015625 43.890625 
L 10.015625 52.203125 
Q 14.9375 54.109375 19.578125 55.046875 
Q 24.21875 56 28.609375 56 
Q 40.484375 56 46.34375 49.84375 
Q 52.203125 43.703125 52.203125 31.203125 
z
" id="DejaVuSans-97"/>
      <path d="M 41.109375 46.296875 
Q 39.59375 47.171875 37.8125 47.578125 
Q 36.03125 48 33.890625 48 
Q 26.265625 48 22.1875 43.046875 
Q 18.109375 38.09375 18.109375 28.8125 
L 18.109375 0 
L 9.078125 0 
L 9.078125 54.6875 
L 18.109375 54.6875 
L 18.109375 46.1875 
Q 20.953125 51.171875 25.484375 53.578125 
Q 30.03125 56 36.53125 56 
Q 37.453125 56 38.578125 55.875 
Q 39.703125 55.765625 41.0625 55.515625 
z
" id="DejaVuSans-114"/>
     </defs>
     <g style="fill:#262626;" transform="translate(234.013813 269.208926)scale(0.168 -0.168)">
      <use xlink:href="#DejaVuSans-89"/>
      <use x="60.880859" xlink:href="#DejaVuSans-101"/>
      <use x="122.404297" xlink:href="#DejaVuSans-97"/>
      <use x="183.683594" xlink:href="#DejaVuSans-114"/>
     </g>
    </g>
   </g>
   <g id="matplotlib.axis_2">
    <g id="ytick_1">
     <g id="line2d_7">
      <path clip-path="url(#p67ca69b459)" d="M 85.49675 217.533297 
L 420.29675 217.533297 
" style="fill:none;stroke:#cccccc;stroke-linecap:round;stroke-opacity:0.9;"/>
     </g>
     <g id="text_8">
      <!-- 0 -->
      <g style="fill:#262626;" transform="translate(63.08925 222.852203)scale(0.14 -0.14)">
       <use xlink:href="#DejaVuSans-48"/>
      </g>
     </g>
    </g>
    <g id="ytick_2">
     <g id="line2d_8">
      <path clip-path="url(#p67ca69b459)" d="M 85.49675 179.865564 
L 420.29675 179.865564 
" style="fill:none;stroke:#cccccc;stroke-linecap:round;stroke-opacity:0.9;"/>
     </g>
     <g id="text_9">
      <!-- 10000 -->
      <g style="fill:#262626;" transform="translate(27.45925 185.184471)scale(0.14 -0.14)">
       <use xlink:href="#DejaVuSans-49"/>
       <use x="63.623047" xlink:href="#DejaVuSans-48"/>
       <use x="127.246094" xlink:href="#DejaVuSans-48"/>
       <use x="190.869141" xlink:href="#DejaVuSans-48"/>
       <use x="254.492188" xlink:href="#DejaVuSans-48"/>
      </g>
     </g>
    </g>
    <g id="ytick_3">
     <g id="line2d_9">
      <path clip-path="url(#p67ca69b459)" d="M 85.49675 142.197832 
L 420.29675 142.197832 
" style="fill:none;stroke:#cccccc;stroke-linecap:round;stroke-opacity:0.9;"/>
     </g>
     <g id="text_10">
      <!-- 20000 -->
      <g style="fill:#262626;" transform="translate(27.45925 147.516738)scale(0.14 -0.14)">
       <use xlink:href="#DejaVuSans-50"/>
       <use x="63.623047" xlink:href="#DejaVuSans-48"/>
       <use x="127.246094" xlink:href="#DejaVuSans-48"/>
       <use x="190.869141" xlink:href="#DejaVuSans-48"/>
       <use x="254.492188" xlink:href="#DejaVuSans-48"/>
      </g>
     </g>
    </g>
    <g id="ytick_4">
     <g id="line2d_10">
      <path clip-path="url(#p67ca69b459)" d="M 85.49675 104.530099 
L 420.29675 104.530099 
" style="fill:none;stroke:#cccccc;stroke-linecap:round;stroke-opacity:0.9;"/>
     </g>
     <g id="text_11">
      <!-- 30000 -->
      <defs>
       <path d="M 40.578125 39.3125 
Q 47.65625 37.796875 51.625 33 
Q 55.609375 28.21875 55.609375 21.1875 
Q 55.609375 10.40625 48.1875 4.484375 
Q 40.765625 -1.421875 27.09375 -1.421875 
Q 22.515625 -1.421875 17.65625 -0.515625 
Q 12.796875 0.390625 7.625 2.203125 
L 7.625 11.71875 
Q 11.71875 9.328125 16.59375 8.109375 
Q 21.484375 6.890625 26.8125 6.890625 
Q 36.078125 6.890625 40.9375 10.546875 
Q 45.796875 14.203125 45.796875 21.1875 
Q 45.796875 27.640625 41.28125 31.265625 
Q 36.765625 34.90625 28.71875 34.90625 
L 20.21875 34.90625 
L 20.21875 43.015625 
L 29.109375 43.015625 
Q 36.375 43.015625 40.234375 45.921875 
Q 44.09375 48.828125 44.09375 54.296875 
Q 44.09375 59.90625 40.109375 62.90625 
Q 36.140625 65.921875 28.71875 65.921875 
Q 24.65625 65.921875 20.015625 65.03125 
Q 15.375 64.15625 9.8125 62.3125 
L 9.8125 71.09375 
Q 15.4375 72.65625 20.34375 73.4375 
Q 25.25 74.21875 29.59375 74.21875 
Q 40.828125 74.21875 47.359375 69.109375 
Q 53.90625 64.015625 53.90625 55.328125 
Q 53.90625 49.265625 50.4375 45.09375 
Q 46.96875 40.921875 40.578125 39.3125 
z
" id="DejaVuSans-51"/>
      </defs>
      <g style="fill:#262626;" transform="translate(27.45925 109.849005)scale(0.14 -0.14)">
       <use xlink:href="#DejaVuSans-51"/>
       <use x="63.623047" xlink:href="#DejaVuSans-48"/>
       <use x="127.246094" xlink:href="#DejaVuSans-48"/>
       <use x="190.869141" xlink:href="#DejaVuSans-48"/>
       <use x="254.492188" xlink:href="#DejaVuSans-48"/>
      </g>
     </g>
    </g>
    <g id="ytick_5">
     <g id="line2d_11">
      <path clip-path="url(#p67ca69b459)" d="M 85.49675 66.862367 
L 420.29675 66.862367 
" style="fill:none;stroke:#cccccc;stroke-linecap:round;stroke-opacity:0.9;"/>
     </g>
     <g id="text_12">
      <!-- 40000 -->
      <defs>
       <path d="M 37.796875 64.3125 
L 12.890625 25.390625 
L 37.796875 25.390625 
z
M 35.203125 72.90625 
L 47.609375 72.90625 
L 47.609375 25.390625 
L 58.015625 25.390625 
L 58.015625 17.1875 
L 47.609375 17.1875 
L 47.609375 0 
L 37.796875 0 
L 37.796875 17.1875 
L 4.890625 17.1875 
L 4.890625 26.703125 
z
" id="DejaVuSans-52"/>
      </defs>
      <g style="fill:#262626;" transform="translate(27.45925 72.181273)scale(0.14 -0.14)">
       <use xlink:href="#DejaVuSans-52"/>
       <use x="63.623047" xlink:href="#DejaVuSans-48"/>
       <use x="127.246094" xlink:href="#DejaVuSans-48"/>
       <use x="190.869141" xlink:href="#DejaVuSans-48"/>
       <use x="254.492188" xlink:href="#DejaVuSans-48"/>
      </g>
     </g>
    </g>
    <g id="ytick_6">
     <g id="line2d_12">
      <path clip-path="url(#p67ca69b459)" d="M 85.49675 29.194634 
L 420.29675 29.194634 
" style="fill:none;stroke:#cccccc;stroke-linecap:round;stroke-opacity:0.9;"/>
     </g>
     <g id="text_13">
      <!-- 50000 -->
      <g style="fill:#262626;" transform="translate(27.45925 34.51354)scale(0.14 -0.14)">
       <use xlink:href="#DejaVuSans-53"/>
       <use x="63.623047" xlink:href="#DejaVuSans-48"/>
       <use x="127.246094" xlink:href="#DejaVuSans-48"/>
       <use x="190.869141" xlink:href="#DejaVuSans-48"/>
       <use x="254.492188" xlink:href="#DejaVuSans-48"/>
      </g>
     </g>
    </g>
    <g id="text_14">
     <!-- GDP per capita -->
     <defs>
      <path d="M 59.515625 10.40625 
L 59.515625 29.984375 
L 43.40625 29.984375 
L 43.40625 38.09375 
L 69.28125 38.09375 
L 69.28125 6.78125 
Q 63.578125 2.734375 56.6875 0.65625 
Q 49.8125 -1.421875 42 -1.421875 
Q 24.90625 -1.421875 15.25 8.5625 
Q 5.609375 18.5625 5.609375 36.375 
Q 5.609375 54.25 15.25 64.234375 
Q 24.90625 74.21875 42 74.21875 
Q 49.125 74.21875 55.546875 72.453125 
Q 61.96875 70.703125 67.390625 67.28125 
L 67.390625 56.78125 
Q 61.921875 61.421875 55.765625 63.765625 
Q 49.609375 66.109375 42.828125 66.109375 
Q 29.4375 66.109375 22.71875 58.640625 
Q 16.015625 51.171875 16.015625 36.375 
Q 16.015625 21.625 22.71875 14.15625 
Q 29.4375 6.6875 42.828125 6.6875 
Q 48.046875 6.6875 52.140625 7.59375 
Q 56.25 8.5 59.515625 10.40625 
z
" id="DejaVuSans-71"/>
      <path d="M 19.671875 64.796875 
L 19.671875 8.109375 
L 31.59375 8.109375 
Q 46.6875 8.109375 53.6875 14.9375 
Q 60.6875 21.78125 60.6875 36.53125 
Q 60.6875 51.171875 53.6875 57.984375 
Q 46.6875 64.796875 31.59375 64.796875 
z
M 9.8125 72.90625 
L 30.078125 72.90625 
Q 51.265625 72.90625 61.171875 64.09375 
Q 71.09375 55.28125 71.09375 36.53125 
Q 71.09375 17.671875 61.125 8.828125 
Q 51.171875 0 30.078125 0 
L 9.8125 0 
z
" id="DejaVuSans-68"/>
      <path d="M 19.671875 64.796875 
L 19.671875 37.40625 
L 32.078125 37.40625 
Q 38.96875 37.40625 42.71875 40.96875 
Q 46.484375 44.53125 46.484375 51.125 
Q 46.484375 57.671875 42.71875 61.234375 
Q 38.96875 64.796875 32.078125 64.796875 
z
M 9.8125 72.90625 
L 32.078125 72.90625 
Q 44.34375 72.90625 50.609375 67.359375 
Q 56.890625 61.8125 56.890625 51.125 
Q 56.890625 40.328125 50.609375 34.8125 
Q 44.34375 29.296875 32.078125 29.296875 
L 19.671875 29.296875 
L 19.671875 0 
L 9.8125 0 
z
" id="DejaVuSans-80"/>
      <path id="DejaVuSans-32"/>
      <path d="M 18.109375 8.203125 
L 18.109375 -20.796875 
L 9.078125 -20.796875 
L 9.078125 54.6875 
L 18.109375 54.6875 
L 18.109375 46.390625 
Q 20.953125 51.265625 25.265625 53.625 
Q 29.59375 56 35.59375 56 
Q 45.5625 56 51.78125 48.09375 
Q 58.015625 40.1875 58.015625 27.296875 
Q 58.015625 14.40625 51.78125 6.484375 
Q 45.5625 -1.421875 35.59375 -1.421875 
Q 29.59375 -1.421875 25.265625 0.953125 
Q 20.953125 3.328125 18.109375 8.203125 
z
M 48.6875 27.296875 
Q 48.6875 37.203125 44.609375 42.84375 
Q 40.53125 48.484375 33.40625 48.484375 
Q 26.265625 48.484375 22.1875 42.84375 
Q 18.109375 37.203125 18.109375 27.296875 
Q 18.109375 17.390625 22.1875 11.75 
Q 26.265625 6.109375 33.40625 6.109375 
Q 40.53125 6.109375 44.609375 11.75 
Q 48.6875 17.390625 48.6875 27.296875 
z
" id="DejaVuSans-112"/>
      <path d="M 48.78125 52.59375 
L 48.78125 44.1875 
Q 44.96875 46.296875 41.140625 47.34375 
Q 37.3125 48.390625 33.40625 48.390625 
Q 24.65625 48.390625 19.8125 42.84375 
Q 14.984375 37.3125 14.984375 27.296875 
Q 14.984375 17.28125 19.8125 11.734375 
Q 24.65625 6.203125 33.40625 6.203125 
Q 37.3125 6.203125 41.140625 7.25 
Q 44.96875 8.296875 48.78125 10.40625 
L 48.78125 2.09375 
Q 45.015625 0.34375 40.984375 -0.53125 
Q 36.96875 -1.421875 32.421875 -1.421875 
Q 20.0625 -1.421875 12.78125 6.34375 
Q 5.515625 14.109375 5.515625 27.296875 
Q 5.515625 40.671875 12.859375 48.328125 
Q 20.21875 56 33.015625 56 
Q 37.15625 56 41.109375 55.140625 
Q 45.0625 54.296875 48.78125 52.59375 
z
" id="DejaVuSans-99"/>
      <path d="M 9.421875 54.6875 
L 18.40625 54.6875 
L 18.40625 0 
L 9.421875 0 
z
M 9.421875 75.984375 
L 18.40625 75.984375 
L 18.40625 64.59375 
L 9.421875 64.59375 
z
" id="DejaVuSans-105"/>
      <path d="M 18.3125 70.21875 
L 18.3125 54.6875 
L 36.8125 54.6875 
L 36.8125 47.703125 
L 18.3125 47.703125 
L 18.3125 18.015625 
Q 18.3125 11.328125 20.140625 9.421875 
Q 21.96875 7.515625 27.59375 7.515625 
L 36.8125 7.515625 
L 36.8125 0 
L 27.59375 0 
Q 17.1875 0 13.234375 3.875 
Q 9.28125 7.765625 9.28125 18.015625 
L 9.28125 47.703125 
L 2.6875 47.703125 
L 2.6875 54.6875 
L 9.28125 54.6875 
L 9.28125 70.21875 
z
" id="DejaVuSans-116"/>
     </defs>
     <g style="fill:#262626;" transform="translate(19.965375 179.882864)rotate(-90)scale(0.168 -0.168)">
      <use xlink:href="#DejaVuSans-71"/>
      <use x="77.490234" xlink:href="#DejaVuSans-68"/>
      <use x="154.492188" xlink:href="#DejaVuSans-80"/>
      <use x="214.794922" xlink:href="#DejaVuSans-32"/>
      <use x="246.582031" xlink:href="#DejaVuSans-112"/>
      <use x="310.058594" xlink:href="#DejaVuSans-101"/>
      <use x="371.582031" xlink:href="#DejaVuSans-114"/>
      <use x="412.695312" xlink:href="#DejaVuSans-32"/>
      <use x="444.482422" xlink:href="#DejaVuSans-99"/>
      <use x="499.462891" xlink:href="#DejaVuSans-97"/>
      <use x="560.742188" xlink:href="#DejaVuSans-112"/>
      <use x="624.21875" xlink:href="#DejaVuSans-105"/>
      <use x="652.001953" xlink:href="#DejaVuSans-116"/>
      <use x="691.210938" xlink:href="#DejaVuSans-97"/>
     </g>
    </g>
   </g>
   <g id="line2d_13">
    <path clip-path="url(#p67ca69b459)" d="M 321.059057 213.99253 
L 345.909899 214.949291 
L 356.796934 215.18283 
L 358.690331 214.742118 
L 359.873705 214.836287 
L 365.790572 215.111262 
L 370.524065 214.70445 
L 374.547535 214.670549 
L 375.257559 214.482211 
L 377.624305 214.369207 
L 380.227727 214.504811 
L 380.464402 214.361674 
L 380.701076 214.21477 
L 384.487871 213.954862 
L 384.724546 213.909661 
L 384.961221 213.88706 
L 385.197895 213.789124 
L 385.43457 214.195936 
L 385.671245 214.135668 
L 385.907919 213.868227 
L 386.144594 213.661054 
L 386.381269 213.777824 
L 386.617943 213.898361 
L 389.458039 214.68185 
L 389.694714 214.146968 
L 389.931389 213.807958 
L 390.168063 213.39738 
L 390.404738 213.807958 
L 390.641413 213.532984 
L 390.878087 213.38608 
L 391.114762 213.378546 
L 391.351437 213.491549 
L 391.588112 213.811725 
L 391.824786 214.056565 
L 392.061461 214.523645 
L 392.298136 214.271271 
L 392.53481 213.954862 
L 392.771485 213.578185 
L 393.00816 213.261776 
L 393.244834 213.212808 
L 393.481509 213.197741 
L 393.718184 213.416214 
L 393.954858 213.118639 
L 394.191533 212.670393 
L 394.428208 212.429319 
L 394.664882 212.610124 
L 394.901557 212.365284 
L 395.138232 212.342683 
L 395.374906 212.165645 
L 395.611581 212.320083 
L 395.848256 212.210846 
L 396.08493 211.570495 
L 396.321605 211.325655 
L 396.55828 211.16745 
L 396.794954 211.223952 
L 397.031629 210.655169 
L 397.268304 210.35006 
L 397.504978 209.547738 
L 397.741653 208.832051 
L 397.978328 208.45914 
L 398.215003 208.078696 
L 398.451677 207.848923 
L 398.688352 208.082463 
L 398.925027 208.267035 
L 399.161701 207.928025 
L 399.398376 207.246239 
L 399.635051 206.244278 
L 399.871725 205.724463 
L 400.1084 205.095412 
L 400.345075 204.372191 
L 400.581749 204.19892 
L 400.818424 204.146185 
L 401.055099 203.351396 
L 401.291773 202.198763 
L 401.528448 200.959495 
L 401.765123 199.479153 
L 402.001797 198.239884 
L 402.238472 196.458201 
L 402.475147 193.659488 
L 402.711821 191.403191 
L 402.948496 189.350299 
L 403.185171 188.374705 
L 403.421845 185.915002 
L 403.65852 181.84312 
L 403.895195 179.033107 
L 404.131869 177.402095 
L 404.368544 175.767315 
L 404.605219 173.431916 
L 404.841894 172.324484 
L 405.078568 171.12665 
" style="fill:none;stroke:#f47915;stroke-linecap:round;stroke-width:2;"/>
   </g>
   <g id="line2d_14">
    <path clip-path="url(#p67ca69b459)" d="M 164.617095 214.674316 
L 330.28937 211.540361 
L 330.526045 211.043147 
L 330.762719 211.254086 
L 330.999394 211.709866 
L 331.236069 210.632568 
L 331.472743 210.997945 
L 331.709418 212.018741 
L 332.182767 210.982878 
L 332.656117 212.399185 
L 332.892791 211.932105 
L 333.129466 211.924572 
L 333.366141 212.176945 
L 333.602815 211.660897 
L 333.83949 211.830402 
L 334.312839 211.363322 
L 334.549514 211.058214 
L 334.786189 211.216418 
L 335.022863 210.790773 
L 335.259538 211.046913 
L 335.496213 210.982878 
L 335.969562 211.250319 
L 336.206237 211.110949 
L 336.442911 211.359556 
L 336.679586 211.434891 
L 336.916261 211.186284 
L 337.152935 211.442425 
L 337.38961 211.227719 
L 337.626285 211.321888 
L 337.86296 210.937677 
L 338.099634 210.828441 
L 338.336309 210.918843 
L 338.572984 211.133549 
L 338.809658 210.711671 
L 339.046333 211.118482 
L 339.283008 211.02808 
L 339.756357 211.254086 
L 340.229706 210.869875 
L 340.703056 211.159917 
L 340.93973 211.129782 
L 341.41308 210.70037 
L 341.886429 210.873642 
L 342.123104 210.820907 
L 342.359778 211.005479 
L 342.596453 210.726738 
L 342.833128 210.715437 
L 343.069802 210.952744 
L 343.306477 210.798306 
L 343.543152 210.964044 
L 343.779826 210.617501 
L 344.489851 210.289792 
L 344.726525 210.052485 
L 344.9632 210.286025 
L 345.436549 210.331227 
L 345.673224 210.44423 
L 346.383248 210.301092 
L 346.619923 209.939482 
L 346.856597 210.199389 
L 347.093272 210.108987 
L 347.329947 210.35006 
L 347.566621 210.278492 
L 347.803296 210.489431 
L 348.51332 210.033651 
L 348.986669 210.252124 
L 349.460019 209.826479 
L 349.933368 210.014818 
L 350.643392 210.124054 
L 351.116742 210.421629 
L 351.353416 210.357594 
L 351.590091 209.901814 
L 351.826766 209.962083 
L 352.06344 209.747377 
L 352.53679 210.263425 
L 352.773464 209.562805 
L 353.010139 209.502536 
L 353.246814 209.664508 
L 353.483488 209.679575 
L 353.720163 209.566572 
L 353.956838 209.227562 
L 354.430187 209.182361 
L 354.903536 209.574105 
L 355.140211 209.212495 
L 355.376886 209.366933 
L 355.61356 208.952588 
L 355.850235 209.457335 
L 356.08691 209.314198 
L 356.323584 208.892319 
L 356.560259 209.091958 
L 356.796934 209.562805 
L 357.033608 209.261463 
L 357.270283 209.570338 
L 357.506958 208.862185 
L 357.743633 209.457335 
L 357.980307 209.449802 
L 358.453657 209.822712 
L 358.690331 209.317965 
L 359.163681 209.295364 
L 359.400355 209.186127 
L 359.63703 208.854651 
L 359.873705 208.783083 
L 360.110379 209.359399 
L 360.347054 208.839584 
L 360.820403 208.978955 
L 361.057078 208.711514 
L 361.293753 208.722814 
L 361.530427 208.557076 
L 361.767102 208.590977 
L 362.003777 208.489274 
L 362.240451 207.939326 
L 362.477126 207.750987 
L 362.713801 207.950626 
L 362.950475 207.686952 
L 363.18715 207.890357 
L 363.423825 207.547581 
L 363.897174 208.071163 
L 364.133849 207.720853 
L 364.370524 206.986332 
L 364.607198 206.632255 
L 365.080548 207.012699 
L 365.553897 206.545619 
L 365.790572 206.767859 
L 366.73727 205.332718 
L 366.973945 205.735763 
L 367.21062 205.076578 
L 367.447294 205.061511 
L 367.683969 205.411821 
L 367.920644 205.031377 
L 368.157318 204.895773 
L 368.393993 205.05021 
L 368.630668 205.694329 
L 368.867342 204.699901 
L 369.577366 203.98798 
L 369.814041 204.055782 
L 370.050716 203.528434 
L 370.28739 203.532201 
L 370.524065 203.046287 
L 370.997414 203.200725 
L 371.707439 202.560373 
L 372.417463 202.55284 
L 372.654137 202.726111 
L 373.127487 201.671415 
L 373.364161 201.290971 
L 373.837511 201.287204 
L 374.074185 201.452942 
L 374.31086 201.283437 
L 374.784209 200.055469 
L 375.020884 199.204178 
L 375.494233 199.320948 
L 375.730908 199.859597 
L 375.967583 199.968833 
L 376.204257 198.91037 
L 377.150956 196.827344 
L 377.387631 196.115424 
L 377.86098 196.544836 
L 378.097655 196.130491 
L 378.33433 196.477034 
L 378.571004 196.477034 
L 379.281028 195.098395 
L 379.517703 196.141792 
L 379.991052 195.2453 
L 380.701076 193.452316 
L 380.937751 193.569086 
L 381.174426 191.945606 
L 381.4111 191.632964 
L 381.88445 191.587763 
L 382.357799 196.228427 
L 382.594474 196.812277 
L 382.831148 194.876156 
L 383.304498 193.256443 
L 383.541172 192.032242 
L 383.777847 192.947568 
L 384.014522 190.936111 
L 384.251196 190.600868 
L 384.487871 189.73451 
L 384.724546 190.032085 
L 384.961221 191.542562 
L 385.197895 191.47476 
L 385.43457 190.800507 
L 385.907919 188.118565 
L 386.381269 185.95267 
L 386.617943 185.681462 
L 386.854618 185.681462 
L 387.327967 179.428619 
L 387.801317 178.038679 
L 388.511341 183.059788 
L 388.748015 183.756641 
L 389.221365 181.910922 
L 389.458039 181.971191 
L 389.694714 181.37604 
L 389.931389 181.722584 
L 390.641413 176.931248 
L 391.114762 175.620411 
L 391.351437 175.601577 
L 392.061461 170.88181 
L 392.298136 170.727372 
L 392.53481 169.134027 
L 392.771485 166.63289 
L 393.718184 162.50074 
L 394.191533 158.338455 
L 394.428208 158.383656 
L 394.664882 157.065286 
L 394.901557 153.061206 
L 395.138232 154.161104 
L 395.374906 154.458679 
L 395.848256 149.211564 
L 396.321605 141.711918 
L 396.55828 139.964135 
L 396.794954 142.292001 
L 397.031629 142.706346 
L 397.504978 141.180803 
L 397.978328 137.289726 
L 398.451677 130.615004 
L 398.925027 127.123205 
L 399.161701 128.275838 
L 399.398376 127.838892 
L 399.871725 122.034294 
L 400.345075 112.91117 
L 400.818424 100.846195 
L 401.055099 96.073693 
L 401.291773 87.993965 
L 401.528448 85.01068 
L 401.765123 84.249792 
L 402.001797 84.362795 
L 402.711821 73.450453 
L 402.948496 74.128472 
L 403.185171 75.687916 
L 403.421845 82.946488 
L 403.65852 85.259287 
L 403.895195 85.805469 
L 404.131869 82.743083 
L 404.368544 75.518411 
L 405.078568 70.018923 
L 405.078568 70.018923 
" style="fill:none;stroke:#165aa7;stroke-linecap:round;stroke-width:2;"/>
   </g>
   <g id="line2d_15">
    <path clip-path="url(#p67ca69b459)" d="M 306.621902 212.617658 
L 318.455636 212.907699 
L 330.28937 213.013169 
L 342.123104 213.378546 
L 354.193512 213.51415 
L 358.927006 213.88706 
L 366.027246 213.849393 
L 370.524065 214.22607 
L 374.31086 213.868227 
L 374.784209 213.645987 
L 375.020884 213.743923 
L 375.257559 213.555584 
L 375.494233 213.913428 
L 375.730908 213.612086 
L 376.204257 213.427514 
L 376.440932 213.517917 
L 376.677607 213.804191 
L 376.914281 213.111105 
L 377.150956 213.092271 
L 377.387631 213.427514 
L 378.571004 212.768329 
L 378.807679 212.862498 
L 379.044354 212.738195 
L 379.281028 213.039537 
L 379.517703 212.983035 
L 379.754378 212.369051 
L 380.464402 212.384118 
L 380.701076 212.485821 
L 380.937751 212.195779 
L 381.174426 212.308782 
L 381.4111 212.139278 
L 381.647775 212.222147 
L 381.88445 212.885099 
L 382.121124 212.225913 
L 382.357799 212.632725 
L 382.831148 212.082776 
L 383.067823 212.293715 
L 383.304498 212.067709 
L 384.251196 211.913271 
L 384.487871 211.717399 
L 385.197895 211.804035 
L 385.907919 211.97354 
L 386.144594 211.815335 
L 386.617943 212.011207 
L 387.801317 211.660897 
L 388.274666 211.905738 
L 388.511341 212.244747 
L 388.98469 212.248514 
L 389.458039 212.195779 
L 389.694714 212.161878 
L 389.931389 212.33515 
L 390.404738 212.188246 
L 390.641413 212.289949 
L 390.878087 212.146811 
L 391.114762 212.414252 
L 391.351437 212.286182 
L 391.588112 212.436853 
L 391.824786 212.248514 
L 392.53481 212.425552 
L 392.771485 212.301249 
L 393.00816 212.723128 
L 393.244834 212.888866 
L 393.481509 212.741961 
L 393.718184 212.888866 
L 394.664882 212.870032 
L 394.901557 212.632725 
L 395.138232 212.772096 
L 395.374906 212.402952 
L 395.848256 212.700527 
L 396.08493 212.870032 
L 396.321605 213.273076 
L 396.55828 213.227875 
L 397.504978 213.634687 
L 397.741653 213.687422 
L 398.215003 213.412447 
L 398.925027 212.700527 
L 399.161701 212.647792 
L 399.871725 211.943405 
L 401.765123 209.333032 
L 402.238472 208.10883 
L 403.65852 201.136533 
L 403.895195 199.573322 
L 404.131869 198.797367 
L 404.368544 198.503558 
L 404.841894 196.292463 
L 405.078568 195.079562 
L 405.078568 195.079562 
" style="fill:none;stroke:#06ab54;stroke-linecap:round;stroke-width:2;"/>
   </g>
   <g id="line2d_16">
    <path clip-path="url(#p67ca69b459)" d="M 100.714932 215.51054 
L 200.118297 214.919156 
L 271.1207 214.885255 
L 306.621902 214.647949 
L 318.455636 214.723284 
L 330.28937 214.369207 
L 342.123104 214.523645 
L 365.790572 214.105533 
L 371.470764 213.728856 
L 371.707439 213.457648 
L 371.944113 213.585719 
L 372.180788 213.495316 
L 372.417463 213.540517 
L 372.890812 213.190207 
L 373.127487 213.359712 
L 373.600836 213.322045 
L 373.837511 213.329578 
L 374.074185 213.205275 
L 374.547535 212.745728 
L 374.784209 213.009402 
L 375.020884 212.839898 
L 375.257559 212.444386 
L 375.494233 212.723128 
L 375.730908 212.44062 
L 375.967583 212.459453 
L 376.204257 211.901971 
L 376.440932 211.883137 
L 376.677607 212.244747 
L 376.914281 212.192013 
L 377.150956 211.250319 
L 377.387631 211.781434 
L 377.86098 211.465025 
L 378.097655 211.853003 
L 378.33433 211.532827 
L 378.571004 211.555428 
L 378.807679 211.713632 
L 379.044354 211.009246 
L 379.281028 210.866108 
L 379.991052 210.975345 
L 380.464402 210.5723 
L 380.701076 210.557233 
L 380.937751 210.858575 
L 381.174426 210.342527 
L 381.4111 209.333032 
L 381.647775 209.155993 
L 381.88445 209.140926 
L 382.121124 208.34237 
L 382.357799 209.001556 
L 382.594474 208.180399 
L 383.067823 208.432773 
L 383.777847 208.116364 
L 384.014522 208.127664 
L 384.251196 207.509913 
L 384.487871 207.344175 
L 384.724546 208.2256 
L 384.961221 208.289635 
L 385.43457 206.854495 
L 385.671245 206.978798 
L 385.907919 206.865795 
L 386.617943 205.257383 
L 386.854618 203.434265 
L 387.091293 203.163057 
L 387.327967 203.185658 
L 387.564642 203.475699 
L 387.801317 203.475699 
L 388.037991 204.304389 
L 388.274666 210.843508 
L 388.748015 209.894281 
L 388.98469 208.990255 
L 389.221365 208.632412 
L 389.458039 208.044795 
L 389.931389 205.909035 
L 390.404738 204.888239 
L 391.588112 200.010268 
L 393.244834 185.417788 
L 393.718184 177.846574 
L 394.191533 168.926855 
L 394.428208 166.602756 
L 394.901557 159.32535 
L 395.138232 160.651254 
L 395.611581 155.351404 
L 396.55828 140.660988 
L 397.268304 145.768733 
L 397.504978 146.352583 
L 397.741653 145.90057 
L 398.925027 118.312723 
L 399.398376 108.055799 
L 400.345075 94.962495 
L 400.581749 94.502949 
L 400.818424 96.499339 
L 401.055099 97.071888 
L 401.291773 92.122348 
L 401.528448 92.905837 
L 401.765123 92.419923 
L 402.001797 91.060118 
L 402.711821 83.541639 
L 402.948496 81.726054 
L 403.185171 84.728172 
L 403.421845 90.223894 
L 403.65852 83.899482 
L 403.895195 85.775335 
L 404.131869 85.157584 
L 404.368544 83.835447 
L 404.605219 83.624508 
L 405.078568 80.226878 
L 405.078568 80.226878 
" style="fill:none;stroke:#bb60d5;stroke-linecap:round;stroke-width:2;"/>
   </g>
   <g id="line2d_17">
    <path clip-path="url(#p67ca69b459)" d="M 318.455636 214.154501 
L 335.022863 212.353984 
L 348.039971 210.440463 
L 353.956838 210.075086 
L 354.430187 209.811412 
L 354.666862 209.943249 
L 354.903536 209.947016 
L 355.61356 209.570338 
L 355.850235 210.131588 
L 356.323584 209.547738 
L 356.560259 209.385766 
L 356.796934 209.528904 
L 357.506958 209.321731 
L 357.743633 209.653207 
L 358.927006 209.574105 
L 359.163681 209.355632 
L 359.400355 209.446035 
L 359.873705 209.04299 
L 360.583729 208.948821 
L 360.820403 209.231329 
L 361.293753 208.082463 
L 361.767102 207.39691 
L 362.003777 207.882824 
L 362.240451 207.51368 
L 362.477126 207.366776 
L 362.713801 207.686952 
L 362.950475 207.773587 
L 363.18715 207.298974 
L 363.423825 207.803722 
L 363.897174 208.089996 
L 364.133849 207.939326 
L 364.370524 207.419511 
L 365.317222 206.654856 
L 365.553897 206.933597 
L 365.790572 206.892163 
L 366.263921 205.897734 
L 366.500596 205.102945 
L 366.73727 205.065278 
L 366.973945 205.340252 
L 367.21062 205.084111 
L 367.447294 205.355319 
L 367.683969 205.298817 
L 368.157318 204.632099 
L 368.393993 204.899539 
L 368.630668 204.504028 
L 369.104017 203.204492 
L 369.340692 203.946546 
L 369.577366 204.052016 
L 369.814041 203.607536 
L 370.050716 203.426731 
L 370.28739 203.050054 
L 370.524065 203.460632 
L 371.234089 202.541539 
L 371.470764 202.986019 
L 371.707439 202.57544 
L 371.944113 202.737412 
L 372.180788 202.594274 
L 372.417463 202.300466 
L 372.890812 199.204178 
L 373.127487 199.023373 
L 373.364161 198.318987 
L 373.837511 198.420689 
L 374.074185 198.710731 
L 374.31086 198.57136 
L 374.547535 198.145715 
L 374.784209 198.642929 
L 375.020884 197.885808 
L 375.257559 198.006344 
L 375.494233 197.573165 
L 375.730908 196.07399 
L 376.204257 198.458357 
L 376.440932 196.556137 
L 376.677607 197.358459 
L 376.914281 195.832916 
L 377.150956 195.776415 
L 377.387631 194.213204 
L 377.624305 193.983431 
L 377.86098 191.83637 
L 378.097655 192.084977 
L 378.33433 191.335389 
L 378.571004 192.149012 
L 378.807679 190.811807 
L 379.044354 188.295603 
L 379.281028 188.378472 
L 379.517703 191.278887 
L 379.754378 188.64968 
L 379.991052 188.958555 
L 380.227727 188.487708 
L 380.701076 187.018667 
L 380.937751 189.907782 
L 381.174426 189.531105 
L 381.4111 186.110874 
L 381.647775 187.323775 
L 381.88445 184.958242 
L 382.121124 184.833938 
L 382.357799 185.572226 
L 382.594474 186.894363 
L 382.831148 185.643795 
L 383.067823 182.050293 
L 383.541172 181.368507 
L 383.777847 179.526555 
L 384.251196 179.714893 
L 384.487871 177.820207 
L 385.197895 189.188328 
L 385.43457 190.148855 
L 385.671245 187.866191 
L 386.381269 178.170516 
L 386.617943 180.630219 
L 387.091293 174.942392 
L 387.801317 159.555123 
L 388.037991 155.754449 
L 388.274666 157.295059 
L 388.511341 163.024321 
L 388.748015 164.583765 
L 388.98469 162.692845 
L 389.221365 164.376593 
L 389.694714 156.790311 
L 389.931389 155.596244 
L 390.168063 153.810794 
L 390.404738 155.33257 
L 390.641413 152.104445 
L 391.114762 151.965075 
L 391.351437 153.705324 
L 391.588112 150.104289 
L 392.061461 149.072193 
L 393.718184 128.290905 
L 393.954858 126.392451 
L 394.191533 127.288943 
L 394.428208 125.642863 
L 394.901557 117.325828 
L 395.374906 119.76293 
L 396.321605 104.714671 
L 396.55828 105.98784 
L 396.794954 104.31916 
L 397.031629 107.502083 
L 397.268304 103.931182 
L 397.504978 96.710278 
L 398.688352 79.078012 
L 398.925027 78.230488 
L 399.161701 80.181677 
L 400.345075 65.302922 
L 401.291773 44.687372 
L 401.528448 44.721273 
L 401.765123 43.255998 
L 402.001797 39.899803 
L 402.475147 30.494171 
L 402.711821 27.348915 
L 402.948496 25.797004 
L 403.185171 28.155004 
L 403.421845 35.021832 
L 403.65852 31.955679 
L 403.895195 30.418835 
L 405.078568 17.837812 
L 405.078568 17.837812 
" style="fill:none;stroke:#cb495c;stroke-linecap:round;stroke-width:2;"/>
   </g>
   <g id="text_15">
    <!-- United Kingdom -->
    <defs>
     <path d="M 8.6875 72.90625 
L 18.609375 72.90625 
L 18.609375 28.609375 
Q 18.609375 16.890625 22.84375 11.734375 
Q 27.09375 6.59375 36.625 6.59375 
Q 46.09375 6.59375 50.34375 11.734375 
Q 54.59375 16.890625 54.59375 28.609375 
L 54.59375 72.90625 
L 64.5 72.90625 
L 64.5 27.390625 
Q 64.5 13.140625 57.4375 5.859375 
Q 50.390625 -1.421875 36.625 -1.421875 
Q 22.796875 -1.421875 15.734375 5.859375 
Q 8.6875 13.140625 8.6875 27.390625 
z
" id="DejaVuSans-85"/>
     <path d="M 54.890625 33.015625 
L 54.890625 0 
L 45.90625 0 
L 45.90625 32.71875 
Q 45.90625 40.484375 42.875 44.328125 
Q 39.84375 48.1875 33.796875 48.1875 
Q 26.515625 48.1875 22.3125 43.546875 
Q 18.109375 38.921875 18.109375 30.90625 
L 18.109375 0 
L 9.078125 0 
L 9.078125 54.6875 
L 18.109375 54.6875 
L 18.109375 46.1875 
Q 21.34375 51.125 25.703125 53.5625 
Q 30.078125 56 35.796875 56 
Q 45.21875 56 50.046875 50.171875 
Q 54.890625 44.34375 54.890625 33.015625 
z
" id="DejaVuSans-110"/>
     <path d="M 45.40625 46.390625 
L 45.40625 75.984375 
L 54.390625 75.984375 
L 54.390625 0 
L 45.40625 0 
L 45.40625 8.203125 
Q 42.578125 3.328125 38.25 0.953125 
Q 33.9375 -1.421875 27.875 -1.421875 
Q 17.96875 -1.421875 11.734375 6.484375 
Q 5.515625 14.40625 5.515625 27.296875 
Q 5.515625 40.1875 11.734375 48.09375 
Q 17.96875 56 27.875 56 
Q 33.9375 56 38.25 53.625 
Q 42.578125 51.265625 45.40625 46.390625 
z
M 14.796875 27.296875 
Q 14.796875 17.390625 18.875 11.75 
Q 22.953125 6.109375 30.078125 6.109375 
Q 37.203125 6.109375 41.296875 11.75 
Q 45.40625 17.390625 45.40625 27.296875 
Q 45.40625 37.203125 41.296875 42.84375 
Q 37.203125 48.484375 30.078125 48.484375 
Q 22.953125 48.484375 18.875 42.84375 
Q 14.796875 37.203125 14.796875 27.296875 
z
" id="DejaVuSans-100"/>
     <path d="M 9.8125 72.90625 
L 19.671875 72.90625 
L 19.671875 42.09375 
L 52.390625 72.90625 
L 65.09375 72.90625 
L 28.90625 38.921875 
L 67.671875 0 
L 54.6875 0 
L 19.671875 35.109375 
L 19.671875 0 
L 9.8125 0 
z
" id="DejaVuSans-75"/>
     <path d="M 45.40625 27.984375 
Q 45.40625 37.75 41.375 43.109375 
Q 37.359375 48.484375 30.078125 48.484375 
Q 22.859375 48.484375 18.828125 43.109375 
Q 14.796875 37.75 14.796875 27.984375 
Q 14.796875 18.265625 18.828125 12.890625 
Q 22.859375 7.515625 30.078125 7.515625 
Q 37.359375 7.515625 41.375 12.890625 
Q 45.40625 18.265625 45.40625 27.984375 
z
M 54.390625 6.78125 
Q 54.390625 -7.171875 48.1875 -13.984375 
Q 42 -20.796875 29.203125 -20.796875 
Q 24.46875 -20.796875 20.265625 -20.09375 
Q 16.0625 -19.390625 12.109375 -17.921875 
L 12.109375 -9.1875 
Q 16.0625 -11.328125 19.921875 -12.34375 
Q 23.78125 -13.375 27.78125 -13.375 
Q 36.625 -13.375 41.015625 -8.765625 
Q 45.40625 -4.15625 45.40625 5.171875 
L 45.40625 9.625 
Q 42.625 4.78125 38.28125 2.390625 
Q 33.9375 0 27.875 0 
Q 17.828125 0 11.671875 7.65625 
Q 5.515625 15.328125 5.515625 27.984375 
Q 5.515625 40.671875 11.671875 48.328125 
Q 17.828125 56 27.875 56 
Q 33.9375 56 38.28125 53.609375 
Q 42.625 51.21875 45.40625 46.390625 
L 45.40625 54.6875 
L 54.390625 54.6875 
z
" id="DejaVuSans-103"/>
     <path d="M 30.609375 48.390625 
Q 23.390625 48.390625 19.1875 42.75 
Q 14.984375 37.109375 14.984375 27.296875 
Q 14.984375 17.484375 19.15625 11.84375 
Q 23.34375 6.203125 30.609375 6.203125 
Q 37.796875 6.203125 41.984375 11.859375 
Q 46.1875 17.53125 46.1875 27.296875 
Q 46.1875 37.015625 41.984375 42.703125 
Q 37.796875 48.390625 30.609375 48.390625 
z
M 30.609375 56 
Q 42.328125 56 49.015625 48.375 
Q 55.71875 40.765625 55.71875 27.296875 
Q 55.71875 13.875 49.015625 6.21875 
Q 42.328125 -1.421875 30.609375 -1.421875 
Q 18.84375 -1.421875 12.171875 6.21875 
Q 5.515625 13.875 5.515625 27.296875 
Q 5.515625 40.765625 12.171875 48.375 
Q 18.84375 56 30.609375 56 
z
" id="DejaVuSans-111"/>
     <path d="M 52 44.1875 
Q 55.375 50.25 60.0625 53.125 
Q 64.75 56 71.09375 56 
Q 79.640625 56 84.28125 50.015625 
Q 88.921875 44.046875 88.921875 33.015625 
L 88.921875 0 
L 79.890625 0 
L 79.890625 32.71875 
Q 79.890625 40.578125 77.09375 44.375 
Q 74.3125 48.1875 68.609375 48.1875 
Q 61.625 48.1875 57.5625 43.546875 
Q 53.515625 38.921875 53.515625 30.90625 
L 53.515625 0 
L 44.484375 0 
L 44.484375 32.71875 
Q 44.484375 40.625 41.703125 44.40625 
Q 38.921875 48.1875 33.109375 48.1875 
Q 26.21875 48.1875 22.15625 43.53125 
Q 18.109375 38.875 18.109375 30.90625 
L 18.109375 0 
L 9.078125 0 
L 9.078125 54.6875 
L 18.109375 54.6875 
L 18.109375 46.1875 
Q 21.1875 51.21875 25.484375 53.609375 
Q 29.78125 56 35.6875 56 
Q 41.65625 56 45.828125 52.96875 
Q 50 49.953125 52 44.1875 
z
" id="DejaVuSans-109"/>
    </defs>
    <g style="fill:#165aa7;" transform="translate(406.025267 70.018923)scale(0.14 -0.14)">
     <use xlink:href="#DejaVuSans-85"/>
     <use x="73.193359" xlink:href="#DejaVuSans-110"/>
     <use x="136.572266" xlink:href="#DejaVuSans-105"/>
     <use x="164.355469" xlink:href="#DejaVuSans-116"/>
     <use x="203.564453" xlink:href="#DejaVuSans-101"/>
     <use x="265.087891" xlink:href="#DejaVuSans-100"/>
     <use x="328.564453" xlink:href="#DejaVuSans-32"/>
     <use x="360.351562" xlink:href="#DejaVuSans-75"/>
     <use x="425.927734" xlink:href="#DejaVuSans-105"/>
     <use x="453.710938" xlink:href="#DejaVuSans-110"/>
     <use x="517.089844" xlink:href="#DejaVuSans-103"/>
     <use x="580.566406" xlink:href="#DejaVuSans-100"/>
     <use x="644.042969" xlink:href="#DejaVuSans-111"/>
     <use x="705.224609" xlink:href="#DejaVuSans-109"/>
    </g>
   </g>
   <g id="text_16">
    <!-- United States -->
    <defs>
     <path d="M 53.515625 70.515625 
L 53.515625 60.890625 
Q 47.90625 63.578125 42.921875 64.890625 
Q 37.9375 66.21875 33.296875 66.21875 
Q 25.25 66.21875 20.875 63.09375 
Q 16.5 59.96875 16.5 54.203125 
Q 16.5 49.359375 19.40625 46.890625 
Q 22.3125 44.4375 30.421875 42.921875 
L 36.375 41.703125 
Q 47.40625 39.59375 52.65625 34.296875 
Q 57.90625 29 57.90625 20.125 
Q 57.90625 9.515625 50.796875 4.046875 
Q 43.703125 -1.421875 29.984375 -1.421875 
Q 24.8125 -1.421875 18.96875 -0.25 
Q 13.140625 0.921875 6.890625 3.21875 
L 6.890625 13.375 
Q 12.890625 10.015625 18.65625 8.296875 
Q 24.421875 6.59375 29.984375 6.59375 
Q 38.421875 6.59375 43.015625 9.90625 
Q 47.609375 13.234375 47.609375 19.390625 
Q 47.609375 24.75 44.3125 27.78125 
Q 41.015625 30.8125 33.5 32.328125 
L 27.484375 33.5 
Q 16.453125 35.6875 11.515625 40.375 
Q 6.59375 45.0625 6.59375 53.421875 
Q 6.59375 63.09375 13.40625 68.65625 
Q 20.21875 74.21875 32.171875 74.21875 
Q 37.3125 74.21875 42.625 73.28125 
Q 47.953125 72.359375 53.515625 70.515625 
z
" id="DejaVuSans-83"/>
     <path d="M 44.28125 53.078125 
L 44.28125 44.578125 
Q 40.484375 46.53125 36.375 47.5 
Q 32.28125 48.484375 27.875 48.484375 
Q 21.1875 48.484375 17.84375 46.4375 
Q 14.5 44.390625 14.5 40.28125 
Q 14.5 37.15625 16.890625 35.375 
Q 19.28125 33.59375 26.515625 31.984375 
L 29.59375 31.296875 
Q 39.15625 29.25 43.1875 25.515625 
Q 47.21875 21.78125 47.21875 15.09375 
Q 47.21875 7.46875 41.1875 3.015625 
Q 35.15625 -1.421875 24.609375 -1.421875 
Q 20.21875 -1.421875 15.453125 -0.5625 
Q 10.6875 0.296875 5.421875 2 
L 5.421875 11.28125 
Q 10.40625 8.6875 15.234375 7.390625 
Q 20.0625 6.109375 24.8125 6.109375 
Q 31.15625 6.109375 34.5625 8.28125 
Q 37.984375 10.453125 37.984375 14.40625 
Q 37.984375 18.0625 35.515625 20.015625 
Q 33.0625 21.96875 24.703125 23.78125 
L 21.578125 24.515625 
Q 13.234375 26.265625 9.515625 29.90625 
Q 5.8125 33.546875 5.8125 39.890625 
Q 5.8125 47.609375 11.28125 51.796875 
Q 16.75 56 26.8125 56 
Q 31.78125 56 36.171875 55.265625 
Q 40.578125 54.546875 44.28125 53.078125 
z
" id="DejaVuSans-115"/>
    </defs>
    <g style="fill:#cb495c;" transform="translate(406.025267 17.837812)scale(0.14 -0.14)">
     <use xlink:href="#DejaVuSans-85"/>
     <use x="73.193359" xlink:href="#DejaVuSans-110"/>
     <use x="136.572266" xlink:href="#DejaVuSans-105"/>
     <use x="164.355469" xlink:href="#DejaVuSans-116"/>
     <use x="203.564453" xlink:href="#DejaVuSans-101"/>
     <use x="265.087891" xlink:href="#DejaVuSans-100"/>
     <use x="328.564453" xlink:href="#DejaVuSans-32"/>
     <use x="360.351562" xlink:href="#DejaVuSans-83"/>
     <use x="423.828125" xlink:href="#DejaVuSans-116"/>
     <use x="463.037109" xlink:href="#DejaVuSans-97"/>
     <use x="524.316406" xlink:href="#DejaVuSans-116"/>
     <use x="563.525391" xlink:href="#DejaVuSans-101"/>
     <use x="625.048828" xlink:href="#DejaVuSans-115"/>
    </g>
   </g>
   <g id="text_17">
    <!-- Japan -->
    <defs>
     <path d="M 9.8125 72.90625 
L 19.671875 72.90625 
L 19.671875 5.078125 
Q 19.671875 -8.109375 14.671875 -14.0625 
Q 9.671875 -20.015625 -1.421875 -20.015625 
L -5.171875 -20.015625 
L -5.171875 -11.71875 
L -2.09375 -11.71875 
Q 4.4375 -11.71875 7.125 -8.046875 
Q 9.8125 -4.390625 9.8125 5.078125 
z
" id="DejaVuSans-74"/>
    </defs>
    <g style="fill:#bb60d5;" transform="translate(406.025267 83.993651)scale(0.14 -0.14)">
     <use xlink:href="#DejaVuSans-74"/>
     <use x="29.492188" xlink:href="#DejaVuSans-97"/>
     <use x="90.771484" xlink:href="#DejaVuSans-112"/>
     <use x="154.248047" xlink:href="#DejaVuSans-97"/>
     <use x="215.527344" xlink:href="#DejaVuSans-110"/>
    </g>
   </g>
   <g id="text_18">
    <!-- China -->
    <defs>
     <path d="M 64.40625 67.28125 
L 64.40625 56.890625 
Q 59.421875 61.53125 53.78125 63.8125 
Q 48.140625 66.109375 41.796875 66.109375 
Q 29.296875 66.109375 22.65625 58.46875 
Q 16.015625 50.828125 16.015625 36.375 
Q 16.015625 21.96875 22.65625 14.328125 
Q 29.296875 6.6875 41.796875 6.6875 
Q 48.140625 6.6875 53.78125 8.984375 
Q 59.421875 11.28125 64.40625 15.921875 
L 64.40625 5.609375 
Q 59.234375 2.09375 53.4375 0.328125 
Q 47.65625 -1.421875 41.21875 -1.421875 
Q 24.65625 -1.421875 15.125 8.703125 
Q 5.609375 18.84375 5.609375 36.375 
Q 5.609375 53.953125 15.125 64.078125 
Q 24.65625 74.21875 41.21875 74.21875 
Q 47.75 74.21875 53.53125 72.484375 
Q 59.328125 70.75 64.40625 67.28125 
z
" id="DejaVuSans-67"/>
     <path d="M 54.890625 33.015625 
L 54.890625 0 
L 45.90625 0 
L 45.90625 32.71875 
Q 45.90625 40.484375 42.875 44.328125 
Q 39.84375 48.1875 33.796875 48.1875 
Q 26.515625 48.1875 22.3125 43.546875 
Q 18.109375 38.921875 18.109375 30.90625 
L 18.109375 0 
L 9.078125 0 
L 9.078125 75.984375 
L 18.109375 75.984375 
L 18.109375 46.1875 
Q 21.34375 51.125 25.703125 53.5625 
Q 30.078125 56 35.796875 56 
Q 45.21875 56 50.046875 50.171875 
Q 54.890625 44.34375 54.890625 33.015625 
z
" id="DejaVuSans-104"/>
    </defs>
    <g style="fill:#f47915;" transform="translate(406.025267 171.12665)scale(0.14 -0.14)">
     <use xlink:href="#DejaVuSans-67"/>
     <use x="69.824219" xlink:href="#DejaVuSans-104"/>
     <use x="133.203125" xlink:href="#DejaVuSans-105"/>
     <use x="160.986328" xlink:href="#DejaVuSans-110"/>
     <use x="224.365234" xlink:href="#DejaVuSans-97"/>
    </g>
   </g>
   <g id="text_19">
    <!-- India -->
    <defs>
     <path d="M 9.8125 72.90625 
L 19.671875 72.90625 
L 19.671875 0 
L 9.8125 0 
z
" id="DejaVuSans-73"/>
    </defs>
    <g style="fill:#06ab54;" transform="translate(406.025267 195.079562)scale(0.14 -0.14)">
     <use xlink:href="#DejaVuSans-73"/>
     <use x="29.492188" xlink:href="#DejaVuSans-110"/>
     <use x="92.871094" xlink:href="#DejaVuSans-100"/>
     <use x="156.347656" xlink:href="#DejaVuSans-105"/>
     <use x="184.130859" xlink:href="#DejaVuSans-97"/>
    </g>
   </g>
   <g id="text_20">
    <!-- Source: Maddison Project Database (MPD) 2018 -->
    <defs>
     <path d="M 8.5 21.578125 
L 8.5 54.6875 
L 17.484375 54.6875 
L 17.484375 21.921875 
Q 17.484375 14.15625 20.5 10.265625 
Q 23.53125 6.390625 29.59375 6.390625 
Q 36.859375 6.390625 41.078125 11.03125 
Q 45.3125 15.671875 45.3125 23.6875 
L 45.3125 54.6875 
L 54.296875 54.6875 
L 54.296875 0 
L 45.3125 0 
L 45.3125 8.40625 
Q 42.046875 3.421875 37.71875 1 
Q 33.40625 -1.421875 27.6875 -1.421875 
Q 18.265625 -1.421875 13.375 4.4375 
Q 8.5 10.296875 8.5 21.578125 
z
M 31.109375 56 
z
" id="DejaVuSans-117"/>
     <path d="M 11.71875 12.40625 
L 22.015625 12.40625 
L 22.015625 0 
L 11.71875 0 
z
M 11.71875 51.703125 
L 22.015625 51.703125 
L 22.015625 39.3125 
L 11.71875 39.3125 
z
" id="DejaVuSans-58"/>
     <path d="M 9.8125 72.90625 
L 24.515625 72.90625 
L 43.109375 23.296875 
L 61.8125 72.90625 
L 76.515625 72.90625 
L 76.515625 0 
L 66.890625 0 
L 66.890625 64.015625 
L 48.09375 14.015625 
L 38.1875 14.015625 
L 19.390625 64.015625 
L 19.390625 0 
L 9.8125 0 
z
" id="DejaVuSans-77"/>
     <path d="M 9.421875 54.6875 
L 18.40625 54.6875 
L 18.40625 -0.984375 
Q 18.40625 -11.421875 14.421875 -16.109375 
Q 10.453125 -20.796875 1.609375 -20.796875 
L -1.8125 -20.796875 
L -1.8125 -13.1875 
L 0.59375 -13.1875 
Q 5.71875 -13.1875 7.5625 -10.8125 
Q 9.421875 -8.453125 9.421875 -0.984375 
z
M 9.421875 75.984375 
L 18.40625 75.984375 
L 18.40625 64.59375 
L 9.421875 64.59375 
z
" id="DejaVuSans-106"/>
     <path d="M 48.6875 27.296875 
Q 48.6875 37.203125 44.609375 42.84375 
Q 40.53125 48.484375 33.40625 48.484375 
Q 26.265625 48.484375 22.1875 42.84375 
Q 18.109375 37.203125 18.109375 27.296875 
Q 18.109375 17.390625 22.1875 11.75 
Q 26.265625 6.109375 33.40625 6.109375 
Q 40.53125 6.109375 44.609375 11.75 
Q 48.6875 17.390625 48.6875 27.296875 
z
M 18.109375 46.390625 
Q 20.953125 51.265625 25.265625 53.625 
Q 29.59375 56 35.59375 56 
Q 45.5625 56 51.78125 48.09375 
Q 58.015625 40.1875 58.015625 27.296875 
Q 58.015625 14.40625 51.78125 6.484375 
Q 45.5625 -1.421875 35.59375 -1.421875 
Q 29.59375 -1.421875 25.265625 0.953125 
Q 20.953125 3.328125 18.109375 8.203125 
L 18.109375 0 
L 9.078125 0 
L 9.078125 75.984375 
L 18.109375 75.984375 
z
" id="DejaVuSans-98"/>
     <path d="M 31 75.875 
Q 24.46875 64.65625 21.28125 53.65625 
Q 18.109375 42.671875 18.109375 31.390625 
Q 18.109375 20.125 21.3125 9.0625 
Q 24.515625 -2 31 -13.1875 
L 23.1875 -13.1875 
Q 15.875 -1.703125 12.234375 9.375 
Q 8.59375 20.453125 8.59375 31.390625 
Q 8.59375 42.28125 12.203125 53.3125 
Q 15.828125 64.359375 23.1875 75.875 
z
" id="DejaVuSans-40"/>
     <path d="M 8.015625 75.875 
L 15.828125 75.875 
Q 23.140625 64.359375 26.78125 53.3125 
Q 30.421875 42.28125 30.421875 31.390625 
Q 30.421875 20.453125 26.78125 9.375 
Q 23.140625 -1.703125 15.828125 -13.1875 
L 8.015625 -13.1875 
Q 14.5 -2 17.703125 9.0625 
Q 20.90625 20.125 20.90625 31.390625 
Q 20.90625 42.671875 17.703125 53.65625 
Q 14.5 64.65625 8.015625 75.875 
z
" id="DejaVuSans-41"/>
     <path d="M 31.78125 34.625 
Q 24.75 34.625 20.71875 30.859375 
Q 16.703125 27.09375 16.703125 20.515625 
Q 16.703125 13.921875 20.71875 10.15625 
Q 24.75 6.390625 31.78125 6.390625 
Q 38.8125 6.390625 42.859375 10.171875 
Q 46.921875 13.96875 46.921875 20.515625 
Q 46.921875 27.09375 42.890625 30.859375 
Q 38.875 34.625 31.78125 34.625 
z
M 21.921875 38.8125 
Q 15.578125 40.375 12.03125 44.71875 
Q 8.5 49.078125 8.5 55.328125 
Q 8.5 64.0625 14.71875 69.140625 
Q 20.953125 74.21875 31.78125 74.21875 
Q 42.671875 74.21875 48.875 69.140625 
Q 55.078125 64.0625 55.078125 55.328125 
Q 55.078125 49.078125 51.53125 44.71875 
Q 48 40.375 41.703125 38.8125 
Q 48.828125 37.15625 52.796875 32.3125 
Q 56.78125 27.484375 56.78125 20.515625 
Q 56.78125 9.90625 50.3125 4.234375 
Q 43.84375 -1.421875 31.78125 -1.421875 
Q 19.734375 -1.421875 13.25 4.234375 
Q 6.78125 9.90625 6.78125 20.515625 
Q 6.78125 27.484375 10.78125 32.3125 
Q 14.796875 37.15625 21.921875 38.8125 
z
M 18.3125 54.390625 
Q 18.3125 48.734375 21.84375 45.5625 
Q 25.390625 42.390625 31.78125 42.390625 
Q 38.140625 42.390625 41.71875 45.5625 
Q 45.3125 48.734375 45.3125 54.390625 
Q 45.3125 60.0625 41.71875 63.234375 
Q 38.140625 66.40625 31.78125 66.40625 
Q 25.390625 66.40625 21.84375 63.234375 
Q 18.3125 60.0625 18.3125 54.390625 
z
" id="DejaVuSans-56"/>
    </defs>
    <g style="fill:#262626;" transform="translate(22.612288 292.868762)scale(0.14 -0.14)">
     <use xlink:href="#DejaVuSans-83"/>
     <use x="63.476562" xlink:href="#DejaVuSans-111"/>
     <use x="124.658203" xlink:href="#DejaVuSans-117"/>
     <use x="188.037109" xlink:href="#DejaVuSans-114"/>
     <use x="229.119141" xlink:href="#DejaVuSans-99"/>
     <use x="284.099609" xlink:href="#DejaVuSans-101"/>
     <use x="345.623047" xlink:href="#DejaVuSans-58"/>
     <use x="379.314453" xlink:href="#DejaVuSans-32"/>
     <use x="411.101562" xlink:href="#DejaVuSans-77"/>
     <use x="497.380859" xlink:href="#DejaVuSans-97"/>
     <use x="558.660156" xlink:href="#DejaVuSans-100"/>
     <use x="622.136719" xlink:href="#DejaVuSans-100"/>
     <use x="685.613281" xlink:href="#DejaVuSans-105"/>
     <use x="713.396484" xlink:href="#DejaVuSans-115"/>
     <use x="765.496094" xlink:href="#DejaVuSans-111"/>
     <use x="826.677734" xlink:href="#DejaVuSans-110"/>
     <use x="890.056641" xlink:href="#DejaVuSans-32"/>
     <use x="921.84375" xlink:href="#DejaVuSans-80"/>
     <use x="982.130859" xlink:href="#DejaVuSans-114"/>
     <use x="1023.212891" xlink:href="#DejaVuSans-111"/>
     <use x="1084.394531" xlink:href="#DejaVuSans-106"/>
     <use x="1112.177734" xlink:href="#DejaVuSans-101"/>
     <use x="1173.701172" xlink:href="#DejaVuSans-99"/>
     <use x="1228.681641" xlink:href="#DejaVuSans-116"/>
     <use x="1267.890625" xlink:href="#DejaVuSans-32"/>
     <use x="1299.677734" xlink:href="#DejaVuSans-68"/>
     <use x="1376.679688" xlink:href="#DejaVuSans-97"/>
     <use x="1437.958984" xlink:href="#DejaVuSans-116"/>
     <use x="1477.167969" xlink:href="#DejaVuSans-97"/>
     <use x="1538.447266" xlink:href="#DejaVuSans-98"/>
     <use x="1601.923828" xlink:href="#DejaVuSans-97"/>
     <use x="1663.203125" xlink:href="#DejaVuSans-115"/>
     <use x="1715.302734" xlink:href="#DejaVuSans-101"/>
     <use x="1776.826172" xlink:href="#DejaVuSans-32"/>
     <use x="1808.613281" xlink:href="#DejaVuSans-40"/>
     <use x="1847.626953" xlink:href="#DejaVuSans-77"/>
     <use x="1933.90625" xlink:href="#DejaVuSans-80"/>
     <use x="1994.208984" xlink:href="#DejaVuSans-68"/>
     <use x="2071.210938" xlink:href="#DejaVuSans-41"/>
     <use x="2110.224609" xlink:href="#DejaVuSans-32"/>
     <use x="2142.011719" xlink:href="#DejaVuSans-50"/>
     <use x="2205.634766" xlink:href="#DejaVuSans-48"/>
     <use x="2269.257812" xlink:href="#DejaVuSans-49"/>
     <use x="2332.880859" xlink:href="#DejaVuSans-56"/>
    </g>
   </g>
  </g>
 </g>
 <defs>
  <clipPath id="p67ca69b459">
   <rect height="217.44" width="334.8" x="85.49675" y="7.954176"/>
  </clipPath>
 </defs>
</svg>
