<?xml version="1.0" encoding="utf-8" standalone="no"?>
<!DOCTYPE svg PUBLIC "-//W3C//DTD SVG 1.1//EN"
  "http://www.w3.org/Graphics/SVG/1.1/DTD/svg11.dtd">
<!-- Created with matplotlib (http://matplotlib.org/) -->
<svg height="312.817806pt" version="1.1" viewBox="0 0 517.381306 312.817806" width="517.381306pt" xmlns="http://www.w3.org/2000/svg" xmlns:xlink="http://www.w3.org/1999/xlink">
 <defs>
  <style type="text/css">
*{stroke-linecap:butt;stroke-linejoin:round;}
  </style>
 </defs>
 <g id="figure_1">
  <g id="patch_1">
   <path d="M -0 312.817806 
L 517.381306 312.817806 
L 517.381306 0 
L -0 0 
z
" style="fill:#ffffff;"/>
  </g>
  <g id="axes_1">
   <g id="patch_2">
    <path d="M 83.657612 234.64 
L 418.457612 234.64 
L 418.457612 17.2 
L 83.657612 17.2 
z
" style="fill:#ffffff;"/>
   </g>
   <g id="matplotlib.axis_1">
    <g id="xtick_1">
     <g id="line2d_1">
      <path clip-path="url(#pefd396a572)" d="M 98.875794 234.64 
L 98.875794 17.2 
" style="fill:none;opacity:0.9;stroke:#cccccc;stroke-linecap:round;"/>
     </g>
     <g id="text_1">
      <!-- 1850 -->
      <defs>
       <path d="M 37.25 0 
L 28.46875 0 
L 28.46875 56 
Q 25.296875 52.984375 20.140625 49.953125 
Q 14.984375 46.921875 10.890625 45.40625 
L 10.890625 53.90625 
Q 18.265625 57.375 23.78125 62.296875 
Q 29.296875 67.234375 31.59375 71.875 
L 37.25 71.875 
z
" id="ArialMT-31"/>
       <path d="M 17.671875 38.8125 
Q 12.203125 40.828125 9.5625 44.53125 
Q 6.9375 48.25 6.9375 53.421875 
Q 6.9375 61.234375 12.546875 66.546875 
Q 18.171875 71.875 27.484375 71.875 
Q 36.859375 71.875 42.578125 66.421875 
Q 48.296875 60.984375 48.296875 53.171875 
Q 48.296875 48.1875 45.671875 44.5 
Q 43.0625 40.828125 37.75 38.8125 
Q 44.34375 36.671875 47.78125 31.875 
Q 51.21875 27.09375 51.21875 20.453125 
Q 51.21875 11.28125 44.71875 5.03125 
Q 38.234375 -1.21875 27.640625 -1.21875 
Q 17.046875 -1.21875 10.546875 5.046875 
Q 4.046875 11.328125 4.046875 20.703125 
Q 4.046875 27.6875 7.59375 32.390625 
Q 11.140625 37.109375 17.671875 38.8125 
z
M 15.921875 53.71875 
Q 15.921875 48.640625 19.1875 45.40625 
Q 22.46875 42.1875 27.6875 42.1875 
Q 32.765625 42.1875 36.015625 45.375 
Q 39.265625 48.578125 39.265625 53.21875 
Q 39.265625 58.0625 35.90625 61.359375 
Q 32.5625 64.65625 27.59375 64.65625 
Q 22.5625 64.65625 19.234375 61.421875 
Q 15.921875 58.203125 15.921875 53.71875 
z
M 13.09375 20.65625 
Q 13.09375 16.890625 14.875 13.375 
Q 16.65625 9.859375 20.171875 7.921875 
Q 23.6875 6 27.734375 6 
Q 34.03125 6 38.125 10.046875 
Q 42.234375 14.109375 42.234375 20.359375 
Q 42.234375 26.703125 38.015625 30.859375 
Q 33.796875 35.015625 27.4375 35.015625 
Q 21.234375 35.015625 17.15625 30.90625 
Q 13.09375 26.8125 13.09375 20.65625 
z
" id="ArialMT-38"/>
       <path d="M 4.15625 18.75 
L 13.375 19.53125 
Q 14.40625 12.796875 18.140625 9.390625 
Q 21.875 6 27.15625 6 
Q 33.5 6 37.890625 10.78125 
Q 42.28125 15.578125 42.28125 23.484375 
Q 42.28125 31 38.0625 35.34375 
Q 33.84375 39.703125 27 39.703125 
Q 22.75 39.703125 19.328125 37.765625 
Q 15.921875 35.84375 13.96875 32.765625 
L 5.71875 33.84375 
L 12.640625 70.609375 
L 48.25 70.609375 
L 48.25 62.203125 
L 19.671875 62.203125 
L 15.828125 42.96875 
Q 22.265625 47.46875 29.34375 47.46875 
Q 38.71875 47.46875 45.15625 40.96875 
Q 51.609375 34.46875 51.609375 24.265625 
Q 51.609375 14.546875 45.953125 7.46875 
Q 39.0625 -1.21875 27.15625 -1.21875 
Q 17.390625 -1.21875 11.203125 4.25 
Q 5.03125 9.71875 4.15625 18.75 
z
" id="ArialMT-35"/>
       <path d="M 4.15625 35.296875 
Q 4.15625 48 6.765625 55.734375 
Q 9.375 63.484375 14.515625 67.671875 
Q 19.671875 71.875 27.484375 71.875 
Q 33.25 71.875 37.59375 69.546875 
Q 41.9375 67.234375 44.765625 62.859375 
Q 47.609375 58.5 49.21875 52.21875 
Q 50.828125 45.953125 50.828125 35.296875 
Q 50.828125 22.703125 48.234375 14.96875 
Q 45.65625 7.234375 40.5 3 
Q 35.359375 -1.21875 27.484375 -1.21875 
Q 17.140625 -1.21875 11.234375 6.203125 
Q 4.15625 15.140625 4.15625 35.296875 
z
M 13.1875 35.296875 
Q 13.1875 17.671875 17.3125 11.828125 
Q 21.4375 6 27.484375 6 
Q 33.546875 6 37.671875 11.859375 
Q 41.796875 17.71875 41.796875 35.296875 
Q 41.796875 52.984375 37.671875 58.78125 
Q 33.546875 64.59375 27.390625 64.59375 
Q 21.34375 64.59375 17.71875 59.46875 
Q 13.1875 52.9375 13.1875 35.296875 
z
" id="ArialMT-30"/>
      </defs>
      <g style="fill:#262626;" transform="translate(83.305169 258.160938)scale(0.14 -0.14)">
       <use xlink:href="#ArialMT-31"/>
       <use x="55.615234" xlink:href="#ArialMT-38"/>
       <use x="111.230469" xlink:href="#ArialMT-35"/>
       <use x="166.845703" xlink:href="#ArialMT-30"/>
      </g>
     </g>
    </g>
    <g id="xtick_2">
     <g id="line2d_2">
      <path clip-path="url(#pefd396a572)" d="M 190.551588 234.64 
L 190.551588 17.2 
" style="fill:none;opacity:0.9;stroke:#cccccc;stroke-linecap:round;"/>
     </g>
     <g id="text_2">
      <!-- 1900 -->
      <defs>
       <path d="M 5.46875 16.546875 
L 13.921875 17.328125 
Q 14.984375 11.375 18.015625 8.6875 
Q 21.046875 6 25.78125 6 
Q 29.828125 6 32.875 7.859375 
Q 35.9375 9.71875 37.890625 12.8125 
Q 39.84375 15.921875 41.15625 21.1875 
Q 42.484375 26.46875 42.484375 31.9375 
Q 42.484375 32.515625 42.4375 33.6875 
Q 39.796875 29.5 35.234375 26.875 
Q 30.671875 24.265625 25.34375 24.265625 
Q 16.453125 24.265625 10.296875 30.703125 
Q 4.15625 37.15625 4.15625 47.703125 
Q 4.15625 58.59375 10.578125 65.234375 
Q 17 71.875 26.65625 71.875 
Q 33.640625 71.875 39.421875 68.109375 
Q 45.21875 64.359375 48.21875 57.390625 
Q 51.21875 50.4375 51.21875 37.25 
Q 51.21875 23.53125 48.234375 15.40625 
Q 45.265625 7.28125 39.375 3.03125 
Q 33.5 -1.21875 25.59375 -1.21875 
Q 17.1875 -1.21875 11.859375 3.4375 
Q 6.546875 8.109375 5.46875 16.546875 
z
M 41.453125 48.140625 
Q 41.453125 55.71875 37.421875 60.15625 
Q 33.40625 64.59375 27.734375 64.59375 
Q 21.875 64.59375 17.53125 59.8125 
Q 13.1875 55.03125 13.1875 47.40625 
Q 13.1875 40.578125 17.3125 36.296875 
Q 21.4375 32.03125 27.484375 32.03125 
Q 33.59375 32.03125 37.515625 36.296875 
Q 41.453125 40.578125 41.453125 48.140625 
z
" id="ArialMT-39"/>
      </defs>
      <g style="fill:#262626;" transform="translate(174.980963 258.160938)scale(0.14 -0.14)">
       <use xlink:href="#ArialMT-31"/>
       <use x="55.615234" xlink:href="#ArialMT-39"/>
       <use x="111.230469" xlink:href="#ArialMT-30"/>
       <use x="166.845703" xlink:href="#ArialMT-30"/>
      </g>
     </g>
    </g>
    <g id="xtick_3">
     <g id="line2d_3">
      <path clip-path="url(#pefd396a572)" d="M 282.227382 234.64 
L 282.227382 17.2 
" style="fill:none;opacity:0.9;stroke:#cccccc;stroke-linecap:round;"/>
     </g>
     <g id="text_3">
      <!-- 1950 -->
      <g style="fill:#262626;" transform="translate(266.656757 258.160938)scale(0.14 -0.14)">
       <use xlink:href="#ArialMT-31"/>
       <use x="55.615234" xlink:href="#ArialMT-39"/>
       <use x="111.230469" xlink:href="#ArialMT-35"/>
       <use x="166.845703" xlink:href="#ArialMT-30"/>
      </g>
     </g>
    </g>
    <g id="xtick_4">
     <g id="line2d_4">
      <path clip-path="url(#pefd396a572)" d="M 373.903176 234.64 
L 373.903176 17.2 
" style="fill:none;opacity:0.9;stroke:#cccccc;stroke-linecap:round;"/>
     </g>
     <g id="text_4">
      <!-- 2000 -->
      <defs>
       <path d="M 50.34375 8.453125 
L 50.34375 0 
L 3.03125 0 
Q 2.9375 3.171875 4.046875 6.109375 
Q 5.859375 10.9375 9.828125 15.625 
Q 13.8125 20.3125 21.34375 26.46875 
Q 33.015625 36.03125 37.109375 41.625 
Q 41.21875 47.21875 41.21875 52.203125 
Q 41.21875 57.421875 37.46875 61 
Q 33.734375 64.59375 27.734375 64.59375 
Q 21.390625 64.59375 17.578125 60.78125 
Q 13.765625 56.984375 13.71875 50.25 
L 4.6875 51.171875 
Q 5.609375 61.28125 11.65625 66.578125 
Q 17.71875 71.875 27.9375 71.875 
Q 38.234375 71.875 44.234375 66.15625 
Q 50.25 60.453125 50.25 52 
Q 50.25 47.703125 48.484375 43.546875 
Q 46.734375 39.40625 42.65625 34.8125 
Q 38.578125 30.21875 29.109375 22.21875 
Q 21.1875 15.578125 18.9375 13.203125 
Q 16.703125 10.84375 15.234375 8.453125 
z
" id="ArialMT-32"/>
      </defs>
      <g style="fill:#262626;" transform="translate(358.332551 258.160938)scale(0.14 -0.14)">
       <use xlink:href="#ArialMT-32"/>
       <use x="55.615234" xlink:href="#ArialMT-30"/>
       <use x="111.230469" xlink:href="#ArialMT-30"/>
       <use x="166.845703" xlink:href="#ArialMT-30"/>
      </g>
     </g>
    </g>
    <g id="text_5">
     <!-- Year -->
     <defs>
      <path d="M 27.875 0 
L 27.875 30.328125 
L 0.296875 71.578125 
L 11.8125 71.578125 
L 25.921875 50 
Q 29.828125 43.953125 33.203125 37.890625 
Q 36.421875 43.5 41.015625 50.53125 
L 54.890625 71.578125 
L 65.921875 71.578125 
L 37.359375 30.328125 
L 37.359375 0 
z
" id="ArialMT-59"/>
      <path d="M 42.09375 16.703125 
L 51.171875 15.578125 
Q 49.03125 7.625 43.21875 3.21875 
Q 37.40625 -1.171875 28.375 -1.171875 
Q 17 -1.171875 10.328125 5.828125 
Q 3.65625 12.84375 3.65625 25.484375 
Q 3.65625 38.578125 10.390625 45.796875 
Q 17.140625 53.03125 27.875 53.03125 
Q 38.28125 53.03125 44.875 45.953125 
Q 51.46875 38.875 51.46875 26.03125 
Q 51.46875 25.25 51.421875 23.6875 
L 12.75 23.6875 
Q 13.234375 15.140625 17.578125 10.59375 
Q 21.921875 6.0625 28.421875 6.0625 
Q 33.25 6.0625 36.671875 8.59375 
Q 40.09375 11.140625 42.09375 16.703125 
z
M 13.234375 30.90625 
L 42.1875 30.90625 
Q 41.609375 37.453125 38.875 40.71875 
Q 34.671875 45.796875 27.984375 45.796875 
Q 21.921875 45.796875 17.796875 41.75 
Q 13.671875 37.703125 13.234375 30.90625 
z
" id="ArialMT-65"/>
      <path d="M 40.4375 6.390625 
Q 35.546875 2.25 31.03125 0.53125 
Q 26.515625 -1.171875 21.34375 -1.171875 
Q 12.796875 -1.171875 8.203125 3 
Q 3.609375 7.171875 3.609375 13.671875 
Q 3.609375 17.484375 5.34375 20.625 
Q 7.078125 23.78125 9.890625 25.6875 
Q 12.703125 27.59375 16.21875 28.5625 
Q 18.796875 29.25 24.03125 29.890625 
Q 34.671875 31.15625 39.703125 32.90625 
Q 39.75 34.71875 39.75 35.203125 
Q 39.75 40.578125 37.25 42.78125 
Q 33.890625 45.75 27.25 45.75 
Q 21.046875 45.75 18.09375 43.578125 
Q 15.140625 41.40625 13.71875 35.890625 
L 5.125 37.0625 
Q 6.296875 42.578125 8.984375 45.96875 
Q 11.671875 49.359375 16.75 51.1875 
Q 21.828125 53.03125 28.515625 53.03125 
Q 35.15625 53.03125 39.296875 51.46875 
Q 43.453125 49.90625 45.40625 47.53125 
Q 47.359375 45.171875 48.140625 41.546875 
Q 48.578125 39.3125 48.578125 33.453125 
L 48.578125 21.734375 
Q 48.578125 9.46875 49.140625 6.21875 
Q 49.703125 2.984375 51.375 0 
L 42.1875 0 
Q 40.828125 2.734375 40.4375 6.390625 
z
M 39.703125 26.03125 
Q 34.90625 24.078125 25.34375 22.703125 
Q 19.921875 21.921875 17.671875 20.9375 
Q 15.4375 19.96875 14.203125 18.09375 
Q 12.984375 16.21875 12.984375 13.921875 
Q 12.984375 10.40625 15.640625 8.0625 
Q 18.3125 5.71875 23.4375 5.71875 
Q 28.515625 5.71875 32.46875 7.9375 
Q 36.421875 10.15625 38.28125 14.015625 
Q 39.703125 17 39.703125 22.796875 
z
" id="ArialMT-61"/>
      <path d="M 6.5 0 
L 6.5 51.859375 
L 14.40625 51.859375 
L 14.40625 44 
Q 17.4375 49.515625 20 51.265625 
Q 22.5625 53.03125 25.640625 53.03125 
Q 30.078125 53.03125 34.671875 50.203125 
L 31.640625 42.046875 
Q 28.421875 43.953125 25.203125 43.953125 
Q 22.3125 43.953125 20.015625 42.21875 
Q 17.71875 40.484375 16.75 37.40625 
Q 15.28125 32.71875 15.28125 27.15625 
L 15.28125 0 
z
" id="ArialMT-72"/>
     </defs>
     <g style="fill:#262626;" transform="translate(233.32705 276.968563)scale(0.168 -0.168)">
      <use xlink:href="#ArialMT-59"/>
      <use x="66.558594" xlink:href="#ArialMT-65"/>
      <use x="122.173828" xlink:href="#ArialMT-61"/>
      <use x="177.789062" xlink:href="#ArialMT-72"/>
     </g>
    </g>
   </g>
   <g id="matplotlib.axis_2">
    <g id="ytick_1">
     <g id="line2d_5">
      <path clip-path="url(#pefd396a572)" d="M 83.657612 227.183301 
L 418.457612 227.183301 
" style="fill:none;opacity:0.9;stroke:#cccccc;stroke-linecap:round;"/>
     </g>
     <g id="text_6">
      <!-- 0 -->
      <g style="fill:#262626;" transform="translate(62.3723 232.19377)scale(0.14 -0.14)">
       <use xlink:href="#ArialMT-30"/>
      </g>
     </g>
    </g>
    <g id="ytick_2">
     <g id="line2d_6">
      <path clip-path="url(#pefd396a572)" d="M 83.657612 189.43933 
L 418.457612 189.43933 
" style="fill:none;opacity:0.9;stroke:#cccccc;stroke-linecap:round;"/>
     </g>
     <g id="text_7">
      <!-- 10000 -->
      <g style="fill:#262626;" transform="translate(31.23105 194.449798)scale(0.14 -0.14)">
       <use xlink:href="#ArialMT-31"/>
       <use x="55.615234" xlink:href="#ArialMT-30"/>
       <use x="111.230469" xlink:href="#ArialMT-30"/>
       <use x="166.845703" xlink:href="#ArialMT-30"/>
       <use x="222.460938" xlink:href="#ArialMT-30"/>
      </g>
     </g>
    </g>
    <g id="ytick_3">
     <g id="line2d_7">
      <path clip-path="url(#pefd396a572)" d="M 83.657612 151.695358 
L 418.457612 151.695358 
" style="fill:none;opacity:0.9;stroke:#cccccc;stroke-linecap:round;"/>
     </g>
     <g id="text_8">
      <!-- 20000 -->
      <g style="fill:#262626;" transform="translate(31.23105 156.705827)scale(0.14 -0.14)">
       <use xlink:href="#ArialMT-32"/>
       <use x="55.615234" xlink:href="#ArialMT-30"/>
       <use x="111.230469" xlink:href="#ArialMT-30"/>
       <use x="166.845703" xlink:href="#ArialMT-30"/>
       <use x="222.460938" xlink:href="#ArialMT-30"/>
      </g>
     </g>
    </g>
    <g id="ytick_4">
     <g id="line2d_8">
      <path clip-path="url(#pefd396a572)" d="M 83.657612 113.951387 
L 418.457612 113.951387 
" style="fill:none;opacity:0.9;stroke:#cccccc;stroke-linecap:round;"/>
     </g>
     <g id="text_9">
      <!-- 30000 -->
      <defs>
       <path d="M 4.203125 18.890625 
L 12.984375 20.0625 
Q 14.5 12.59375 18.140625 9.296875 
Q 21.78125 6 27 6 
Q 33.203125 6 37.46875 10.296875 
Q 41.75 14.59375 41.75 20.953125 
Q 41.75 27 37.796875 30.921875 
Q 33.84375 34.859375 27.734375 34.859375 
Q 25.25 34.859375 21.53125 33.890625 
L 22.515625 41.609375 
Q 23.390625 41.5 23.921875 41.5 
Q 29.546875 41.5 34.03125 44.421875 
Q 38.53125 47.359375 38.53125 53.46875 
Q 38.53125 58.296875 35.25 61.46875 
Q 31.984375 64.65625 26.8125 64.65625 
Q 21.6875 64.65625 18.265625 61.421875 
Q 14.84375 58.203125 13.875 51.765625 
L 5.078125 53.328125 
Q 6.6875 62.15625 12.390625 67.015625 
Q 18.109375 71.875 26.609375 71.875 
Q 32.46875 71.875 37.390625 69.359375 
Q 42.328125 66.84375 44.9375 62.5 
Q 47.5625 58.15625 47.5625 53.265625 
Q 47.5625 48.640625 45.0625 44.828125 
Q 42.578125 41.015625 37.703125 38.765625 
Q 44.046875 37.3125 47.5625 32.6875 
Q 51.078125 28.078125 51.078125 21.140625 
Q 51.078125 11.765625 44.234375 5.25 
Q 37.40625 -1.265625 26.953125 -1.265625 
Q 17.53125 -1.265625 11.296875 4.34375 
Q 5.078125 9.96875 4.203125 18.890625 
z
" id="ArialMT-33"/>
      </defs>
      <g style="fill:#262626;" transform="translate(31.23105 118.961855)scale(0.14 -0.14)">
       <use xlink:href="#ArialMT-33"/>
       <use x="55.615234" xlink:href="#ArialMT-30"/>
       <use x="111.230469" xlink:href="#ArialMT-30"/>
       <use x="166.845703" xlink:href="#ArialMT-30"/>
       <use x="222.460938" xlink:href="#ArialMT-30"/>
      </g>
     </g>
    </g>
    <g id="ytick_5">
     <g id="line2d_9">
      <path clip-path="url(#pefd396a572)" d="M 83.657612 76.207415 
L 418.457612 76.207415 
" style="fill:none;opacity:0.9;stroke:#cccccc;stroke-linecap:round;"/>
     </g>
     <g id="text_10">
      <!-- 40000 -->
      <defs>
       <path d="M 32.328125 0 
L 32.328125 17.140625 
L 1.265625 17.140625 
L 1.265625 25.203125 
L 33.9375 71.578125 
L 41.109375 71.578125 
L 41.109375 25.203125 
L 50.78125 25.203125 
L 50.78125 17.140625 
L 41.109375 17.140625 
L 41.109375 0 
z
M 32.328125 25.203125 
L 32.328125 57.46875 
L 9.90625 25.203125 
z
" id="ArialMT-34"/>
      </defs>
      <g style="fill:#262626;" transform="translate(31.23105 81.217884)scale(0.14 -0.14)">
       <use xlink:href="#ArialMT-34"/>
       <use x="55.615234" xlink:href="#ArialMT-30"/>
       <use x="111.230469" xlink:href="#ArialMT-30"/>
       <use x="166.845703" xlink:href="#ArialMT-30"/>
       <use x="222.460938" xlink:href="#ArialMT-30"/>
      </g>
     </g>
    </g>
    <g id="ytick_6">
     <g id="line2d_10">
      <path clip-path="url(#pefd396a572)" d="M 83.657612 38.463444 
L 418.457612 38.463444 
" style="fill:none;opacity:0.9;stroke:#cccccc;stroke-linecap:round;"/>
     </g>
     <g id="text_11">
      <!-- 50000 -->
      <g style="fill:#262626;" transform="translate(31.23105 43.473913)scale(0.14 -0.14)">
       <use xlink:href="#ArialMT-35"/>
       <use x="55.615234" xlink:href="#ArialMT-30"/>
       <use x="111.230469" xlink:href="#ArialMT-30"/>
       <use x="166.845703" xlink:href="#ArialMT-30"/>
       <use x="222.460938" xlink:href="#ArialMT-30"/>
      </g>
     </g>
    </g>
    <g id="text_12">
     <!-- GDP per capita -->
     <defs>
      <path d="M 41.21875 28.078125 
L 41.21875 36.46875 
L 71.53125 36.53125 
L 71.53125 9.96875 
Q 64.546875 4.390625 57.125 1.578125 
Q 49.703125 -1.21875 41.890625 -1.21875 
Q 31.34375 -1.21875 22.71875 3.296875 
Q 14.109375 7.8125 9.71875 16.359375 
Q 5.328125 24.90625 5.328125 35.453125 
Q 5.328125 45.90625 9.6875 54.953125 
Q 14.0625 64.015625 22.265625 68.40625 
Q 30.46875 72.796875 41.15625 72.796875 
Q 48.921875 72.796875 55.1875 70.28125 
Q 61.46875 67.78125 65.03125 63.28125 
Q 68.609375 58.796875 70.453125 51.5625 
L 61.921875 49.21875 
Q 60.296875 54.6875 57.90625 57.8125 
Q 55.515625 60.9375 51.0625 62.8125 
Q 46.625 64.703125 41.21875 64.703125 
Q 34.71875 64.703125 29.984375 62.71875 
Q 25.25 60.75 22.34375 57.515625 
Q 19.4375 54.296875 17.828125 50.4375 
Q 15.09375 43.796875 15.09375 36.03125 
Q 15.09375 26.46875 18.390625 20.015625 
Q 21.6875 13.578125 27.984375 10.453125 
Q 34.28125 7.328125 41.359375 7.328125 
Q 47.515625 7.328125 53.375 9.6875 
Q 59.234375 12.0625 62.25 14.75 
L 62.25 28.078125 
z
" id="ArialMT-47"/>
      <path d="M 7.71875 0 
L 7.71875 71.578125 
L 32.375 71.578125 
Q 40.71875 71.578125 45.125 70.5625 
Q 51.265625 69.140625 55.609375 65.4375 
Q 61.28125 60.640625 64.078125 53.1875 
Q 66.890625 45.75 66.890625 36.1875 
Q 66.890625 28.03125 64.984375 21.734375 
Q 63.09375 15.4375 60.109375 11.296875 
Q 57.125 7.171875 53.578125 4.796875 
Q 50.046875 2.4375 45.046875 1.21875 
Q 40.046875 0 33.546875 0 
z
M 17.1875 8.453125 
L 32.46875 8.453125 
Q 39.546875 8.453125 43.578125 9.765625 
Q 47.609375 11.078125 50 13.484375 
Q 53.375 16.84375 55.25 22.53125 
Q 57.125 28.21875 57.125 36.328125 
Q 57.125 47.5625 53.4375 53.59375 
Q 49.75 59.625 44.484375 61.671875 
Q 40.671875 63.140625 32.234375 63.140625 
L 17.1875 63.140625 
z
" id="ArialMT-44"/>
      <path d="M 7.71875 0 
L 7.71875 71.578125 
L 34.71875 71.578125 
Q 41.84375 71.578125 45.609375 70.90625 
Q 50.875 70.015625 54.4375 67.546875 
Q 58.015625 65.09375 60.1875 60.640625 
Q 62.359375 56.203125 62.359375 50.875 
Q 62.359375 41.75 56.546875 35.421875 
Q 50.734375 29.109375 35.546875 29.109375 
L 17.1875 29.109375 
L 17.1875 0 
z
M 17.1875 37.546875 
L 35.6875 37.546875 
Q 44.875 37.546875 48.734375 40.96875 
Q 52.59375 44.390625 52.59375 50.59375 
Q 52.59375 55.078125 50.3125 58.265625 
Q 48.046875 61.46875 44.34375 62.5 
Q 41.9375 63.140625 35.5 63.140625 
L 17.1875 63.140625 
z
" id="ArialMT-50"/>
      <path id="ArialMT-20"/>
      <path d="M 6.59375 -19.875 
L 6.59375 51.859375 
L 14.59375 51.859375 
L 14.59375 45.125 
Q 17.4375 49.078125 21 51.046875 
Q 24.5625 53.03125 29.640625 53.03125 
Q 36.28125 53.03125 41.359375 49.609375 
Q 46.4375 46.1875 49.015625 39.953125 
Q 51.609375 33.734375 51.609375 26.3125 
Q 51.609375 18.359375 48.75 11.984375 
Q 45.90625 5.609375 40.453125 2.21875 
Q 35.015625 -1.171875 29 -1.171875 
Q 24.609375 -1.171875 21.109375 0.6875 
Q 17.625 2.546875 15.375 5.375 
L 15.375 -19.875 
z
M 14.546875 25.640625 
Q 14.546875 15.625 18.59375 10.84375 
Q 22.65625 6.0625 28.421875 6.0625 
Q 34.28125 6.0625 38.453125 11.015625 
Q 42.625 15.96875 42.625 26.375 
Q 42.625 36.28125 38.546875 41.203125 
Q 34.46875 46.140625 28.8125 46.140625 
Q 23.1875 46.140625 18.859375 40.890625 
Q 14.546875 35.640625 14.546875 25.640625 
z
" id="ArialMT-70"/>
      <path d="M 40.4375 19 
L 49.078125 17.875 
Q 47.65625 8.9375 41.8125 3.875 
Q 35.984375 -1.171875 27.484375 -1.171875 
Q 16.84375 -1.171875 10.375 5.78125 
Q 3.90625 12.75 3.90625 25.734375 
Q 3.90625 34.125 6.6875 40.421875 
Q 9.46875 46.734375 15.15625 49.875 
Q 20.84375 53.03125 27.546875 53.03125 
Q 35.984375 53.03125 41.359375 48.75 
Q 46.734375 44.484375 48.25 36.625 
L 39.703125 35.296875 
Q 38.484375 40.53125 35.375 43.15625 
Q 32.28125 45.796875 27.875 45.796875 
Q 21.234375 45.796875 17.078125 41.03125 
Q 12.9375 36.28125 12.9375 25.984375 
Q 12.9375 15.53125 16.9375 10.796875 
Q 20.953125 6.0625 27.390625 6.0625 
Q 32.5625 6.0625 36.03125 9.234375 
Q 39.5 12.40625 40.4375 19 
z
" id="ArialMT-63"/>
      <path d="M 6.640625 61.46875 
L 6.640625 71.578125 
L 15.4375 71.578125 
L 15.4375 61.46875 
z
M 6.640625 0 
L 6.640625 51.859375 
L 15.4375 51.859375 
L 15.4375 0 
z
" id="ArialMT-69"/>
      <path d="M 25.78125 7.859375 
L 27.046875 0.09375 
Q 23.34375 -0.6875 20.40625 -0.6875 
Q 15.625 -0.6875 12.984375 0.828125 
Q 10.359375 2.34375 9.28125 4.8125 
Q 8.203125 7.28125 8.203125 15.1875 
L 8.203125 45.015625 
L 1.765625 45.015625 
L 1.765625 51.859375 
L 8.203125 51.859375 
L 8.203125 64.703125 
L 16.9375 69.96875 
L 16.9375 51.859375 
L 25.78125 51.859375 
L 25.78125 45.015625 
L 16.9375 45.015625 
L 16.9375 14.703125 
Q 16.9375 10.9375 17.40625 9.859375 
Q 17.875 8.796875 18.921875 8.15625 
Q 19.96875 7.515625 21.921875 7.515625 
Q 23.390625 7.515625 25.78125 7.859375 
z
" id="ArialMT-74"/>
     </defs>
     <g style="fill:#262626;" transform="translate(23.89205 183.341875)rotate(-90)scale(0.168 -0.168)">
      <use xlink:href="#ArialMT-47"/>
      <use x="77.783203" xlink:href="#ArialMT-44"/>
      <use x="150" xlink:href="#ArialMT-50"/>
      <use x="216.683594" xlink:href="#ArialMT-20"/>
      <use x="244.466797" xlink:href="#ArialMT-70"/>
      <use x="300.082031" xlink:href="#ArialMT-65"/>
      <use x="355.697266" xlink:href="#ArialMT-72"/>
      <use x="388.998047" xlink:href="#ArialMT-20"/>
      <use x="416.78125" xlink:href="#ArialMT-63"/>
      <use x="466.78125" xlink:href="#ArialMT-61"/>
      <use x="522.396484" xlink:href="#ArialMT-70"/>
      <use x="578.011719" xlink:href="#ArialMT-69"/>
      <use x="600.228516" xlink:href="#ArialMT-74"/>
      <use x="628.011719" xlink:href="#ArialMT-61"/>
     </g>
    </g>
   </g>
   <g id="line2d_11">
    <path clip-path="url(#pefd396a572)" d="M 98.875794 224.756364 
L 135.546112 224.348729 
L 166.715882 224.314759 
L 172.216429 224.126039 
L 190.551588 224.012807 
L 210.720263 224.148686 
L 212.553779 224.005259 
L 214.387295 223.858057 
L 243.723549 223.597624 
L 245.557065 223.552331 
L 247.390581 223.529685 
L 249.224096 223.43155 
L 251.057612 223.839185 
L 252.891128 223.778795 
L 254.724644 223.510813 
L 256.55816 223.303221 
L 258.391676 223.420227 
L 260.225192 223.541008 
L 282.227382 224.326082 
L 284.060898 223.790118 
L 285.894414 223.450422 
L 287.72793 223.039013 
L 289.561446 223.450422 
L 291.394962 223.174891 
L 293.228478 223.02769 
L 295.061993 223.020141 
L 296.895509 223.133373 
L 298.729025 223.454197 
L 300.562541 223.699532 
L 302.396057 224.167558 
L 304.229573 223.914673 
L 306.063089 223.597624 
L 307.896605 223.220184 
L 309.73012 222.903135 
L 311.563636 222.854067 
L 313.397152 222.83897 
L 315.230668 223.057885 
L 317.064184 222.759708 
L 318.8977 222.310554 
L 320.731216 222.068993 
L 322.564732 222.250164 
L 324.398248 222.004828 
L 326.231763 221.982182 
L 328.065279 221.804785 
L 329.898795 221.959535 
L 331.732311 221.850078 
L 333.565827 221.20843 
L 335.399343 220.963095 
L 337.232859 220.80457 
L 339.066375 220.861186 
L 340.89989 220.291252 
L 342.733406 219.985526 
L 344.566922 219.181579 
L 346.400438 218.464444 
L 348.233954 218.090778 
L 350.06747 217.709564 
L 351.900986 217.479326 
L 353.734502 217.713339 
L 355.568018 217.898284 
L 357.401533 217.558588 
L 359.235049 216.875422 
L 361.068565 215.871433 
L 362.902081 215.350566 
L 364.735597 214.720242 
L 366.569113 213.995557 
L 368.402629 213.821935 
L 370.236145 213.769094 
L 372.06966 212.972696 
L 373.903176 211.81773 
L 375.736692 210.575954 
L 377.570208 209.092615 
L 379.403724 207.850839 
L 381.23724 206.065549 
L 383.070756 203.261172 
L 384.904272 201.000308 
L 386.737788 198.943262 
L 388.571303 197.965693 
L 390.404819 195.501011 
L 392.238335 191.420888 
L 394.071851 188.605188 
L 395.905367 186.970874 
L 397.738883 185.332785 
L 399.572399 182.992659 
L 401.405915 181.882986 
L 403.23943 180.682728 
" style="fill:none;stroke:#f47915;stroke-linecap:round;stroke-width:2;"/>
   </g>
   <g id="line2d_12">
    <path clip-path="url(#pefd396a572)" d="M 98.875794 216.396074 
L 106.209858 214.958029 
L 108.043373 215.361889 
L 109.876889 214.70137 
L 111.710405 214.686272 
L 113.543921 215.037291 
L 115.377437 214.656077 
L 117.210953 214.520199 
L 119.044469 214.674949 
L 120.877985 215.320371 
L 122.711501 214.32393 
L 128.212048 213.610569 
L 130.045564 213.678508 
L 131.87908 213.150092 
L 133.712596 213.153867 
L 135.546112 212.66697 
L 139.213143 212.82172 
L 144.713691 212.180072 
L 150.214239 212.172524 
L 152.047755 212.346146 
L 153.881271 211.746017 
L 157.548302 210.908101 
L 161.215334 210.904326 
L 163.04885 211.0704 
L 164.882366 210.900552 
L 168.549398 209.670098 
L 170.382913 208.817084 
L 174.049945 208.934091 
L 175.883461 209.47383 
L 177.716977 209.583287 
L 179.550493 208.522682 
L 181.384009 208.054656 
L 183.217525 207.390362 
L 185.051041 207.262033 
L 188.718072 205.722079 
L 190.551588 206.016482 
L 192.385104 206.15236 
L 194.21862 205.737176 
L 196.052136 206.084421 
L 197.885652 206.084421 
L 201.552683 204.99362 
L 203.386199 204.702992 
L 205.219715 205.7485 
L 207.053231 205.393706 
L 210.720263 204.280259 
L 212.553779 203.92924 
L 214.387295 203.05358 
L 216.220811 203.170586 
L 218.054326 201.543821 
L 219.887842 201.230546 
L 223.554874 201.185253 
L 225.38839 204.163253 
L 227.221906 205.835311 
L 229.055422 206.420342 
L 230.888938 204.480302 
L 232.722453 203.766941 
L 234.555969 202.857311 
L 236.389485 201.630632 
L 238.223001 202.547811 
L 240.056517 200.532283 
L 241.890033 200.196361 
L 243.723549 199.32825 
L 245.557065 199.626427 
L 247.390581 201.139961 
L 249.224096 201.072022 
L 251.057612 200.396404 
L 252.891128 198.7017 
L 254.724644 197.709034 
L 256.55816 196.489903 
L 258.391676 195.538755 
L 260.225192 195.266999 
L 262.058708 195.266999 
L 265.725739 189.001499 
L 267.559255 188.171132 
L 269.392771 187.608747 
L 274.893319 192.640018 
L 276.726835 193.338282 
L 278.56035 192.590951 
L 280.393866 191.488827 
L 282.227382 191.549218 
L 284.060898 190.952863 
L 285.894414 191.300107 
L 289.561446 187.929571 
L 291.394962 186.499074 
L 295.061993 185.185584 
L 296.895509 185.166712 
L 298.729025 183.683374 
L 300.562541 181.890535 
L 302.396057 180.437392 
L 304.229573 180.282642 
L 306.063089 178.686072 
L 307.896605 176.179872 
L 311.563636 173.968076 
L 313.397152 172.681006 
L 315.230668 172.039359 
L 317.064184 169.657714 
L 318.8977 167.86865 
L 320.731216 167.913943 
L 322.564732 166.592904 
L 324.398248 162.580719 
L 326.231763 163.682843 
L 328.065279 163.981021 
L 329.898795 161.516339 
L 331.732311 158.723286 
L 335.399343 151.208461 
L 337.232859 149.457141 
L 339.066375 151.789718 
L 340.89989 152.204902 
L 342.733406 151.299046 
L 344.566922 150.676271 
L 346.400438 149.007987 
L 348.233954 146.777319 
L 350.06747 143.218062 
L 351.900986 140.089087 
L 353.734502 137.949004 
L 355.568018 136.590221 
L 357.401533 137.745186 
L 359.235049 137.307356 
L 361.068565 134.782284 
L 362.902081 131.49101 
L 364.735597 127.161777 
L 366.569113 122.34942 
L 368.402629 114.55529 
L 370.236145 110.260026 
L 372.06966 105.477865 
L 373.903176 97.381783 
L 375.736692 94.392461 
L 377.570208 93.630032 
L 379.403724 93.743264 
L 381.23724 90.097197 
L 383.070756 84.797943 
L 384.904272 82.808836 
L 386.737788 83.488227 
L 388.571303 85.050828 
L 390.404819 92.324091 
L 392.238335 94.641571 
L 394.071851 95.188858 
L 395.905367 92.120274 
L 397.738883 84.88098 
L 401.405915 80.929186 
L 403.23943 79.37036 
L 403.23943 79.37036 
" style="fill:none;stroke:#165aa7;stroke-linecap:round;stroke-width:2;"/>
   </g>
   <g id="line2d_13">
    <path clip-path="url(#pefd396a572)" d="M 100.70931 223.491941 
L 135.546112 223.86938 
L 164.882366 223.510813 
L 166.715882 223.333416 
L 168.549398 223.288123 
L 170.382913 223.386257 
L 172.216429 223.197538 
L 174.049945 223.556105 
L 175.883461 223.254154 
L 179.550493 223.069208 
L 181.384009 223.159794 
L 183.217525 223.446648 
L 185.051041 222.752159 
L 186.884556 222.733287 
L 188.718072 223.069208 
L 192.385104 222.835195 
L 194.21862 222.480402 
L 197.885652 222.408689 
L 199.719168 222.503049 
L 201.552683 222.378493 
L 203.386199 222.680445 
L 205.219715 222.623829 
L 207.053231 222.008603 
L 212.553779 222.0237 
L 214.387295 222.125609 
L 216.220811 221.83498 
L 218.054326 221.948212 
L 219.887842 221.778364 
L 221.721358 221.861401 
L 223.554874 222.525695 
L 225.38839 221.865175 
L 227.221906 222.27281 
L 229.055422 221.910468 
L 230.888938 221.721748 
L 232.722453 221.933115 
L 234.555969 221.706651 
L 241.890033 221.5519 
L 243.723549 221.355632 
L 249.224096 221.442443 
L 254.724644 221.612291 
L 256.55816 221.453766 
L 260.225192 221.650035 
L 269.392771 221.299016 
L 273.059803 221.544352 
L 274.893319 221.884047 
L 278.56035 221.887822 
L 280.393866 221.804785 
L 287.72793 221.857627 
L 289.561446 221.827431 
L 291.394962 221.92934 
L 293.228478 221.785913 
L 295.061993 222.053895 
L 296.895509 221.925566 
L 298.729025 222.076542 
L 300.562541 221.887822 
L 306.063089 222.065218 
L 307.896605 221.940663 
L 309.73012 222.363396 
L 311.563636 222.529469 
L 313.397152 222.382268 
L 315.230668 222.529469 
L 322.564732 222.510597 
L 324.398248 222.27281 
L 326.231763 222.412463 
L 328.065279 222.042572 
L 329.898795 222.261487 
L 333.565827 222.510597 
L 335.399343 222.914458 
L 337.232859 222.869165 
L 344.566922 223.2768 
L 346.400438 223.329642 
L 350.06747 223.054111 
L 353.734502 222.548341 
L 355.568018 222.340749 
L 357.401533 222.287908 
L 362.902081 221.582096 
L 364.735597 221.276369 
L 366.569113 220.853637 
L 368.402629 220.608301 
L 372.06966 219.879843 
L 375.736692 219.309909 
L 377.570208 218.966438 
L 381.23724 217.739759 
L 386.737788 214.603235 
L 388.571303 213.014214 
L 390.404819 212.327274 
L 394.071851 209.186975 
L 395.905367 208.40945 
L 397.738883 208.115047 
L 399.572399 207.133703 
L 403.23943 204.68412 
L 403.23943 204.68412 
" style="fill:none;stroke:#06ab54;stroke-linecap:round;stroke-width:2;"/>
   </g>
   <g id="line2d_14">
    <path clip-path="url(#pefd396a572)" d="M 98.875794 223.7486 
L 142.880175 223.37116 
L 144.713691 223.099403 
L 146.547207 223.227733 
L 148.380723 223.137147 
L 150.214239 223.18244 
L 153.881271 222.831421 
L 155.714786 223.001269 
L 159.381818 222.963525 
L 161.215334 222.971074 
L 163.04885 222.846519 
L 166.715882 222.386042 
L 168.549398 222.65025 
L 170.382913 222.480402 
L 172.216429 222.08409 
L 174.049945 222.363396 
L 175.883461 222.080316 
L 177.716977 222.099188 
L 179.550493 221.540577 
L 181.384009 221.521705 
L 183.217525 221.884047 
L 185.051041 221.831206 
L 186.884556 220.887607 
L 188.718072 221.419797 
L 192.385104 221.102747 
L 194.21862 221.49151 
L 196.052136 221.170686 
L 197.885652 221.193333 
L 199.719168 221.351857 
L 201.552683 220.646045 
L 203.386199 220.502618 
L 208.886747 220.612076 
L 210.720263 220.351642 
L 212.553779 220.208215 
L 214.387295 220.193117 
L 216.220811 220.495069 
L 218.054326 219.977977 
L 219.887842 218.966438 
L 221.721358 218.789042 
L 223.554874 218.773944 
L 225.38839 217.973772 
L 227.221906 218.634291 
L 229.055422 217.811473 
L 232.722453 218.064357 
L 234.555969 217.928479 
L 236.389485 217.679369 
L 240.056517 217.758631 
L 241.890033 217.13963 
L 243.723549 216.973557 
L 245.557065 217.856766 
L 247.390581 217.92093 
L 249.224096 217.29438 
L 251.057612 216.482885 
L 252.891128 216.60744 
L 254.724644 216.494208 
L 256.55816 215.882756 
L 258.391676 215.54306 
L 260.225192 214.882541 
L 262.058708 213.055732 
L 263.892223 212.783976 
L 265.725739 212.806622 
L 267.559255 213.097251 
L 269.392771 213.097251 
L 271.226287 213.927618 
L 273.059803 220.479972 
L 276.726835 219.528824 
L 278.56035 218.622968 
L 280.393866 218.264401 
L 282.227382 217.675595 
L 284.060898 216.414946 
L 285.894414 215.535511 
L 289.561446 214.51265 
L 291.394962 213.478465 
L 295.061993 211.832828 
L 296.895509 210.862808 
L 298.729025 209.624805 
L 304.229573 203.5518 
L 306.063089 202.015621 
L 307.896605 199.36222 
L 309.73012 197.9204 
L 311.563636 195.002791 
L 313.397152 191.839846 
L 318.8977 178.47848 
L 320.731216 176.149677 
L 322.564732 172.273371 
L 324.398248 168.857542 
L 326.231763 170.18613 
L 328.065279 167.913943 
L 329.898795 164.875553 
L 331.732311 161.497467 
L 333.565827 157.341856 
L 335.399343 153.620301 
L 337.232859 150.155404 
L 339.066375 151.86898 
L 340.89989 153.197568 
L 342.733406 155.273487 
L 344.566922 155.858518 
L 346.400438 155.40559 
L 348.233954 150.287508 
L 350.06747 145.965823 
L 351.900986 138.862408 
L 355.568018 127.761906 
L 357.401533 121.081223 
L 361.068565 114.075942 
L 362.902081 111.203626 
L 364.735597 105.85153 
L 366.569113 104.364418 
L 368.402629 103.903941 
L 370.236145 105.904372 
L 372.06966 106.47808 
L 373.903176 101.518522 
L 375.736692 102.303597 
L 377.570208 101.8167 
L 379.403724 100.454142 
L 381.23724 97.517661 
L 383.070756 93.977277 
L 384.904272 92.920446 
L 386.737788 91.101186 
L 388.571303 94.109381 
L 390.404819 99.616226 
L 392.238335 93.279013 
L 394.071851 95.158663 
L 395.905367 94.539662 
L 397.738883 93.214849 
L 399.572399 93.003482 
L 401.405915 91.191772 
L 403.23943 89.598976 
L 403.23943 89.598976 
" style="fill:none;stroke:#bb60d5;stroke-linecap:round;stroke-width:2;"/>
   </g>
   <g id="line2d_15">
    <path clip-path="url(#pefd396a572)" d="M 98.875794 216.520629 
L 100.70931 216.086573 
L 102.542826 215.524188 
L 104.376342 214.72779 
L 106.209858 214.690046 
L 108.043373 214.965577 
L 109.876889 214.708918 
L 111.710405 214.980675 
L 113.543921 214.924059 
L 117.210953 214.255991 
L 119.044469 214.523973 
L 120.877985 214.127661 
L 122.711501 213.282196 
L 124.545016 212.825494 
L 126.378532 213.56905 
L 128.212048 213.674734 
L 130.045564 213.229355 
L 131.87908 213.048184 
L 133.712596 212.670744 
L 135.546112 213.082153 
L 137.379628 212.746232 
L 139.213143 212.527317 
L 141.046659 212.1612 
L 142.880175 212.606579 
L 144.713691 212.19517 
L 146.547207 212.357469 
L 148.380723 212.214042 
L 150.214239 211.919639 
L 153.881271 208.817084 
L 155.714786 208.635913 
L 157.548302 207.930101 
L 161.215334 208.03201 
L 163.04885 208.322638 
L 164.882366 208.182986 
L 166.715882 207.756479 
L 168.549398 208.254699 
L 170.382913 207.496045 
L 172.216429 207.616826 
L 174.049945 207.182771 
L 175.883461 205.68056 
L 177.716977 207.118606 
L 179.550493 208.069754 
L 181.384009 206.163683 
L 183.217525 206.96763 
L 185.051041 205.438999 
L 186.884556 205.382383 
L 188.718072 203.816008 
L 190.551588 203.58577 
L 192.385104 201.434364 
L 194.21862 201.683474 
L 196.052136 200.932369 
L 197.885652 201.747639 
L 199.719168 200.407728 
L 201.552683 197.88643 
L 203.386199 197.969467 
L 205.219715 200.875753 
L 207.053231 198.241224 
L 208.886747 198.550724 
L 210.720263 198.078925 
L 212.553779 197.184392 
L 214.387295 196.60691 
L 216.220811 199.501872 
L 218.054326 199.124433 
L 219.887842 195.69728 
L 221.721358 196.912636 
L 223.554874 194.542314 
L 225.38839 194.417759 
L 227.221906 195.157541 
L 229.055422 196.482355 
L 230.888938 195.229255 
L 232.722453 191.62848 
L 236.389485 190.945314 
L 238.223001 189.099634 
L 240.056517 189.25061 
L 241.890033 189.288354 
L 243.723549 187.389832 
L 245.557065 191.364272 
L 247.390581 193.727045 
L 249.224096 198.780962 
L 251.057612 199.743434 
L 252.891128 197.456149 
L 254.724644 193.779886 
L 256.55816 190.50371 
L 258.391676 187.740851 
L 260.225192 190.205532 
L 262.058708 187.706881 
L 263.892223 184.506192 
L 265.725739 178.704944 
L 267.559255 173.681221 
L 269.392771 169.08778 
L 271.226287 165.279413 
L 273.059803 166.823142 
L 274.893319 172.564 
L 276.726835 174.1266 
L 278.56035 172.231853 
L 280.393866 173.919008 
L 282.227382 169.657714 
L 284.060898 166.317373 
L 285.894414 165.120889 
L 287.72793 163.331825 
L 289.561446 164.856681 
L 291.394962 161.622023 
L 295.061993 161.48237 
L 296.895509 163.226141 
L 298.729025 159.617818 
L 300.562541 159.025237 
L 302.396057 158.583633 
L 304.229573 155.556566 
L 306.063089 153.525941 
L 307.896605 150.336575 
L 309.73012 146.448946 
L 311.563636 142.149908 
L 313.397152 140.968521 
L 315.230668 137.760284 
L 317.064184 135.857988 
L 318.8977 136.756294 
L 320.731216 135.106883 
L 322.564732 131.256998 
L 324.398248 126.773014 
L 328.065279 129.215049 
L 329.898795 125.051889 
L 331.732311 121.496407 
L 333.565827 116.642532 
L 335.399343 114.136332 
L 337.232859 115.412078 
L 339.066375 113.74002 
L 340.89989 116.929386 
L 342.733406 113.351258 
L 344.566922 106.115738 
L 346.400438 102.53761 
L 350.06747 96.098488 
L 351.900986 91.814547 
L 353.734502 88.447785 
L 355.568018 87.598546 
L 357.401533 89.553684 
L 359.235049 86.620977 
L 361.068565 84.654516 
L 362.902081 80.706497 
L 364.735597 78.506023 
L 366.569113 74.644815 
L 370.236145 64.608693 
L 372.06966 58.935774 
L 373.903176 53.987539 
L 375.736692 54.021509 
L 377.570208 52.553268 
L 379.403724 49.19028 
L 381.23724 44.15146 
L 383.070756 39.765611 
L 384.904272 36.613989 
L 386.737788 35.058938 
L 388.571303 37.42171 
L 390.404819 44.302436 
L 392.238335 41.230077 
L 394.071851 39.690123 
L 395.905367 36.976331 
L 397.738883 35.206139 
L 399.572399 32.182847 
L 401.405915 28.683981 
L 403.23943 27.083636 
L 403.23943 27.083636 
" style="fill:none;stroke:#cb495c;stroke-linecap:round;stroke-width:2;"/>
   </g>
   <g id="text_13">
    <!-- United Kingdom -->
    <defs>
     <path d="M 54.6875 71.578125 
L 64.15625 71.578125 
L 64.15625 30.21875 
Q 64.15625 19.4375 61.71875 13.078125 
Q 59.28125 6.734375 52.90625 2.75 
Q 46.53125 -1.21875 36.1875 -1.21875 
Q 26.125 -1.21875 19.71875 2.25 
Q 13.328125 5.71875 10.59375 12.28125 
Q 7.859375 18.84375 7.859375 30.21875 
L 7.859375 71.578125 
L 17.328125 71.578125 
L 17.328125 30.28125 
Q 17.328125 20.953125 19.0625 16.53125 
Q 20.796875 12.109375 25.015625 9.71875 
Q 29.25 7.328125 35.359375 7.328125 
Q 45.796875 7.328125 50.234375 12.0625 
Q 54.6875 16.796875 54.6875 30.28125 
z
" id="ArialMT-55"/>
     <path d="M 6.59375 0 
L 6.59375 51.859375 
L 14.5 51.859375 
L 14.5 44.484375 
Q 20.21875 53.03125 31 53.03125 
Q 35.6875 53.03125 39.625 51.34375 
Q 43.5625 49.65625 45.515625 46.921875 
Q 47.46875 44.1875 48.25 40.4375 
Q 48.734375 37.984375 48.734375 31.890625 
L 48.734375 0 
L 39.9375 0 
L 39.9375 31.546875 
Q 39.9375 36.921875 38.90625 39.578125 
Q 37.890625 42.234375 35.28125 43.8125 
Q 32.671875 45.40625 29.15625 45.40625 
Q 23.53125 45.40625 19.453125 41.84375 
Q 15.375 38.28125 15.375 28.328125 
L 15.375 0 
z
" id="ArialMT-6e"/>
     <path d="M 40.234375 0 
L 40.234375 6.546875 
Q 35.296875 -1.171875 25.734375 -1.171875 
Q 19.53125 -1.171875 14.328125 2.25 
Q 9.125 5.671875 6.265625 11.796875 
Q 3.421875 17.921875 3.421875 25.875 
Q 3.421875 33.640625 6 39.96875 
Q 8.59375 46.296875 13.765625 49.65625 
Q 18.953125 53.03125 25.34375 53.03125 
Q 30.03125 53.03125 33.6875 51.046875 
Q 37.359375 49.078125 39.65625 45.90625 
L 39.65625 71.578125 
L 48.390625 71.578125 
L 48.390625 0 
z
M 12.453125 25.875 
Q 12.453125 15.921875 16.640625 10.984375 
Q 20.84375 6.0625 26.5625 6.0625 
Q 32.328125 6.0625 36.34375 10.765625 
Q 40.375 15.484375 40.375 25.140625 
Q 40.375 35.796875 36.265625 40.765625 
Q 32.171875 45.75 26.171875 45.75 
Q 20.3125 45.75 16.375 40.96875 
Q 12.453125 36.1875 12.453125 25.875 
z
" id="ArialMT-64"/>
     <path d="M 7.328125 0 
L 7.328125 71.578125 
L 16.796875 71.578125 
L 16.796875 36.078125 
L 52.34375 71.578125 
L 65.1875 71.578125 
L 35.15625 42.578125 
L 66.5 0 
L 54 0 
L 28.515625 36.234375 
L 16.796875 24.8125 
L 16.796875 0 
z
" id="ArialMT-4b"/>
     <path d="M 4.984375 -4.296875 
L 13.53125 -5.5625 
Q 14.0625 -9.515625 16.5 -11.328125 
Q 19.78125 -13.765625 25.4375 -13.765625 
Q 31.546875 -13.765625 34.859375 -11.328125 
Q 38.1875 -8.890625 39.359375 -4.5 
Q 40.046875 -1.8125 39.984375 6.78125 
Q 34.234375 0 25.640625 0 
Q 14.9375 0 9.078125 7.71875 
Q 3.21875 15.4375 3.21875 26.21875 
Q 3.21875 33.640625 5.90625 39.90625 
Q 8.59375 46.1875 13.6875 49.609375 
Q 18.796875 53.03125 25.6875 53.03125 
Q 34.859375 53.03125 40.828125 45.609375 
L 40.828125 51.859375 
L 48.921875 51.859375 
L 48.921875 7.03125 
Q 48.921875 -5.078125 46.453125 -10.125 
Q 44 -15.1875 38.640625 -18.109375 
Q 33.296875 -21.046875 25.484375 -21.046875 
Q 16.21875 -21.046875 10.5 -16.875 
Q 4.78125 -12.703125 4.984375 -4.296875 
z
M 12.25 26.859375 
Q 12.25 16.65625 16.296875 11.96875 
Q 20.359375 7.28125 26.46875 7.28125 
Q 32.515625 7.28125 36.609375 11.9375 
Q 40.71875 16.609375 40.71875 26.5625 
Q 40.71875 36.078125 36.5 40.90625 
Q 32.28125 45.75 26.3125 45.75 
Q 20.453125 45.75 16.34375 40.984375 
Q 12.25 36.234375 12.25 26.859375 
z
" id="ArialMT-67"/>
     <path d="M 3.328125 25.921875 
Q 3.328125 40.328125 11.328125 47.265625 
Q 18.015625 53.03125 27.640625 53.03125 
Q 38.328125 53.03125 45.109375 46.015625 
Q 51.90625 39.015625 51.90625 26.65625 
Q 51.90625 16.65625 48.90625 10.90625 
Q 45.90625 5.171875 40.15625 2 
Q 34.421875 -1.171875 27.640625 -1.171875 
Q 16.75 -1.171875 10.03125 5.8125 
Q 3.328125 12.796875 3.328125 25.921875 
z
M 12.359375 25.921875 
Q 12.359375 15.96875 16.703125 11.015625 
Q 21.046875 6.0625 27.640625 6.0625 
Q 34.1875 6.0625 38.53125 11.03125 
Q 42.875 16.015625 42.875 26.21875 
Q 42.875 35.84375 38.5 40.796875 
Q 34.125 45.75 27.640625 45.75 
Q 21.046875 45.75 16.703125 40.8125 
Q 12.359375 35.890625 12.359375 25.921875 
z
" id="ArialMT-6f"/>
     <path d="M 6.59375 0 
L 6.59375 51.859375 
L 14.453125 51.859375 
L 14.453125 44.578125 
Q 16.890625 48.390625 20.9375 50.703125 
Q 25 53.03125 30.171875 53.03125 
Q 35.9375 53.03125 39.625 50.640625 
Q 43.3125 48.25 44.828125 43.953125 
Q 50.984375 53.03125 60.84375 53.03125 
Q 68.5625 53.03125 72.703125 48.75 
Q 76.859375 44.484375 76.859375 35.59375 
L 76.859375 0 
L 68.109375 0 
L 68.109375 32.671875 
Q 68.109375 37.9375 67.25 40.25 
Q 66.40625 42.578125 64.15625 43.984375 
Q 61.921875 45.40625 58.890625 45.40625 
Q 53.421875 45.40625 49.796875 41.765625 
Q 46.1875 38.140625 46.1875 30.125 
L 46.1875 0 
L 37.40625 0 
L 37.40625 33.6875 
Q 37.40625 39.546875 35.25 42.46875 
Q 33.109375 45.40625 28.21875 45.40625 
Q 24.515625 45.40625 21.359375 43.453125 
Q 18.21875 41.5 16.796875 37.734375 
Q 15.375 33.984375 15.375 26.90625 
L 15.375 0 
z
" id="ArialMT-6d"/>
    </defs>
    <g style="fill:#165aa7;" transform="translate(410.573494 79.37036)scale(0.14 -0.14)">
     <use xlink:href="#ArialMT-55"/>
     <use x="72.216797" xlink:href="#ArialMT-6e"/>
     <use x="127.832031" xlink:href="#ArialMT-69"/>
     <use x="150.048828" xlink:href="#ArialMT-74"/>
     <use x="177.832031" xlink:href="#ArialMT-65"/>
     <use x="233.447266" xlink:href="#ArialMT-64"/>
     <use x="289.0625" xlink:href="#ArialMT-20"/>
     <use x="316.845703" xlink:href="#ArialMT-4b"/>
     <use x="383.544922" xlink:href="#ArialMT-69"/>
     <use x="405.761719" xlink:href="#ArialMT-6e"/>
     <use x="461.376953" xlink:href="#ArialMT-67"/>
     <use x="516.992188" xlink:href="#ArialMT-64"/>
     <use x="572.607422" xlink:href="#ArialMT-6f"/>
     <use x="628.222656" xlink:href="#ArialMT-6d"/>
    </g>
   </g>
   <g id="text_14">
    <!-- United States -->
    <defs>
     <path d="M 4.5 23 
L 13.421875 23.78125 
Q 14.0625 18.40625 16.375 14.96875 
Q 18.703125 11.53125 23.578125 9.40625 
Q 28.46875 7.28125 34.578125 7.28125 
Q 39.984375 7.28125 44.140625 8.890625 
Q 48.296875 10.5 50.3125 13.296875 
Q 52.34375 16.109375 52.34375 19.4375 
Q 52.34375 22.796875 50.390625 25.3125 
Q 48.4375 27.828125 43.953125 29.546875 
Q 41.0625 30.671875 31.203125 33.03125 
Q 21.34375 35.40625 17.390625 37.5 
Q 12.25 40.1875 9.734375 44.15625 
Q 7.234375 48.140625 7.234375 53.078125 
Q 7.234375 58.5 10.296875 63.203125 
Q 13.375 67.921875 19.28125 70.359375 
Q 25.203125 72.796875 32.421875 72.796875 
Q 40.375 72.796875 46.453125 70.234375 
Q 52.546875 67.671875 55.8125 62.6875 
Q 59.078125 57.71875 59.328125 51.421875 
L 50.25 50.734375 
Q 49.515625 57.515625 45.28125 60.984375 
Q 41.0625 64.453125 32.8125 64.453125 
Q 24.21875 64.453125 20.28125 61.296875 
Q 16.359375 58.15625 16.359375 53.71875 
Q 16.359375 49.859375 19.140625 47.359375 
Q 21.875 44.875 33.421875 42.265625 
Q 44.96875 39.65625 49.265625 37.703125 
Q 55.515625 34.8125 58.484375 30.390625 
Q 61.46875 25.984375 61.46875 20.21875 
Q 61.46875 14.5 58.203125 9.4375 
Q 54.9375 4.390625 48.796875 1.578125 
Q 42.671875 -1.21875 35.015625 -1.21875 
Q 25.296875 -1.21875 18.71875 1.609375 
Q 12.15625 4.4375 8.421875 10.125 
Q 4.6875 15.828125 4.5 23 
z
" id="ArialMT-53"/>
     <path d="M 3.078125 15.484375 
L 11.765625 16.84375 
Q 12.5 11.625 15.84375 8.84375 
Q 19.1875 6.0625 25.203125 6.0625 
Q 31.25 6.0625 34.171875 8.515625 
Q 37.109375 10.984375 37.109375 14.3125 
Q 37.109375 17.28125 34.515625 19 
Q 32.71875 20.171875 25.53125 21.96875 
Q 15.875 24.421875 12.140625 26.203125 
Q 8.40625 27.984375 6.46875 31.125 
Q 4.546875 34.28125 4.546875 38.09375 
Q 4.546875 41.546875 6.125 44.5 
Q 7.71875 47.46875 10.453125 49.421875 
Q 12.5 50.921875 16.03125 51.96875 
Q 19.578125 53.03125 23.640625 53.03125 
Q 29.734375 53.03125 34.34375 51.265625 
Q 38.96875 49.515625 41.15625 46.5 
Q 43.359375 43.5 44.1875 38.484375 
L 35.59375 37.3125 
Q 35.015625 41.3125 32.203125 43.546875 
Q 29.390625 45.796875 24.265625 45.796875 
Q 18.21875 45.796875 15.625 43.796875 
Q 13.03125 41.796875 13.03125 39.109375 
Q 13.03125 37.40625 14.109375 36.03125 
Q 15.1875 34.625 17.484375 33.6875 
Q 18.796875 33.203125 25.25 31.453125 
Q 34.578125 28.953125 38.25 27.359375 
Q 41.9375 25.78125 44.03125 22.75 
Q 46.140625 19.734375 46.140625 15.234375 
Q 46.140625 10.84375 43.578125 6.953125 
Q 41.015625 3.078125 36.171875 0.953125 
Q 31.34375 -1.171875 25.25 -1.171875 
Q 15.140625 -1.171875 9.84375 3.03125 
Q 4.546875 7.234375 3.078125 15.484375 
z
" id="ArialMT-73"/>
    </defs>
    <g style="fill:#cb495c;" transform="translate(410.573494 27.083636)scale(0.14 -0.14)">
     <use xlink:href="#ArialMT-55"/>
     <use x="72.216797" xlink:href="#ArialMT-6e"/>
     <use x="127.832031" xlink:href="#ArialMT-69"/>
     <use x="150.048828" xlink:href="#ArialMT-74"/>
     <use x="177.832031" xlink:href="#ArialMT-65"/>
     <use x="233.447266" xlink:href="#ArialMT-64"/>
     <use x="289.0625" xlink:href="#ArialMT-20"/>
     <use x="316.845703" xlink:href="#ArialMT-53"/>
     <use x="383.544922" xlink:href="#ArialMT-74"/>
     <use x="411.328125" xlink:href="#ArialMT-61"/>
     <use x="466.943359" xlink:href="#ArialMT-74"/>
     <use x="494.726562" xlink:href="#ArialMT-65"/>
     <use x="550.341797" xlink:href="#ArialMT-73"/>
    </g>
   </g>
   <g id="text_15">
    <!-- Japan -->
    <defs>
     <path d="M 2.875 20.3125 
L 11.421875 21.484375 
Q 11.765625 13.28125 14.5 10.25 
Q 17.234375 7.234375 22.078125 7.234375 
Q 25.640625 7.234375 28.21875 8.859375 
Q 30.8125 10.5 31.78125 13.296875 
Q 32.765625 16.109375 32.765625 22.265625 
L 32.765625 71.578125 
L 42.234375 71.578125 
L 42.234375 22.796875 
Q 42.234375 13.8125 40.0625 8.875 
Q 37.890625 3.953125 33.171875 1.359375 
Q 28.46875 -1.21875 22.125 -1.21875 
Q 12.703125 -1.21875 7.6875 4.203125 
Q 2.6875 9.625 2.875 20.3125 
z
" id="ArialMT-4a"/>
    </defs>
    <g style="fill:#bb60d5;" transform="translate(410.573494 93.373373)scale(0.14 -0.14)">
     <use xlink:href="#ArialMT-4a"/>
     <use x="50" xlink:href="#ArialMT-61"/>
     <use x="105.615234" xlink:href="#ArialMT-70"/>
     <use x="161.230469" xlink:href="#ArialMT-61"/>
     <use x="216.845703" xlink:href="#ArialMT-6e"/>
    </g>
   </g>
   <g id="text_16">
    <!-- China -->
    <defs>
     <path d="M 58.796875 25.09375 
L 68.265625 22.703125 
Q 65.28125 11.03125 57.546875 4.90625 
Q 49.8125 -1.21875 38.625 -1.21875 
Q 27.046875 -1.21875 19.796875 3.484375 
Q 12.546875 8.203125 8.765625 17.140625 
Q 4.984375 26.078125 4.984375 36.328125 
Q 4.984375 47.515625 9.25 55.828125 
Q 13.53125 64.15625 21.40625 68.46875 
Q 29.296875 72.796875 38.765625 72.796875 
Q 49.515625 72.796875 56.828125 67.328125 
Q 64.15625 61.859375 67.046875 51.953125 
L 57.71875 49.75 
Q 55.21875 57.5625 50.484375 61.125 
Q 45.75 64.703125 38.578125 64.703125 
Q 30.328125 64.703125 24.78125 60.734375 
Q 19.234375 56.78125 16.984375 50.109375 
Q 14.75 43.453125 14.75 36.375 
Q 14.75 27.25 17.40625 20.4375 
Q 20.0625 13.625 25.671875 10.25 
Q 31.296875 6.890625 37.84375 6.890625 
Q 45.796875 6.890625 51.3125 11.46875 
Q 56.84375 16.0625 58.796875 25.09375 
z
" id="ArialMT-43"/>
     <path d="M 6.59375 0 
L 6.59375 71.578125 
L 15.375 71.578125 
L 15.375 45.90625 
Q 21.53125 53.03125 30.90625 53.03125 
Q 36.671875 53.03125 40.921875 50.75 
Q 45.171875 48.484375 47 44.484375 
Q 48.828125 40.484375 48.828125 32.859375 
L 48.828125 0 
L 40.046875 0 
L 40.046875 32.859375 
Q 40.046875 39.453125 37.1875 42.453125 
Q 34.328125 45.453125 29.109375 45.453125 
Q 25.203125 45.453125 21.75 43.421875 
Q 18.3125 41.40625 16.84375 37.9375 
Q 15.375 34.46875 15.375 28.375 
L 15.375 0 
z
" id="ArialMT-68"/>
    </defs>
    <g style="fill:#f47915;" transform="translate(410.573494 180.682728)scale(0.14 -0.14)">
     <use xlink:href="#ArialMT-43"/>
     <use x="72.216797" xlink:href="#ArialMT-68"/>
     <use x="127.832031" xlink:href="#ArialMT-69"/>
     <use x="150.048828" xlink:href="#ArialMT-6e"/>
     <use x="205.664062" xlink:href="#ArialMT-61"/>
    </g>
   </g>
   <g id="text_17">
    <!-- India -->
    <defs>
     <path d="M 9.328125 0 
L 9.328125 71.578125 
L 18.796875 71.578125 
L 18.796875 0 
z
" id="ArialMT-49"/>
    </defs>
    <g style="fill:#06ab54;" transform="translate(410.573494 204.68412)scale(0.14 -0.14)">
     <use xlink:href="#ArialMT-49"/>
     <use x="27.783203" xlink:href="#ArialMT-6e"/>
     <use x="83.398438" xlink:href="#ArialMT-64"/>
     <use x="139.013672" xlink:href="#ArialMT-69"/>
     <use x="161.230469" xlink:href="#ArialMT-61"/>
    </g>
   </g>
   <g id="text_18">
    <!-- Source: Maddison Project Database (MPD) 2018 -->
    <defs>
     <path d="M 40.578125 0 
L 40.578125 7.625 
Q 34.515625 -1.171875 24.125 -1.171875 
Q 19.53125 -1.171875 15.546875 0.578125 
Q 11.578125 2.34375 9.640625 5 
Q 7.71875 7.671875 6.9375 11.53125 
Q 6.390625 14.109375 6.390625 19.734375 
L 6.390625 51.859375 
L 15.1875 51.859375 
L 15.1875 23.09375 
Q 15.1875 16.21875 15.71875 13.8125 
Q 16.546875 10.359375 19.234375 8.375 
Q 21.921875 6.390625 25.875 6.390625 
Q 29.828125 6.390625 33.296875 8.421875 
Q 36.765625 10.453125 38.203125 13.9375 
Q 39.65625 17.4375 39.65625 24.078125 
L 39.65625 51.859375 
L 48.4375 51.859375 
L 48.4375 0 
z
" id="ArialMT-75"/>
     <path d="M 9.03125 41.84375 
L 9.03125 51.859375 
L 19.046875 51.859375 
L 19.046875 41.84375 
z
M 9.03125 0 
L 9.03125 10.015625 
L 19.046875 10.015625 
L 19.046875 0 
z
" id="ArialMT-3a"/>
     <path d="M 7.421875 0 
L 7.421875 71.578125 
L 21.6875 71.578125 
L 38.625 20.90625 
Q 40.96875 13.8125 42.046875 10.296875 
Q 43.265625 14.203125 45.84375 21.78125 
L 62.984375 71.578125 
L 75.734375 71.578125 
L 75.734375 0 
L 66.609375 0 
L 66.609375 59.90625 
L 45.796875 0 
L 37.25 0 
L 16.546875 60.9375 
L 16.546875 0 
z
" id="ArialMT-4d"/>
     <path d="M 6.546875 61.375 
L 6.546875 71.578125 
L 15.328125 71.578125 
L 15.328125 61.375 
z
M -4.59375 -20.125 
L -2.9375 -12.640625 
Q -0.296875 -13.328125 1.21875 -13.328125 
Q 3.90625 -13.328125 5.21875 -11.546875 
Q 6.546875 -9.765625 6.546875 -2.640625 
L 6.546875 51.859375 
L 15.328125 51.859375 
L 15.328125 -2.828125 
Q 15.328125 -12.40625 12.84375 -16.15625 
Q 9.671875 -21.046875 2.296875 -21.046875 
Q -1.265625 -21.046875 -4.59375 -20.125 
z
" id="ArialMT-6a"/>
     <path d="M 14.703125 0 
L 6.546875 0 
L 6.546875 71.578125 
L 15.328125 71.578125 
L 15.328125 46.046875 
Q 20.90625 53.03125 29.546875 53.03125 
Q 34.328125 53.03125 38.59375 51.09375 
Q 42.875 49.171875 45.625 45.671875 
Q 48.390625 42.1875 49.953125 37.25 
Q 51.515625 32.328125 51.515625 26.703125 
Q 51.515625 13.375 44.921875 6.09375 
Q 38.328125 -1.171875 29.109375 -1.171875 
Q 19.921875 -1.171875 14.703125 6.5 
z
M 14.59375 26.3125 
Q 14.59375 17 17.140625 12.84375 
Q 21.296875 6.0625 28.375 6.0625 
Q 34.125 6.0625 38.328125 11.0625 
Q 42.53125 16.0625 42.53125 25.984375 
Q 42.53125 36.140625 38.5 40.96875 
Q 34.46875 45.796875 28.765625 45.796875 
Q 23 45.796875 18.796875 40.796875 
Q 14.59375 35.796875 14.59375 26.3125 
z
" id="ArialMT-62"/>
     <path d="M 23.390625 -21.046875 
Q 16.109375 -11.859375 11.078125 0.4375 
Q 6.0625 12.75 6.0625 25.921875 
Q 6.0625 37.546875 9.8125 48.1875 
Q 14.203125 60.546875 23.390625 72.796875 
L 29.6875 72.796875 
Q 23.78125 62.640625 21.875 58.296875 
Q 18.890625 51.5625 17.1875 44.234375 
Q 15.09375 35.109375 15.09375 25.875 
Q 15.09375 2.390625 29.6875 -21.046875 
z
" id="ArialMT-28"/>
     <path d="M 12.359375 -21.046875 
L 6.0625 -21.046875 
Q 20.65625 2.390625 20.65625 25.875 
Q 20.65625 35.0625 18.5625 44.09375 
Q 16.890625 51.421875 13.921875 58.15625 
Q 12.015625 62.546875 6.0625 72.796875 
L 12.359375 72.796875 
Q 21.53125 60.546875 25.921875 48.1875 
Q 29.6875 37.546875 29.6875 25.921875 
Q 29.6875 12.75 24.625 0.4375 
Q 19.578125 -11.859375 12.359375 -21.046875 
z
" id="ArialMT-29"/>
    </defs>
    <g style="fill:#262626;" transform="translate(7.2 302.671244)scale(0.14 -0.14)">
     <use xlink:href="#ArialMT-53"/>
     <use x="66.699219" xlink:href="#ArialMT-6f"/>
     <use x="122.314453" xlink:href="#ArialMT-75"/>
     <use x="177.929688" xlink:href="#ArialMT-72"/>
     <use x="211.230469" xlink:href="#ArialMT-63"/>
     <use x="261.230469" xlink:href="#ArialMT-65"/>
     <use x="316.845703" xlink:href="#ArialMT-3a"/>
     <use x="344.628906" xlink:href="#ArialMT-20"/>
     <use x="372.412109" xlink:href="#ArialMT-4d"/>
     <use x="455.712891" xlink:href="#ArialMT-61"/>
     <use x="511.328125" xlink:href="#ArialMT-64"/>
     <use x="566.943359" xlink:href="#ArialMT-64"/>
     <use x="622.558594" xlink:href="#ArialMT-69"/>
     <use x="644.775391" xlink:href="#ArialMT-73"/>
     <use x="694.775391" xlink:href="#ArialMT-6f"/>
     <use x="750.390625" xlink:href="#ArialMT-6e"/>
     <use x="806.005859" xlink:href="#ArialMT-20"/>
     <use x="833.789062" xlink:href="#ArialMT-50"/>
     <use x="900.488281" xlink:href="#ArialMT-72"/>
     <use x="933.789062" xlink:href="#ArialMT-6f"/>
     <use x="989.404297" xlink:href="#ArialMT-6a"/>
     <use x="1011.621094" xlink:href="#ArialMT-65"/>
     <use x="1067.236328" xlink:href="#ArialMT-63"/>
     <use x="1117.236328" xlink:href="#ArialMT-74"/>
     <use x="1145.019531" xlink:href="#ArialMT-20"/>
     <use x="1172.802734" xlink:href="#ArialMT-44"/>
     <use x="1245.019531" xlink:href="#ArialMT-61"/>
     <use x="1300.634766" xlink:href="#ArialMT-74"/>
     <use x="1328.417969" xlink:href="#ArialMT-61"/>
     <use x="1384.033203" xlink:href="#ArialMT-62"/>
     <use x="1439.648438" xlink:href="#ArialMT-61"/>
     <use x="1495.263672" xlink:href="#ArialMT-73"/>
     <use x="1545.263672" xlink:href="#ArialMT-65"/>
     <use x="1600.878906" xlink:href="#ArialMT-20"/>
     <use x="1628.662109" xlink:href="#ArialMT-28"/>
     <use x="1661.962891" xlink:href="#ArialMT-4d"/>
     <use x="1745.263672" xlink:href="#ArialMT-50"/>
     <use x="1811.962891" xlink:href="#ArialMT-44"/>
     <use x="1884.179688" xlink:href="#ArialMT-29"/>
     <use x="1917.480469" xlink:href="#ArialMT-20"/>
     <use x="1945.263672" xlink:href="#ArialMT-32"/>
     <use x="2000.878906" xlink:href="#ArialMT-30"/>
     <use x="2056.494141" xlink:href="#ArialMT-31"/>
     <use x="2112.109375" xlink:href="#ArialMT-38"/>
    </g>
   </g>
  </g>
 </g>
 <defs>
  <clipPath id="pefd396a572">
   <rect height="217.44" width="334.8" x="83.657612" y="17.2"/>
  </clipPath>
 </defs>
</svg>
