<?xml version="1.0" encoding="utf-8" standalone="no"?>
<!DOCTYPE svg PUBLIC "-//W3C//DTD SVG 1.1//EN"
  "http://www.w3.org/Graphics/SVG/1.1/DTD/svg11.dtd">
<!-- Created with matplotlib (https://matplotlib.org/) -->
<svg height="324.371261pt" version="1.1" viewBox="0 0 485.085943 324.371261" width="485.085943pt" xmlns="http://www.w3.org/2000/svg" xmlns:xlink="http://www.w3.org/1999/xlink">
 <defs>
  <style type="text/css">
*{stroke-linecap:butt;stroke-linejoin:round;}
  </style>
 </defs>
 <g id="figure_1">
  <g id="patch_1">
   <path d="M 0 324.371261 
L 485.085943 324.371261 
L 485.085943 0 
L 0 0 
z
" style="fill:#ffffff;"/>
  </g>
  <g id="axes_1">
   <g id="patch_2">
    <path d="M 55.831625 224.64 
L 390.631625 224.64 
L 390.631625 7.2 
L 55.831625 7.2 
z
" style="fill:#ffffff;"/>
   </g>
   <g id="matplotlib.axis_1">
    <g id="xtick_1">
     <g id="line2d_1">
      <path clip-path="url(#peacc9c77e0)" d="M 71.049807 224.64 
L 71.049807 7.2 
" style="fill:none;stroke:#cccccc;stroke-linecap:round;stroke-opacity:0.9;"/>
     </g>
     <g id="text_1">
      <!-- 1960 -->
      <defs>
       <path d="M 37.25 0 
L 28.46875 0 
L 28.46875 56 
Q 25.296875 52.984375 20.140625 49.953125 
Q 14.984375 46.921875 10.890625 45.40625 
L 10.890625 53.90625 
Q 18.265625 57.375 23.78125 62.296875 
Q 29.296875 67.234375 31.59375 71.875 
L 37.25 71.875 
z
" id="ArialMT-49"/>
       <path d="M 5.46875 16.546875 
L 13.921875 17.328125 
Q 14.984375 11.375 18.015625 8.6875 
Q 21.046875 6 25.78125 6 
Q 29.828125 6 32.875 7.859375 
Q 35.9375 9.71875 37.890625 12.8125 
Q 39.84375 15.921875 41.15625 21.1875 
Q 42.484375 26.46875 42.484375 31.9375 
Q 42.484375 32.515625 42.4375 33.6875 
Q 39.796875 29.5 35.234375 26.875 
Q 30.671875 24.265625 25.34375 24.265625 
Q 16.453125 24.265625 10.296875 30.703125 
Q 4.15625 37.15625 4.15625 47.703125 
Q 4.15625 58.59375 10.578125 65.234375 
Q 17 71.875 26.65625 71.875 
Q 33.640625 71.875 39.421875 68.109375 
Q 45.21875 64.359375 48.21875 57.390625 
Q 51.21875 50.4375 51.21875 37.25 
Q 51.21875 23.53125 48.234375 15.40625 
Q 45.265625 7.28125 39.375 3.03125 
Q 33.5 -1.21875 25.59375 -1.21875 
Q 17.1875 -1.21875 11.859375 3.4375 
Q 6.546875 8.109375 5.46875 16.546875 
z
M 41.453125 48.140625 
Q 41.453125 55.71875 37.421875 60.15625 
Q 33.40625 64.59375 27.734375 64.59375 
Q 21.875 64.59375 17.53125 59.8125 
Q 13.1875 55.03125 13.1875 47.40625 
Q 13.1875 40.578125 17.3125 36.296875 
Q 21.4375 32.03125 27.484375 32.03125 
Q 33.59375 32.03125 37.515625 36.296875 
Q 41.453125 40.578125 41.453125 48.140625 
z
" id="ArialMT-57"/>
       <path d="M 49.75 54.046875 
L 41.015625 53.375 
Q 39.84375 58.546875 37.703125 60.890625 
Q 34.125 64.65625 28.90625 64.65625 
Q 24.703125 64.65625 21.53125 62.3125 
Q 17.390625 59.28125 14.984375 53.46875 
Q 12.59375 47.65625 12.5 36.921875 
Q 15.671875 41.75 20.265625 44.09375 
Q 24.859375 46.4375 29.890625 46.4375 
Q 38.671875 46.4375 44.84375 39.96875 
Q 51.03125 33.5 51.03125 23.25 
Q 51.03125 16.5 48.125 10.71875 
Q 45.21875 4.9375 40.140625 1.859375 
Q 35.0625 -1.21875 28.609375 -1.21875 
Q 17.625 -1.21875 10.6875 6.859375 
Q 3.765625 14.9375 3.765625 33.5 
Q 3.765625 54.25 11.421875 63.671875 
Q 18.109375 71.875 29.4375 71.875 
Q 37.890625 71.875 43.28125 67.140625 
Q 48.6875 62.40625 49.75 54.046875 
z
M 13.875 23.1875 
Q 13.875 18.65625 15.796875 14.5 
Q 17.71875 10.359375 21.1875 8.171875 
Q 24.65625 6 28.46875 6 
Q 34.03125 6 38.03125 10.484375 
Q 42.046875 14.984375 42.046875 22.703125 
Q 42.046875 30.125 38.078125 34.390625 
Q 34.125 38.671875 28.125 38.671875 
Q 22.171875 38.671875 18.015625 34.390625 
Q 13.875 30.125 13.875 23.1875 
z
" id="ArialMT-54"/>
       <path d="M 4.15625 35.296875 
Q 4.15625 48 6.765625 55.734375 
Q 9.375 63.484375 14.515625 67.671875 
Q 19.671875 71.875 27.484375 71.875 
Q 33.25 71.875 37.59375 69.546875 
Q 41.9375 67.234375 44.765625 62.859375 
Q 47.609375 58.5 49.21875 52.21875 
Q 50.828125 45.953125 50.828125 35.296875 
Q 50.828125 22.703125 48.234375 14.96875 
Q 45.65625 7.234375 40.5 3 
Q 35.359375 -1.21875 27.484375 -1.21875 
Q 17.140625 -1.21875 11.234375 6.203125 
Q 4.15625 15.140625 4.15625 35.296875 
z
M 13.1875 35.296875 
Q 13.1875 17.671875 17.3125 11.828125 
Q 21.4375 6 27.484375 6 
Q 33.546875 6 37.671875 11.859375 
Q 41.796875 17.71875 41.796875 35.296875 
Q 41.796875 52.984375 37.671875 58.78125 
Q 33.546875 64.59375 27.390625 64.59375 
Q 21.34375 64.59375 17.71875 59.46875 
Q 13.1875 52.9375 13.1875 35.296875 
z
" id="ArialMT-48"/>
      </defs>
      <g style="fill:#262626;" transform="translate(55.479182 248.160938)scale(0.14 -0.14)">
       <use xlink:href="#ArialMT-49"/>
       <use x="55.615234" xlink:href="#ArialMT-57"/>
       <use x="111.230469" xlink:href="#ArialMT-54"/>
       <use x="166.845703" xlink:href="#ArialMT-48"/>
      </g>
     </g>
    </g>
    <g id="xtick_2">
     <g id="line2d_2">
      <path clip-path="url(#peacc9c77e0)" d="M 121.997906 224.64 
L 121.997906 7.2 
" style="fill:none;stroke:#cccccc;stroke-linecap:round;stroke-opacity:0.9;"/>
     </g>
     <g id="text_2">
      <!-- 1970 -->
      <defs>
       <path d="M 4.734375 62.203125 
L 4.734375 70.65625 
L 51.078125 70.65625 
L 51.078125 63.8125 
Q 44.234375 56.546875 37.515625 44.484375 
Q 30.8125 32.421875 27.15625 19.671875 
Q 24.515625 10.6875 23.78125 0 
L 14.75 0 
Q 14.890625 8.453125 18.0625 20.40625 
Q 21.234375 32.375 27.171875 43.484375 
Q 33.109375 54.59375 39.796875 62.203125 
z
" id="ArialMT-55"/>
      </defs>
      <g style="fill:#262626;" transform="translate(106.427281 248.160938)scale(0.14 -0.14)">
       <use xlink:href="#ArialMT-49"/>
       <use x="55.615234" xlink:href="#ArialMT-57"/>
       <use x="111.230469" xlink:href="#ArialMT-55"/>
       <use x="166.845703" xlink:href="#ArialMT-48"/>
      </g>
     </g>
    </g>
    <g id="xtick_3">
     <g id="line2d_3">
      <path clip-path="url(#peacc9c77e0)" d="M 172.932058 224.64 
L 172.932058 7.2 
" style="fill:none;stroke:#cccccc;stroke-linecap:round;stroke-opacity:0.9;"/>
     </g>
     <g id="text_3">
      <!-- 1980 -->
      <defs>
       <path d="M 17.671875 38.8125 
Q 12.203125 40.828125 9.5625 44.53125 
Q 6.9375 48.25 6.9375 53.421875 
Q 6.9375 61.234375 12.546875 66.546875 
Q 18.171875 71.875 27.484375 71.875 
Q 36.859375 71.875 42.578125 66.421875 
Q 48.296875 60.984375 48.296875 53.171875 
Q 48.296875 48.1875 45.671875 44.5 
Q 43.0625 40.828125 37.75 38.8125 
Q 44.34375 36.671875 47.78125 31.875 
Q 51.21875 27.09375 51.21875 20.453125 
Q 51.21875 11.28125 44.71875 5.03125 
Q 38.234375 -1.21875 27.640625 -1.21875 
Q 17.046875 -1.21875 10.546875 5.046875 
Q 4.046875 11.328125 4.046875 20.703125 
Q 4.046875 27.6875 7.59375 32.390625 
Q 11.140625 37.109375 17.671875 38.8125 
z
M 15.921875 53.71875 
Q 15.921875 48.640625 19.1875 45.40625 
Q 22.46875 42.1875 27.6875 42.1875 
Q 32.765625 42.1875 36.015625 45.375 
Q 39.265625 48.578125 39.265625 53.21875 
Q 39.265625 58.0625 35.90625 61.359375 
Q 32.5625 64.65625 27.59375 64.65625 
Q 22.5625 64.65625 19.234375 61.421875 
Q 15.921875 58.203125 15.921875 53.71875 
z
M 13.09375 20.65625 
Q 13.09375 16.890625 14.875 13.375 
Q 16.65625 9.859375 20.171875 7.921875 
Q 23.6875 6 27.734375 6 
Q 34.03125 6 38.125 10.046875 
Q 42.234375 14.109375 42.234375 20.359375 
Q 42.234375 26.703125 38.015625 30.859375 
Q 33.796875 35.015625 27.4375 35.015625 
Q 21.234375 35.015625 17.15625 30.90625 
Q 13.09375 26.8125 13.09375 20.65625 
z
" id="ArialMT-56"/>
      </defs>
      <g style="fill:#262626;" transform="translate(157.361433 248.160938)scale(0.14 -0.14)">
       <use xlink:href="#ArialMT-49"/>
       <use x="55.615234" xlink:href="#ArialMT-57"/>
       <use x="111.230469" xlink:href="#ArialMT-56"/>
       <use x="166.845703" xlink:href="#ArialMT-48"/>
      </g>
     </g>
    </g>
    <g id="xtick_4">
     <g id="line2d_4">
      <path clip-path="url(#peacc9c77e0)" d="M 223.880157 224.64 
L 223.880157 7.2 
" style="fill:none;stroke:#cccccc;stroke-linecap:round;stroke-opacity:0.9;"/>
     </g>
     <g id="text_4">
      <!-- 1990 -->
      <g style="fill:#262626;" transform="translate(208.309532 248.160938)scale(0.14 -0.14)">
       <use xlink:href="#ArialMT-49"/>
       <use x="55.615234" xlink:href="#ArialMT-57"/>
       <use x="111.230469" xlink:href="#ArialMT-57"/>
       <use x="166.845703" xlink:href="#ArialMT-48"/>
      </g>
     </g>
    </g>
    <g id="xtick_5">
     <g id="line2d_5">
      <path clip-path="url(#peacc9c77e0)" d="M 274.814309 224.64 
L 274.814309 7.2 
" style="fill:none;stroke:#cccccc;stroke-linecap:round;stroke-opacity:0.9;"/>
     </g>
     <g id="text_5">
      <!-- 2000 -->
      <defs>
       <path d="M 50.34375 8.453125 
L 50.34375 0 
L 3.03125 0 
Q 2.9375 3.171875 4.046875 6.109375 
Q 5.859375 10.9375 9.828125 15.625 
Q 13.8125 20.3125 21.34375 26.46875 
Q 33.015625 36.03125 37.109375 41.625 
Q 41.21875 47.21875 41.21875 52.203125 
Q 41.21875 57.421875 37.46875 61 
Q 33.734375 64.59375 27.734375 64.59375 
Q 21.390625 64.59375 17.578125 60.78125 
Q 13.765625 56.984375 13.71875 50.25 
L 4.6875 51.171875 
Q 5.609375 61.28125 11.65625 66.578125 
Q 17.71875 71.875 27.9375 71.875 
Q 38.234375 71.875 44.234375 66.15625 
Q 50.25 60.453125 50.25 52 
Q 50.25 47.703125 48.484375 43.546875 
Q 46.734375 39.40625 42.65625 34.8125 
Q 38.578125 30.21875 29.109375 22.21875 
Q 21.1875 15.578125 18.9375 13.203125 
Q 16.703125 10.84375 15.234375 8.453125 
z
" id="ArialMT-50"/>
      </defs>
      <g style="fill:#262626;" transform="translate(259.243684 248.160938)scale(0.14 -0.14)">
       <use xlink:href="#ArialMT-50"/>
       <use x="55.615234" xlink:href="#ArialMT-48"/>
       <use x="111.230469" xlink:href="#ArialMT-48"/>
       <use x="166.845703" xlink:href="#ArialMT-48"/>
      </g>
     </g>
    </g>
    <g id="xtick_6">
     <g id="line2d_6">
      <path clip-path="url(#peacc9c77e0)" d="M 325.762408 224.64 
L 325.762408 7.2 
" style="fill:none;stroke:#cccccc;stroke-linecap:round;stroke-opacity:0.9;"/>
     </g>
     <g id="text_6">
      <!-- 2010 -->
      <g style="fill:#262626;" transform="translate(310.191783 248.160938)scale(0.14 -0.14)">
       <use xlink:href="#ArialMT-50"/>
       <use x="55.615234" xlink:href="#ArialMT-48"/>
       <use x="111.230469" xlink:href="#ArialMT-49"/>
       <use x="166.845703" xlink:href="#ArialMT-48"/>
      </g>
     </g>
    </g>
    <g id="xtick_7">
     <g id="line2d_7">
      <path clip-path="url(#peacc9c77e0)" d="M 376.69656 224.64 
L 376.69656 7.2 
" style="fill:none;stroke:#cccccc;stroke-linecap:round;stroke-opacity:0.9;"/>
     </g>
     <g id="text_7">
      <!-- 2020 -->
      <g style="fill:#262626;" transform="translate(361.125935 248.160938)scale(0.14 -0.14)">
       <use xlink:href="#ArialMT-50"/>
       <use x="55.615234" xlink:href="#ArialMT-48"/>
       <use x="111.230469" xlink:href="#ArialMT-50"/>
       <use x="166.845703" xlink:href="#ArialMT-48"/>
      </g>
     </g>
    </g>
    <g id="text_8">
     <!-- Year -->
     <defs>
      <path d="M 27.875 0 
L 27.875 30.328125 
L 0.296875 71.578125 
L 11.8125 71.578125 
L 25.921875 50 
Q 29.828125 43.953125 33.203125 37.890625 
Q 36.421875 43.5 41.015625 50.53125 
L 54.890625 71.578125 
L 65.921875 71.578125 
L 37.359375 30.328125 
L 37.359375 0 
z
" id="ArialMT-89"/>
      <path d="M 42.09375 16.703125 
L 51.171875 15.578125 
Q 49.03125 7.625 43.21875 3.21875 
Q 37.40625 -1.171875 28.375 -1.171875 
Q 17 -1.171875 10.328125 5.828125 
Q 3.65625 12.84375 3.65625 25.484375 
Q 3.65625 38.578125 10.390625 45.796875 
Q 17.140625 53.03125 27.875 53.03125 
Q 38.28125 53.03125 44.875 45.953125 
Q 51.46875 38.875 51.46875 26.03125 
Q 51.46875 25.25 51.421875 23.6875 
L 12.75 23.6875 
Q 13.234375 15.140625 17.578125 10.59375 
Q 21.921875 6.0625 28.421875 6.0625 
Q 33.25 6.0625 36.671875 8.59375 
Q 40.09375 11.140625 42.09375 16.703125 
z
M 13.234375 30.90625 
L 42.1875 30.90625 
Q 41.609375 37.453125 38.875 40.71875 
Q 34.671875 45.796875 27.984375 45.796875 
Q 21.921875 45.796875 17.796875 41.75 
Q 13.671875 37.703125 13.234375 30.90625 
z
" id="ArialMT-101"/>
      <path d="M 40.4375 6.390625 
Q 35.546875 2.25 31.03125 0.53125 
Q 26.515625 -1.171875 21.34375 -1.171875 
Q 12.796875 -1.171875 8.203125 3 
Q 3.609375 7.171875 3.609375 13.671875 
Q 3.609375 17.484375 5.34375 20.625 
Q 7.078125 23.78125 9.890625 25.6875 
Q 12.703125 27.59375 16.21875 28.5625 
Q 18.796875 29.25 24.03125 29.890625 
Q 34.671875 31.15625 39.703125 32.90625 
Q 39.75 34.71875 39.75 35.203125 
Q 39.75 40.578125 37.25 42.78125 
Q 33.890625 45.75 27.25 45.75 
Q 21.046875 45.75 18.09375 43.578125 
Q 15.140625 41.40625 13.71875 35.890625 
L 5.125 37.0625 
Q 6.296875 42.578125 8.984375 45.96875 
Q 11.671875 49.359375 16.75 51.1875 
Q 21.828125 53.03125 28.515625 53.03125 
Q 35.15625 53.03125 39.296875 51.46875 
Q 43.453125 49.90625 45.40625 47.53125 
Q 47.359375 45.171875 48.140625 41.546875 
Q 48.578125 39.3125 48.578125 33.453125 
L 48.578125 21.734375 
Q 48.578125 9.46875 49.140625 6.21875 
Q 49.703125 2.984375 51.375 0 
L 42.1875 0 
Q 40.828125 2.734375 40.4375 6.390625 
z
M 39.703125 26.03125 
Q 34.90625 24.078125 25.34375 22.703125 
Q 19.921875 21.921875 17.671875 20.9375 
Q 15.4375 19.96875 14.203125 18.09375 
Q 12.984375 16.21875 12.984375 13.921875 
Q 12.984375 10.40625 15.640625 8.0625 
Q 18.3125 5.71875 23.4375 5.71875 
Q 28.515625 5.71875 32.46875 7.9375 
Q 36.421875 10.15625 38.28125 14.015625 
Q 39.703125 17 39.703125 22.796875 
z
" id="ArialMT-97"/>
      <path d="M 6.5 0 
L 6.5 51.859375 
L 14.40625 51.859375 
L 14.40625 44 
Q 17.4375 49.515625 20 51.265625 
Q 22.5625 53.03125 25.640625 53.03125 
Q 30.078125 53.03125 34.671875 50.203125 
L 31.640625 42.046875 
Q 28.421875 43.953125 25.203125 43.953125 
Q 22.3125 43.953125 20.015625 42.21875 
Q 17.71875 40.484375 16.75 37.40625 
Q 15.28125 32.71875 15.28125 27.15625 
L 15.28125 0 
z
" id="ArialMT-114"/>
     </defs>
     <g style="fill:#262626;" transform="translate(205.501063 266.968563)scale(0.168 -0.168)">
      <use xlink:href="#ArialMT-89"/>
      <use x="66.558594" xlink:href="#ArialMT-101"/>
      <use x="122.173828" xlink:href="#ArialMT-97"/>
      <use x="177.789062" xlink:href="#ArialMT-114"/>
     </g>
    </g>
   </g>
   <g id="matplotlib.axis_2">
    <g id="ytick_1">
     <g id="line2d_8">
      <path clip-path="url(#peacc9c77e0)" d="M 55.831625 214.35783 
L 390.631625 214.35783 
" style="fill:none;stroke:#cccccc;stroke-linecap:round;stroke-opacity:0.9;"/>
     </g>
     <g id="text_9">
      <!-- 2 -->
      <g style="fill:#262626;" transform="translate(34.546313 219.368299)scale(0.14 -0.14)">
       <use xlink:href="#ArialMT-50"/>
      </g>
     </g>
    </g>
    <g id="ytick_2">
     <g id="line2d_9">
      <path clip-path="url(#peacc9c77e0)" d="M 55.831625 174.504457 
L 390.631625 174.504457 
" style="fill:none;stroke:#cccccc;stroke-linecap:round;stroke-opacity:0.9;"/>
     </g>
     <g id="text_10">
      <!-- 4 -->
      <defs>
       <path d="M 32.328125 0 
L 32.328125 17.140625 
L 1.265625 17.140625 
L 1.265625 25.203125 
L 33.9375 71.578125 
L 41.109375 71.578125 
L 41.109375 25.203125 
L 50.78125 25.203125 
L 50.78125 17.140625 
L 41.109375 17.140625 
L 41.109375 0 
z
M 32.328125 25.203125 
L 32.328125 57.46875 
L 9.90625 25.203125 
z
" id="ArialMT-52"/>
      </defs>
      <g style="fill:#262626;" transform="translate(34.546313 179.514926)scale(0.14 -0.14)">
       <use xlink:href="#ArialMT-52"/>
      </g>
     </g>
    </g>
    <g id="ytick_3">
     <g id="line2d_10">
      <path clip-path="url(#peacc9c77e0)" d="M 55.831625 134.651085 
L 390.631625 134.651085 
" style="fill:none;stroke:#cccccc;stroke-linecap:round;stroke-opacity:0.9;"/>
     </g>
     <g id="text_11">
      <!-- 6 -->
      <g style="fill:#262626;" transform="translate(34.546313 139.661554)scale(0.14 -0.14)">
       <use xlink:href="#ArialMT-54"/>
      </g>
     </g>
    </g>
    <g id="ytick_4">
     <g id="line2d_11">
      <path clip-path="url(#peacc9c77e0)" d="M 55.831625 94.797713 
L 390.631625 94.797713 
" style="fill:none;stroke:#cccccc;stroke-linecap:round;stroke-opacity:0.9;"/>
     </g>
     <g id="text_12">
      <!-- 8 -->
      <g style="fill:#262626;" transform="translate(34.546313 99.808181)scale(0.14 -0.14)">
       <use xlink:href="#ArialMT-56"/>
      </g>
     </g>
    </g>
    <g id="ytick_5">
     <g id="line2d_12">
      <path clip-path="url(#peacc9c77e0)" d="M 55.831625 54.94434 
L 390.631625 54.94434 
" style="fill:none;stroke:#cccccc;stroke-linecap:round;stroke-opacity:0.9;"/>
     </g>
     <g id="text_13">
      <!-- 10 -->
      <g style="fill:#262626;" transform="translate(26.761 59.954809)scale(0.14 -0.14)">
       <use xlink:href="#ArialMT-49"/>
       <use x="55.615234" xlink:href="#ArialMT-48"/>
      </g>
     </g>
    </g>
    <g id="ytick_6">
     <g id="line2d_13">
      <path clip-path="url(#peacc9c77e0)" d="M 55.831625 15.090968 
L 390.631625 15.090968 
" style="fill:none;stroke:#cccccc;stroke-linecap:round;stroke-opacity:0.9;"/>
     </g>
     <g id="text_14">
      <!-- 12 -->
      <g style="fill:#262626;" transform="translate(26.761 20.101436)scale(0.14 -0.14)">
       <use xlink:href="#ArialMT-49"/>
       <use x="55.615234" xlink:href="#ArialMT-50"/>
      </g>
     </g>
    </g>
    <g id="text_15">
     <!-- Unemployment Rate -->
     <defs>
      <path d="M 54.6875 71.578125 
L 64.15625 71.578125 
L 64.15625 30.21875 
Q 64.15625 19.4375 61.71875 13.078125 
Q 59.28125 6.734375 52.90625 2.75 
Q 46.53125 -1.21875 36.1875 -1.21875 
Q 26.125 -1.21875 19.71875 2.25 
Q 13.328125 5.71875 10.59375 12.28125 
Q 7.859375 18.84375 7.859375 30.21875 
L 7.859375 71.578125 
L 17.328125 71.578125 
L 17.328125 30.28125 
Q 17.328125 20.953125 19.0625 16.53125 
Q 20.796875 12.109375 25.015625 9.71875 
Q 29.25 7.328125 35.359375 7.328125 
Q 45.796875 7.328125 50.234375 12.0625 
Q 54.6875 16.796875 54.6875 30.28125 
z
" id="ArialMT-85"/>
      <path d="M 6.59375 0 
L 6.59375 51.859375 
L 14.5 51.859375 
L 14.5 44.484375 
Q 20.21875 53.03125 31 53.03125 
Q 35.6875 53.03125 39.625 51.34375 
Q 43.5625 49.65625 45.515625 46.921875 
Q 47.46875 44.1875 48.25 40.4375 
Q 48.734375 37.984375 48.734375 31.890625 
L 48.734375 0 
L 39.9375 0 
L 39.9375 31.546875 
Q 39.9375 36.921875 38.90625 39.578125 
Q 37.890625 42.234375 35.28125 43.8125 
Q 32.671875 45.40625 29.15625 45.40625 
Q 23.53125 45.40625 19.453125 41.84375 
Q 15.375 38.28125 15.375 28.328125 
L 15.375 0 
z
" id="ArialMT-110"/>
      <path d="M 6.59375 0 
L 6.59375 51.859375 
L 14.453125 51.859375 
L 14.453125 44.578125 
Q 16.890625 48.390625 20.9375 50.703125 
Q 25 53.03125 30.171875 53.03125 
Q 35.9375 53.03125 39.625 50.640625 
Q 43.3125 48.25 44.828125 43.953125 
Q 50.984375 53.03125 60.84375 53.03125 
Q 68.5625 53.03125 72.703125 48.75 
Q 76.859375 44.484375 76.859375 35.59375 
L 76.859375 0 
L 68.109375 0 
L 68.109375 32.671875 
Q 68.109375 37.9375 67.25 40.25 
Q 66.40625 42.578125 64.15625 43.984375 
Q 61.921875 45.40625 58.890625 45.40625 
Q 53.421875 45.40625 49.796875 41.765625 
Q 46.1875 38.140625 46.1875 30.125 
L 46.1875 0 
L 37.40625 0 
L 37.40625 33.6875 
Q 37.40625 39.546875 35.25 42.46875 
Q 33.109375 45.40625 28.21875 45.40625 
Q 24.515625 45.40625 21.359375 43.453125 
Q 18.21875 41.5 16.796875 37.734375 
Q 15.375 33.984375 15.375 26.90625 
L 15.375 0 
z
" id="ArialMT-109"/>
      <path d="M 6.59375 -19.875 
L 6.59375 51.859375 
L 14.59375 51.859375 
L 14.59375 45.125 
Q 17.4375 49.078125 21 51.046875 
Q 24.5625 53.03125 29.640625 53.03125 
Q 36.28125 53.03125 41.359375 49.609375 
Q 46.4375 46.1875 49.015625 39.953125 
Q 51.609375 33.734375 51.609375 26.3125 
Q 51.609375 18.359375 48.75 11.984375 
Q 45.90625 5.609375 40.453125 2.21875 
Q 35.015625 -1.171875 29 -1.171875 
Q 24.609375 -1.171875 21.109375 0.6875 
Q 17.625 2.546875 15.375 5.375 
L 15.375 -19.875 
z
M 14.546875 25.640625 
Q 14.546875 15.625 18.59375 10.84375 
Q 22.65625 6.0625 28.421875 6.0625 
Q 34.28125 6.0625 38.453125 11.015625 
Q 42.625 15.96875 42.625 26.375 
Q 42.625 36.28125 38.546875 41.203125 
Q 34.46875 46.140625 28.8125 46.140625 
Q 23.1875 46.140625 18.859375 40.890625 
Q 14.546875 35.640625 14.546875 25.640625 
z
" id="ArialMT-112"/>
      <path d="M 6.390625 0 
L 6.390625 71.578125 
L 15.1875 71.578125 
L 15.1875 0 
z
" id="ArialMT-108"/>
      <path d="M 3.328125 25.921875 
Q 3.328125 40.328125 11.328125 47.265625 
Q 18.015625 53.03125 27.640625 53.03125 
Q 38.328125 53.03125 45.109375 46.015625 
Q 51.90625 39.015625 51.90625 26.65625 
Q 51.90625 16.65625 48.90625 10.90625 
Q 45.90625 5.171875 40.15625 2 
Q 34.421875 -1.171875 27.640625 -1.171875 
Q 16.75 -1.171875 10.03125 5.8125 
Q 3.328125 12.796875 3.328125 25.921875 
z
M 12.359375 25.921875 
Q 12.359375 15.96875 16.703125 11.015625 
Q 21.046875 6.0625 27.640625 6.0625 
Q 34.1875 6.0625 38.53125 11.03125 
Q 42.875 16.015625 42.875 26.21875 
Q 42.875 35.84375 38.5 40.796875 
Q 34.125 45.75 27.640625 45.75 
Q 21.046875 45.75 16.703125 40.8125 
Q 12.359375 35.890625 12.359375 25.921875 
z
" id="ArialMT-111"/>
      <path d="M 6.203125 -19.96875 
L 5.21875 -11.71875 
Q 8.109375 -12.5 10.25 -12.5 
Q 13.1875 -12.5 14.9375 -11.515625 
Q 16.703125 -10.546875 17.828125 -8.796875 
Q 18.65625 -7.46875 20.515625 -2.25 
Q 20.75 -1.515625 21.296875 -0.09375 
L 1.609375 51.859375 
L 11.078125 51.859375 
L 21.875 21.828125 
Q 23.96875 16.109375 25.640625 9.8125 
Q 27.15625 15.875 29.25 21.625 
L 40.328125 51.859375 
L 49.125 51.859375 
L 29.390625 -0.875 
Q 26.21875 -9.421875 24.46875 -12.640625 
Q 22.125 -17 19.09375 -19.015625 
Q 16.0625 -21.046875 11.859375 -21.046875 
Q 9.328125 -21.046875 6.203125 -19.96875 
z
" id="ArialMT-121"/>
      <path d="M 25.78125 7.859375 
L 27.046875 0.09375 
Q 23.34375 -0.6875 20.40625 -0.6875 
Q 15.625 -0.6875 12.984375 0.828125 
Q 10.359375 2.34375 9.28125 4.8125 
Q 8.203125 7.28125 8.203125 15.1875 
L 8.203125 45.015625 
L 1.765625 45.015625 
L 1.765625 51.859375 
L 8.203125 51.859375 
L 8.203125 64.703125 
L 16.9375 69.96875 
L 16.9375 51.859375 
L 25.78125 51.859375 
L 25.78125 45.015625 
L 16.9375 45.015625 
L 16.9375 14.703125 
Q 16.9375 10.9375 17.40625 9.859375 
Q 17.875 8.796875 18.921875 8.15625 
Q 19.96875 7.515625 21.921875 7.515625 
Q 23.390625 7.515625 25.78125 7.859375 
z
" id="ArialMT-116"/>
      <path id="ArialMT-32"/>
      <path d="M 7.859375 0 
L 7.859375 71.578125 
L 39.59375 71.578125 
Q 49.171875 71.578125 54.140625 69.640625 
Q 59.125 67.71875 62.109375 62.828125 
Q 65.09375 57.953125 65.09375 52.046875 
Q 65.09375 44.4375 60.15625 39.203125 
Q 55.21875 33.984375 44.921875 32.5625 
Q 48.6875 30.765625 50.640625 29 
Q 54.78125 25.203125 58.5 19.484375 
L 70.953125 0 
L 59.03125 0 
L 49.5625 14.890625 
Q 45.40625 21.34375 42.71875 24.75 
Q 40.046875 28.171875 37.921875 29.53125 
Q 35.796875 30.90625 33.59375 31.453125 
Q 31.984375 31.78125 28.328125 31.78125 
L 17.328125 31.78125 
L 17.328125 0 
z
M 17.328125 39.984375 
L 37.703125 39.984375 
Q 44.1875 39.984375 47.84375 41.328125 
Q 51.515625 42.671875 53.421875 45.625 
Q 55.328125 48.578125 55.328125 52.046875 
Q 55.328125 57.125 51.640625 60.390625 
Q 47.953125 63.671875 39.984375 63.671875 
L 17.328125 63.671875 
z
" id="ArialMT-82"/>
     </defs>
     <g style="fill:#262626;" transform="translate(19.225125 192.483375)rotate(-90)scale(0.168 -0.168)">
      <use xlink:href="#ArialMT-85"/>
      <use x="72.216797" xlink:href="#ArialMT-110"/>
      <use x="127.832031" xlink:href="#ArialMT-101"/>
      <use x="183.447266" xlink:href="#ArialMT-109"/>
      <use x="266.748047" xlink:href="#ArialMT-112"/>
      <use x="322.363281" xlink:href="#ArialMT-108"/>
      <use x="344.580078" xlink:href="#ArialMT-111"/>
      <use x="400.195312" xlink:href="#ArialMT-121"/>
      <use x="450.195312" xlink:href="#ArialMT-109"/>
      <use x="533.496094" xlink:href="#ArialMT-101"/>
      <use x="589.111328" xlink:href="#ArialMT-110"/>
      <use x="644.726562" xlink:href="#ArialMT-116"/>
      <use x="672.509766" xlink:href="#ArialMT-32"/>
      <use x="700.292969" xlink:href="#ArialMT-82"/>
      <use x="772.509766" xlink:href="#ArialMT-97"/>
      <use x="828.125" xlink:href="#ArialMT-116"/>
      <use x="855.908203" xlink:href="#ArialMT-101"/>
     </g>
    </g>
   </g>
   <g id="line2d_14">
    <path clip-path="url(#peacc9c77e0)" d="M 71.049807 207.98129 
L 71.886622 209.376158 
L 72.318977 209.973959 
L 72.737384 211.368827 
L 73.588146 212.165894 
L 74.020501 213.361496 
L 74.452855 212.763695 
L 74.871263 213.760029 
L 75.303617 213.959296 
L 75.722025 213.361496 
L 76.15438 213.361496 
L 76.586734 214.158563 
L 76.977248 213.959296 
L 77.409602 214.756364 
L 78.260364 214.35783 
L 78.678772 213.361496 
L 79.111127 212.962962 
L 79.543481 211.767361 
L 79.961889 211.368827 
L 80.812651 210.372493 
L 81.245005 208.977625 
L 81.67736 208.379824 
L 82.067874 206.984956 
L 82.500228 206.187889 
L 82.918636 203.995953 
L 83.35099 203.198886 
L 83.769398 201.00695 
L 84.201752 201.00695 
L 85.052515 197.81868 
L 85.484869 196.822346 
L 85.903277 195.228211 
L 86.335631 189.848006 
L 86.767986 186.061935 
L 87.590854 191.641408 
L 88.009262 190.645073 
L 88.441616 191.242874 
L 89.292378 193.235543 
L 89.724733 193.634076 
L 90.14314 195.028944 
L 90.993902 199.213548 
L 91.426257 200.40915 
L 91.858612 202.999619 
L 92.695427 204.992287 
L 93.546189 206.387155 
L 93.964596 206.984956 
L 94.396951 207.38349 
L 95.247713 209.176891 
L 95.680068 209.973959 
L 96.098475 209.973959 
L 96.963184 209.575425 
L 97.353698 208.778358 
L 97.786053 209.376158 
L 98.636815 208.977625 
L 99.055222 208.977625 
L 99.487577 208.778358 
L 99.919931 208.778358 
L 100.338339 209.376158 
L 101.621456 209.376158 
L 102.05381 209.973959 
L 102.444324 209.575425 
L 102.876678 208.579091 
L 104.578203 205.988622 
L 105.010557 203.597419 
L 105.861319 196.224545 
L 106.279727 194.231877 
L 107.144436 191.442141 
L 107.53495 189.648739 
L 107.967304 188.453138 
L 108.385712 187.65607 
L 108.818066 186.061935 
L 109.668828 184.866334 
L 110.101183 184.467801 
L 110.519591 184.866334 
L 110.951945 184.667067 
L 111.802707 184.667067 
L 112.235062 183.87 
L 112.639522 184.667067 
L 113.071877 184.069267 
L 113.490285 184.069267 
L 113.922639 184.268534 
L 114.341047 184.268534 
L 114.773401 185.065601 
L 115.205756 185.065601 
L 115.624163 185.264868 
L 116.474925 185.264868 
L 116.90728 185.464135 
L 117.339634 185.464135 
L 117.730148 184.667067 
L 118.162503 185.464135 
L 119.431672 184.866334 
L 119.864027 184.069267 
L 120.296382 184.467801 
L 120.714789 183.272199 
L 121.147144 183.072933 
L 121.565551 182.475132 
L 122.43026 181.678065 
L 122.820774 180.482463 
L 123.253129 180.08393 
L 123.671536 179.884663 
L 124.103891 179.486129 
L 124.522298 178.489795 
L 124.954653 178.888328 
L 125.387007 178.091261 
L 125.805415 178.489795 
L 126.237769 178.489795 
L 126.656177 177.49346 
L 127.088532 178.091261 
L 127.520886 178.489795 
L 128.762162 172.511789 
L 129.194517 172.511789 
L 129.612924 170.51912 
L 130.045279 170.51912 
L 130.896041 166.533783 
L 131.328395 166.533783 
L 131.746803 164.541114 
L 133.448327 164.541114 
L 133.866735 166.533783 
L 134.299089 166.533783 
L 134.717497 168.526452 
L 135.149851 168.526452 
L 135.582206 170.51912 
L 136.432968 170.51912 
L 138.106598 178.489795 
L 138.538953 178.489795 
L 138.957361 180.482463 
L 139.389715 180.482463 
L 139.808123 182.475132 
L 140.240477 182.475132 
L 140.672832 184.467801 
L 141.091239 184.467801 
L 141.523594 186.460469 
L 141.942001 186.460469 
L 142.806711 182.475132 
L 144.480341 182.475132 
L 144.898749 180.482463 
L 146.61422 180.482463 
L 149.138612 168.526452 
L 149.570967 164.541114 
L 152.987962 148.599765 
L 153.392423 148.599765 
L 153.824777 146.607097 
L 155.093947 146.607097 
L 155.526302 144.614428 
L 159.333811 144.614428 
L 159.766165 142.62176 
L 160.184573 142.62176 
L 160.616927 140.629091 
L 162.318452 140.629091 
L 162.750806 142.62176 
L 164.424437 142.62176 
L 164.856791 144.614428 
L 166.139908 144.614428 
L 166.558315 146.607097 
L 166.99067 146.607097 
L 167.409077 148.599765 
L 167.841432 148.599765 
L 168.273787 146.607097 
L 168.6643 148.599765 
L 170.365825 148.599765 
L 170.798179 146.607097 
L 171.648941 146.607097 
L 173.364412 138.636422 
L 173.768873 134.651085 
L 174.201228 132.658416 
L 175.05199 124.687742 
L 178.468985 76.863695 
L 178.859499 72.878358 
L 179.291853 66.900352 
L 179.710261 62.915015 
L 183.127256 46.973666 
L 183.559611 46.973666 
L 183.950125 44.980997 
L 184.382479 44.980997 
L 184.800887 42.988328 
L 185.233241 42.988328 
L 187.785528 31.032317 
L 188.217882 31.032317 
L 188.650237 29.039648 
L 189.473105 29.039648 
L 190.323867 25.054311 
L 191.174629 25.054311 
L 191.606984 23.061642 
L 192.025391 23.061642 
L 192.457746 21.068974 
L 192.876153 21.068974 
L 193.308508 19.076305 
L 193.740863 19.076305 
L 194.145323 17.083636 
L 194.996085 17.083636 
L 195.42844 19.076305 
L 195.846847 19.076305 
L 196.279202 21.068974 
L 197.129964 21.068974 
L 197.562319 23.061642 
L 197.980726 23.061642 
L 198.413081 25.054311 
L 198.845435 25.054311 
L 199.235949 27.046979 
L 200.086711 27.046979 
L 200.519066 29.039648 
L 205.177337 29.039648 
L 205.609692 27.046979 
L 206.460454 27.046979 
L 206.892808 29.039648 
L 207.74357 29.039648 
L 208.161978 31.032317 
L 208.594332 31.032317 
L 209.849555 37.010323 
L 210.267963 40.99566 
L 210.700317 42.988328 
L 211.983434 54.94434 
L 212.401842 56.937009 
L 213.252604 64.907683 
L 213.684958 66.900352 
L 214.521773 74.871026 
L 214.954128 76.863695 
L 215.372536 80.849032 
L 217.506414 90.812375 
L 217.938769 94.797713 
L 218.357176 96.790381 
L 218.789531 100.775718 
L 219.221885 102.768387 
L 219.612399 106.753724 
L 220.463161 110.739062 
L 220.895516 110.739062 
L 221.313923 112.73173 
L 222.178633 112.73173 
L 222.59704 114.724399 
L 223.447802 114.724399 
L 223.880157 116.717067 
L 225.986142 116.717067 
L 227.687666 108.746393 
L 228.12002 104.761056 
L 228.538428 102.768387 
L 229.793651 90.812375 
L 230.226005 84.83437 
L 230.644413 80.849032 
L 231.076768 78.856364 
L 231.92753 70.885689 
L 233.210646 64.907683 
L 233.629054 64.907683 
L 234.898224 58.929677 
L 235.748986 58.929677 
L 236.18134 56.937009 
L 237.032102 56.937009 
L 237.464457 52.951672 
L 237.882865 50.959003 
L 238.315219 46.973666 
L 238.733627 44.980997 
L 239.165981 40.99566 
L 239.598336 42.988328 
L 239.988849 42.988328 
L 240.839612 46.973666 
L 241.271966 46.973666 
L 242.122728 50.959003 
L 242.555083 48.966334 
L 242.97349 50.959003 
L 243.405845 48.966334 
L 243.824252 48.966334 
L 244.688962 56.937009 
L 245.51183 60.922346 
L 245.930237 60.922346 
L 247.645709 68.893021 
L 248.064116 72.878358 
L 248.914878 76.863695 
L 249.779587 76.863695 
L 250.170101 78.856364 
L 250.602456 78.856364 
L 251.020863 80.849032 
L 251.453218 80.849032 
L 251.871625 82.841701 
L 253.154742 82.841701 
L 253.587097 88.819707 
L 254.005504 86.827038 
L 254.870213 90.812375 
L 255.274674 88.819707 
L 256.125436 88.819707 
L 256.976198 92.805044 
L 257.840907 92.805044 
L 258.259315 94.797713 
L 258.691669 98.78305 
L 259.110077 100.775718 
L 259.974786 108.746393 
L 260.3653 110.739062 
L 261.216062 110.739062 
L 261.648416 108.746393 
L 262.066824 112.73173 
L 262.499178 118.709736 
L 264.200703 126.680411 
L 265.065412 126.680411 
L 265.455925 128.673079 
L 267.15745 128.673079 
L 267.589804 130.665748 
L 268.440566 130.665748 
L 268.872921 132.658416 
L 269.291328 130.665748 
L 270.546551 130.665748 
L 271.397313 134.651085 
L 271.829668 134.651085 
L 272.248076 136.643754 
L 272.68043 136.643754 
L 273.112785 138.636422 
L 273.963547 138.636422 
L 274.381954 136.643754 
L 274.814309 138.636422 
L 275.246663 138.636422 
L 276.501886 144.614428 
L 276.934241 148.599765 
L 277.785003 148.599765 
L 278.217357 146.607097 
L 279.068119 150.592434 
L 279.918882 150.592434 
L 281.174104 156.57044 
L 281.592512 154.577771 
L 282.024866 154.577771 
L 282.443274 152.585103 
L 283.726391 152.585103 
L 284.158745 150.592434 
L 284.577153 150.592434 
L 285.009507 152.585103 
L 285.441862 150.592434 
L 287.5339 150.592434 
L 287.966254 148.599765 
L 288.398609 150.592434 
L 288.817017 150.592434 
L 289.667779 154.577771 
L 290.532488 150.592434 
L 291.773764 156.57044 
L 292.206118 152.585103 
L 292.624526 152.585103 
L 293.05688 154.577771 
L 293.489235 154.577771 
L 293.907642 156.57044 
L 294.339997 156.57044 
L 294.758405 158.563109 
L 297.310691 158.563109 
L 297.729098 160.555777 
L 299.862977 160.555777 
L 300.295332 158.563109 
L 300.727686 160.555777 
L 301.1182 160.555777 
L 301.550555 158.563109 
L 301.968962 158.563109 
L 302.401317 160.555777 
L 303.252079 160.555777 
L 304.102841 152.585103 
L 304.953603 152.585103 
L 305.385958 150.592434 
L 305.818312 150.592434 
L 307.059588 144.614428 
L 308.775059 144.614428 
L 309.193467 146.607097 
L 309.625821 144.614428 
L 311.299452 144.614428 
L 311.731806 146.607097 
L 312.150214 146.607097 
L 312.582568 148.599765 
L 313.43333 148.599765 
L 313.865685 150.592434 
L 315.999564 150.592434 
L 316.404024 148.599765 
L 316.836379 150.592434 
L 317.254787 146.607097 
L 317.687141 144.614428 
L 318.537903 136.643754 
L 318.970258 134.651085 
L 319.82102 126.680411 
L 320.239427 124.687742 
L 320.671782 120.702405 
L 321.104136 112.73173 
L 321.49465 108.746393 
L 321.927005 102.768387 
L 322.345412 98.78305 
L 322.777767 96.790381 
L 323.196174 96.790381 
L 323.628529 98.78305 
L 324.060884 96.790381 
L 324.479291 98.78305 
L 324.911646 98.78305 
L 325.330053 100.775718 
L 325.762408 96.790381 
L 326.194762 94.797713 
L 326.585276 94.797713 
L 327.017631 96.790381 
L 327.436038 96.790381 
L 327.868393 98.78305 
L 328.719155 98.78305 
L 329.151509 96.790381 
L 330.420679 96.790381 
L 330.853034 98.78305 
L 331.285388 98.78305 
L 331.675902 100.775718 
L 332.959019 94.797713 
L 333.377426 90.812375 
L 334.660543 84.83437 
L 335.511305 88.819707 
L 335.943659 88.819707 
L 336.376014 90.812375 
L 336.780475 90.812375 
L 337.631237 94.797713 
L 338.063591 92.805044 
L 338.481999 96.790381 
L 339.346708 96.790381 
L 339.765116 98.78305 
L 340.615878 98.78305 
L 341.048232 94.797713 
L 341.480587 98.78305 
L 342.303455 98.78305 
L 342.721863 100.775718 
L 343.572625 100.775718 
L 344.004979 102.768387 
L 344.855741 110.739062 
L 345.706503 110.739062 
L 346.138858 116.717067 
L 346.571213 118.709736 
L 347.394081 126.680411 
L 347.812488 128.673079 
L 348.244843 132.658416 
L 348.663251 134.651085 
L 349.52796 134.651085 
L 349.946367 136.643754 
L 350.378722 140.629091 
L 350.797129 140.629091 
L 351.229484 142.62176 
L 351.661838 142.62176 
L 352.052352 144.614428 
L 352.484707 142.62176 
L 352.903114 142.62176 
L 355.036993 152.585103 
L 356.752464 152.585103 
L 357.589279 156.57044 
L 358.858449 156.57044 
L 359.290804 158.563109 
L 360.57392 158.563109 
L 360.992328 160.555777 
L 360.992328 160.555777 
" style="fill:none;stroke:#165aa7;stroke-linecap:round;stroke-width:1.5;"/>
   </g>
   <g id="line2d_15">
    <path clip-path="url(#peacc9c77e0)" d="M 223.880157 142.62176 
L 224.312511 142.62176 
L 225.13538 146.607097 
L 225.553787 150.592434 
L 225.986142 150.592434 
L 226.404549 146.607097 
L 227.269258 142.62176 
L 227.687666 144.614428 
L 228.12002 140.629091 
L 228.970783 122.695073 
L 229.403137 118.709736 
L 229.793651 110.739062 
L 230.226005 106.753724 
L 230.644413 106.753724 
L 231.076768 104.761056 
L 231.495175 96.790381 
L 231.92753 90.812375 
L 232.359884 90.812375 
L 232.778292 92.805044 
L 233.629054 84.83437 
L 234.061408 74.871026 
L 234.493763 72.878358 
L 234.898224 72.878358 
L 235.330578 70.885689 
L 236.18134 74.871026 
L 237.032102 62.915015 
L 237.464457 62.915015 
L 237.882865 64.907683 
L 238.315219 62.915015 
L 239.165981 46.973666 
L 239.598336 48.966334 
L 239.988849 52.951672 
L 240.421204 50.959003 
L 240.839612 56.937009 
L 241.271966 60.922346 
L 241.690374 56.937009 
L 242.122728 54.94434 
L 242.555083 56.937009 
L 242.97349 64.907683 
L 243.405845 66.900352 
L 243.824252 66.900352 
L 244.256607 58.929677 
L 244.688962 60.922346 
L 245.51183 68.893021 
L 245.930237 74.871026 
L 246.362592 78.856364 
L 246.781 74.871026 
L 247.213354 74.871026 
L 247.645709 78.856364 
L 248.064116 86.827038 
L 248.914878 90.812375 
L 249.347233 88.819707 
L 249.779587 90.812375 
L 250.170101 94.797713 
L 250.602456 96.790381 
L 251.453218 104.761056 
L 251.871625 98.78305 
L 252.30398 98.78305 
L 253.154742 106.753724 
L 253.587097 108.746393 
L 254.437859 104.761056 
L 255.274674 104.761056 
L 255.707028 106.753724 
L 256.125436 106.753724 
L 258.259315 116.717067 
L 258.691669 124.687742 
L 259.542431 128.673079 
L 260.3653 138.636422 
L 260.797654 142.62176 
L 261.216062 148.599765 
L 261.648416 152.585103 
L 262.066824 150.592434 
L 262.499178 150.592434 
L 262.931533 154.577771 
L 263.349941 160.555777 
L 263.782295 162.548446 
L 264.200703 162.548446 
L 264.633057 156.57044 
L 265.065412 158.563109 
L 265.455925 162.548446 
L 265.88828 162.548446 
L 266.739042 166.533783 
L 267.589804 162.548446 
L 268.022159 166.533783 
L 268.872921 170.51912 
L 269.291328 168.526452 
L 269.723683 164.541114 
L 270.156038 164.541114 
L 271.829668 172.511789 
L 272.68043 172.511789 
L 273.112785 174.504457 
L 273.531192 178.489795 
L 273.963547 178.489795 
L 274.381954 180.482463 
L 274.814309 174.504457 
L 275.246663 174.504457 
L 275.651124 176.497126 
L 276.083479 180.482463 
L 276.934241 184.467801 
L 277.785003 184.467801 
L 279.068119 190.445806 
L 279.486527 188.453138 
L 279.918882 184.467801 
L 280.351236 184.467801 
L 280.74175 186.460469 
L 281.174104 190.445806 
L 281.592512 190.445806 
L 282.024866 192.438475 
L 282.875629 192.438475 
L 283.307983 194.431144 
L 284.158745 194.431144 
L 284.577153 192.438475 
L 285.009507 188.453138 
L 285.441862 188.453138 
L 286.683138 194.431144 
L 287.115492 194.431144 
L 287.5339 192.438475 
L 287.966254 192.438475 
L 288.817017 196.423812 
L 289.667779 196.423812 
L 290.100133 190.445806 
L 290.532488 190.445806 
L 290.923001 192.438475 
L 291.355356 192.438475 
L 291.773764 194.431144 
L 293.05688 194.431144 
L 293.907642 198.416481 
L 294.758405 198.416481 
L 295.190759 194.431144 
L 295.623114 194.431144 
L 297.310691 202.401818 
L 297.729098 202.401818 
L 298.161453 200.40915 
L 299.012215 204.394487 
L 299.862977 204.394487 
L 300.295332 200.40915 
L 304.535195 200.40915 
L 305.818312 194.431144 
L 307.059588 194.431144 
L 307.491943 196.423812 
L 309.193467 196.423812 
L 309.625821 198.416481 
L 310.044229 198.416481 
L 310.908938 194.431144 
L 312.582568 202.401818 
L 313.43333 202.401818 
L 314.284093 206.387155 
L 315.134855 206.387155 
L 315.999564 202.401818 
L 316.404024 204.394487 
L 317.687141 204.394487 
L 318.105549 202.401818 
L 318.537903 198.416481 
L 318.970258 198.416481 
L 319.388665 196.423812 
L 320.239427 184.467801 
L 321.49465 162.548446 
L 321.927005 160.555777 
L 323.196174 160.555777 
L 323.628529 158.563109 
L 324.479291 158.563109 
L 324.911646 160.555777 
L 325.330053 160.555777 
L 325.762408 154.577771 
L 326.194762 154.577771 
L 327.017631 158.563109 
L 327.868393 166.533783 
L 329.151509 166.533783 
L 329.569917 168.526452 
L 330.420679 168.526452 
L 330.853034 162.548446 
L 331.285388 160.555777 
L 331.675902 162.548446 
L 332.526664 162.548446 
L 332.959019 164.541114 
L 333.377426 160.555777 
L 333.809781 158.563109 
L 334.242135 158.563109 
L 334.660543 160.555777 
L 335.511305 160.555777 
L 335.943659 156.57044 
L 336.376014 154.577771 
L 336.780475 154.577771 
L 337.212829 158.563109 
L 338.063591 162.548446 
L 338.481999 160.555777 
L 338.914353 160.555777 
L 339.346708 162.548446 
L 340.19747 162.548446 
L 340.615878 164.541114 
L 341.048232 160.555777 
L 341.480587 158.563109 
L 342.303455 162.548446 
L 342.721863 166.533783 
L 344.004979 172.511789 
L 344.437334 176.497126 
L 344.855741 178.489795 
L 345.288096 182.475132 
L 346.571213 182.475132 
L 346.961726 184.467801 
L 347.394081 188.453138 
L 347.812488 190.445806 
L 348.244843 194.431144 
L 350.797129 206.387155 
L 351.229484 204.394487 
L 352.052352 204.394487 
L 352.903114 208.379824 
L 354.186231 208.379824 
L 354.618585 210.372493 
L 355.036993 210.372493 
L 355.469348 212.365161 
L 355.887755 212.365161 
L 356.752464 208.379824 
L 357.156925 208.379824 
L 357.589279 210.372493 
L 360.141566 210.372493 
L 360.57392 212.365161 
L 360.992328 212.365161 
L 361.424682 210.372493 
L 361.857037 210.372493 
L 362.247551 208.379824 
L 363.098313 208.379824 
L 363.530667 210.372493 
L 366.082954 210.372493 
L 367.770531 202.401818 
L 368.188939 204.394487 
L 369.472055 204.394487 
L 369.90441 202.401818 
L 370.755172 202.401818 
L 371.605934 198.416481 
L 372.038289 194.431144 
L 372.428802 194.431144 
L 372.861157 192.438475 
L 373.279564 192.438475 
L 373.711919 190.445806 
L 374.995036 190.445806 
L 375.413443 188.453138 
L 375.413443 188.453138 
" style="fill:none;stroke:#cb495c;stroke-linecap:round;stroke-width:1.5;"/>
   </g>
   <g id="text_16">
    <!-- Survey -->
    <defs>
     <path d="M 4.5 23 
L 13.421875 23.78125 
Q 14.0625 18.40625 16.375 14.96875 
Q 18.703125 11.53125 23.578125 9.40625 
Q 28.46875 7.28125 34.578125 7.28125 
Q 39.984375 7.28125 44.140625 8.890625 
Q 48.296875 10.5 50.3125 13.296875 
Q 52.34375 16.109375 52.34375 19.4375 
Q 52.34375 22.796875 50.390625 25.3125 
Q 48.4375 27.828125 43.953125 29.546875 
Q 41.0625 30.671875 31.203125 33.03125 
Q 21.34375 35.40625 17.390625 37.5 
Q 12.25 40.1875 9.734375 44.15625 
Q 7.234375 48.140625 7.234375 53.078125 
Q 7.234375 58.5 10.296875 63.203125 
Q 13.375 67.921875 19.28125 70.359375 
Q 25.203125 72.796875 32.421875 72.796875 
Q 40.375 72.796875 46.453125 70.234375 
Q 52.546875 67.671875 55.8125 62.6875 
Q 59.078125 57.71875 59.328125 51.421875 
L 50.25 50.734375 
Q 49.515625 57.515625 45.28125 60.984375 
Q 41.0625 64.453125 32.8125 64.453125 
Q 24.21875 64.453125 20.28125 61.296875 
Q 16.359375 58.15625 16.359375 53.71875 
Q 16.359375 49.859375 19.140625 47.359375 
Q 21.875 44.875 33.421875 42.265625 
Q 44.96875 39.65625 49.265625 37.703125 
Q 55.515625 34.8125 58.484375 30.390625 
Q 61.46875 25.984375 61.46875 20.21875 
Q 61.46875 14.5 58.203125 9.4375 
Q 54.9375 4.390625 48.796875 1.578125 
Q 42.671875 -1.21875 35.015625 -1.21875 
Q 25.296875 -1.21875 18.71875 1.609375 
Q 12.15625 4.4375 8.421875 10.125 
Q 4.6875 15.828125 4.5 23 
z
" id="ArialMT-83"/>
     <path d="M 40.578125 0 
L 40.578125 7.625 
Q 34.515625 -1.171875 24.125 -1.171875 
Q 19.53125 -1.171875 15.546875 0.578125 
Q 11.578125 2.34375 9.640625 5 
Q 7.71875 7.671875 6.9375 11.53125 
Q 6.390625 14.109375 6.390625 19.734375 
L 6.390625 51.859375 
L 15.1875 51.859375 
L 15.1875 23.09375 
Q 15.1875 16.21875 15.71875 13.8125 
Q 16.546875 10.359375 19.234375 8.375 
Q 21.921875 6.390625 25.875 6.390625 
Q 29.828125 6.390625 33.296875 8.421875 
Q 36.765625 10.453125 38.203125 13.9375 
Q 39.65625 17.4375 39.65625 24.078125 
L 39.65625 51.859375 
L 48.4375 51.859375 
L 48.4375 0 
z
" id="ArialMT-117"/>
     <path d="M 21 0 
L 1.265625 51.859375 
L 10.546875 51.859375 
L 21.6875 20.796875 
Q 23.484375 15.765625 25 10.359375 
Q 26.171875 14.453125 28.265625 20.21875 
L 39.796875 51.859375 
L 48.828125 51.859375 
L 29.203125 0 
z
" id="ArialMT-118"/>
    </defs>
    <g style="fill:#165aa7;" transform="translate(360.992328 160.555777)scale(0.16 -0.16)">
     <use xlink:href="#ArialMT-83"/>
     <use x="66.699219" xlink:href="#ArialMT-117"/>
     <use x="122.314453" xlink:href="#ArialMT-114"/>
     <use x="155.615234" xlink:href="#ArialMT-118"/>
     <use x="205.615234" xlink:href="#ArialMT-101"/>
     <use x="261.230469" xlink:href="#ArialMT-121"/>
    </g>
   </g>
   <g id="text_17">
    <!-- Administrative -->
    <defs>
     <path d="M -0.140625 0 
L 27.34375 71.578125 
L 37.546875 71.578125 
L 66.84375 0 
L 56.0625 0 
L 47.703125 21.6875 
L 17.78125 21.6875 
L 9.90625 0 
z
M 20.515625 29.390625 
L 44.78125 29.390625 
L 37.3125 49.21875 
Q 33.890625 58.25 32.234375 64.0625 
Q 30.859375 57.171875 28.375 50.390625 
z
" id="ArialMT-65"/>
     <path d="M 40.234375 0 
L 40.234375 6.546875 
Q 35.296875 -1.171875 25.734375 -1.171875 
Q 19.53125 -1.171875 14.328125 2.25 
Q 9.125 5.671875 6.265625 11.796875 
Q 3.421875 17.921875 3.421875 25.875 
Q 3.421875 33.640625 6 39.96875 
Q 8.59375 46.296875 13.765625 49.65625 
Q 18.953125 53.03125 25.34375 53.03125 
Q 30.03125 53.03125 33.6875 51.046875 
Q 37.359375 49.078125 39.65625 45.90625 
L 39.65625 71.578125 
L 48.390625 71.578125 
L 48.390625 0 
z
M 12.453125 25.875 
Q 12.453125 15.921875 16.640625 10.984375 
Q 20.84375 6.0625 26.5625 6.0625 
Q 32.328125 6.0625 36.34375 10.765625 
Q 40.375 15.484375 40.375 25.140625 
Q 40.375 35.796875 36.265625 40.765625 
Q 32.171875 45.75 26.171875 45.75 
Q 20.3125 45.75 16.375 40.96875 
Q 12.453125 36.1875 12.453125 25.875 
z
" id="ArialMT-100"/>
     <path d="M 6.640625 61.46875 
L 6.640625 71.578125 
L 15.4375 71.578125 
L 15.4375 61.46875 
z
M 6.640625 0 
L 6.640625 51.859375 
L 15.4375 51.859375 
L 15.4375 0 
z
" id="ArialMT-105"/>
     <path d="M 3.078125 15.484375 
L 11.765625 16.84375 
Q 12.5 11.625 15.84375 8.84375 
Q 19.1875 6.0625 25.203125 6.0625 
Q 31.25 6.0625 34.171875 8.515625 
Q 37.109375 10.984375 37.109375 14.3125 
Q 37.109375 17.28125 34.515625 19 
Q 32.71875 20.171875 25.53125 21.96875 
Q 15.875 24.421875 12.140625 26.203125 
Q 8.40625 27.984375 6.46875 31.125 
Q 4.546875 34.28125 4.546875 38.09375 
Q 4.546875 41.546875 6.125 44.5 
Q 7.71875 47.46875 10.453125 49.421875 
Q 12.5 50.921875 16.03125 51.96875 
Q 19.578125 53.03125 23.640625 53.03125 
Q 29.734375 53.03125 34.34375 51.265625 
Q 38.96875 49.515625 41.15625 46.5 
Q 43.359375 43.5 44.1875 38.484375 
L 35.59375 37.3125 
Q 35.015625 41.3125 32.203125 43.546875 
Q 29.390625 45.796875 24.265625 45.796875 
Q 18.21875 45.796875 15.625 43.796875 
Q 13.03125 41.796875 13.03125 39.109375 
Q 13.03125 37.40625 14.109375 36.03125 
Q 15.1875 34.625 17.484375 33.6875 
Q 18.796875 33.203125 25.25 31.453125 
Q 34.578125 28.953125 38.25 27.359375 
Q 41.9375 25.78125 44.03125 22.75 
Q 46.140625 19.734375 46.140625 15.234375 
Q 46.140625 10.84375 43.578125 6.953125 
Q 41.015625 3.078125 36.171875 0.953125 
Q 31.34375 -1.171875 25.25 -1.171875 
Q 15.140625 -1.171875 9.84375 3.03125 
Q 4.546875 7.234375 3.078125 15.484375 
z
" id="ArialMT-115"/>
    </defs>
    <g style="fill:#cb495c;" transform="translate(377.413443 188.453138)scale(0.16 -0.16)">
     <use xlink:href="#ArialMT-65"/>
     <use x="66.699219" xlink:href="#ArialMT-100"/>
     <use x="122.314453" xlink:href="#ArialMT-109"/>
     <use x="205.615234" xlink:href="#ArialMT-105"/>
     <use x="227.832031" xlink:href="#ArialMT-110"/>
     <use x="283.447266" xlink:href="#ArialMT-105"/>
     <use x="305.664062" xlink:href="#ArialMT-115"/>
     <use x="355.664062" xlink:href="#ArialMT-116"/>
     <use x="383.447266" xlink:href="#ArialMT-114"/>
     <use x="416.748047" xlink:href="#ArialMT-97"/>
     <use x="472.363281" xlink:href="#ArialMT-116"/>
     <use x="500.146484" xlink:href="#ArialMT-105"/>
     <use x="522.363281" xlink:href="#ArialMT-118"/>
     <use x="572.363281" xlink:href="#ArialMT-101"/>
    </g>
   </g>
   <g id="text_18">
    <!-- Source: OECD, Main Economic Indicators -->
    <defs>
     <path d="M 40.4375 19 
L 49.078125 17.875 
Q 47.65625 8.9375 41.8125 3.875 
Q 35.984375 -1.171875 27.484375 -1.171875 
Q 16.84375 -1.171875 10.375 5.78125 
Q 3.90625 12.75 3.90625 25.734375 
Q 3.90625 34.125 6.6875 40.421875 
Q 9.46875 46.734375 15.15625 49.875 
Q 20.84375 53.03125 27.546875 53.03125 
Q 35.984375 53.03125 41.359375 48.75 
Q 46.734375 44.484375 48.25 36.625 
L 39.703125 35.296875 
Q 38.484375 40.53125 35.375 43.15625 
Q 32.28125 45.796875 27.875 45.796875 
Q 21.234375 45.796875 17.078125 41.03125 
Q 12.9375 36.28125 12.9375 25.984375 
Q 12.9375 15.53125 16.9375 10.796875 
Q 20.953125 6.0625 27.390625 6.0625 
Q 32.5625 6.0625 36.03125 9.234375 
Q 39.5 12.40625 40.4375 19 
z
" id="ArialMT-99"/>
     <path d="M 9.03125 41.84375 
L 9.03125 51.859375 
L 19.046875 51.859375 
L 19.046875 41.84375 
z
M 9.03125 0 
L 9.03125 10.015625 
L 19.046875 10.015625 
L 19.046875 0 
z
" id="ArialMT-58"/>
     <path d="M 4.828125 34.859375 
Q 4.828125 52.6875 14.390625 62.765625 
Q 23.96875 72.859375 39.109375 72.859375 
Q 49.03125 72.859375 56.984375 68.109375 
Q 64.9375 63.375 69.109375 54.90625 
Q 73.296875 46.4375 73.296875 35.6875 
Q 73.296875 24.8125 68.890625 16.21875 
Q 64.5 7.625 56.4375 3.203125 
Q 48.390625 -1.21875 39.0625 -1.21875 
Q 28.953125 -1.21875 20.984375 3.65625 
Q 13.03125 8.546875 8.921875 16.984375 
Q 4.828125 25.4375 4.828125 34.859375 
z
M 14.59375 34.71875 
Q 14.59375 21.78125 21.546875 14.328125 
Q 28.515625 6.890625 39.015625 6.890625 
Q 49.703125 6.890625 56.609375 14.40625 
Q 63.53125 21.921875 63.53125 35.75 
Q 63.53125 44.484375 60.578125 51 
Q 57.625 57.515625 51.921875 61.109375 
Q 46.234375 64.703125 39.15625 64.703125 
Q 29.109375 64.703125 21.84375 57.78125 
Q 14.59375 50.875 14.59375 34.71875 
z
" id="ArialMT-79"/>
     <path d="M 7.90625 0 
L 7.90625 71.578125 
L 59.671875 71.578125 
L 59.671875 63.140625 
L 17.390625 63.140625 
L 17.390625 41.21875 
L 56.984375 41.21875 
L 56.984375 32.8125 
L 17.390625 32.8125 
L 17.390625 8.453125 
L 61.328125 8.453125 
L 61.328125 0 
z
" id="ArialMT-69"/>
     <path d="M 58.796875 25.09375 
L 68.265625 22.703125 
Q 65.28125 11.03125 57.546875 4.90625 
Q 49.8125 -1.21875 38.625 -1.21875 
Q 27.046875 -1.21875 19.796875 3.484375 
Q 12.546875 8.203125 8.765625 17.140625 
Q 4.984375 26.078125 4.984375 36.328125 
Q 4.984375 47.515625 9.25 55.828125 
Q 13.53125 64.15625 21.40625 68.46875 
Q 29.296875 72.796875 38.765625 72.796875 
Q 49.515625 72.796875 56.828125 67.328125 
Q 64.15625 61.859375 67.046875 51.953125 
L 57.71875 49.75 
Q 55.21875 57.5625 50.484375 61.125 
Q 45.75 64.703125 38.578125 64.703125 
Q 30.328125 64.703125 24.78125 60.734375 
Q 19.234375 56.78125 16.984375 50.109375 
Q 14.75 43.453125 14.75 36.375 
Q 14.75 27.25 17.40625 20.4375 
Q 20.0625 13.625 25.671875 10.25 
Q 31.296875 6.890625 37.84375 6.890625 
Q 45.796875 6.890625 51.3125 11.46875 
Q 56.84375 16.0625 58.796875 25.09375 
z
" id="ArialMT-67"/>
     <path d="M 7.71875 0 
L 7.71875 71.578125 
L 32.375 71.578125 
Q 40.71875 71.578125 45.125 70.5625 
Q 51.265625 69.140625 55.609375 65.4375 
Q 61.28125 60.640625 64.078125 53.1875 
Q 66.890625 45.75 66.890625 36.1875 
Q 66.890625 28.03125 64.984375 21.734375 
Q 63.09375 15.4375 60.109375 11.296875 
Q 57.125 7.171875 53.578125 4.796875 
Q 50.046875 2.4375 45.046875 1.21875 
Q 40.046875 0 33.546875 0 
z
M 17.1875 8.453125 
L 32.46875 8.453125 
Q 39.546875 8.453125 43.578125 9.765625 
Q 47.609375 11.078125 50 13.484375 
Q 53.375 16.84375 55.25 22.53125 
Q 57.125 28.21875 57.125 36.328125 
Q 57.125 47.5625 53.4375 53.59375 
Q 49.75 59.625 44.484375 61.671875 
Q 40.671875 63.140625 32.234375 63.140625 
L 17.1875 63.140625 
z
" id="ArialMT-68"/>
     <path d="M 8.890625 0 
L 8.890625 10.015625 
L 18.890625 10.015625 
L 18.890625 0 
Q 18.890625 -5.515625 16.9375 -8.90625 
Q 14.984375 -12.3125 10.75 -14.15625 
L 8.296875 -10.40625 
Q 11.078125 -9.1875 12.390625 -6.8125 
Q 13.71875 -4.4375 13.875 0 
z
" id="ArialMT-44"/>
     <path d="M 7.421875 0 
L 7.421875 71.578125 
L 21.6875 71.578125 
L 38.625 20.90625 
Q 40.96875 13.8125 42.046875 10.296875 
Q 43.265625 14.203125 45.84375 21.78125 
L 62.984375 71.578125 
L 75.734375 71.578125 
L 75.734375 0 
L 66.609375 0 
L 66.609375 59.90625 
L 45.796875 0 
L 37.25 0 
L 16.546875 60.9375 
L 16.546875 0 
z
" id="ArialMT-77"/>
     <path d="M 9.328125 0 
L 9.328125 71.578125 
L 18.796875 71.578125 
L 18.796875 0 
z
" id="ArialMT-73"/>
    </defs>
    <g style="fill:#262626;" transform="translate(50.129427 294.064575)scale(0.16 -0.16)">
     <use xlink:href="#ArialMT-83"/>
     <use x="66.699219" xlink:href="#ArialMT-111"/>
     <use x="122.314453" xlink:href="#ArialMT-117"/>
     <use x="177.929688" xlink:href="#ArialMT-114"/>
     <use x="211.230469" xlink:href="#ArialMT-99"/>
     <use x="261.230469" xlink:href="#ArialMT-101"/>
     <use x="316.845703" xlink:href="#ArialMT-58"/>
     <use x="344.628906" xlink:href="#ArialMT-32"/>
     <use x="372.412109" xlink:href="#ArialMT-79"/>
     <use x="450.195312" xlink:href="#ArialMT-69"/>
     <use x="516.894531" xlink:href="#ArialMT-67"/>
     <use x="589.111328" xlink:href="#ArialMT-68"/>
     <use x="661.328125" xlink:href="#ArialMT-44"/>
     <use x="689.111328" xlink:href="#ArialMT-32"/>
     <use x="716.894531" xlink:href="#ArialMT-77"/>
     <use x="800.195312" xlink:href="#ArialMT-97"/>
     <use x="855.810547" xlink:href="#ArialMT-105"/>
     <use x="878.027344" xlink:href="#ArialMT-110"/>
     <use x="933.642578" xlink:href="#ArialMT-32"/>
     <use x="961.425781" xlink:href="#ArialMT-69"/>
     <use x="1028.125" xlink:href="#ArialMT-99"/>
     <use x="1078.125" xlink:href="#ArialMT-111"/>
     <use x="1133.740234" xlink:href="#ArialMT-110"/>
     <use x="1189.355469" xlink:href="#ArialMT-111"/>
     <use x="1244.970703" xlink:href="#ArialMT-109"/>
     <use x="1328.271484" xlink:href="#ArialMT-105"/>
     <use x="1350.488281" xlink:href="#ArialMT-99"/>
     <use x="1400.488281" xlink:href="#ArialMT-32"/>
     <use x="1428.271484" xlink:href="#ArialMT-73"/>
     <use x="1456.054688" xlink:href="#ArialMT-110"/>
     <use x="1511.669922" xlink:href="#ArialMT-100"/>
     <use x="1567.285156" xlink:href="#ArialMT-105"/>
     <use x="1589.501953" xlink:href="#ArialMT-99"/>
     <use x="1639.501953" xlink:href="#ArialMT-97"/>
     <use x="1695.117188" xlink:href="#ArialMT-116"/>
     <use x="1722.900391" xlink:href="#ArialMT-111"/>
     <use x="1778.515625" xlink:href="#ArialMT-114"/>
     <use x="1811.816406" xlink:href="#ArialMT-115"/>
    </g>
   </g>
   <g id="text_19">
    <!-- Data retrieved from St. Louis Fed FRED -->
    <defs>
     <path d="M 8.6875 0 
L 8.6875 45.015625 
L 0.921875 45.015625 
L 0.921875 51.859375 
L 8.6875 51.859375 
L 8.6875 57.375 
Q 8.6875 62.59375 9.625 65.140625 
Q 10.890625 68.5625 14.078125 70.671875 
Q 17.28125 72.796875 23.046875 72.796875 
Q 26.765625 72.796875 31.25 71.921875 
L 29.9375 64.265625 
Q 27.203125 64.75 24.75 64.75 
Q 20.75 64.75 19.09375 63.03125 
Q 17.4375 61.328125 17.4375 56.640625 
L 17.4375 51.859375 
L 27.546875 51.859375 
L 27.546875 45.015625 
L 17.4375 45.015625 
L 17.4375 0 
z
" id="ArialMT-102"/>
     <path d="M 9.078125 0 
L 9.078125 10.015625 
L 19.09375 10.015625 
L 19.09375 0 
z
" id="ArialMT-46"/>
     <path d="M 7.328125 0 
L 7.328125 71.578125 
L 16.796875 71.578125 
L 16.796875 8.453125 
L 52.046875 8.453125 
L 52.046875 0 
z
" id="ArialMT-76"/>
     <path d="M 8.203125 0 
L 8.203125 71.578125 
L 56.5 71.578125 
L 56.5 63.140625 
L 17.671875 63.140625 
L 17.671875 40.96875 
L 51.265625 40.96875 
L 51.265625 32.515625 
L 17.671875 32.515625 
L 17.671875 0 
z
" id="ArialMT-70"/>
    </defs>
    <g style="fill:#262626;" transform="translate(50.129427 313.991261)scale(0.16 -0.16)">
     <use xlink:href="#ArialMT-68"/>
     <use x="72.216797" xlink:href="#ArialMT-97"/>
     <use x="127.832031" xlink:href="#ArialMT-116"/>
     <use x="155.615234" xlink:href="#ArialMT-97"/>
     <use x="211.230469" xlink:href="#ArialMT-32"/>
     <use x="239.013672" xlink:href="#ArialMT-114"/>
     <use x="272.314453" xlink:href="#ArialMT-101"/>
     <use x="327.929688" xlink:href="#ArialMT-116"/>
     <use x="355.712891" xlink:href="#ArialMT-114"/>
     <use x="389.013672" xlink:href="#ArialMT-105"/>
     <use x="411.230469" xlink:href="#ArialMT-101"/>
     <use x="466.845703" xlink:href="#ArialMT-118"/>
     <use x="516.845703" xlink:href="#ArialMT-101"/>
     <use x="572.460938" xlink:href="#ArialMT-100"/>
     <use x="628.076172" xlink:href="#ArialMT-32"/>
     <use x="655.859375" xlink:href="#ArialMT-102"/>
     <use x="683.642578" xlink:href="#ArialMT-114"/>
     <use x="716.943359" xlink:href="#ArialMT-111"/>
     <use x="772.558594" xlink:href="#ArialMT-109"/>
     <use x="855.859375" xlink:href="#ArialMT-32"/>
     <use x="883.642578" xlink:href="#ArialMT-83"/>
     <use x="950.341797" xlink:href="#ArialMT-116"/>
     <use x="978.125" xlink:href="#ArialMT-46"/>
     <use x="1005.908203" xlink:href="#ArialMT-32"/>
     <use x="1033.691406" xlink:href="#ArialMT-76"/>
     <use x="1089.306641" xlink:href="#ArialMT-111"/>
     <use x="1144.921875" xlink:href="#ArialMT-117"/>
     <use x="1200.537109" xlink:href="#ArialMT-105"/>
     <use x="1222.753906" xlink:href="#ArialMT-115"/>
     <use x="1272.753906" xlink:href="#ArialMT-32"/>
     <use x="1300.537109" xlink:href="#ArialMT-70"/>
     <use x="1361.621094" xlink:href="#ArialMT-101"/>
     <use x="1417.236328" xlink:href="#ArialMT-100"/>
     <use x="1472.851562" xlink:href="#ArialMT-32"/>
     <use x="1500.634766" xlink:href="#ArialMT-70"/>
     <use x="1561.71875" xlink:href="#ArialMT-82"/>
     <use x="1633.935547" xlink:href="#ArialMT-69"/>
     <use x="1700.634766" xlink:href="#ArialMT-68"/>
    </g>
   </g>
  </g>
 </g>
 <defs>
  <clipPath id="peacc9c77e0">
   <rect height="217.44" width="334.8" x="55.831625" y="7.2"/>
  </clipPath>
 </defs>
</svg>
